<?xml version="1.0" encoding="utf-8" standalone="no"?>
<!DOCTYPE svg PUBLIC "-//W3C//DTD SVG 1.1//EN"
  "http://www.w3.org/Graphics/SVG/1.1/DTD/svg11.dtd">
<svg xmlns:xlink="http://www.w3.org/1999/xlink" width="424.827187pt" height="236.652627pt" viewBox="0 0 424.827187 236.652627" xmlns="http://www.w3.org/2000/svg" version="1.1">
 <metadata>
  <rdf:RDF xmlns:dc="http://purl.org/dc/elements/1.1/" xmlns:cc="http://creativecommons.org/ns#" xmlns:rdf="http://www.w3.org/1999/02/22-rdf-syntax-ns#">
   <cc:Work>
    <dc:type rdf:resource="http://purl.org/dc/dcmitype/StillImage"/>
    <dc:date>2025-04-25T09:40:51.479360</dc:date>
    <dc:format>image/svg+xml</dc:format>
    <dc:creator>
     <cc:Agent>
      <dc:title>Matplotlib v3.10.0, https://matplotlib.org/</dc:title>
     </cc:Agent>
    </dc:creator>
   </cc:Work>
  </rdf:RDF>
 </metadata>
 <defs>
  <style type="text/css">*{stroke-linejoin: round; stroke-linecap: butt}</style>
 </defs>
 <g id="figure_1">
  <g id="patch_1">
   <path d="M 0 236.652627 
L 424.827187 236.652627 
L 424.827187 0 
L 0 0 
z
" style="fill: #ffffff"/>
  </g>
  <g id="axes_1">
   <g id="patch_2">
    <path d="M 76.146563 173.578564 
L 410.946563 173.578564 
L 410.946563 7.258564 
L 76.146563 7.258564 
z
" style="fill: #ffffff"/>
   </g>
   <g id="patch_3">
    <path d="M 76.146643 173.578564 
L 89.645925 173.578564 
L 89.645925 38.300161 
L 76.146643 38.300161 
z
" clip-path="url(#peb7eda00ef)" style="fill: #0000ff; opacity: 0.8"/>
   </g>
   <g id="patch_4">
    <path d="M 89.645925 173.578564 
L 103.145207 173.578564 
L 103.145207 75.491074 
L 89.645925 75.491074 
z
" clip-path="url(#peb7eda00ef)" style="fill: #0000ff; opacity: 0.8"/>
   </g>
   <g id="patch_5">
    <path d="M 103.145207 173.578564 
L 116.644489 173.578564 
L 116.644489 102.519438 
L 103.145207 102.519438 
z
" clip-path="url(#peb7eda00ef)" style="fill: #0000ff; opacity: 0.8"/>
   </g>
   <g id="patch_6">
    <path d="M 116.644489 173.578564 
L 130.143772 173.578564 
L 130.143772 122.01919 
L 116.644489 122.01919 
z
" clip-path="url(#peb7eda00ef)" style="fill: #0000ff; opacity: 0.8"/>
   </g>
   <g id="patch_7">
    <path d="M 130.143772 173.578564 
L 143.643054 173.578564 
L 143.643054 136.302744 
L 130.143772 136.302744 
z
" clip-path="url(#peb7eda00ef)" style="fill: #0000ff; opacity: 0.8"/>
   </g>
   <g id="patch_8">
    <path d="M 143.643054 173.578564 
L 157.142336 173.578564 
L 157.142336 146.674638 
L 143.643054 146.674638 
z
" clip-path="url(#peb7eda00ef)" style="fill: #0000ff; opacity: 0.8"/>
   </g>
   <g id="patch_9">
    <path d="M 157.142336 173.578564 
L 170.641618 173.578564 
L 170.641618 154.005822 
L 157.142336 154.005822 
z
" clip-path="url(#peb7eda00ef)" style="fill: #0000ff; opacity: 0.8"/>
   </g>
   <g id="patch_10">
    <path d="M 170.641618 173.578564 
L 184.1409 173.578564 
L 184.1409 159.405468 
L 170.641618 159.405468 
z
" clip-path="url(#peb7eda00ef)" style="fill: #0000ff; opacity: 0.8"/>
   </g>
   <g id="patch_11">
    <path d="M 184.1409 173.578564 
L 197.640183 173.578564 
L 197.640183 163.327671 
L 184.1409 163.327671 
z
" clip-path="url(#peb7eda00ef)" style="fill: #0000ff; opacity: 0.8"/>
   </g>
   <g id="patch_12">
    <path d="M 197.640183 173.578564 
L 211.139465 173.578564 
L 211.139465 166.153307 
L 197.640183 166.153307 
z
" clip-path="url(#peb7eda00ef)" style="fill: #0000ff; opacity: 0.8"/>
   </g>
   <g id="patch_13">
    <path d="M 211.139465 173.578564 
L 224.638747 173.578564 
L 224.638747 168.190262 
L 211.139465 168.190262 
z
" clip-path="url(#peb7eda00ef)" style="fill: #0000ff; opacity: 0.8"/>
   </g>
   <g id="patch_14">
    <path d="M 224.638747 173.578564 
L 238.138029 173.578564 
L 238.138029 169.697726 
L 224.638747 169.697726 
z
" clip-path="url(#peb7eda00ef)" style="fill: #0000ff; opacity: 0.8"/>
   </g>
   <g id="patch_15">
    <path d="M 238.138029 173.578564 
L 251.637311 173.578564 
L 251.637311 170.758199 
L 238.138029 170.758199 
z
" clip-path="url(#peb7eda00ef)" style="fill: #0000ff; opacity: 0.8"/>
   </g>
   <g id="patch_16">
    <path d="M 251.637311 173.578564 
L 265.136593 173.578564 
L 265.136593 171.543213 
L 251.637311 171.543213 
z
" clip-path="url(#peb7eda00ef)" style="fill: #0000ff; opacity: 0.8"/>
   </g>
   <g id="patch_17">
    <path d="M 265.136593 173.578564 
L 278.635876 173.578564 
L 278.635876 172.127704 
L 265.136593 172.127704 
z
" clip-path="url(#peb7eda00ef)" style="fill: #0000ff; opacity: 0.8"/>
   </g>
   <g id="patch_18">
    <path d="M 278.635876 173.578564 
L 292.135158 173.578564 
L 292.135158 172.506748 
L 278.635876 172.506748 
z
" clip-path="url(#peb7eda00ef)" style="fill: #0000ff; opacity: 0.8"/>
   </g>
   <g id="patch_19">
    <path d="M 292.135158 173.578564 
L 305.63444 173.578564 
L 305.63444 172.788624 
L 292.135158 172.788624 
z
" clip-path="url(#peb7eda00ef)" style="fill: #0000ff; opacity: 0.8"/>
   </g>
   <g id="patch_20">
    <path d="M 305.63444 173.578564 
L 319.133722 173.578564 
L 319.133722 173.01527 
L 305.63444 173.01527 
z
" clip-path="url(#peb7eda00ef)" style="fill: #0000ff; opacity: 0.8"/>
   </g>
   <g id="patch_21">
    <path d="M 319.133722 173.578564 
L 332.633004 173.578564 
L 332.633004 173.175917 
L 319.133722 173.175917 
z
" clip-path="url(#peb7eda00ef)" style="fill: #0000ff; opacity: 0.8"/>
   </g>
   <g id="patch_22">
    <path d="M 332.633004 173.578564 
L 346.132287 173.578564 
L 346.132287 173.275834 
L 332.633004 173.275834 
z
" clip-path="url(#peb7eda00ef)" style="fill: #0000ff; opacity: 0.8"/>
   </g>
   <g id="patch_23">
    <path d="M 346.132287 173.578564 
L 359.631569 173.578564 
L 359.631569 173.364292 
L 346.132287 173.364292 
z
" clip-path="url(#peb7eda00ef)" style="fill: #0000ff; opacity: 0.8"/>
   </g>
   <g id="patch_24">
    <path d="M 359.631569 173.578564 
L 373.130851 173.578564 
L 373.130851 173.418147 
L 359.631569 173.418147 
z
" clip-path="url(#peb7eda00ef)" style="fill: #0000ff; opacity: 0.8"/>
   </g>
   <g id="patch_25">
    <path d="M 373.130851 173.578564 
L 386.630133 173.578564 
L 386.630133 173.471085 
L 373.130851 173.471085 
z
" clip-path="url(#peb7eda00ef)" style="fill: #0000ff; opacity: 0.8"/>
   </g>
   <g id="patch_26">
    <path d="M 386.630133 173.578564 
L 400.129415 173.578564 
L 400.129415 173.493543 
L 386.630133 173.493543 
z
" clip-path="url(#peb7eda00ef)" style="fill: #0000ff; opacity: 0.8"/>
   </g>
   <g id="patch_27">
    <path d="M 400.129415 173.578564 
L 413.628698 173.578564 
L 413.628698 173.518637 
L 400.129415 173.518637 
z
" clip-path="url(#peb7eda00ef)" style="fill: #0000ff; opacity: 0.8"/>
   </g>
   <g id="patch_28">
    <path d="M 413.628698 173.578564 
L 427.12798 173.578564 
L 427.12798 173.53972 
L 413.628698 173.53972 
z
" clip-path="url(#peb7eda00ef)" style="fill: #0000ff; opacity: 0.8"/>
   </g>
   <g id="patch_29">
    <path d="M 427.12798 173.578564 
L 440.627262 173.578564 
L 440.627262 173.545793 
L 427.12798 173.545793 
z
" clip-path="url(#peb7eda00ef)" style="fill: #0000ff; opacity: 0.8"/>
   </g>
   <g id="patch_30">
    <path d="M 440.627262 173.578564 
L 454.126544 173.578564 
L 454.126544 173.558741 
L 440.627262 173.558741 
z
" clip-path="url(#peb7eda00ef)" style="fill: #0000ff; opacity: 0.8"/>
   </g>
   <g id="patch_31">
    <path d="M 454.126544 173.578564 
L 467.625826 173.578564 
L 467.625826 173.564127 
L 454.126544 173.564127 
z
" clip-path="url(#peb7eda00ef)" style="fill: #0000ff; opacity: 0.8"/>
   </g>
   <g id="patch_32">
    <path d="M 467.625826 173.578564 
L 481.125109 173.578564 
L 481.125109 173.566991 
L 467.625826 173.566991 
z
" clip-path="url(#peb7eda00ef)" style="fill: #0000ff; opacity: 0.8"/>
   </g>
   <g id="patch_33">
    <path d="M 481.125109 173.578564 
L 494.624391 173.578564 
L 494.624391 173.570429 
L 481.125109 173.570429 
z
" clip-path="url(#peb7eda00ef)" style="fill: #0000ff; opacity: 0.8"/>
   </g>
   <g id="patch_34">
    <path d="M 494.624391 173.578564 
L 508.123673 173.578564 
L 508.123673 173.573293 
L 494.624391 173.573293 
z
" clip-path="url(#peb7eda00ef)" style="fill: #0000ff; opacity: 0.8"/>
   </g>
   <g id="patch_35">
    <path d="M 508.123673 173.578564 
L 521.622955 173.578564 
L 521.622955 173.574783 
L 508.123673 173.574783 
z
" clip-path="url(#peb7eda00ef)" style="fill: #0000ff; opacity: 0.8"/>
   </g>
   <g id="patch_36">
    <path d="M 521.622955 173.578564 
L 535.122237 173.578564 
L 535.122237 173.575585 
L 521.622955 173.575585 
z
" clip-path="url(#peb7eda00ef)" style="fill: #0000ff; opacity: 0.8"/>
   </g>
   <g id="patch_37">
    <path d="M 535.122237 173.578564 
L 548.62152 173.578564 
L 548.62152 173.575585 
L 535.122237 173.575585 
z
" clip-path="url(#peb7eda00ef)" style="fill: #0000ff; opacity: 0.8"/>
   </g>
   <g id="patch_38">
    <path d="M 548.62152 173.578564 
L 562.120802 173.578564 
L 562.120802 173.576845 
L 548.62152 173.576845 
z
" clip-path="url(#peb7eda00ef)" style="fill: #0000ff; opacity: 0.8"/>
   </g>
   <g id="patch_39">
    <path d="M 562.120802 173.578564 
L 575.620084 173.578564 
L 575.620084 173.577075 
L 562.120802 173.577075 
z
" clip-path="url(#peb7eda00ef)" style="fill: #0000ff; opacity: 0.8"/>
   </g>
   <g id="patch_40">
    <path d="M 575.620084 173.578564 
L 589.119366 173.578564 
L 589.119366 173.578106 
L 575.620084 173.578106 
z
" clip-path="url(#peb7eda00ef)" style="fill: #0000ff; opacity: 0.8"/>
   </g>
   <g id="patch_41">
    <path d="M 589.119366 173.578564 
L 602.618648 173.578564 
L 602.618648 173.577991 
L 589.119366 173.577991 
z
" clip-path="url(#peb7eda00ef)" style="fill: #0000ff; opacity: 0.8"/>
   </g>
   <g id="patch_42">
    <path d="M 602.618648 173.578564 
L 616.117931 173.578564 
L 616.117931 173.577991 
L 602.618648 173.577991 
z
" clip-path="url(#peb7eda00ef)" style="fill: #0000ff; opacity: 0.8"/>
   </g>
   <g id="patch_43">
    <path d="M 616.117931 173.578564 
L 629.617213 173.578564 
L 629.617213 173.57822 
L 616.117931 173.57822 
z
" clip-path="url(#peb7eda00ef)" style="fill: #0000ff; opacity: 0.8"/>
   </g>
   <g id="patch_44">
    <path d="M 629.617213 173.578564 
L 643.116495 173.578564 
L 643.116495 173.578106 
L 629.617213 173.578106 
z
" clip-path="url(#peb7eda00ef)" style="fill: #0000ff; opacity: 0.8"/>
   </g>
   <g id="patch_45">
    <path d="M 643.116495 173.578564 
L 656.615777 173.578564 
L 656.615777 173.578335 
L 643.116495 173.578335 
z
" clip-path="url(#peb7eda00ef)" style="fill: #0000ff; opacity: 0.8"/>
   </g>
   <g id="patch_46">
    <path d="M 656.615777 173.578564 
L 670.115059 173.578564 
L 670.115059 173.57845 
L 656.615777 173.57845 
z
" clip-path="url(#peb7eda00ef)" style="fill: #0000ff; opacity: 0.8"/>
   </g>
   <g id="patch_47">
    <path d="M 670.115059 173.578564 
L 683.614342 173.578564 
L 683.614342 173.57822 
L 670.115059 173.57822 
z
" clip-path="url(#peb7eda00ef)" style="fill: #0000ff; opacity: 0.8"/>
   </g>
   <g id="patch_48">
    <path d="M 683.614342 173.578564 
L 697.113624 173.578564 
L 697.113624 173.578335 
L 683.614342 173.578335 
z
" clip-path="url(#peb7eda00ef)" style="fill: #0000ff; opacity: 0.8"/>
   </g>
   <g id="patch_49">
    <path d="M 697.113624 173.578564 
L 710.612906 173.578564 
L 710.612906 173.578564 
L 697.113624 173.578564 
z
" clip-path="url(#peb7eda00ef)" style="fill: #0000ff; opacity: 0.8"/>
   </g>
   <g id="patch_50">
    <path d="M 710.612906 173.578564 
L 724.112188 173.578564 
L 724.112188 173.578564 
L 710.612906 173.578564 
z
" clip-path="url(#peb7eda00ef)" style="fill: #0000ff; opacity: 0.8"/>
   </g>
   <g id="patch_51">
    <path d="M 724.112188 173.578564 
L 737.61147 173.578564 
L 737.61147 173.578564 
L 724.112188 173.578564 
z
" clip-path="url(#peb7eda00ef)" style="fill: #0000ff; opacity: 0.8"/>
   </g>
   <g id="patch_52">
    <path d="M 737.61147 173.578564 
L 751.110753 173.578564 
L 751.110753 173.578335 
L 737.61147 173.578335 
z
" clip-path="url(#peb7eda00ef)" style="fill: #0000ff; opacity: 0.8"/>
   </g>
   <g id="patch_53">
    <path d="M 76.14665 173.578564 
L 88.244209 173.578564 
L 88.244209 36.052922 
L 76.14665 36.052922 
z
" clip-path="url(#peb7eda00ef)" style="fill: #ff0000; opacity: 0.6"/>
   </g>
   <g id="patch_54">
    <path d="M 88.244209 173.578564 
L 100.341767 173.578564 
L 100.341767 70.462199 
L 88.244209 70.462199 
z
" clip-path="url(#peb7eda00ef)" style="fill: #ff0000; opacity: 0.6"/>
   </g>
   <g id="patch_55">
    <path d="M 100.341767 173.578564 
L 112.439326 173.578564 
L 112.439326 96.583931 
L 100.341767 96.583931 
z
" clip-path="url(#peb7eda00ef)" style="fill: #ff0000; opacity: 0.6"/>
   </g>
   <g id="patch_56">
    <path d="M 112.439326 173.578564 
L 124.536885 173.578564 
L 124.536885 115.680283 
L 112.439326 115.680283 
z
" clip-path="url(#peb7eda00ef)" style="fill: #ff0000; opacity: 0.6"/>
   </g>
   <g id="patch_57">
    <path d="M 124.536885 173.578564 
L 136.634443 173.578564 
L 136.634443 130.467071 
L 124.536885 130.467071 
z
" clip-path="url(#peb7eda00ef)" style="fill: #ff0000; opacity: 0.6"/>
   </g>
   <g id="patch_58">
    <path d="M 136.634443 173.578564 
L 148.732002 173.578564 
L 148.732002 140.958356 
L 136.634443 140.958356 
z
" clip-path="url(#peb7eda00ef)" style="fill: #ff0000; opacity: 0.6"/>
   </g>
   <g id="patch_59">
    <path d="M 148.732002 173.578564 
L 160.829561 173.578564 
L 160.829561 149.16946 
L 148.732002 149.16946 
z
" clip-path="url(#peb7eda00ef)" style="fill: #ff0000; opacity: 0.6"/>
   </g>
   <g id="patch_60">
    <path d="M 160.829561 173.578564 
L 172.927119 173.578564 
L 172.927119 155.516845 
L 160.829561 155.516845 
z
" clip-path="url(#peb7eda00ef)" style="fill: #ff0000; opacity: 0.6"/>
   </g>
   <g id="patch_61">
    <path d="M 172.927119 173.578564 
L 185.024678 173.578564 
L 185.024678 159.945544 
L 172.927119 159.945544 
z
" clip-path="url(#peb7eda00ef)" style="fill: #ff0000; opacity: 0.6"/>
   </g>
   <g id="patch_62">
    <path d="M 185.024678 173.578564 
L 197.122237 173.578564 
L 197.122237 163.3708 
L 185.024678 163.3708 
z
" clip-path="url(#peb7eda00ef)" style="fill: #ff0000; opacity: 0.6"/>
   </g>
   <g id="patch_63">
    <path d="M 197.122237 173.578564 
L 209.219796 173.578564 
L 209.219796 165.894108 
L 197.122237 165.894108 
z
" clip-path="url(#peb7eda00ef)" style="fill: #ff0000; opacity: 0.6"/>
   </g>
   <g id="patch_64">
    <path d="M 209.219796 173.578564 
L 221.317354 173.578564 
L 221.317354 167.855232 
L 209.219796 167.855232 
z
" clip-path="url(#peb7eda00ef)" style="fill: #ff0000; opacity: 0.6"/>
   </g>
   <g id="patch_65">
    <path d="M 221.317354 173.578564 
L 233.414913 173.578564 
L 233.414913 169.337004 
L 221.317354 169.337004 
z
" clip-path="url(#peb7eda00ef)" style="fill: #ff0000; opacity: 0.6"/>
   </g>
   <g id="patch_66">
    <path d="M 233.414913 173.578564 
L 245.512472 173.578564 
L 245.512472 170.346838 
L 233.414913 170.346838 
z
" clip-path="url(#peb7eda00ef)" style="fill: #ff0000; opacity: 0.6"/>
   </g>
   <g id="patch_67">
    <path d="M 245.512472 173.578564 
L 257.61003 173.578564 
L 257.61003 171.178737 
L 245.512472 171.178737 
z
" clip-path="url(#peb7eda00ef)" style="fill: #ff0000; opacity: 0.6"/>
   </g>
   <g id="patch_68">
    <path d="M 257.61003 173.578564 
L 269.707589 173.578564 
L 269.707589 171.784382 
L 257.61003 171.784382 
z
" clip-path="url(#peb7eda00ef)" style="fill: #ff0000; opacity: 0.6"/>
   </g>
   <g id="patch_69">
    <path d="M 269.707589 173.578564 
L 281.805148 173.578564 
L 281.805148 172.229476 
L 269.707589 172.229476 
z
" clip-path="url(#peb7eda00ef)" style="fill: #ff0000; opacity: 0.6"/>
   </g>
   <g id="patch_70">
    <path d="M 281.805148 173.578564 
L 293.902706 173.578564 
L 293.902706 172.565151 
L 281.805148 172.565151 
z
" clip-path="url(#peb7eda00ef)" style="fill: #ff0000; opacity: 0.6"/>
   </g>
   <g id="patch_71">
    <path d="M 293.902706 173.578564 
L 306.000265 173.578564 
L 306.000265 172.840235 
L 293.902706 172.840235 
z
" clip-path="url(#peb7eda00ef)" style="fill: #ff0000; opacity: 0.6"/>
   </g>
   <g id="patch_72">
    <path d="M 306.000265 173.578564 
L 318.097824 173.578564 
L 318.097824 173.01817 
L 306.000265 173.01817 
z
" clip-path="url(#peb7eda00ef)" style="fill: #ff0000; opacity: 0.6"/>
   </g>
   <g id="patch_73">
    <path d="M 318.097824 173.578564 
L 330.195383 173.578564 
L 330.195383 173.168495 
L 318.097824 173.168495 
z
" clip-path="url(#peb7eda00ef)" style="fill: #ff0000; opacity: 0.6"/>
   </g>
   <g id="patch_74">
    <path d="M 330.195383 173.578564 
L 342.292941 173.578564 
L 342.292941 173.271012 
L 330.195383 173.271012 
z
" clip-path="url(#peb7eda00ef)" style="fill: #ff0000; opacity: 0.6"/>
   </g>
   <g id="patch_75">
    <path d="M 342.292941 173.578564 
L 354.3905 173.578564 
L 354.3905 173.350776 
L 342.292941 173.350776 
z
" clip-path="url(#peb7eda00ef)" style="fill: #ff0000; opacity: 0.6"/>
   </g>
   <g id="patch_76">
    <path d="M 354.3905 173.578564 
L 366.488059 173.578564 
L 366.488059 173.410599 
L 354.3905 173.410599 
z
" clip-path="url(#peb7eda00ef)" style="fill: #ff0000; opacity: 0.6"/>
   </g>
   <g id="patch_77">
    <path d="M 366.488059 173.578564 
L 378.585617 173.578564 
L 378.585617 173.437187 
L 366.488059 173.437187 
z
" clip-path="url(#peb7eda00ef)" style="fill: #ff0000; opacity: 0.6"/>
   </g>
   <g id="patch_78">
    <path d="M 378.585617 173.578564 
L 390.683176 173.578564 
L 390.683176 173.477836 
L 378.585617 173.477836 
z
" clip-path="url(#peb7eda00ef)" style="fill: #ff0000; opacity: 0.6"/>
   </g>
   <g id="patch_79">
    <path d="M 390.683176 173.578564 
L 402.780735 173.578564 
L 402.780735 173.50059 
L 390.683176 173.50059 
z
" clip-path="url(#peb7eda00ef)" style="fill: #ff0000; opacity: 0.6"/>
   </g>
   <g id="patch_80">
    <path d="M 402.780735 173.578564 
L 414.878293 173.578564 
L 414.878293 173.520275 
L 402.780735 173.520275 
z
" clip-path="url(#peb7eda00ef)" style="fill: #ff0000; opacity: 0.6"/>
   </g>
   <g id="patch_81">
    <path d="M 414.878293 173.578564 
L 426.975852 173.578564 
L 426.975852 173.53587 
L 414.878293 173.53587 
z
" clip-path="url(#peb7eda00ef)" style="fill: #ff0000; opacity: 0.6"/>
   </g>
   <g id="patch_82">
    <path d="M 426.975852 173.578564 
L 439.073411 173.578564 
L 439.073411 173.54942 
L 426.975852 173.54942 
z
" clip-path="url(#peb7eda00ef)" style="fill: #ff0000; opacity: 0.6"/>
   </g>
   <g id="patch_83">
    <path d="M 439.073411 173.578564 
L 451.17097 173.578564 
L 451.17097 173.555044 
L 439.073411 173.555044 
z
" clip-path="url(#peb7eda00ef)" style="fill: #ff0000; opacity: 0.6"/>
   </g>
   <g id="patch_84">
    <path d="M 451.17097 173.578564 
L 463.268528 173.578564 
L 463.268528 173.562969 
L 451.17097 173.562969 
z
" clip-path="url(#peb7eda00ef)" style="fill: #ff0000; opacity: 0.6"/>
   </g>
   <g id="patch_85">
    <path d="M 463.268528 173.578564 
L 475.366087 173.578564 
L 475.366087 173.566548 
L 463.268528 173.566548 
z
" clip-path="url(#peb7eda00ef)" style="fill: #ff0000; opacity: 0.6"/>
   </g>
   <g id="patch_86">
    <path d="M 475.366087 173.578564 
L 487.463646 173.578564 
L 487.463646 173.569361 
L 475.366087 173.569361 
z
" clip-path="url(#peb7eda00ef)" style="fill: #ff0000; opacity: 0.6"/>
   </g>
   <g id="patch_87">
    <path d="M 487.463646 173.578564 
L 499.561204 173.578564 
L 499.561204 173.571917 
L 487.463646 173.571917 
z
" clip-path="url(#peb7eda00ef)" style="fill: #ff0000; opacity: 0.6"/>
   </g>
   <g id="patch_88">
    <path d="M 499.561204 173.578564 
L 511.658763 173.578564 
L 511.658763 173.57294 
L 499.561204 173.57294 
z
" clip-path="url(#peb7eda00ef)" style="fill: #ff0000; opacity: 0.6"/>
   </g>
   <g id="patch_89">
    <path d="M 511.658763 173.578564 
L 523.756322 173.578564 
L 523.756322 173.574218 
L 511.658763 173.574218 
z
" clip-path="url(#peb7eda00ef)" style="fill: #ff0000; opacity: 0.6"/>
   </g>
   <g id="patch_90">
    <path d="M 523.756322 173.578564 
L 535.853881 173.578564 
L 535.853881 173.57703 
L 523.756322 173.57703 
z
" clip-path="url(#peb7eda00ef)" style="fill: #ff0000; opacity: 0.6"/>
   </g>
   <g id="patch_91">
    <path d="M 535.853881 173.578564 
L 547.951439 173.578564 
L 547.951439 173.576263 
L 535.853881 173.576263 
z
" clip-path="url(#peb7eda00ef)" style="fill: #ff0000; opacity: 0.6"/>
   </g>
   <g id="patch_92">
    <path d="M 547.951439 173.578564 
L 560.048998 173.578564 
L 560.048998 173.577286 
L 547.951439 173.577286 
z
" clip-path="url(#peb7eda00ef)" style="fill: #ff0000; opacity: 0.6"/>
   </g>
   <g id="patch_93">
    <path d="M 560.048998 173.578564 
L 572.146557 173.578564 
L 572.146557 173.577286 
L 560.048998 173.577286 
z
" clip-path="url(#peb7eda00ef)" style="fill: #ff0000; opacity: 0.6"/>
   </g>
   <g id="patch_94">
    <path d="M 572.146557 173.578564 
L 584.244115 173.578564 
L 584.244115 173.578308 
L 572.146557 173.578308 
z
" clip-path="url(#peb7eda00ef)" style="fill: #ff0000; opacity: 0.6"/>
   </g>
   <g id="patch_95">
    <path d="M 584.244115 173.578564 
L 596.341674 173.578564 
L 596.341674 173.577797 
L 584.244115 173.577797 
z
" clip-path="url(#peb7eda00ef)" style="fill: #ff0000; opacity: 0.6"/>
   </g>
   <g id="patch_96">
    <path d="M 596.341674 173.578564 
L 608.439233 173.578564 
L 608.439233 173.577286 
L 596.341674 173.577286 
z
" clip-path="url(#peb7eda00ef)" style="fill: #ff0000; opacity: 0.6"/>
   </g>
   <g id="patch_97">
    <path d="M 608.439233 173.578564 
L 620.536791 173.578564 
L 620.536791 173.578053 
L 608.439233 173.578053 
z
" clip-path="url(#peb7eda00ef)" style="fill: #ff0000; opacity: 0.6"/>
   </g>
   <g id="patch_98">
    <path d="M 620.536791 173.578564 
L 632.63435 173.578564 
L 632.63435 173.578308 
L 620.536791 173.578308 
z
" clip-path="url(#peb7eda00ef)" style="fill: #ff0000; opacity: 0.6"/>
   </g>
   <g id="patch_99">
    <path d="M 632.63435 173.578564 
L 644.731909 173.578564 
L 644.731909 173.578564 
L 632.63435 173.578564 
z
" clip-path="url(#peb7eda00ef)" style="fill: #ff0000; opacity: 0.6"/>
   </g>
   <g id="patch_100">
    <path d="M 644.731909 173.578564 
L 656.829468 173.578564 
L 656.829468 173.578308 
L 644.731909 173.578308 
z
" clip-path="url(#peb7eda00ef)" style="fill: #ff0000; opacity: 0.6"/>
   </g>
   <g id="patch_101">
    <path d="M 656.829468 173.578564 
L 668.927026 173.578564 
L 668.927026 173.578053 
L 656.829468 173.578053 
z
" clip-path="url(#peb7eda00ef)" style="fill: #ff0000; opacity: 0.6"/>
   </g>
   <g id="patch_102">
    <path d="M 668.927026 173.578564 
L 681.024585 173.578564 
L 681.024585 173.578053 
L 668.927026 173.578053 
z
" clip-path="url(#peb7eda00ef)" style="fill: #ff0000; opacity: 0.6"/>
   </g>
   <g id="patch_103">
    <path d="M 76.146617 173.578564 
L 87.719339 173.578564 
L 87.719339 35.088889 
L 76.146617 35.088889 
z
" clip-path="url(#peb7eda00ef)" style="fill: #008000; opacity: 0.4"/>
   </g>
   <g id="patch_104">
    <path d="M 87.719339 173.578564 
L 99.292062 173.578564 
L 99.292062 68.522491 
L 87.719339 68.522491 
z
" clip-path="url(#peb7eda00ef)" style="fill: #008000; opacity: 0.4"/>
   </g>
   <g id="patch_105">
    <path d="M 99.292062 173.578564 
L 110.864785 173.578564 
L 110.864785 93.851671 
L 99.292062 93.851671 
z
" clip-path="url(#peb7eda00ef)" style="fill: #008000; opacity: 0.4"/>
   </g>
   <g id="patch_106">
    <path d="M 110.864785 173.578564 
L 122.437507 173.578564 
L 122.437507 113.104989 
L 110.864785 113.104989 
z
" clip-path="url(#peb7eda00ef)" style="fill: #008000; opacity: 0.4"/>
   </g>
   <g id="patch_107">
    <path d="M 122.437507 173.578564 
L 134.01023 173.578564 
L 134.01023 128.075014 
L 122.437507 128.075014 
z
" clip-path="url(#peb7eda00ef)" style="fill: #008000; opacity: 0.4"/>
   </g>
   <g id="patch_108">
    <path d="M 134.01023 173.578564 
L 145.582953 173.578564 
L 145.582953 138.858947 
L 134.01023 138.858947 
z
" clip-path="url(#peb7eda00ef)" style="fill: #008000; opacity: 0.4"/>
   </g>
   <g id="patch_109">
    <path d="M 145.582953 173.578564 
L 157.155675 173.578564 
L 157.155675 147.203094 
L 145.582953 147.203094 
z
" clip-path="url(#peb7eda00ef)" style="fill: #008000; opacity: 0.4"/>
   </g>
   <g id="patch_110">
    <path d="M 157.155675 173.578564 
L 168.728398 173.578564 
L 168.728398 153.679435 
L 157.155675 153.679435 
z
" clip-path="url(#peb7eda00ef)" style="fill: #008000; opacity: 0.4"/>
   </g>
   <g id="patch_111">
    <path d="M 168.728398 173.578564 
L 180.301121 173.578564 
L 180.301121 158.379093 
L 168.728398 158.379093 
z
" clip-path="url(#peb7eda00ef)" style="fill: #008000; opacity: 0.4"/>
   </g>
   <g id="patch_112">
    <path d="M 180.301121 173.578564 
L 191.873843 173.578564 
L 191.873843 162.072182 
L 180.301121 162.072182 
z
" clip-path="url(#peb7eda00ef)" style="fill: #008000; opacity: 0.4"/>
   </g>
   <g id="patch_113">
    <path d="M 191.873843 173.578564 
L 203.446566 173.578564 
L 203.446566 164.860575 
L 191.873843 164.860575 
z
" clip-path="url(#peb7eda00ef)" style="fill: #008000; opacity: 0.4"/>
   </g>
   <g id="patch_114">
    <path d="M 203.446566 173.578564 
L 215.019289 173.578564 
L 215.019289 167.008763 
L 203.446566 167.008763 
z
" clip-path="url(#peb7eda00ef)" style="fill: #008000; opacity: 0.4"/>
   </g>
   <g id="patch_115">
    <path d="M 215.019289 173.578564 
L 226.592011 173.578564 
L 226.592011 168.638245 
L 215.019289 168.638245 
z
" clip-path="url(#peb7eda00ef)" style="fill: #008000; opacity: 0.4"/>
   </g>
   <g id="patch_116">
    <path d="M 226.592011 173.578564 
L 238.164734 173.578564 
L 238.164734 169.804164 
L 226.592011 169.804164 
z
" clip-path="url(#peb7eda00ef)" style="fill: #008000; opacity: 0.4"/>
   </g>
   <g id="patch_117">
    <path d="M 238.164734 173.578564 
L 249.737457 173.578564 
L 249.737457 170.665402 
L 238.164734 170.665402 
z
" clip-path="url(#peb7eda00ef)" style="fill: #008000; opacity: 0.4"/>
   </g>
   <g id="patch_118">
    <path d="M 249.737457 173.578564 
L 261.310179 173.578564 
L 261.310179 171.470097 
L 249.737457 171.470097 
z
" clip-path="url(#peb7eda00ef)" style="fill: #008000; opacity: 0.4"/>
   </g>
   <g id="patch_119">
    <path d="M 261.310179 173.578564 
L 272.882902 173.578564 
L 272.882902 171.922445 
L 261.310179 171.922445 
z
" clip-path="url(#peb7eda00ef)" style="fill: #008000; opacity: 0.4"/>
   </g>
   <g id="patch_120">
    <path d="M 272.882902 173.578564 
L 284.455625 173.578564 
L 284.455625 172.310773 
L 272.882902 172.310773 
z
" clip-path="url(#peb7eda00ef)" style="fill: #008000; opacity: 0.4"/>
   </g>
   <g id="patch_121">
    <path d="M 284.455625 173.578564 
L 296.028347 173.578564 
L 296.028347 172.64396 
L 284.455625 172.64396 
z
" clip-path="url(#peb7eda00ef)" style="fill: #008000; opacity: 0.4"/>
   </g>
   <g id="patch_122">
    <path d="M 296.028347 173.578564 
L 307.60107 173.578564 
L 307.60107 172.873872 
L 296.028347 172.873872 
z
" clip-path="url(#peb7eda00ef)" style="fill: #008000; opacity: 0.4"/>
   </g>
   <g id="patch_123">
    <path d="M 307.60107 173.578564 
L 319.173793 173.578564 
L 319.173793 173.010792 
L 307.60107 173.010792 
z
" clip-path="url(#peb7eda00ef)" style="fill: #008000; opacity: 0.4"/>
   </g>
   <g id="patch_124">
    <path d="M 319.173793 173.578564 
L 330.746515 173.578564 
L 330.746515 173.173413 
L 319.173793 173.173413 
z
" clip-path="url(#peb7eda00ef)" style="fill: #008000; opacity: 0.4"/>
   </g>
   <g id="patch_125">
    <path d="M 330.746515 173.578564 
L 342.319238 173.578564 
L 342.319238 173.254724 
L 330.746515 173.254724 
z
" clip-path="url(#peb7eda00ef)" style="fill: #008000; opacity: 0.4"/>
   </g>
   <g id="patch_126">
    <path d="M 342.319238 173.578564 
L 353.891961 173.578564 
L 353.891961 173.34024 
L 342.319238 173.34024 
z
" clip-path="url(#peb7eda00ef)" style="fill: #008000; opacity: 0.4"/>
   </g>
   <g id="patch_127">
    <path d="M 353.891961 173.578564 
L 365.464683 173.578564 
L 365.464683 173.393512 
L 353.891961 173.393512 
z
" clip-path="url(#peb7eda00ef)" style="fill: #008000; opacity: 0.4"/>
   </g>
   <g id="patch_128">
    <path d="M 365.464683 173.578564 
L 377.037406 173.578564 
L 377.037406 173.449589 
L 365.464683 173.449589 
z
" clip-path="url(#peb7eda00ef)" style="fill: #008000; opacity: 0.4"/>
   </g>
   <g id="patch_129">
    <path d="M 377.037406 173.578564 
L 388.610129 173.578564 
L 388.610129 173.476692 
L 377.037406 173.476692 
z
" clip-path="url(#peb7eda00ef)" style="fill: #008000; opacity: 0.4"/>
   </g>
   <g id="patch_130">
    <path d="M 388.610129 173.578564 
L 400.182851 173.578564 
L 400.182851 173.500525 
L 388.610129 173.500525 
z
" clip-path="url(#peb7eda00ef)" style="fill: #008000; opacity: 0.4"/>
   </g>
   <g id="patch_131">
    <path d="M 400.182851 173.578564 
L 411.755574 173.578564 
L 411.755574 173.512675 
L 400.182851 173.512675 
z
" clip-path="url(#peb7eda00ef)" style="fill: #008000; opacity: 0.4"/>
   </g>
   <g id="patch_132">
    <path d="M 411.755574 173.578564 
L 423.328297 173.578564 
L 423.328297 173.53604 
L 411.755574 173.53604 
z
" clip-path="url(#peb7eda00ef)" style="fill: #008000; opacity: 0.4"/>
   </g>
   <g id="patch_133">
    <path d="M 423.328297 173.578564 
L 434.901019 173.578564 
L 434.901019 173.543984 
L 423.328297 173.543984 
z
" clip-path="url(#peb7eda00ef)" style="fill: #008000; opacity: 0.4"/>
   </g>
   <g id="patch_134">
    <path d="M 434.901019 173.578564 
L 446.473742 173.578564 
L 446.473742 173.553797 
L 434.901019 173.553797 
z
" clip-path="url(#peb7eda00ef)" style="fill: #008000; opacity: 0.4"/>
   </g>
   <g id="patch_135">
    <path d="M 446.473742 173.578564 
L 458.046465 173.578564 
L 458.046465 173.561274 
L 446.473742 173.561274 
z
" clip-path="url(#peb7eda00ef)" style="fill: #008000; opacity: 0.4"/>
   </g>
   <g id="patch_136">
    <path d="M 458.046465 173.578564 
L 469.619187 173.578564 
L 469.619187 173.562676 
L 458.046465 173.562676 
z
" clip-path="url(#peb7eda00ef)" style="fill: #008000; opacity: 0.4"/>
   </g>
   <g id="patch_137">
    <path d="M 469.619187 173.578564 
L 481.19191 173.578564 
L 481.19191 173.562676 
L 469.619187 173.562676 
z
" clip-path="url(#peb7eda00ef)" style="fill: #008000; opacity: 0.4"/>
   </g>
   <g id="patch_138">
    <path d="M 481.19191 173.578564 
L 492.764633 173.578564 
L 492.764633 173.566414 
L 481.19191 173.566414 
z
" clip-path="url(#peb7eda00ef)" style="fill: #008000; opacity: 0.4"/>
   </g>
   <g id="patch_139">
    <path d="M 492.764633 173.578564 
L 504.337355 173.578564 
L 504.337355 173.572489 
L 492.764633 173.572489 
z
" clip-path="url(#peb7eda00ef)" style="fill: #008000; opacity: 0.4"/>
   </g>
   <g id="patch_140">
    <path d="M 504.337355 173.578564 
L 515.910078 173.578564 
L 515.910078 173.574358 
L 504.337355 173.574358 
z
" clip-path="url(#peb7eda00ef)" style="fill: #008000; opacity: 0.4"/>
   </g>
   <g id="patch_141">
    <path d="M 515.910078 173.578564 
L 527.482801 173.578564 
L 527.482801 173.574358 
L 515.910078 173.574358 
z
" clip-path="url(#peb7eda00ef)" style="fill: #008000; opacity: 0.4"/>
   </g>
   <g id="patch_142">
    <path d="M 527.482801 173.578564 
L 539.055523 173.578564 
L 539.055523 173.577162 
L 527.482801 173.577162 
z
" clip-path="url(#peb7eda00ef)" style="fill: #008000; opacity: 0.4"/>
   </g>
   <g id="patch_143">
    <path d="M 539.055523 173.578564 
L 550.628246 173.578564 
L 550.628246 173.576695 
L 539.055523 173.576695 
z
" clip-path="url(#peb7eda00ef)" style="fill: #008000; opacity: 0.4"/>
   </g>
   <g id="patch_144">
    <path d="M 550.628246 173.578564 
L 562.200969 173.578564 
L 562.200969 173.577162 
L 550.628246 173.577162 
z
" clip-path="url(#peb7eda00ef)" style="fill: #008000; opacity: 0.4"/>
   </g>
   <g id="patch_145">
    <path d="M 562.200969 173.578564 
L 573.773691 173.578564 
L 573.773691 173.57763 
L 562.200969 173.57763 
z
" clip-path="url(#peb7eda00ef)" style="fill: #008000; opacity: 0.4"/>
   </g>
   <g id="patch_146">
    <path d="M 573.773691 173.578564 
L 585.346414 173.578564 
L 585.346414 173.578097 
L 573.773691 173.578097 
z
" clip-path="url(#peb7eda00ef)" style="fill: #008000; opacity: 0.4"/>
   </g>
   <g id="patch_147">
    <path d="M 585.346414 173.578564 
L 596.919137 173.578564 
L 596.919137 173.578564 
L 585.346414 173.578564 
z
" clip-path="url(#peb7eda00ef)" style="fill: #008000; opacity: 0.4"/>
   </g>
   <g id="patch_148">
    <path d="M 596.919137 173.578564 
L 608.491859 173.578564 
L 608.491859 173.578564 
L 596.919137 173.578564 
z
" clip-path="url(#peb7eda00ef)" style="fill: #008000; opacity: 0.4"/>
   </g>
   <g id="patch_149">
    <path d="M 608.491859 173.578564 
L 620.064582 173.578564 
L 620.064582 173.578564 
L 608.491859 173.578564 
z
" clip-path="url(#peb7eda00ef)" style="fill: #008000; opacity: 0.4"/>
   </g>
   <g id="patch_150">
    <path d="M 620.064582 173.578564 
L 631.637305 173.578564 
L 631.637305 173.578564 
L 620.064582 173.578564 
z
" clip-path="url(#peb7eda00ef)" style="fill: #008000; opacity: 0.4"/>
   </g>
   <g id="patch_151">
    <path d="M 631.637305 173.578564 
L 643.210027 173.578564 
L 643.210027 173.578564 
L 631.637305 173.578564 
z
" clip-path="url(#peb7eda00ef)" style="fill: #008000; opacity: 0.4"/>
   </g>
   <g id="patch_152">
    <path d="M 643.210027 173.578564 
L 654.78275 173.578564 
L 654.78275 173.57763 
L 643.210027 173.57763 
z
" clip-path="url(#peb7eda00ef)" style="fill: #008000; opacity: 0.4"/>
   </g>
   <g id="matplotlib.axis_1">
    <g id="xtick_1">
     <g id="line2d_1">
      <defs>
       <path id="m826b99a187" d="M 0 0 
L 0 6 
" style="stroke: #000000; stroke-width: 2"/>
      </defs>
      <g>
       <use xlink:href="#m826b99a187" x="76.146563" y="173.578564" style="stroke: #000000; stroke-width: 2"/>
      </g>
     </g>
     <g id="text_1">
      <!-- 0 -->
      <g transform="translate(69.465937 199.035283) scale(0.21 -0.21)">
       <defs>
        <path id="DejaVuSans-30" d="M 2034 4250 
Q 1547 4250 1301 3770 
Q 1056 3291 1056 2328 
Q 1056 1369 1301 889 
Q 1547 409 2034 409 
Q 2525 409 2770 889 
Q 3016 1369 3016 2328 
Q 3016 3291 2770 3770 
Q 2525 4250 2034 4250 
z
M 2034 4750 
Q 2819 4750 3233 4129 
Q 3647 3509 3647 2328 
Q 3647 1150 3233 529 
Q 2819 -91 2034 -91 
Q 1250 -91 836 529 
Q 422 1150 422 2328 
Q 422 3509 836 4129 
Q 1250 4750 2034 4750 
z
" transform="scale(0.015625)"/>
       </defs>
       <use xlink:href="#DejaVuSans-30"/>
      </g>
     </g>
    </g>
    <g id="xtick_2">
     <g id="line2d_2">
      <g>
       <use xlink:href="#m826b99a187" x="159.846563" y="173.578564" style="stroke: #000000; stroke-width: 2"/>
      </g>
     </g>
     <g id="text_2">
      <!-- 2 -->
      <g transform="translate(153.165938 199.035283) scale(0.21 -0.21)">
       <defs>
        <path id="DejaVuSans-32" d="M 1228 531 
L 3431 531 
L 3431 0 
L 469 0 
L 469 531 
Q 828 903 1448 1529 
Q 2069 2156 2228 2338 
Q 2531 2678 2651 2914 
Q 2772 3150 2772 3378 
Q 2772 3750 2511 3984 
Q 2250 4219 1831 4219 
Q 1534 4219 1204 4116 
Q 875 4013 500 3803 
L 500 4441 
Q 881 4594 1212 4672 
Q 1544 4750 1819 4750 
Q 2544 4750 2975 4387 
Q 3406 4025 3406 3419 
Q 3406 3131 3298 2873 
Q 3191 2616 2906 2266 
Q 2828 2175 2409 1742 
Q 1991 1309 1228 531 
z
" transform="scale(0.015625)"/>
       </defs>
       <use xlink:href="#DejaVuSans-32"/>
      </g>
     </g>
    </g>
    <g id="xtick_3">
     <g id="line2d_3">
      <g>
       <use xlink:href="#m826b99a187" x="243.546562" y="173.578564" style="stroke: #000000; stroke-width: 2"/>
      </g>
     </g>
     <g id="text_3">
      <!-- 4 -->
      <g transform="translate(236.865938 199.035283) scale(0.21 -0.21)">
       <defs>
        <path id="DejaVuSans-34" d="M 2419 4116 
L 825 1625 
L 2419 1625 
L 2419 4116 
z
M 2253 4666 
L 3047 4666 
L 3047 1625 
L 3713 1625 
L 3713 1100 
L 3047 1100 
L 3047 0 
L 2419 0 
L 2419 1100 
L 313 1100 
L 313 1709 
L 2253 4666 
z
" transform="scale(0.015625)"/>
       </defs>
       <use xlink:href="#DejaVuSans-34"/>
      </g>
     </g>
    </g>
    <g id="xtick_4">
     <g id="line2d_4">
      <g>
       <use xlink:href="#m826b99a187" x="327.246563" y="173.578564" style="stroke: #000000; stroke-width: 2"/>
      </g>
     </g>
     <g id="text_4">
      <!-- 6 -->
      <g transform="translate(320.565938 199.035283) scale(0.21 -0.21)">
       <defs>
        <path id="DejaVuSans-36" d="M 2113 2584 
Q 1688 2584 1439 2293 
Q 1191 2003 1191 1497 
Q 1191 994 1439 701 
Q 1688 409 2113 409 
Q 2538 409 2786 701 
Q 3034 994 3034 1497 
Q 3034 2003 2786 2293 
Q 2538 2584 2113 2584 
z
M 3366 4563 
L 3366 3988 
Q 3128 4100 2886 4159 
Q 2644 4219 2406 4219 
Q 1781 4219 1451 3797 
Q 1122 3375 1075 2522 
Q 1259 2794 1537 2939 
Q 1816 3084 2150 3084 
Q 2853 3084 3261 2657 
Q 3669 2231 3669 1497 
Q 3669 778 3244 343 
Q 2819 -91 2113 -91 
Q 1303 -91 875 529 
Q 447 1150 447 2328 
Q 447 3434 972 4092 
Q 1497 4750 2381 4750 
Q 2619 4750 2861 4703 
Q 3103 4656 3366 4563 
z
" transform="scale(0.015625)"/>
       </defs>
       <use xlink:href="#DejaVuSans-36"/>
      </g>
     </g>
    </g>
    <g id="xtick_5">
     <g id="line2d_5">
      <g>
       <use xlink:href="#m826b99a187" x="410.946563" y="173.578564" style="stroke: #000000; stroke-width: 2"/>
      </g>
     </g>
     <g id="text_5">
      <!-- 8 -->
      <g transform="translate(404.265938 199.035283) scale(0.21 -0.21)">
       <defs>
        <path id="DejaVuSans-38" d="M 2034 2216 
Q 1584 2216 1326 1975 
Q 1069 1734 1069 1313 
Q 1069 891 1326 650 
Q 1584 409 2034 409 
Q 2484 409 2743 651 
Q 3003 894 3003 1313 
Q 3003 1734 2745 1975 
Q 2488 2216 2034 2216 
z
M 1403 2484 
Q 997 2584 770 2862 
Q 544 3141 544 3541 
Q 544 4100 942 4425 
Q 1341 4750 2034 4750 
Q 2731 4750 3128 4425 
Q 3525 4100 3525 3541 
Q 3525 3141 3298 2862 
Q 3072 2584 2669 2484 
Q 3125 2378 3379 2068 
Q 3634 1759 3634 1313 
Q 3634 634 3220 271 
Q 2806 -91 2034 -91 
Q 1263 -91 848 271 
Q 434 634 434 1313 
Q 434 1759 690 2068 
Q 947 2378 1403 2484 
z
M 1172 3481 
Q 1172 3119 1398 2916 
Q 1625 2713 2034 2713 
Q 2441 2713 2670 2916 
Q 2900 3119 2900 3481 
Q 2900 3844 2670 4047 
Q 2441 4250 2034 4250 
Q 1625 4250 1398 4047 
Q 1172 3844 1172 3481 
z
" transform="scale(0.015625)"/>
       </defs>
       <use xlink:href="#DejaVuSans-38"/>
      </g>
     </g>
    </g>
    <g id="text_6">
     <!-- lifetimes [$10^{−9}$ × $10^{-9}s$] -->
     <g transform="translate(116.706563 225.085283) scale(0.21 -0.21)">
      <defs>
       <path id="DejaVuSans-6c" d="M 603 4863 
L 1178 4863 
L 1178 0 
L 603 0 
L 603 4863 
z
" transform="scale(0.015625)"/>
       <path id="DejaVuSans-69" d="M 603 3500 
L 1178 3500 
L 1178 0 
L 603 0 
L 603 3500 
z
M 603 4863 
L 1178 4863 
L 1178 4134 
L 603 4134 
L 603 4863 
z
" transform="scale(0.015625)"/>
       <path id="DejaVuSans-66" d="M 2375 4863 
L 2375 4384 
L 1825 4384 
Q 1516 4384 1395 4259 
Q 1275 4134 1275 3809 
L 1275 3500 
L 2222 3500 
L 2222 3053 
L 1275 3053 
L 1275 0 
L 697 0 
L 697 3053 
L 147 3053 
L 147 3500 
L 697 3500 
L 697 3744 
Q 697 4328 969 4595 
Q 1241 4863 1831 4863 
L 2375 4863 
z
" transform="scale(0.015625)"/>
       <path id="DejaVuSans-65" d="M 3597 1894 
L 3597 1613 
L 953 1613 
Q 991 1019 1311 708 
Q 1631 397 2203 397 
Q 2534 397 2845 478 
Q 3156 559 3463 722 
L 3463 178 
Q 3153 47 2828 -22 
Q 2503 -91 2169 -91 
Q 1331 -91 842 396 
Q 353 884 353 1716 
Q 353 2575 817 3079 
Q 1281 3584 2069 3584 
Q 2775 3584 3186 3129 
Q 3597 2675 3597 1894 
z
M 3022 2063 
Q 3016 2534 2758 2815 
Q 2500 3097 2075 3097 
Q 1594 3097 1305 2825 
Q 1016 2553 972 2059 
L 3022 2063 
z
" transform="scale(0.015625)"/>
       <path id="DejaVuSans-74" d="M 1172 4494 
L 1172 3500 
L 2356 3500 
L 2356 3053 
L 1172 3053 
L 1172 1153 
Q 1172 725 1289 603 
Q 1406 481 1766 481 
L 2356 481 
L 2356 0 
L 1766 0 
Q 1100 0 847 248 
Q 594 497 594 1153 
L 594 3053 
L 172 3053 
L 172 3500 
L 594 3500 
L 594 4494 
L 1172 4494 
z
" transform="scale(0.015625)"/>
       <path id="DejaVuSans-6d" d="M 3328 2828 
Q 3544 3216 3844 3400 
Q 4144 3584 4550 3584 
Q 5097 3584 5394 3201 
Q 5691 2819 5691 2113 
L 5691 0 
L 5113 0 
L 5113 2094 
Q 5113 2597 4934 2840 
Q 4756 3084 4391 3084 
Q 3944 3084 3684 2787 
Q 3425 2491 3425 1978 
L 3425 0 
L 2847 0 
L 2847 2094 
Q 2847 2600 2669 2842 
Q 2491 3084 2119 3084 
Q 1678 3084 1418 2786 
Q 1159 2488 1159 1978 
L 1159 0 
L 581 0 
L 581 3500 
L 1159 3500 
L 1159 2956 
Q 1356 3278 1631 3431 
Q 1906 3584 2284 3584 
Q 2666 3584 2933 3390 
Q 3200 3197 3328 2828 
z
" transform="scale(0.015625)"/>
       <path id="DejaVuSans-73" d="M 2834 3397 
L 2834 2853 
Q 2591 2978 2328 3040 
Q 2066 3103 1784 3103 
Q 1356 3103 1142 2972 
Q 928 2841 928 2578 
Q 928 2378 1081 2264 
Q 1234 2150 1697 2047 
L 1894 2003 
Q 2506 1872 2764 1633 
Q 3022 1394 3022 966 
Q 3022 478 2636 193 
Q 2250 -91 1575 -91 
Q 1294 -91 989 -36 
Q 684 19 347 128 
L 347 722 
Q 666 556 975 473 
Q 1284 391 1588 391 
Q 1994 391 2212 530 
Q 2431 669 2431 922 
Q 2431 1156 2273 1281 
Q 2116 1406 1581 1522 
L 1381 1569 
Q 847 1681 609 1914 
Q 372 2147 372 2553 
Q 372 3047 722 3315 
Q 1072 3584 1716 3584 
Q 2034 3584 2315 3537 
Q 2597 3491 2834 3397 
z
" transform="scale(0.015625)"/>
       <path id="DejaVuSans-20" transform="scale(0.015625)"/>
       <path id="DejaVuSans-5b" d="M 550 4863 
L 1875 4863 
L 1875 4416 
L 1125 4416 
L 1125 -397 
L 1875 -397 
L 1875 -844 
L 550 -844 
L 550 4863 
z
" transform="scale(0.015625)"/>
       <path id="DejaVuSans-31" d="M 794 531 
L 1825 531 
L 1825 4091 
L 703 3866 
L 703 4441 
L 1819 4666 
L 2450 4666 
L 2450 531 
L 3481 531 
L 3481 0 
L 794 0 
L 794 531 
z
" transform="scale(0.015625)"/>
       <path id="DejaVuSans-2212" d="M 678 2272 
L 4684 2272 
L 4684 1741 
L 678 1741 
L 678 2272 
z
" transform="scale(0.015625)"/>
       <path id="DejaVuSans-39" d="M 703 97 
L 703 672 
Q 941 559 1184 500 
Q 1428 441 1663 441 
Q 2288 441 2617 861 
Q 2947 1281 2994 2138 
Q 2813 1869 2534 1725 
Q 2256 1581 1919 1581 
Q 1219 1581 811 2004 
Q 403 2428 403 3163 
Q 403 3881 828 4315 
Q 1253 4750 1959 4750 
Q 2769 4750 3195 4129 
Q 3622 3509 3622 2328 
Q 3622 1225 3098 567 
Q 2575 -91 1691 -91 
Q 1453 -91 1209 -44 
Q 966 3 703 97 
z
M 1959 2075 
Q 2384 2075 2632 2365 
Q 2881 2656 2881 3163 
Q 2881 3666 2632 3958 
Q 2384 4250 1959 4250 
Q 1534 4250 1286 3958 
Q 1038 3666 1038 3163 
Q 1038 2656 1286 2365 
Q 1534 2075 1959 2075 
z
" transform="scale(0.015625)"/>
       <path id="DejaVuSans-d7" d="M 4488 3438 
L 3059 2003 
L 4488 575 
L 4116 197 
L 2681 1631 
L 1247 197 
L 878 575 
L 2303 2003 
L 878 3438 
L 1247 3816 
L 2681 2381 
L 4116 3816 
L 4488 3438 
z
" transform="scale(0.015625)"/>
       <path id="DejaVuSans-Oblique-73" d="M 3200 3397 
L 3091 2853 
Q 2863 2978 2609 3040 
Q 2356 3103 2088 3103 
Q 1634 3103 1373 2948 
Q 1113 2794 1113 2528 
Q 1113 2219 1719 2053 
Q 1766 2041 1788 2034 
L 1972 1978 
Q 2547 1819 2739 1644 
Q 2931 1469 2931 1166 
Q 2931 609 2489 259 
Q 2047 -91 1331 -91 
Q 1053 -91 747 -37 
Q 441 16 72 128 
L 184 722 
Q 500 559 806 475 
Q 1113 391 1394 391 
Q 1816 391 2080 572 
Q 2344 753 2344 1031 
Q 2344 1331 1650 1516 
L 1591 1531 
L 1394 1581 
Q 956 1697 753 1886 
Q 550 2075 550 2369 
Q 550 2928 970 3256 
Q 1391 3584 2113 3584 
Q 2397 3584 2667 3537 
Q 2938 3491 3200 3397 
z
" transform="scale(0.015625)"/>
       <path id="DejaVuSans-5d" d="M 1947 4863 
L 1947 -844 
L 622 -844 
L 622 -397 
L 1369 -397 
L 1369 4416 
L 622 4416 
L 622 4863 
L 1947 4863 
z
" transform="scale(0.015625)"/>
      </defs>
      <use xlink:href="#DejaVuSans-6c" transform="translate(0 0.765625)"/>
      <use xlink:href="#DejaVuSans-69" transform="translate(27.783203 0.765625)"/>
      <use xlink:href="#DejaVuSans-66" transform="translate(55.566406 0.765625)"/>
      <use xlink:href="#DejaVuSans-65" transform="translate(90.771484 0.765625)"/>
      <use xlink:href="#DejaVuSans-74" transform="translate(152.294922 0.765625)"/>
      <use xlink:href="#DejaVuSans-69" transform="translate(191.503906 0.765625)"/>
      <use xlink:href="#DejaVuSans-6d" transform="translate(219.287109 0.765625)"/>
      <use xlink:href="#DejaVuSans-65" transform="translate(316.699219 0.765625)"/>
      <use xlink:href="#DejaVuSans-73" transform="translate(378.222656 0.765625)"/>
      <use xlink:href="#DejaVuSans-20" transform="translate(430.322266 0.765625)"/>
      <use xlink:href="#DejaVuSans-5b" transform="translate(462.109375 0.765625)"/>
      <use xlink:href="#DejaVuSans-31" transform="translate(501.123047 0.765625)"/>
      <use xlink:href="#DejaVuSans-30" transform="translate(564.746094 0.765625)"/>
      <use xlink:href="#DejaVuSans-2212" transform="translate(629.326172 39.046875) scale(0.7)"/>
      <use xlink:href="#DejaVuSans-39" transform="translate(687.978516 39.046875) scale(0.7)"/>
      <use xlink:href="#DejaVuSans-20" transform="translate(735.249023 0.765625)"/>
      <use xlink:href="#DejaVuSans-d7" transform="translate(767.036133 0.765625)"/>
      <use xlink:href="#DejaVuSans-20" transform="translate(850.825195 0.765625)"/>
      <use xlink:href="#DejaVuSans-31" transform="translate(882.612305 0.765625)"/>
      <use xlink:href="#DejaVuSans-30" transform="translate(946.235352 0.765625)"/>
      <use xlink:href="#DejaVuSans-2212" transform="translate(1010.81543 39.046875) scale(0.7)"/>
      <use xlink:href="#DejaVuSans-39" transform="translate(1069.467773 39.046875) scale(0.7)"/>
      <use xlink:href="#DejaVuSans-Oblique-73" transform="translate(1116.738281 0.765625)"/>
      <use xlink:href="#DejaVuSans-5d" transform="translate(1168.837891 0.765625)"/>
     </g>
    </g>
   </g>
   <g id="matplotlib.axis_2">
    <g id="ytick_1">
     <g id="line2d_6">
      <defs>
       <path id="m4ba8c28361" d="M 0 0 
L -6 0 
" style="stroke: #000000; stroke-width: 2"/>
      </defs>
      <g>
       <use xlink:href="#m4ba8c28361" x="76.146563" y="173.578564" style="stroke: #000000; stroke-width: 2"/>
      </g>
     </g>
     <g id="text_7">
      <!-- 0.0 -->
      <g transform="translate(33.25 181.556923) scale(0.21 -0.21)">
       <defs>
        <path id="DejaVuSans-2e" d="M 684 794 
L 1344 794 
L 1344 0 
L 684 0 
L 684 794 
z
" transform="scale(0.015625)"/>
       </defs>
       <use xlink:href="#DejaVuSans-30"/>
       <use xlink:href="#DejaVuSans-2e" transform="translate(63.623047 0)"/>
       <use xlink:href="#DejaVuSans-30" transform="translate(95.410156 0)"/>
      </g>
     </g>
    </g>
    <g id="ytick_2">
     <g id="line2d_7">
      <g>
       <use xlink:href="#m4ba8c28361" x="76.146563" y="94.378462" style="stroke: #000000; stroke-width: 2"/>
      </g>
     </g>
     <g id="text_8">
      <!-- 0.5 -->
      <g transform="translate(33.25 102.356821) scale(0.21 -0.21)">
       <defs>
        <path id="DejaVuSans-35" d="M 691 4666 
L 3169 4666 
L 3169 4134 
L 1269 4134 
L 1269 2991 
Q 1406 3038 1543 3061 
Q 1681 3084 1819 3084 
Q 2600 3084 3056 2656 
Q 3513 2228 3513 1497 
Q 3513 744 3044 326 
Q 2575 -91 1722 -91 
Q 1428 -91 1123 -41 
Q 819 9 494 109 
L 494 744 
Q 775 591 1075 516 
Q 1375 441 1709 441 
Q 2250 441 2565 725 
Q 2881 1009 2881 1497 
Q 2881 1984 2565 2268 
Q 2250 2553 1709 2553 
Q 1456 2553 1204 2497 
Q 953 2441 691 2322 
L 691 4666 
z
" transform="scale(0.015625)"/>
       </defs>
       <use xlink:href="#DejaVuSans-30"/>
       <use xlink:href="#DejaVuSans-2e" transform="translate(63.623047 0)"/>
       <use xlink:href="#DejaVuSans-35" transform="translate(95.410156 0)"/>
      </g>
     </g>
    </g>
    <g id="ytick_3">
     <g id="line2d_8">
      <g>
       <use xlink:href="#m4ba8c28361" x="76.146563" y="15.178359" style="stroke: #000000; stroke-width: 2"/>
      </g>
     </g>
     <g id="text_9">
      <!-- 1.0 -->
      <g transform="translate(33.25 23.156719) scale(0.21 -0.21)">
       <use xlink:href="#DejaVuSans-31"/>
       <use xlink:href="#DejaVuSans-2e" transform="translate(63.623047 0)"/>
       <use xlink:href="#DejaVuSans-30" transform="translate(95.410156 0)"/>
      </g>
     </g>
    </g>
    <g id="text_10">
     <!-- PD [$10^{9}$ × $10^{9}$] -->
     <g transform="translate(24.882656 168.748564) rotate(-90) scale(0.21 -0.21)">
      <defs>
       <path id="DejaVuSans-50" d="M 1259 4147 
L 1259 2394 
L 2053 2394 
Q 2494 2394 2734 2622 
Q 2975 2850 2975 3272 
Q 2975 3691 2734 3919 
Q 2494 4147 2053 4147 
L 1259 4147 
z
M 628 4666 
L 2053 4666 
Q 2838 4666 3239 4311 
Q 3641 3956 3641 3272 
Q 3641 2581 3239 2228 
Q 2838 1875 2053 1875 
L 1259 1875 
L 1259 0 
L 628 0 
L 628 4666 
z
" transform="scale(0.015625)"/>
       <path id="DejaVuSans-44" d="M 1259 4147 
L 1259 519 
L 2022 519 
Q 2988 519 3436 956 
Q 3884 1394 3884 2338 
Q 3884 3275 3436 3711 
Q 2988 4147 2022 4147 
L 1259 4147 
z
M 628 4666 
L 1925 4666 
Q 3281 4666 3915 4102 
Q 4550 3538 4550 2338 
Q 4550 1131 3912 565 
Q 3275 0 1925 0 
L 628 0 
L 628 4666 
z
" transform="scale(0.015625)"/>
      </defs>
      <use xlink:href="#DejaVuSans-50" transform="translate(0 0.765625)"/>
      <use xlink:href="#DejaVuSans-44" transform="translate(60.302734 0.765625)"/>
      <use xlink:href="#DejaVuSans-20" transform="translate(137.304688 0.765625)"/>
      <use xlink:href="#DejaVuSans-5b" transform="translate(169.091797 0.765625)"/>
      <use xlink:href="#DejaVuSans-31" transform="translate(208.105469 0.765625)"/>
      <use xlink:href="#DejaVuSans-30" transform="translate(271.728516 0.765625)"/>
      <use xlink:href="#DejaVuSans-39" transform="translate(336.308594 39.046875) scale(0.7)"/>
      <use xlink:href="#DejaVuSans-20" transform="translate(383.579102 0.765625)"/>
      <use xlink:href="#DejaVuSans-d7" transform="translate(415.366211 0.765625)"/>
      <use xlink:href="#DejaVuSans-20" transform="translate(499.155273 0.765625)"/>
      <use xlink:href="#DejaVuSans-31" transform="translate(530.942383 0.765625)"/>
      <use xlink:href="#DejaVuSans-30" transform="translate(594.56543 0.765625)"/>
      <use xlink:href="#DejaVuSans-39" transform="translate(659.145508 39.046875) scale(0.7)"/>
      <use xlink:href="#DejaVuSans-5d" transform="translate(706.416016 0.765625)"/>
     </g>
    </g>
   </g>
   <g id="line2d_9">
    <path d="M 76.146617 15.178564 
L 81.991426 35.825518 
L 87.836235 53.781205 
L 93.681045 69.396423 
L 99.525854 82.976245 
L 105.370664 94.78598 
L 111.215473 105.056351 
L 117.060283 113.988011 
L 122.905092 121.755457 
L 128.749901 128.51044 
L 134.594711 134.384932 
L 140.43952 139.493701 
L 146.28433 143.936559 
L 152.129139 147.800303 
L 157.973949 151.16042 
L 163.818758 154.082557 
L 169.663567 156.623801 
L 175.508377 158.833803 
L 181.353186 160.755737 
L 187.197996 162.427153 
L 193.042805 163.880705 
L 198.887615 165.144791 
L 204.732424 166.244108 
L 210.577233 167.200132 
L 216.422043 168.031541 
L 222.266852 168.754578 
L 228.111662 169.38337 
L 233.956471 169.930201 
L 239.801281 170.405754 
L 245.64609 170.81932 
L 251.490899 171.178979 
L 257.335709 171.491757 
L 263.180518 171.763766 
L 269.025328 172.00032 
L 274.870137 172.206039 
L 280.714947 172.384943 
L 286.559756 172.540528 
L 292.404565 172.675833 
L 298.249375 172.793501 
L 304.094184 172.895832 
L 309.938994 172.984824 
L 315.783803 173.062216 
L 321.628613 173.12952 
L 327.473422 173.188052 
L 333.318232 173.238954 
L 339.163041 173.283221 
L 345.00785 173.321718 
L 350.85266 173.355197 
L 356.697469 173.384312 
L 362.542279 173.409633 
L 368.387088 173.431652 
L 374.231898 173.450802 
L 380.076707 173.467455 
L 385.921516 173.481938 
L 391.766326 173.494533 
L 397.611135 173.505486 
L 403.455945 173.515012 
L 409.300754 173.523295 
L 415.145564 173.5305 
L 420.990373 173.536765 
L 425.827187 173.541273 
" clip-path="url(#peb7eda00ef)" style="fill: none; stroke: #000000; stroke-width: 1.5; stroke-linecap: square"/>
   </g>
   <g id="patch_153">
    <path d="M 76.146563 173.578564 
L 76.146563 7.258564 
" style="fill: none; stroke: #000000; stroke-width: 2; stroke-linejoin: miter; stroke-linecap: square"/>
   </g>
   <g id="patch_154">
    <path d="M 410.946563 173.578564 
L 410.946563 7.258564 
" style="fill: none; stroke: #000000; stroke-width: 2; stroke-linejoin: miter; stroke-linecap: square"/>
   </g>
   <g id="patch_155">
    <path d="M 76.146563 173.578564 
L 410.946563 173.578564 
" style="fill: none; stroke: #000000; stroke-width: 2; stroke-linejoin: miter; stroke-linecap: square"/>
   </g>
   <g id="patch_156">
    <path d="M 76.146563 7.258564 
L 410.946563 7.258564 
" style="fill: none; stroke: #000000; stroke-width: 2; stroke-linejoin: miter; stroke-linecap: square"/>
   </g>
   <g id="legend_1">
    <g id="patch_157">
     <path d="M 288.726563 107.492002 
L 401.146563 107.492002 
Q 403.946563 107.492002 403.946563 104.692002 
L 403.946563 17.058564 
Q 403.946563 14.258564 401.146563 14.258564 
L 288.726563 14.258564 
Q 285.926563 14.258564 285.926563 17.058564 
L 285.926563 104.692002 
Q 285.926563 107.492002 288.726563 107.492002 
z
" style="fill: #ffffff; opacity: 0.8; stroke: #cccccc; stroke-linejoin: miter"/>
    </g>
    <g id="patch_158">
     <path d="M 291.526563 30.496377 
L 319.526563 30.496377 
L 319.526563 20.696377 
L 291.526563 20.696377 
z
" style="fill: #0000ff; opacity: 0.8"/>
    </g>
    <g id="text_11">
     <!-- $T_{obs,e1}$ -->
     <g transform="translate(330.726563 30.496377) scale(0.14 -0.14)">
      <defs>
       <path id="DejaVuSans-Oblique-54" d="M 378 4666 
L 4325 4666 
L 4225 4134 
L 2559 4134 
L 1759 0 
L 1125 0 
L 1925 4134 
L 275 4134 
L 378 4666 
z
" transform="scale(0.015625)"/>
       <path id="DejaVuSans-Oblique-6f" d="M 1625 -91 
Q 1009 -91 651 289 
Q 294 669 294 1325 
Q 294 1706 417 2101 
Q 541 2497 738 2766 
Q 1047 3184 1428 3384 
Q 1809 3584 2291 3584 
Q 2888 3584 3255 3212 
Q 3622 2841 3622 2241 
Q 3622 1825 3500 1412 
Q 3378 1000 3181 728 
Q 2875 309 2494 109 
Q 2113 -91 1625 -91 
z
M 891 1344 
Q 891 869 1089 633 
Q 1288 397 1691 397 
Q 2269 397 2648 901 
Q 3028 1406 3028 2181 
Q 3028 2634 2825 2865 
Q 2622 3097 2228 3097 
Q 1903 3097 1650 2945 
Q 1397 2794 1197 2484 
Q 1050 2253 970 1956 
Q 891 1659 891 1344 
z
" transform="scale(0.015625)"/>
       <path id="DejaVuSans-Oblique-62" d="M 3169 2138 
Q 3169 2591 2961 2847 
Q 2753 3103 2388 3103 
Q 2122 3103 1889 2973 
Q 1656 2844 1484 2597 
Q 1303 2338 1198 1995 
Q 1094 1653 1094 1313 
Q 1094 881 1298 636 
Q 1503 391 1863 391 
Q 2134 391 2365 517 
Q 2597 644 2772 891 
Q 2950 1147 3059 1487 
Q 3169 1828 3169 2138 
z
M 1381 2969 
Q 1594 3256 1914 3420 
Q 2234 3584 2584 3584 
Q 3122 3584 3439 3221 
Q 3756 2859 3756 2241 
Q 3756 1734 3570 1259 
Q 3384 784 3041 416 
Q 2816 172 2522 40 
Q 2228 -91 1906 -91 
Q 1566 -91 1316 65 
Q 1066 222 909 531 
L 806 0 
L 231 0 
L 1178 4863 
L 1753 4863 
L 1381 2969 
z
" transform="scale(0.015625)"/>
       <path id="DejaVuSans-2c" d="M 750 794 
L 1409 794 
L 1409 256 
L 897 -744 
L 494 -744 
L 750 256 
L 750 794 
z
" transform="scale(0.015625)"/>
       <path id="DejaVuSans-Oblique-65" d="M 3078 2063 
Q 3088 2113 3092 2166 
Q 3097 2219 3097 2272 
Q 3097 2653 2873 2875 
Q 2650 3097 2266 3097 
Q 1838 3097 1509 2826 
Q 1181 2556 1013 2059 
L 3078 2063 
z
M 3578 1613 
L 903 1613 
Q 884 1494 878 1425 
Q 872 1356 872 1306 
Q 872 872 1139 634 
Q 1406 397 1894 397 
Q 2269 397 2603 481 
Q 2938 566 3225 728 
L 3116 159 
Q 2806 34 2476 -28 
Q 2147 -91 1806 -91 
Q 1078 -91 686 257 
Q 294 606 294 1247 
Q 294 1794 489 2264 
Q 684 2734 1063 3103 
Q 1306 3334 1642 3459 
Q 1978 3584 2356 3584 
Q 2950 3584 3301 3228 
Q 3653 2872 3653 2272 
Q 3653 2128 3634 1964 
Q 3616 1800 3578 1613 
z
" transform="scale(0.015625)"/>
      </defs>
      <use xlink:href="#DejaVuSans-Oblique-54" transform="translate(0 0.09375)"/>
      <use xlink:href="#DejaVuSans-Oblique-6f" transform="translate(61.083984 -16.3125) scale(0.7)"/>
      <use xlink:href="#DejaVuSans-Oblique-62" transform="translate(103.911133 -16.3125) scale(0.7)"/>
      <use xlink:href="#DejaVuSans-Oblique-73" transform="translate(148.344727 -16.3125) scale(0.7)"/>
      <use xlink:href="#DejaVuSans-2c" transform="translate(184.814453 -16.3125) scale(0.7)"/>
      <use xlink:href="#DejaVuSans-Oblique-65" transform="translate(220.703125 -16.3125) scale(0.7)"/>
      <use xlink:href="#DejaVuSans-31" transform="translate(263.769531 -16.3125) scale(0.7)"/>
     </g>
    </g>
    <g id="patch_159">
     <path d="M 291.526563 51.634189 
L 319.526563 51.634189 
L 319.526563 41.834189 
L 291.526563 41.834189 
z
" style="fill: #ff0000; opacity: 0.6"/>
    </g>
    <g id="text_12">
     <!-- $T_{obs,e2}$ -->
     <g transform="translate(330.726563 51.634189) scale(0.14 -0.14)">
      <use xlink:href="#DejaVuSans-Oblique-54" transform="translate(0 0.09375)"/>
      <use xlink:href="#DejaVuSans-Oblique-6f" transform="translate(61.083984 -16.3125) scale(0.7)"/>
      <use xlink:href="#DejaVuSans-Oblique-62" transform="translate(103.911133 -16.3125) scale(0.7)"/>
      <use xlink:href="#DejaVuSans-Oblique-73" transform="translate(148.344727 -16.3125) scale(0.7)"/>
      <use xlink:href="#DejaVuSans-2c" transform="translate(184.814453 -16.3125) scale(0.7)"/>
      <use xlink:href="#DejaVuSans-Oblique-65" transform="translate(220.703125 -16.3125) scale(0.7)"/>
      <use xlink:href="#DejaVuSans-32" transform="translate(263.769531 -16.3125) scale(0.7)"/>
     </g>
    </g>
    <g id="patch_160">
     <path d="M 291.526563 72.772002 
L 319.526563 72.772002 
L 319.526563 62.972002 
L 291.526563 62.972002 
z
" style="fill: #008000; opacity: 0.4"/>
    </g>
    <g id="text_13">
     <!-- $T_{obs,e3}$ -->
     <g transform="translate(330.726563 72.772002) scale(0.14 -0.14)">
      <defs>
       <path id="DejaVuSans-33" d="M 2597 2516 
Q 3050 2419 3304 2112 
Q 3559 1806 3559 1356 
Q 3559 666 3084 287 
Q 2609 -91 1734 -91 
Q 1441 -91 1130 -33 
Q 819 25 488 141 
L 488 750 
Q 750 597 1062 519 
Q 1375 441 1716 441 
Q 2309 441 2620 675 
Q 2931 909 2931 1356 
Q 2931 1769 2642 2001 
Q 2353 2234 1838 2234 
L 1294 2234 
L 1294 2753 
L 1863 2753 
Q 2328 2753 2575 2939 
Q 2822 3125 2822 3475 
Q 2822 3834 2567 4026 
Q 2313 4219 1838 4219 
Q 1578 4219 1281 4162 
Q 984 4106 628 3988 
L 628 4550 
Q 988 4650 1302 4700 
Q 1616 4750 1894 4750 
Q 2613 4750 3031 4423 
Q 3450 4097 3450 3541 
Q 3450 3153 3228 2886 
Q 3006 2619 2597 2516 
z
" transform="scale(0.015625)"/>
      </defs>
      <use xlink:href="#DejaVuSans-Oblique-54" transform="translate(0 0.09375)"/>
      <use xlink:href="#DejaVuSans-Oblique-6f" transform="translate(61.083984 -16.3125) scale(0.7)"/>
      <use xlink:href="#DejaVuSans-Oblique-62" transform="translate(103.911133 -16.3125) scale(0.7)"/>
      <use xlink:href="#DejaVuSans-Oblique-73" transform="translate(148.344727 -16.3125) scale(0.7)"/>
      <use xlink:href="#DejaVuSans-2c" transform="translate(184.814453 -16.3125) scale(0.7)"/>
      <use xlink:href="#DejaVuSans-Oblique-65" transform="translate(220.703125 -16.3125) scale(0.7)"/>
      <use xlink:href="#DejaVuSans-33" transform="translate(263.769531 -16.3125) scale(0.7)"/>
     </g>
    </g>
    <g id="line2d_10">
     <path d="M 291.526563 91.672002 
L 305.526563 91.672002 
L 319.526563 91.672002 
" style="fill: none; stroke: #000000; stroke-width: 1.5; stroke-linecap: square"/>
    </g>
    <g id="text_14">
     <!-- $Expon(\frac{1}{\tau_{D}})$ -->
     <g transform="translate(330.726563 96.572002) scale(0.14 -0.14)">
      <defs>
       <path id="DejaVuSans-Oblique-45" d="M 1081 4666 
L 4031 4666 
L 3928 4134 
L 1606 4134 
L 1338 2753 
L 3566 2753 
L 3463 2222 
L 1234 2222 
L 909 531 
L 3284 531 
L 3181 0 
L 172 0 
L 1081 4666 
z
" transform="scale(0.015625)"/>
       <path id="DejaVuSans-Oblique-78" d="M 3841 3500 
L 2234 1784 
L 3219 0 
L 2559 0 
L 1819 1388 
L 531 0 
L -166 0 
L 1556 1844 
L 641 3500 
L 1300 3500 
L 1972 2234 
L 3144 3500 
L 3841 3500 
z
" transform="scale(0.015625)"/>
       <path id="DejaVuSans-Oblique-70" d="M 3175 2156 
Q 3175 2616 2975 2859 
Q 2775 3103 2400 3103 
Q 2144 3103 1911 2972 
Q 1678 2841 1497 2591 
Q 1319 2344 1212 1994 
Q 1106 1644 1106 1300 
Q 1106 863 1306 627 
Q 1506 391 1875 391 
Q 2147 391 2380 519 
Q 2613 647 2778 891 
Q 2956 1147 3065 1494 
Q 3175 1841 3175 2156 
z
M 1394 2969 
Q 1625 3272 1939 3428 
Q 2253 3584 2638 3584 
Q 3175 3584 3472 3232 
Q 3769 2881 3769 2247 
Q 3769 1728 3584 1258 
Q 3400 788 3053 416 
Q 2822 169 2531 39 
Q 2241 -91 1919 -91 
Q 1547 -91 1294 64 
Q 1041 219 916 525 
L 556 -1331 
L -19 -1331 
L 922 3500 
L 1497 3500 
L 1394 2969 
z
" transform="scale(0.015625)"/>
       <path id="DejaVuSans-Oblique-6e" d="M 3566 2113 
L 3156 0 
L 2578 0 
L 2988 2091 
Q 3016 2238 3031 2350 
Q 3047 2463 3047 2528 
Q 3047 2791 2881 2937 
Q 2716 3084 2419 3084 
Q 1956 3084 1622 2776 
Q 1288 2469 1184 1941 
L 800 0 
L 225 0 
L 903 3500 
L 1478 3500 
L 1363 2950 
Q 1603 3253 1940 3418 
Q 2278 3584 2650 3584 
Q 3113 3584 3367 3334 
Q 3622 3084 3622 2631 
Q 3622 2519 3608 2391 
Q 3594 2263 3566 2113 
z
" transform="scale(0.015625)"/>
       <path id="DejaVuSans-28" d="M 1984 4856 
Q 1566 4138 1362 3434 
Q 1159 2731 1159 2009 
Q 1159 1288 1364 580 
Q 1569 -128 1984 -844 
L 1484 -844 
Q 1016 -109 783 600 
Q 550 1309 550 2009 
Q 550 2706 781 3412 
Q 1013 4119 1484 4856 
L 1984 4856 
z
" transform="scale(0.015625)"/>
       <path id="DejaVuSans-Oblique-3c4" d="M 2103 638 
Q 2188 488 2525 488 
L 2800 488 
L 2706 0 
L 2363 0 
Q 1800 0 1600 300 
Q 1403 606 1534 1269 
L 1856 2925 
L 541 2925 
L 653 3500 
L 3881 3500 
L 3769 2925 
L 2444 2925 
L 2113 1234 
Q 2025 781 2103 638 
z
" transform="scale(0.015625)"/>
       <path id="DejaVuSans-Oblique-44" d="M 1081 4666 
L 2438 4666 
Q 3519 4666 4070 4208 
Q 4622 3750 4622 2847 
Q 4622 2250 4412 1698 
Q 4203 1147 3834 769 
Q 3463 381 2891 190 
Q 2319 0 1538 0 
L 172 0 
L 1081 4666 
z
M 1613 4147 
L 909 519 
L 1734 519 
Q 2794 519 3375 1128 
Q 3956 1738 3956 2847 
Q 3956 3519 3581 3833 
Q 3206 4147 2406 4147 
L 1613 4147 
z
" transform="scale(0.015625)"/>
       <path id="DejaVuSans-29" d="M 513 4856 
L 1013 4856 
Q 1481 4119 1714 3412 
Q 1947 2706 1947 2009 
Q 1947 1309 1714 600 
Q 1481 -109 1013 -844 
L 513 -844 
Q 928 -128 1133 580 
Q 1338 1288 1338 2009 
Q 1338 2731 1133 3434 
Q 928 4138 513 4856 
z
" transform="scale(0.015625)"/>
      </defs>
      <use xlink:href="#DejaVuSans-Oblique-45" transform="translate(0 0.16875)"/>
      <use xlink:href="#DejaVuSans-Oblique-78" transform="translate(63.183594 0.16875)"/>
      <use xlink:href="#DejaVuSans-Oblique-70" transform="translate(122.363281 0.16875)"/>
      <use xlink:href="#DejaVuSans-Oblique-6f" transform="translate(185.839844 0.16875)"/>
      <use xlink:href="#DejaVuSans-Oblique-6e" transform="translate(247.021484 0.16875)"/>
      <use xlink:href="#DejaVuSans-28" transform="translate(310.400391 0.16875)"/>
      <use xlink:href="#DejaVuSans-31" transform="translate(368.414062 43.965625) scale(0.7)"/>
      <use xlink:href="#DejaVuSans-Oblique-3c4" transform="translate(349.414062 -25.565625) scale(0.7)"/>
      <use xlink:href="#DejaVuSans-Oblique-44" transform="translate(391.557617 -37.05) scale(0.49)"/>
      <use xlink:href="#DejaVuSans-29" transform="translate(443.702637 0.16875)"/>
      <path d="M 349.414062 18.965625 
L 349.414062 25.215625 
L 431.202637 25.215625 
L 431.202637 18.965625 
L 349.414062 18.965625 
z
"/>
     </g>
    </g>
   </g>
  </g>
 </g>
 <defs>
  <clipPath id="peb7eda00ef">
   <rect x="76.146563" y="7.258564" width="334.8" height="166.32"/>
  </clipPath>
 </defs>
</svg>
