<?xml version="1.0" encoding="utf-8" standalone="no"?>
<!DOCTYPE svg PUBLIC "-//W3C//DTD SVG 1.1//EN"
  "http://www.w3.org/Graphics/SVG/1.1/DTD/svg11.dtd">
<svg xmlns:xlink="http://www.w3.org/1999/xlink" width="424.581349pt" height="235.286484pt" viewBox="0 0 424.581349 235.286484" xmlns="http://www.w3.org/2000/svg" version="1.1">
 <metadata>
  <rdf:RDF xmlns:dc="http://purl.org/dc/elements/1.1/" xmlns:cc="http://creativecommons.org/ns#" xmlns:rdf="http://www.w3.org/1999/02/22-rdf-syntax-ns#">
   <cc:Work>
    <dc:type rdf:resource="http://purl.org/dc/dcmitype/StillImage"/>
    <dc:date>2025-04-25T09:09:12.151304</dc:date>
    <dc:format>image/svg+xml</dc:format>
    <dc:creator>
     <cc:Agent>
      <dc:title>Matplotlib v3.10.0, https://matplotlib.org/</dc:title>
     </cc:Agent>
    </dc:creator>
   </cc:Work>
  </rdf:RDF>
 </metadata>
 <defs>
  <style type="text/css">*{stroke-linejoin: round; stroke-linecap: butt}</style>
 </defs>
 <g id="figure_1">
  <g id="patch_1">
   <path d="M 0 235.286484 
L 424.581349 235.286484 
L 424.581349 0 
L 0 0 
z
" style="fill: #ffffff"/>
  </g>
  <g id="axes_1">
   <g id="patch_2">
    <path d="M 74.420625 173.938359 
L 409.220625 173.938359 
L 409.220625 7.618359 
L 74.420625 7.618359 
z
" style="fill: #ffffff"/>
   </g>
   <g id="matplotlib.axis_1">
    <g id="xtick_1">
     <g id="line2d_1">
      <defs>
       <path id="m09f9969931" d="M 0 0 
L 0 6 
" style="stroke: #000000; stroke-width: 2"/>
      </defs>
      <g>
       <use xlink:href="#m09f9969931" x="89.638807" y="173.938359" style="stroke: #000000; stroke-width: 2"/>
      </g>
     </g>
     <g id="text_1">
      <!-- 0.0 -->
      <g transform="translate(72.940526 199.395078) scale(0.21 -0.21)">
       <defs>
        <path id="DejaVuSans-30" d="M 2034 4250 
Q 1547 4250 1301 3770 
Q 1056 3291 1056 2328 
Q 1056 1369 1301 889 
Q 1547 409 2034 409 
Q 2525 409 2770 889 
Q 3016 1369 3016 2328 
Q 3016 3291 2770 3770 
Q 2525 4250 2034 4250 
z
M 2034 4750 
Q 2819 4750 3233 4129 
Q 3647 3509 3647 2328 
Q 3647 1150 3233 529 
Q 2819 -91 2034 -91 
Q 1250 -91 836 529 
Q 422 1150 422 2328 
Q 422 3509 836 4129 
Q 1250 4750 2034 4750 
z
" transform="scale(0.015625)"/>
        <path id="DejaVuSans-2e" d="M 684 794 
L 1344 794 
L 1344 0 
L 684 0 
L 684 794 
z
" transform="scale(0.015625)"/>
       </defs>
       <use xlink:href="#DejaVuSans-30"/>
       <use xlink:href="#DejaVuSans-2e" transform="translate(63.623047 0)"/>
       <use xlink:href="#DejaVuSans-30" transform="translate(95.410156 0)"/>
      </g>
     </g>
    </g>
    <g id="xtick_2">
     <g id="line2d_2">
      <g>
       <use xlink:href="#m09f9969931" x="165.729716" y="173.938359" style="stroke: #000000; stroke-width: 2"/>
      </g>
     </g>
     <g id="text_2">
      <!-- 2.5 -->
      <g transform="translate(149.031435 199.395078) scale(0.21 -0.21)">
       <defs>
        <path id="DejaVuSans-32" d="M 1228 531 
L 3431 531 
L 3431 0 
L 469 0 
L 469 531 
Q 828 903 1448 1529 
Q 2069 2156 2228 2338 
Q 2531 2678 2651 2914 
Q 2772 3150 2772 3378 
Q 2772 3750 2511 3984 
Q 2250 4219 1831 4219 
Q 1534 4219 1204 4116 
Q 875 4013 500 3803 
L 500 4441 
Q 881 4594 1212 4672 
Q 1544 4750 1819 4750 
Q 2544 4750 2975 4387 
Q 3406 4025 3406 3419 
Q 3406 3131 3298 2873 
Q 3191 2616 2906 2266 
Q 2828 2175 2409 1742 
Q 1991 1309 1228 531 
z
" transform="scale(0.015625)"/>
        <path id="DejaVuSans-35" d="M 691 4666 
L 3169 4666 
L 3169 4134 
L 1269 4134 
L 1269 2991 
Q 1406 3038 1543 3061 
Q 1681 3084 1819 3084 
Q 2600 3084 3056 2656 
Q 3513 2228 3513 1497 
Q 3513 744 3044 326 
Q 2575 -91 1722 -91 
Q 1428 -91 1123 -41 
Q 819 9 494 109 
L 494 744 
Q 775 591 1075 516 
Q 1375 441 1709 441 
Q 2250 441 2565 725 
Q 2881 1009 2881 1497 
Q 2881 1984 2565 2268 
Q 2250 2553 1709 2553 
Q 1456 2553 1204 2497 
Q 953 2441 691 2322 
L 691 4666 
z
" transform="scale(0.015625)"/>
       </defs>
       <use xlink:href="#DejaVuSans-32"/>
       <use xlink:href="#DejaVuSans-2e" transform="translate(63.623047 0)"/>
       <use xlink:href="#DejaVuSans-35" transform="translate(95.410156 0)"/>
      </g>
     </g>
    </g>
    <g id="xtick_3">
     <g id="line2d_3">
      <g>
       <use xlink:href="#m09f9969931" x="241.820625" y="173.938359" style="stroke: #000000; stroke-width: 2"/>
      </g>
     </g>
     <g id="text_3">
      <!-- 5.0 -->
      <g transform="translate(225.122344 199.395078) scale(0.21 -0.21)">
       <use xlink:href="#DejaVuSans-35"/>
       <use xlink:href="#DejaVuSans-2e" transform="translate(63.623047 0)"/>
       <use xlink:href="#DejaVuSans-30" transform="translate(95.410156 0)"/>
      </g>
     </g>
    </g>
    <g id="xtick_4">
     <g id="line2d_4">
      <g>
       <use xlink:href="#m09f9969931" x="317.911534" y="173.938359" style="stroke: #000000; stroke-width: 2"/>
      </g>
     </g>
     <g id="text_4">
      <!-- 7.5 -->
      <g transform="translate(301.213253 199.395078) scale(0.21 -0.21)">
       <defs>
        <path id="DejaVuSans-37" d="M 525 4666 
L 3525 4666 
L 3525 4397 
L 1831 0 
L 1172 0 
L 2766 4134 
L 525 4134 
L 525 4666 
z
" transform="scale(0.015625)"/>
       </defs>
       <use xlink:href="#DejaVuSans-37"/>
       <use xlink:href="#DejaVuSans-2e" transform="translate(63.623047 0)"/>
       <use xlink:href="#DejaVuSans-35" transform="translate(95.410156 0)"/>
      </g>
     </g>
    </g>
    <g id="xtick_5">
     <g id="line2d_5">
      <g>
       <use xlink:href="#m09f9969931" x="394.002443" y="173.938359" style="stroke: #000000; stroke-width: 2"/>
      </g>
     </g>
     <g id="text_5">
      <!-- 10.0 -->
      <g transform="translate(370.623537 199.395078) scale(0.21 -0.21)">
       <defs>
        <path id="DejaVuSans-31" d="M 794 531 
L 1825 531 
L 1825 4091 
L 703 3866 
L 703 4441 
L 1819 4666 
L 2450 4666 
L 2450 531 
L 3481 531 
L 3481 0 
L 794 0 
L 794 531 
z
" transform="scale(0.015625)"/>
       </defs>
       <use xlink:href="#DejaVuSans-31"/>
       <use xlink:href="#DejaVuSans-30" transform="translate(63.623047 0)"/>
       <use xlink:href="#DejaVuSans-2e" transform="translate(127.246094 0)"/>
       <use xlink:href="#DejaVuSans-30" transform="translate(159.033203 0)"/>
      </g>
     </g>
    </g>
    <g id="text_6">
     <!-- $t_{1}$ -->
     <g transform="translate(232.685625 223.719141) scale(0.21 -0.21)">
      <defs>
       <path id="DejaVuSans-Oblique-74" d="M 2706 3500 
L 2619 3053 
L 1472 3053 
L 1100 1153 
Q 1081 1047 1072 975 
Q 1063 903 1063 863 
Q 1063 663 1183 572 
Q 1303 481 1569 481 
L 2150 481 
L 2053 0 
L 1503 0 
Q 991 0 739 200 
Q 488 400 488 806 
Q 488 878 497 964 
Q 506 1050 525 1153 
L 897 3053 
L 409 3053 
L 500 3500 
L 978 3500 
L 1172 4494 
L 1747 4494 
L 1556 3500 
L 2706 3500 
z
" transform="scale(0.015625)"/>
      </defs>
      <use xlink:href="#DejaVuSans-Oblique-74" transform="translate(0 0.78125)"/>
      <use xlink:href="#DejaVuSans-31" transform="translate(39.208984 -15.625) scale(0.7)"/>
     </g>
    </g>
   </g>
   <g id="matplotlib.axis_2">
    <g id="ytick_1">
     <g id="line2d_6">
      <defs>
       <path id="m277c61f19d" d="M 0 0 
L -6 0 
" style="stroke: #000000; stroke-width: 2"/>
      </defs>
      <g>
       <use xlink:href="#m277c61f19d" x="74.420625" y="166.378359" style="stroke: #000000; stroke-width: 2"/>
      </g>
     </g>
     <g id="text_7">
      <!-- 0.0 -->
      <g transform="translate(31.524062 174.356719) scale(0.21 -0.21)">
       <use xlink:href="#DejaVuSans-30"/>
       <use xlink:href="#DejaVuSans-2e" transform="translate(63.623047 0)"/>
       <use xlink:href="#DejaVuSans-30" transform="translate(95.410156 0)"/>
      </g>
     </g>
    </g>
    <g id="ytick_2">
     <g id="line2d_7">
      <g>
       <use xlink:href="#m277c61f19d" x="74.420625" y="90.778359" style="stroke: #000000; stroke-width: 2"/>
      </g>
     </g>
     <g id="text_8">
      <!-- 0.5 -->
      <g transform="translate(31.524062 98.756719) scale(0.21 -0.21)">
       <use xlink:href="#DejaVuSans-30"/>
       <use xlink:href="#DejaVuSans-2e" transform="translate(63.623047 0)"/>
       <use xlink:href="#DejaVuSans-35" transform="translate(95.410156 0)"/>
      </g>
     </g>
    </g>
    <g id="ytick_3">
     <g id="line2d_8">
      <g>
       <use xlink:href="#m277c61f19d" x="74.420625" y="15.178359" style="stroke: #000000; stroke-width: 2"/>
      </g>
     </g>
     <g id="text_9">
      <!-- 1.0 -->
      <g transform="translate(31.524062 23.156719) scale(0.21 -0.21)">
       <use xlink:href="#DejaVuSans-31"/>
       <use xlink:href="#DejaVuSans-2e" transform="translate(63.623047 0)"/>
       <use xlink:href="#DejaVuSans-30" transform="translate(95.410156 0)"/>
      </g>
     </g>
    </g>
    <g id="text_10">
     <!-- PD -->
     <g transform="translate(23.156719 105.194531) rotate(-90) scale(0.21 -0.21)">
      <defs>
       <path id="DejaVuSans-50" d="M 1259 4147 
L 1259 2394 
L 2053 2394 
Q 2494 2394 2734 2622 
Q 2975 2850 2975 3272 
Q 2975 3691 2734 3919 
Q 2494 4147 2053 4147 
L 1259 4147 
z
M 628 4666 
L 2053 4666 
Q 2838 4666 3239 4311 
Q 3641 3956 3641 3272 
Q 3641 2581 3239 2228 
Q 2838 1875 2053 1875 
L 1259 1875 
L 1259 0 
L 628 0 
L 628 4666 
z
" transform="scale(0.015625)"/>
       <path id="DejaVuSans-44" d="M 1259 4147 
L 1259 519 
L 2022 519 
Q 2988 519 3436 956 
Q 3884 1394 3884 2338 
Q 3884 3275 3436 3711 
Q 2988 4147 2022 4147 
L 1259 4147 
z
M 628 4666 
L 1925 4666 
Q 3281 4666 3915 4102 
Q 4550 3538 4550 2338 
Q 4550 1131 3912 565 
Q 3275 0 1925 0 
L 628 0 
L 628 4666 
z
" transform="scale(0.015625)"/>
      </defs>
      <use xlink:href="#DejaVuSans-50"/>
      <use xlink:href="#DejaVuSans-44" transform="translate(60.302734 0)"/>
     </g>
    </g>
   </g>
   <g id="line2d_9">
    <path d="M 89.638807 15.178359 
L 92.713187 29.705065 
L 95.787567 42.836102 
L 98.861947 54.70556 
L 101.936327 65.434647 
L 105.010708 75.132925 
L 108.085088 83.89943 
L 111.159468 91.823684 
L 114.233848 98.986606 
L 117.308228 105.461343 
L 120.382608 111.314012 
L 123.456989 116.60438 
L 126.531369 121.386469 
L 129.605749 125.709115 
L 132.680129 129.616457 
L 135.754509 133.148397 
L 138.828889 136.341002 
L 141.90327 139.226874 
L 144.97765 141.835483 
L 148.05203 144.193467 
L 151.12641 146.324905 
L 154.20079 148.251562 
L 157.27517 149.993114 
L 160.349551 151.567345 
L 163.423931 152.990329 
L 166.498311 154.276599 
L 169.572691 155.439289 
L 172.647071 156.490272 
L 175.721451 157.440281 
L 178.795832 158.299017 
L 181.870212 159.075248 
L 184.944592 159.776903 
L 188.018972 160.411145 
L 191.093352 160.984452 
L 194.167732 161.502677 
L 197.242113 161.971114 
L 200.316493 162.394545 
L 203.390873 162.777294 
L 206.465253 163.12327 
L 209.539633 163.436007 
L 212.614013 163.718696 
L 215.688394 163.974226 
L 218.762774 164.205206 
L 221.837154 164.413994 
L 224.911534 164.602723 
L 227.985914 164.773319 
L 231.060294 164.927525 
L 234.134675 165.066916 
L 237.209055 165.192914 
L 240.283435 165.306807 
L 243.357815 165.409757 
L 246.432195 165.502817 
L 249.506575 165.586936 
L 252.580956 165.662973 
L 255.655336 165.731704 
L 258.729716 165.793832 
L 261.804096 165.849991 
L 264.878476 165.900755 
L 267.952856 165.946641 
L 271.027237 165.988119 
L 274.101617 166.025612 
L 277.175997 166.059502 
L 280.250377 166.090137 
L 283.324757 166.117828 
L 286.399137 166.142859 
L 289.473518 166.165485 
L 292.547898 166.185937 
L 295.622278 166.204424 
L 298.696658 166.221135 
L 301.771038 166.236241 
L 304.845418 166.249895 
L 307.919799 166.262237 
L 310.994179 166.273394 
L 314.068559 166.283479 
L 317.142939 166.292594 
L 320.217319 166.300834 
L 323.291699 166.308283 
L 326.36608 166.315015 
L 329.44046 166.321101 
L 332.51484 166.326602 
L 335.58922 166.331575 
L 338.6636 166.33607 
L 341.73798 166.340133 
L 344.812361 166.343805 
L 347.886741 166.347125 
L 350.961121 166.350126 
L 354.035501 166.352839 
L 357.109881 166.355291 
L 360.184261 166.357507 
L 363.258642 166.35951 
L 366.333022 166.361321 
L 369.407402 166.362958 
L 372.481782 166.364438 
L 375.556162 166.365775 
L 378.630542 166.366984 
L 381.704923 166.368077 
L 384.779303 166.369065 
L 387.853683 166.369958 
L 390.928063 166.370765 
L 394.002443 166.371495 
" clip-path="url(#pd544968889)" style="fill: none; stroke: #0000ff; stroke-width: 1.5; stroke-linecap: square"/>
   </g>
   <g id="line2d_10">
    <path d="M 89.638807 166.378359 
L 92.713187 152.572976 
L 95.787567 141.420328 
L 98.861947 132.538117 
L 101.936327 125.593021 
L 105.010708 120.294807 
L 108.085088 116.39113 
L 111.159468 113.662932 
L 114.233848 111.920377 
L 117.308228 110.999253 
L 120.382608 110.757806 
L 123.456989 111.073937 
L 126.531369 111.842735 
L 129.605749 112.974301 
L 132.680129 114.391831 
L 135.754509 116.029932 
L 138.828889 117.833136 
L 141.90327 119.754597 
L 144.97765 121.754948 
L 148.05203 123.801293 
L 151.12641 125.86633 
L 154.20079 127.927578 
L 157.27517 129.966704 
L 160.349551 131.968931 
L 163.423931 133.922529 
L 166.498311 135.818358 
L 169.572691 137.649487 
L 172.647071 139.410848 
L 175.721451 141.098945 
L 178.795832 142.711598 
L 181.870212 144.24772 
L 184.944592 145.707131 
L 188.018972 147.090393 
L 191.093352 148.398667 
L 194.167732 149.633592 
L 197.242113 150.797188 
L 200.316493 151.89176 
L 203.390873 152.919832 
L 206.465253 153.884078 
L 209.539633 154.787273 
L 212.614013 155.632246 
L 215.688394 156.421849 
L 218.762774 157.158921 
L 221.837154 157.846268 
L 224.911534 158.486641 
L 227.985914 159.082721 
L 231.060294 159.637109 
L 234.134675 160.152313 
L 237.209055 160.630745 
L 240.283435 161.074716 
L 243.357815 161.486431 
L 246.432195 161.867989 
L 249.506575 162.221386 
L 252.580956 162.548511 
L 255.655336 162.851149 
L 258.729716 163.130986 
L 261.804096 163.389611 
L 264.878476 163.628515 
L 267.952856 163.849102 
L 271.027237 164.052685 
L 274.101617 164.240495 
L 277.175997 164.413685 
L 280.250377 164.57333 
L 283.324757 164.720434 
L 286.399137 164.855933 
L 289.473518 164.980699 
L 292.547898 165.095545 
L 295.622278 165.201223 
L 298.696658 165.298437 
L 301.771038 165.387836 
L 304.845418 165.470025 
L 307.919799 165.545565 
L 310.994179 165.614974 
L 314.068559 165.678733 
L 317.142939 165.737287 
L 320.217319 165.791048 
L 323.291699 165.840396 
L 326.36608 165.885683 
L 329.44046 165.927234 
L 332.51484 165.965349 
L 335.58922 166.000303 
L 338.6636 166.032354 
L 341.73798 166.061735 
L 344.812361 166.088665 
L 347.886741 166.113343 
L 350.961121 166.135953 
L 354.035501 166.156664 
L 357.109881 166.175634 
L 360.184261 166.193005 
L 363.258642 166.208909 
L 366.333022 166.223468 
L 369.407402 166.236794 
L 372.481782 166.248989 
L 375.556162 166.260147 
L 378.630542 166.270355 
L 381.704923 166.279693 
L 384.779303 166.288234 
L 387.853683 166.296044 
L 390.928063 166.303186 
L 394.002443 166.309715 
" clip-path="url(#pd544968889)" style="fill: none; stroke: #ff0000; stroke-width: 1.5; stroke-linecap: square"/>
   </g>
   <g id="line2d_11">
    <path d="M 89.638807 166.378359 
L 92.713187 165.681118 
L 95.787567 163.857346 
L 98.861947 161.25105 
L 101.936327 158.138897 
L 105.010708 154.741099 
L 108.085088 151.230714 
L 111.159468 147.741592 
L 114.233848 144.375134 
L 117.308228 141.206038 
L 120.382608 138.287171 
L 123.456989 135.653681 
L 126.531369 133.326466 
L 129.605749 131.315088 
L 132.680129 129.620208 
L 135.754509 128.235611 
L 138.828889 127.149896 
L 141.90327 126.347856 
L 144.97765 125.811622 
L 148.05203 125.521578 
L 151.12641 125.457117 
L 154.20079 125.597227 
L 157.27517 125.920964 
L 160.349551 126.407812 
L 163.423931 127.037958 
L 166.498311 127.792499 
L 169.572691 128.653578 
L 172.647071 129.604481 
L 175.721451 130.629693 
L 178.795832 131.71492 
L 181.870212 132.847087 
L 184.944592 134.014316 
L 188.018972 135.205889 
L 191.093352 136.412205 
L 194.167732 137.624719 
L 197.242113 138.835884 
L 200.316493 140.039089 
L 203.390873 141.228587 
L 206.465253 142.399436 
L 209.539633 143.547431 
L 212.614013 144.66904 
L 215.688394 145.761343 
L 218.762774 146.821976 
L 221.837154 147.849071 
L 224.911534 148.841208 
L 227.985914 149.797364 
L 231.060294 150.716868 
L 234.134675 151.59936 
L 237.209055 152.444749 
L 240.283435 153.253181 
L 243.357815 154.025004 
L 246.432195 154.76074 
L 249.506575 155.461056 
L 252.580956 156.126744 
L 255.655336 156.758695 
L 258.729716 157.357879 
L 261.804096 157.925333 
L 264.878476 158.462142 
L 267.952856 158.969423 
L 271.027237 159.448319 
L 274.101617 159.899984 
L 277.175997 160.325575 
L 280.250377 160.726247 
L 283.324757 161.103142 
L 286.399137 161.457385 
L 289.473518 161.790082 
L 292.547898 162.10231 
L 295.622278 162.395121 
L 298.696658 162.669534 
L 301.771038 162.926535 
L 304.845418 163.167078 
L 307.919799 163.392077 
L 310.994179 163.602413 
L 314.068559 163.79893 
L 317.142939 163.982434 
L 320.217319 164.153696 
L 323.291699 164.313451 
L 326.36608 164.462397 
L 329.44046 164.601199 
L 332.51484 164.730488 
L 335.58922 164.85086 
L 338.6636 164.962882 
L 341.73798 165.067088 
L 344.812361 165.163984 
L 347.886741 165.254047 
L 350.961121 165.337725 
L 354.035501 165.415442 
L 357.109881 165.487595 
L 360.184261 165.55456 
L 363.258642 165.616688 
L 366.333022 165.674307 
L 369.407402 165.727729 
L 372.481782 165.777242 
L 375.556162 165.823119 
L 378.630542 165.865613 
L 381.704923 165.904961 
L 384.779303 165.941388 
L 387.853683 165.975098 
L 390.928063 166.006287 
L 394.002443 166.035136 
" clip-path="url(#pd544968889)" style="fill: none; stroke: #008000; stroke-width: 1.5; stroke-linecap: square"/>
   </g>
   <g id="patch_3">
    <path d="M 74.420625 173.938359 
L 74.420625 7.618359 
" style="fill: none; stroke: #000000; stroke-width: 2; stroke-linejoin: miter; stroke-linecap: square"/>
   </g>
   <g id="patch_4">
    <path d="M 409.220625 173.938359 
L 409.220625 7.618359 
" style="fill: none; stroke: #000000; stroke-width: 2; stroke-linejoin: miter; stroke-linecap: square"/>
   </g>
   <g id="patch_5">
    <path d="M 74.420625 173.938359 
L 409.220625 173.938359 
" style="fill: none; stroke: #000000; stroke-width: 2; stroke-linejoin: miter; stroke-linecap: square"/>
   </g>
   <g id="patch_6">
    <path d="M 74.420625 7.618359 
L 409.220625 7.618359 
" style="fill: none; stroke: #000000; stroke-width: 2; stroke-linejoin: miter; stroke-linecap: square"/>
   </g>
   <g id="legend_1">
    <g id="patch_7">
     <path d="M 128.800625 80.558359 
L 399.420625 80.558359 
Q 402.220625 80.558359 402.220625 77.758359 
L 402.220625 17.418359 
Q 402.220625 14.618359 399.420625 14.618359 
L 128.800625 14.618359 
Q 126.000625 14.618359 126.000625 17.418359 
L 126.000625 77.758359 
Q 126.000625 80.558359 128.800625 80.558359 
z
" style="fill: #ffffff; opacity: 0.8; stroke: #cccccc; stroke-linejoin: miter"/>
    </g>
    <g id="line2d_12">
     <path d="M 131.600625 25.958359 
L 145.600625 25.958359 
L 159.600625 25.958359 
" style="fill: none; stroke: #0000ff; stroke-width: 1.5; stroke-linecap: square"/>
    </g>
    <g id="text_11">
     <!-- Scenario 1, shape=1, scale=$\tau_{DA}$ -->
     <g transform="translate(170.800625 30.858359) scale(0.14 -0.14)">
      <defs>
       <path id="DejaVuSans-53" d="M 3425 4513 
L 3425 3897 
Q 3066 4069 2747 4153 
Q 2428 4238 2131 4238 
Q 1616 4238 1336 4038 
Q 1056 3838 1056 3469 
Q 1056 3159 1242 3001 
Q 1428 2844 1947 2747 
L 2328 2669 
Q 3034 2534 3370 2195 
Q 3706 1856 3706 1288 
Q 3706 609 3251 259 
Q 2797 -91 1919 -91 
Q 1588 -91 1214 -16 
Q 841 59 441 206 
L 441 856 
Q 825 641 1194 531 
Q 1563 422 1919 422 
Q 2459 422 2753 634 
Q 3047 847 3047 1241 
Q 3047 1584 2836 1778 
Q 2625 1972 2144 2069 
L 1759 2144 
Q 1053 2284 737 2584 
Q 422 2884 422 3419 
Q 422 4038 858 4394 
Q 1294 4750 2059 4750 
Q 2388 4750 2728 4690 
Q 3069 4631 3425 4513 
z
" transform="scale(0.015625)"/>
       <path id="DejaVuSans-63" d="M 3122 3366 
L 3122 2828 
Q 2878 2963 2633 3030 
Q 2388 3097 2138 3097 
Q 1578 3097 1268 2742 
Q 959 2388 959 1747 
Q 959 1106 1268 751 
Q 1578 397 2138 397 
Q 2388 397 2633 464 
Q 2878 531 3122 666 
L 3122 134 
Q 2881 22 2623 -34 
Q 2366 -91 2075 -91 
Q 1284 -91 818 406 
Q 353 903 353 1747 
Q 353 2603 823 3093 
Q 1294 3584 2113 3584 
Q 2378 3584 2631 3529 
Q 2884 3475 3122 3366 
z
" transform="scale(0.015625)"/>
       <path id="DejaVuSans-65" d="M 3597 1894 
L 3597 1613 
L 953 1613 
Q 991 1019 1311 708 
Q 1631 397 2203 397 
Q 2534 397 2845 478 
Q 3156 559 3463 722 
L 3463 178 
Q 3153 47 2828 -22 
Q 2503 -91 2169 -91 
Q 1331 -91 842 396 
Q 353 884 353 1716 
Q 353 2575 817 3079 
Q 1281 3584 2069 3584 
Q 2775 3584 3186 3129 
Q 3597 2675 3597 1894 
z
M 3022 2063 
Q 3016 2534 2758 2815 
Q 2500 3097 2075 3097 
Q 1594 3097 1305 2825 
Q 1016 2553 972 2059 
L 3022 2063 
z
" transform="scale(0.015625)"/>
       <path id="DejaVuSans-6e" d="M 3513 2113 
L 3513 0 
L 2938 0 
L 2938 2094 
Q 2938 2591 2744 2837 
Q 2550 3084 2163 3084 
Q 1697 3084 1428 2787 
Q 1159 2491 1159 1978 
L 1159 0 
L 581 0 
L 581 3500 
L 1159 3500 
L 1159 2956 
Q 1366 3272 1645 3428 
Q 1925 3584 2291 3584 
Q 2894 3584 3203 3211 
Q 3513 2838 3513 2113 
z
" transform="scale(0.015625)"/>
       <path id="DejaVuSans-61" d="M 2194 1759 
Q 1497 1759 1228 1600 
Q 959 1441 959 1056 
Q 959 750 1161 570 
Q 1363 391 1709 391 
Q 2188 391 2477 730 
Q 2766 1069 2766 1631 
L 2766 1759 
L 2194 1759 
z
M 3341 1997 
L 3341 0 
L 2766 0 
L 2766 531 
Q 2569 213 2275 61 
Q 1981 -91 1556 -91 
Q 1019 -91 701 211 
Q 384 513 384 1019 
Q 384 1609 779 1909 
Q 1175 2209 1959 2209 
L 2766 2209 
L 2766 2266 
Q 2766 2663 2505 2880 
Q 2244 3097 1772 3097 
Q 1472 3097 1187 3025 
Q 903 2953 641 2809 
L 641 3341 
Q 956 3463 1253 3523 
Q 1550 3584 1831 3584 
Q 2591 3584 2966 3190 
Q 3341 2797 3341 1997 
z
" transform="scale(0.015625)"/>
       <path id="DejaVuSans-72" d="M 2631 2963 
Q 2534 3019 2420 3045 
Q 2306 3072 2169 3072 
Q 1681 3072 1420 2755 
Q 1159 2438 1159 1844 
L 1159 0 
L 581 0 
L 581 3500 
L 1159 3500 
L 1159 2956 
Q 1341 3275 1631 3429 
Q 1922 3584 2338 3584 
Q 2397 3584 2469 3576 
Q 2541 3569 2628 3553 
L 2631 2963 
z
" transform="scale(0.015625)"/>
       <path id="DejaVuSans-69" d="M 603 3500 
L 1178 3500 
L 1178 0 
L 603 0 
L 603 3500 
z
M 603 4863 
L 1178 4863 
L 1178 4134 
L 603 4134 
L 603 4863 
z
" transform="scale(0.015625)"/>
       <path id="DejaVuSans-6f" d="M 1959 3097 
Q 1497 3097 1228 2736 
Q 959 2375 959 1747 
Q 959 1119 1226 758 
Q 1494 397 1959 397 
Q 2419 397 2687 759 
Q 2956 1122 2956 1747 
Q 2956 2369 2687 2733 
Q 2419 3097 1959 3097 
z
M 1959 3584 
Q 2709 3584 3137 3096 
Q 3566 2609 3566 1747 
Q 3566 888 3137 398 
Q 2709 -91 1959 -91 
Q 1206 -91 779 398 
Q 353 888 353 1747 
Q 353 2609 779 3096 
Q 1206 3584 1959 3584 
z
" transform="scale(0.015625)"/>
       <path id="DejaVuSans-20" transform="scale(0.015625)"/>
       <path id="DejaVuSans-2c" d="M 750 794 
L 1409 794 
L 1409 256 
L 897 -744 
L 494 -744 
L 750 256 
L 750 794 
z
" transform="scale(0.015625)"/>
       <path id="DejaVuSans-73" d="M 2834 3397 
L 2834 2853 
Q 2591 2978 2328 3040 
Q 2066 3103 1784 3103 
Q 1356 3103 1142 2972 
Q 928 2841 928 2578 
Q 928 2378 1081 2264 
Q 1234 2150 1697 2047 
L 1894 2003 
Q 2506 1872 2764 1633 
Q 3022 1394 3022 966 
Q 3022 478 2636 193 
Q 2250 -91 1575 -91 
Q 1294 -91 989 -36 
Q 684 19 347 128 
L 347 722 
Q 666 556 975 473 
Q 1284 391 1588 391 
Q 1994 391 2212 530 
Q 2431 669 2431 922 
Q 2431 1156 2273 1281 
Q 2116 1406 1581 1522 
L 1381 1569 
Q 847 1681 609 1914 
Q 372 2147 372 2553 
Q 372 3047 722 3315 
Q 1072 3584 1716 3584 
Q 2034 3584 2315 3537 
Q 2597 3491 2834 3397 
z
" transform="scale(0.015625)"/>
       <path id="DejaVuSans-68" d="M 3513 2113 
L 3513 0 
L 2938 0 
L 2938 2094 
Q 2938 2591 2744 2837 
Q 2550 3084 2163 3084 
Q 1697 3084 1428 2787 
Q 1159 2491 1159 1978 
L 1159 0 
L 581 0 
L 581 4863 
L 1159 4863 
L 1159 2956 
Q 1366 3272 1645 3428 
Q 1925 3584 2291 3584 
Q 2894 3584 3203 3211 
Q 3513 2838 3513 2113 
z
" transform="scale(0.015625)"/>
       <path id="DejaVuSans-70" d="M 1159 525 
L 1159 -1331 
L 581 -1331 
L 581 3500 
L 1159 3500 
L 1159 2969 
Q 1341 3281 1617 3432 
Q 1894 3584 2278 3584 
Q 2916 3584 3314 3078 
Q 3713 2572 3713 1747 
Q 3713 922 3314 415 
Q 2916 -91 2278 -91 
Q 1894 -91 1617 61 
Q 1341 213 1159 525 
z
M 3116 1747 
Q 3116 2381 2855 2742 
Q 2594 3103 2138 3103 
Q 1681 3103 1420 2742 
Q 1159 2381 1159 1747 
Q 1159 1113 1420 752 
Q 1681 391 2138 391 
Q 2594 391 2855 752 
Q 3116 1113 3116 1747 
z
" transform="scale(0.015625)"/>
       <path id="DejaVuSans-3d" d="M 678 2906 
L 4684 2906 
L 4684 2381 
L 678 2381 
L 678 2906 
z
M 678 1631 
L 4684 1631 
L 4684 1100 
L 678 1100 
L 678 1631 
z
" transform="scale(0.015625)"/>
       <path id="DejaVuSans-6c" d="M 603 4863 
L 1178 4863 
L 1178 0 
L 603 0 
L 603 4863 
z
" transform="scale(0.015625)"/>
       <path id="DejaVuSans-Oblique-3c4" d="M 2103 638 
Q 2188 488 2525 488 
L 2800 488 
L 2706 0 
L 2363 0 
Q 1800 0 1600 300 
Q 1403 606 1534 1269 
L 1856 2925 
L 541 2925 
L 653 3500 
L 3881 3500 
L 3769 2925 
L 2444 2925 
L 2113 1234 
Q 2025 781 2103 638 
z
" transform="scale(0.015625)"/>
       <path id="DejaVuSans-Oblique-44" d="M 1081 4666 
L 2438 4666 
Q 3519 4666 4070 4208 
Q 4622 3750 4622 2847 
Q 4622 2250 4412 1698 
Q 4203 1147 3834 769 
Q 3463 381 2891 190 
Q 2319 0 1538 0 
L 172 0 
L 1081 4666 
z
M 1613 4147 
L 909 519 
L 1734 519 
Q 2794 519 3375 1128 
Q 3956 1738 3956 2847 
Q 3956 3519 3581 3833 
Q 3206 4147 2406 4147 
L 1613 4147 
z
" transform="scale(0.015625)"/>
       <path id="DejaVuSans-Oblique-41" d="M 2356 4666 
L 3072 4666 
L 3938 0 
L 3278 0 
L 3084 1197 
L 984 1197 
L 325 0 
L -341 0 
L 2356 4666 
z
M 2584 4044 
L 1275 1722 
L 2988 1722 
L 2584 4044 
z
" transform="scale(0.015625)"/>
      </defs>
      <use xlink:href="#DejaVuSans-53" transform="translate(0 0.015625)"/>
      <use xlink:href="#DejaVuSans-63" transform="translate(63.476562 0.015625)"/>
      <use xlink:href="#DejaVuSans-65" transform="translate(118.457031 0.015625)"/>
      <use xlink:href="#DejaVuSans-6e" transform="translate(179.980469 0.015625)"/>
      <use xlink:href="#DejaVuSans-61" transform="translate(243.359375 0.015625)"/>
      <use xlink:href="#DejaVuSans-72" transform="translate(304.638672 0.015625)"/>
      <use xlink:href="#DejaVuSans-69" transform="translate(345.751953 0.015625)"/>
      <use xlink:href="#DejaVuSans-6f" transform="translate(373.535156 0.015625)"/>
      <use xlink:href="#DejaVuSans-20" transform="translate(434.716797 0.015625)"/>
      <use xlink:href="#DejaVuSans-31" transform="translate(466.503906 0.015625)"/>
      <use xlink:href="#DejaVuSans-2c" transform="translate(530.126953 0.015625)"/>
      <use xlink:href="#DejaVuSans-20" transform="translate(561.914062 0.015625)"/>
      <use xlink:href="#DejaVuSans-73" transform="translate(593.701172 0.015625)"/>
      <use xlink:href="#DejaVuSans-68" transform="translate(645.800781 0.015625)"/>
      <use xlink:href="#DejaVuSans-61" transform="translate(709.179688 0.015625)"/>
      <use xlink:href="#DejaVuSans-70" transform="translate(770.458984 0.015625)"/>
      <use xlink:href="#DejaVuSans-65" transform="translate(833.935547 0.015625)"/>
      <use xlink:href="#DejaVuSans-3d" transform="translate(895.458984 0.015625)"/>
      <use xlink:href="#DejaVuSans-31" transform="translate(979.248047 0.015625)"/>
      <use xlink:href="#DejaVuSans-2c" transform="translate(1042.871094 0.015625)"/>
      <use xlink:href="#DejaVuSans-20" transform="translate(1074.658203 0.015625)"/>
      <use xlink:href="#DejaVuSans-73" transform="translate(1106.445312 0.015625)"/>
      <use xlink:href="#DejaVuSans-63" transform="translate(1158.544922 0.015625)"/>
      <use xlink:href="#DejaVuSans-61" transform="translate(1213.525391 0.015625)"/>
      <use xlink:href="#DejaVuSans-6c" transform="translate(1274.804688 0.015625)"/>
      <use xlink:href="#DejaVuSans-65" transform="translate(1302.587891 0.015625)"/>
      <use xlink:href="#DejaVuSans-3d" transform="translate(1364.111328 0.015625)"/>
      <use xlink:href="#DejaVuSans-Oblique-3c4" transform="translate(1447.900391 0.015625)"/>
      <use xlink:href="#DejaVuSans-Oblique-44" transform="translate(1508.105469 -16.390625) scale(0.7)"/>
      <use xlink:href="#DejaVuSans-Oblique-41" transform="translate(1562.006836 -16.390625) scale(0.7)"/>
     </g>
    </g>
    <g id="line2d_13">
     <path d="M 131.600625 46.538359 
L 145.600625 46.538359 
L 159.600625 46.538359 
" style="fill: none; stroke: #ff0000; stroke-width: 1.5; stroke-linecap: square"/>
    </g>
    <g id="text_12">
     <!-- Scenario 2, shape=2, scale=$\tau_{DA}$ -->
     <g transform="translate(170.800625 51.438359) scale(0.14 -0.14)">
      <use xlink:href="#DejaVuSans-53" transform="translate(0 0.015625)"/>
      <use xlink:href="#DejaVuSans-63" transform="translate(63.476562 0.015625)"/>
      <use xlink:href="#DejaVuSans-65" transform="translate(118.457031 0.015625)"/>
      <use xlink:href="#DejaVuSans-6e" transform="translate(179.980469 0.015625)"/>
      <use xlink:href="#DejaVuSans-61" transform="translate(243.359375 0.015625)"/>
      <use xlink:href="#DejaVuSans-72" transform="translate(304.638672 0.015625)"/>
      <use xlink:href="#DejaVuSans-69" transform="translate(345.751953 0.015625)"/>
      <use xlink:href="#DejaVuSans-6f" transform="translate(373.535156 0.015625)"/>
      <use xlink:href="#DejaVuSans-20" transform="translate(434.716797 0.015625)"/>
      <use xlink:href="#DejaVuSans-32" transform="translate(466.503906 0.015625)"/>
      <use xlink:href="#DejaVuSans-2c" transform="translate(530.126953 0.015625)"/>
      <use xlink:href="#DejaVuSans-20" transform="translate(561.914062 0.015625)"/>
      <use xlink:href="#DejaVuSans-73" transform="translate(593.701172 0.015625)"/>
      <use xlink:href="#DejaVuSans-68" transform="translate(645.800781 0.015625)"/>
      <use xlink:href="#DejaVuSans-61" transform="translate(709.179688 0.015625)"/>
      <use xlink:href="#DejaVuSans-70" transform="translate(770.458984 0.015625)"/>
      <use xlink:href="#DejaVuSans-65" transform="translate(833.935547 0.015625)"/>
      <use xlink:href="#DejaVuSans-3d" transform="translate(895.458984 0.015625)"/>
      <use xlink:href="#DejaVuSans-32" transform="translate(979.248047 0.015625)"/>
      <use xlink:href="#DejaVuSans-2c" transform="translate(1042.871094 0.015625)"/>
      <use xlink:href="#DejaVuSans-20" transform="translate(1074.658203 0.015625)"/>
      <use xlink:href="#DejaVuSans-73" transform="translate(1106.445312 0.015625)"/>
      <use xlink:href="#DejaVuSans-63" transform="translate(1158.544922 0.015625)"/>
      <use xlink:href="#DejaVuSans-61" transform="translate(1213.525391 0.015625)"/>
      <use xlink:href="#DejaVuSans-6c" transform="translate(1274.804688 0.015625)"/>
      <use xlink:href="#DejaVuSans-65" transform="translate(1302.587891 0.015625)"/>
      <use xlink:href="#DejaVuSans-3d" transform="translate(1364.111328 0.015625)"/>
      <use xlink:href="#DejaVuSans-Oblique-3c4" transform="translate(1447.900391 0.015625)"/>
      <use xlink:href="#DejaVuSans-Oblique-44" transform="translate(1508.105469 -16.390625) scale(0.7)"/>
      <use xlink:href="#DejaVuSans-Oblique-41" transform="translate(1562.006836 -16.390625) scale(0.7)"/>
     </g>
    </g>
    <g id="line2d_14">
     <path d="M 131.600625 67.118359 
L 145.600625 67.118359 
L 159.600625 67.118359 
" style="fill: none; stroke: #008000; stroke-width: 1.5; stroke-linecap: square"/>
    </g>
    <g id="text_13">
     <!-- Scenario 3, shape=3, scale=$\tau_{DA}$ -->
     <g transform="translate(170.800625 72.018359) scale(0.14 -0.14)">
      <defs>
       <path id="DejaVuSans-33" d="M 2597 2516 
Q 3050 2419 3304 2112 
Q 3559 1806 3559 1356 
Q 3559 666 3084 287 
Q 2609 -91 1734 -91 
Q 1441 -91 1130 -33 
Q 819 25 488 141 
L 488 750 
Q 750 597 1062 519 
Q 1375 441 1716 441 
Q 2309 441 2620 675 
Q 2931 909 2931 1356 
Q 2931 1769 2642 2001 
Q 2353 2234 1838 2234 
L 1294 2234 
L 1294 2753 
L 1863 2753 
Q 2328 2753 2575 2939 
Q 2822 3125 2822 3475 
Q 2822 3834 2567 4026 
Q 2313 4219 1838 4219 
Q 1578 4219 1281 4162 
Q 984 4106 628 3988 
L 628 4550 
Q 988 4650 1302 4700 
Q 1616 4750 1894 4750 
Q 2613 4750 3031 4423 
Q 3450 4097 3450 3541 
Q 3450 3153 3228 2886 
Q 3006 2619 2597 2516 
z
" transform="scale(0.015625)"/>
      </defs>
      <use xlink:href="#DejaVuSans-53" transform="translate(0 0.015625)"/>
      <use xlink:href="#DejaVuSans-63" transform="translate(63.476562 0.015625)"/>
      <use xlink:href="#DejaVuSans-65" transform="translate(118.457031 0.015625)"/>
      <use xlink:href="#DejaVuSans-6e" transform="translate(179.980469 0.015625)"/>
      <use xlink:href="#DejaVuSans-61" transform="translate(243.359375 0.015625)"/>
      <use xlink:href="#DejaVuSans-72" transform="translate(304.638672 0.015625)"/>
      <use xlink:href="#DejaVuSans-69" transform="translate(345.751953 0.015625)"/>
      <use xlink:href="#DejaVuSans-6f" transform="translate(373.535156 0.015625)"/>
      <use xlink:href="#DejaVuSans-20" transform="translate(434.716797 0.015625)"/>
      <use xlink:href="#DejaVuSans-33" transform="translate(466.503906 0.015625)"/>
      <use xlink:href="#DejaVuSans-2c" transform="translate(530.126953 0.015625)"/>
      <use xlink:href="#DejaVuSans-20" transform="translate(561.914062 0.015625)"/>
      <use xlink:href="#DejaVuSans-73" transform="translate(593.701172 0.015625)"/>
      <use xlink:href="#DejaVuSans-68" transform="translate(645.800781 0.015625)"/>
      <use xlink:href="#DejaVuSans-61" transform="translate(709.179688 0.015625)"/>
      <use xlink:href="#DejaVuSans-70" transform="translate(770.458984 0.015625)"/>
      <use xlink:href="#DejaVuSans-65" transform="translate(833.935547 0.015625)"/>
      <use xlink:href="#DejaVuSans-3d" transform="translate(895.458984 0.015625)"/>
      <use xlink:href="#DejaVuSans-33" transform="translate(979.248047 0.015625)"/>
      <use xlink:href="#DejaVuSans-2c" transform="translate(1042.871094 0.015625)"/>
      <use xlink:href="#DejaVuSans-20" transform="translate(1074.658203 0.015625)"/>
      <use xlink:href="#DejaVuSans-73" transform="translate(1106.445312 0.015625)"/>
      <use xlink:href="#DejaVuSans-63" transform="translate(1158.544922 0.015625)"/>
      <use xlink:href="#DejaVuSans-61" transform="translate(1213.525391 0.015625)"/>
      <use xlink:href="#DejaVuSans-6c" transform="translate(1274.804688 0.015625)"/>
      <use xlink:href="#DejaVuSans-65" transform="translate(1302.587891 0.015625)"/>
      <use xlink:href="#DejaVuSans-3d" transform="translate(1364.111328 0.015625)"/>
      <use xlink:href="#DejaVuSans-Oblique-3c4" transform="translate(1447.900391 0.015625)"/>
      <use xlink:href="#DejaVuSans-Oblique-44" transform="translate(1508.105469 -16.390625) scale(0.7)"/>
      <use xlink:href="#DejaVuSans-Oblique-41" transform="translate(1562.006836 -16.390625) scale(0.7)"/>
     </g>
    </g>
   </g>
  </g>
 </g>
 <defs>
  <clipPath id="pd544968889">
   <rect x="74.420625" y="7.618359" width="334.8" height="166.32"/>
  </clipPath>
 </defs>
</svg>
