<?xml version="1.0" encoding="utf-8" standalone="no"?>
<!DOCTYPE svg PUBLIC "-//W3C//DTD SVG 1.1//EN"
  "http://www.w3.org/Graphics/SVG/1.1/DTD/svg11.dtd">
<svg xmlns:xlink="http://www.w3.org/1999/xlink" width="432pt" height="216pt" viewBox="0 0 432 216" xmlns="http://www.w3.org/2000/svg" version="1.1">
 <metadata>
  <rdf:RDF xmlns:dc="http://purl.org/dc/elements/1.1/" xmlns:cc="http://creativecommons.org/ns#" xmlns:rdf="http://www.w3.org/1999/02/22-rdf-syntax-ns#">
   <cc:Work>
    <dc:type rdf:resource="http://purl.org/dc/dcmitype/StillImage"/>
    <dc:date>2024-08-14T15:01:24.190404</dc:date>
    <dc:format>image/svg+xml</dc:format>
    <dc:creator>
     <cc:Agent>
      <dc:title>Matplotlib v3.8.4, https://matplotlib.org/</dc:title>
     </cc:Agent>
    </dc:creator>
   </cc:Work>
  </rdf:RDF>
 </metadata>
 <defs>
  <style type="text/css">*{stroke-linejoin: round; stroke-linecap: butt}</style>
 </defs>
 <g id="figure_1">
  <g id="patch_1">
   <path d="M 0 216 
L 432 216 
L 432 0 
L 0 0 
z
" style="fill: #ffffff"/>
  </g>
  <g id="axes_1">
   <g id="patch_2">
    <path d="M 54 192.24 
L 388.8 192.24 
L 388.8 25.92 
L 54 25.92 
z
" style="fill: #ffffff"/>
   </g>
   <g id="matplotlib.axis_1">
    <g id="xtick_1">
     <g id="line2d_1">
      <defs>
       <path id="mc44a9c056e" d="M 0 0 
L 0 6 
" style="stroke: #000000; stroke-width: 2"/>
      </defs>
      <g>
       <use xlink:href="#mc44a9c056e" x="69.218182" y="192.24" style="stroke: #000000; stroke-width: 2"/>
      </g>
     </g>
     <g id="text_1">
      <!-- 0 -->
      <g transform="translate(62.537557 217.696719) scale(0.21 -0.21)">
       <defs>
        <path id="DejaVuSans-30" d="M 2034 4250 
Q 1547 4250 1301 3770 
Q 1056 3291 1056 2328 
Q 1056 1369 1301 889 
Q 1547 409 2034 409 
Q 2525 409 2770 889 
Q 3016 1369 3016 2328 
Q 3016 3291 2770 3770 
Q 2525 4250 2034 4250 
z
M 2034 4750 
Q 2819 4750 3233 4129 
Q 3647 3509 3647 2328 
Q 3647 1150 3233 529 
Q 2819 -91 2034 -91 
Q 1250 -91 836 529 
Q 422 1150 422 2328 
Q 422 3509 836 4129 
Q 1250 4750 2034 4750 
z
" transform="scale(0.015625)"/>
       </defs>
       <use xlink:href="#DejaVuSans-30"/>
      </g>
     </g>
    </g>
    <g id="xtick_2">
     <g id="line2d_2">
      <g>
       <use xlink:href="#mc44a9c056e" x="170.672727" y="192.24" style="stroke: #000000; stroke-width: 2"/>
      </g>
     </g>
     <g id="text_2">
      <!-- 100 -->
      <g transform="translate(150.630852 217.696719) scale(0.21 -0.21)">
       <defs>
        <path id="DejaVuSans-31" d="M 794 531 
L 1825 531 
L 1825 4091 
L 703 3866 
L 703 4441 
L 1819 4666 
L 2450 4666 
L 2450 531 
L 3481 531 
L 3481 0 
L 794 0 
L 794 531 
z
" transform="scale(0.015625)"/>
       </defs>
       <use xlink:href="#DejaVuSans-31"/>
       <use xlink:href="#DejaVuSans-30" x="63.623047"/>
       <use xlink:href="#DejaVuSans-30" x="127.246094"/>
      </g>
     </g>
    </g>
    <g id="xtick_3">
     <g id="line2d_3">
      <g>
       <use xlink:href="#mc44a9c056e" x="272.127273" y="192.24" style="stroke: #000000; stroke-width: 2"/>
      </g>
     </g>
     <g id="text_3">
      <!-- 200 -->
      <g transform="translate(252.085398 217.696719) scale(0.21 -0.21)">
       <defs>
        <path id="DejaVuSans-32" d="M 1228 531 
L 3431 531 
L 3431 0 
L 469 0 
L 469 531 
Q 828 903 1448 1529 
Q 2069 2156 2228 2338 
Q 2531 2678 2651 2914 
Q 2772 3150 2772 3378 
Q 2772 3750 2511 3984 
Q 2250 4219 1831 4219 
Q 1534 4219 1204 4116 
Q 875 4013 500 3803 
L 500 4441 
Q 881 4594 1212 4672 
Q 1544 4750 1819 4750 
Q 2544 4750 2975 4387 
Q 3406 4025 3406 3419 
Q 3406 3131 3298 2873 
Q 3191 2616 2906 2266 
Q 2828 2175 2409 1742 
Q 1991 1309 1228 531 
z
" transform="scale(0.015625)"/>
       </defs>
       <use xlink:href="#DejaVuSans-32"/>
       <use xlink:href="#DejaVuSans-30" x="63.623047"/>
       <use xlink:href="#DejaVuSans-30" x="127.246094"/>
      </g>
     </g>
    </g>
    <g id="xtick_4">
     <g id="line2d_4">
      <g>
       <use xlink:href="#mc44a9c056e" x="373.581818" y="192.24" style="stroke: #000000; stroke-width: 2"/>
      </g>
     </g>
     <g id="text_4">
      <!-- 300 -->
      <g transform="translate(353.539943 217.696719) scale(0.21 -0.21)">
       <defs>
        <path id="DejaVuSans-33" d="M 2597 2516 
Q 3050 2419 3304 2112 
Q 3559 1806 3559 1356 
Q 3559 666 3084 287 
Q 2609 -91 1734 -91 
Q 1441 -91 1130 -33 
Q 819 25 488 141 
L 488 750 
Q 750 597 1062 519 
Q 1375 441 1716 441 
Q 2309 441 2620 675 
Q 2931 909 2931 1356 
Q 2931 1769 2642 2001 
Q 2353 2234 1838 2234 
L 1294 2234 
L 1294 2753 
L 1863 2753 
Q 2328 2753 2575 2939 
Q 2822 3125 2822 3475 
Q 2822 3834 2567 4026 
Q 2313 4219 1838 4219 
Q 1578 4219 1281 4162 
Q 984 4106 628 3988 
L 628 4550 
Q 988 4650 1302 4700 
Q 1616 4750 1894 4750 
Q 2613 4750 3031 4423 
Q 3450 4097 3450 3541 
Q 3450 3153 3228 2886 
Q 3006 2619 2597 2516 
z
" transform="scale(0.015625)"/>
       </defs>
       <use xlink:href="#DejaVuSans-33"/>
       <use xlink:href="#DejaVuSans-30" x="63.623047"/>
       <use xlink:href="#DejaVuSans-30" x="127.246094"/>
      </g>
     </g>
    </g>
    <g id="text_5">
     <!-- time (s) -->
     <g transform="translate(180.678047 242.020781) scale(0.21 -0.21)">
      <defs>
       <path id="DejaVuSans-74" d="M 1172 4494 
L 1172 3500 
L 2356 3500 
L 2356 3053 
L 1172 3053 
L 1172 1153 
Q 1172 725 1289 603 
Q 1406 481 1766 481 
L 2356 481 
L 2356 0 
L 1766 0 
Q 1100 0 847 248 
Q 594 497 594 1153 
L 594 3053 
L 172 3053 
L 172 3500 
L 594 3500 
L 594 4494 
L 1172 4494 
z
" transform="scale(0.015625)"/>
       <path id="DejaVuSans-69" d="M 603 3500 
L 1178 3500 
L 1178 0 
L 603 0 
L 603 3500 
z
M 603 4863 
L 1178 4863 
L 1178 4134 
L 603 4134 
L 603 4863 
z
" transform="scale(0.015625)"/>
       <path id="DejaVuSans-6d" d="M 3328 2828 
Q 3544 3216 3844 3400 
Q 4144 3584 4550 3584 
Q 5097 3584 5394 3201 
Q 5691 2819 5691 2113 
L 5691 0 
L 5113 0 
L 5113 2094 
Q 5113 2597 4934 2840 
Q 4756 3084 4391 3084 
Q 3944 3084 3684 2787 
Q 3425 2491 3425 1978 
L 3425 0 
L 2847 0 
L 2847 2094 
Q 2847 2600 2669 2842 
Q 2491 3084 2119 3084 
Q 1678 3084 1418 2786 
Q 1159 2488 1159 1978 
L 1159 0 
L 581 0 
L 581 3500 
L 1159 3500 
L 1159 2956 
Q 1356 3278 1631 3431 
Q 1906 3584 2284 3584 
Q 2666 3584 2933 3390 
Q 3200 3197 3328 2828 
z
" transform="scale(0.015625)"/>
       <path id="DejaVuSans-65" d="M 3597 1894 
L 3597 1613 
L 953 1613 
Q 991 1019 1311 708 
Q 1631 397 2203 397 
Q 2534 397 2845 478 
Q 3156 559 3463 722 
L 3463 178 
Q 3153 47 2828 -22 
Q 2503 -91 2169 -91 
Q 1331 -91 842 396 
Q 353 884 353 1716 
Q 353 2575 817 3079 
Q 1281 3584 2069 3584 
Q 2775 3584 3186 3129 
Q 3597 2675 3597 1894 
z
M 3022 2063 
Q 3016 2534 2758 2815 
Q 2500 3097 2075 3097 
Q 1594 3097 1305 2825 
Q 1016 2553 972 2059 
L 3022 2063 
z
" transform="scale(0.015625)"/>
       <path id="DejaVuSans-20" transform="scale(0.015625)"/>
       <path id="DejaVuSans-28" d="M 1984 4856 
Q 1566 4138 1362 3434 
Q 1159 2731 1159 2009 
Q 1159 1288 1364 580 
Q 1569 -128 1984 -844 
L 1484 -844 
Q 1016 -109 783 600 
Q 550 1309 550 2009 
Q 550 2706 781 3412 
Q 1013 4119 1484 4856 
L 1984 4856 
z
" transform="scale(0.015625)"/>
       <path id="DejaVuSans-73" d="M 2834 3397 
L 2834 2853 
Q 2591 2978 2328 3040 
Q 2066 3103 1784 3103 
Q 1356 3103 1142 2972 
Q 928 2841 928 2578 
Q 928 2378 1081 2264 
Q 1234 2150 1697 2047 
L 1894 2003 
Q 2506 1872 2764 1633 
Q 3022 1394 3022 966 
Q 3022 478 2636 193 
Q 2250 -91 1575 -91 
Q 1294 -91 989 -36 
Q 684 19 347 128 
L 347 722 
Q 666 556 975 473 
Q 1284 391 1588 391 
Q 1994 391 2212 530 
Q 2431 669 2431 922 
Q 2431 1156 2273 1281 
Q 2116 1406 1581 1522 
L 1381 1569 
Q 847 1681 609 1914 
Q 372 2147 372 2553 
Q 372 3047 722 3315 
Q 1072 3584 1716 3584 
Q 2034 3584 2315 3537 
Q 2597 3491 2834 3397 
z
" transform="scale(0.015625)"/>
       <path id="DejaVuSans-29" d="M 513 4856 
L 1013 4856 
Q 1481 4119 1714 3412 
Q 1947 2706 1947 2009 
Q 1947 1309 1714 600 
Q 1481 -109 1013 -844 
L 513 -844 
Q 928 -128 1133 580 
Q 1338 1288 1338 2009 
Q 1338 2731 1133 3434 
Q 928 4138 513 4856 
z
" transform="scale(0.015625)"/>
      </defs>
      <use xlink:href="#DejaVuSans-74"/>
      <use xlink:href="#DejaVuSans-69" x="39.208984"/>
      <use xlink:href="#DejaVuSans-6d" x="66.992188"/>
      <use xlink:href="#DejaVuSans-65" x="164.404297"/>
      <use xlink:href="#DejaVuSans-20" x="225.927734"/>
      <use xlink:href="#DejaVuSans-28" x="257.714844"/>
      <use xlink:href="#DejaVuSans-73" x="296.728516"/>
      <use xlink:href="#DejaVuSans-29" x="348.828125"/>
     </g>
    </g>
   </g>
   <g id="matplotlib.axis_2">
    <g id="ytick_1">
     <g id="line2d_5">
      <defs>
       <path id="m2d39433f98" d="M 0 0 
L -6 0 
" style="stroke: #000000; stroke-width: 2"/>
      </defs>
      <g>
       <use xlink:href="#m2d39433f98" x="54" y="184.702703" style="stroke: #000000; stroke-width: 2"/>
      </g>
     </g>
     <g id="text_6">
      <!-- 0.0 -->
      <g transform="translate(11.103437 192.681063) scale(0.21 -0.21)">
       <defs>
        <path id="DejaVuSans-2e" d="M 684 794 
L 1344 794 
L 1344 0 
L 684 0 
L 684 794 
z
" transform="scale(0.015625)"/>
       </defs>
       <use xlink:href="#DejaVuSans-30"/>
       <use xlink:href="#DejaVuSans-2e" x="63.623047"/>
       <use xlink:href="#DejaVuSans-30" x="95.410156"/>
      </g>
     </g>
    </g>
    <g id="ytick_2">
     <g id="line2d_6">
      <g>
       <use xlink:href="#m2d39433f98" x="54" y="109.091352" style="stroke: #000000; stroke-width: 2"/>
      </g>
     </g>
     <g id="text_7">
      <!-- 0.5 -->
      <g transform="translate(11.103437 117.069711) scale(0.21 -0.21)">
       <defs>
        <path id="DejaVuSans-35" d="M 691 4666 
L 3169 4666 
L 3169 4134 
L 1269 4134 
L 1269 2991 
Q 1406 3038 1543 3061 
Q 1681 3084 1819 3084 
Q 2600 3084 3056 2656 
Q 3513 2228 3513 1497 
Q 3513 744 3044 326 
Q 2575 -91 1722 -91 
Q 1428 -91 1123 -41 
Q 819 9 494 109 
L 494 744 
Q 775 591 1075 516 
Q 1375 441 1709 441 
Q 2250 441 2565 725 
Q 2881 1009 2881 1497 
Q 2881 1984 2565 2268 
Q 2250 2553 1709 2553 
Q 1456 2553 1204 2497 
Q 953 2441 691 2322 
L 691 4666 
z
" transform="scale(0.015625)"/>
       </defs>
       <use xlink:href="#DejaVuSans-30"/>
       <use xlink:href="#DejaVuSans-2e" x="63.623047"/>
       <use xlink:href="#DejaVuSans-35" x="95.410156"/>
      </g>
     </g>
    </g>
    <g id="ytick_3">
     <g id="line2d_7">
      <g>
       <use xlink:href="#m2d39433f98" x="54" y="33.48" style="stroke: #000000; stroke-width: 2"/>
      </g>
     </g>
     <g id="text_8">
      <!-- 1.0 -->
      <g transform="translate(11.103437 41.458359) scale(0.21 -0.21)">
       <use xlink:href="#DejaVuSans-31"/>
       <use xlink:href="#DejaVuSans-2e" x="63.623047"/>
       <use xlink:href="#DejaVuSans-30" x="95.410156"/>
      </g>
     </g>
    </g>
    <g id="text_9">
     <!-- % emission -->
     <g transform="translate(2.736094 168.934922) rotate(-90) scale(0.21 -0.21)">
      <defs>
       <path id="DejaVuSans-25" d="M 4653 2053 
Q 4381 2053 4226 1822 
Q 4072 1591 4072 1178 
Q 4072 772 4226 539 
Q 4381 306 4653 306 
Q 4919 306 5073 539 
Q 5228 772 5228 1178 
Q 5228 1588 5073 1820 
Q 4919 2053 4653 2053 
z
M 4653 2450 
Q 5147 2450 5437 2106 
Q 5728 1763 5728 1178 
Q 5728 594 5436 251 
Q 5144 -91 4653 -91 
Q 4153 -91 3862 251 
Q 3572 594 3572 1178 
Q 3572 1766 3864 2108 
Q 4156 2450 4653 2450 
z
M 1428 4353 
Q 1159 4353 1004 4120 
Q 850 3888 850 3481 
Q 850 3069 1003 2837 
Q 1156 2606 1428 2606 
Q 1700 2606 1854 2837 
Q 2009 3069 2009 3481 
Q 2009 3884 1853 4118 
Q 1697 4353 1428 4353 
z
M 4250 4750 
L 4750 4750 
L 1831 -91 
L 1331 -91 
L 4250 4750 
z
M 1428 4750 
Q 1922 4750 2215 4408 
Q 2509 4066 2509 3481 
Q 2509 2891 2217 2550 
Q 1925 2209 1428 2209 
Q 931 2209 642 2551 
Q 353 2894 353 3481 
Q 353 4063 643 4406 
Q 934 4750 1428 4750 
z
" transform="scale(0.015625)"/>
       <path id="DejaVuSans-6f" d="M 1959 3097 
Q 1497 3097 1228 2736 
Q 959 2375 959 1747 
Q 959 1119 1226 758 
Q 1494 397 1959 397 
Q 2419 397 2687 759 
Q 2956 1122 2956 1747 
Q 2956 2369 2687 2733 
Q 2419 3097 1959 3097 
z
M 1959 3584 
Q 2709 3584 3137 3096 
Q 3566 2609 3566 1747 
Q 3566 888 3137 398 
Q 2709 -91 1959 -91 
Q 1206 -91 779 398 
Q 353 888 353 1747 
Q 353 2609 779 3096 
Q 1206 3584 1959 3584 
z
" transform="scale(0.015625)"/>
       <path id="DejaVuSans-6e" d="M 3513 2113 
L 3513 0 
L 2938 0 
L 2938 2094 
Q 2938 2591 2744 2837 
Q 2550 3084 2163 3084 
Q 1697 3084 1428 2787 
Q 1159 2491 1159 1978 
L 1159 0 
L 581 0 
L 581 3500 
L 1159 3500 
L 1159 2956 
Q 1366 3272 1645 3428 
Q 1925 3584 2291 3584 
Q 2894 3584 3203 3211 
Q 3513 2838 3513 2113 
z
" transform="scale(0.015625)"/>
      </defs>
      <use xlink:href="#DejaVuSans-25"/>
      <use xlink:href="#DejaVuSans-20" x="95.019531"/>
      <use xlink:href="#DejaVuSans-65" x="126.806641"/>
      <use xlink:href="#DejaVuSans-6d" x="188.330078"/>
      <use xlink:href="#DejaVuSans-69" x="285.742188"/>
      <use xlink:href="#DejaVuSans-73" x="313.525391"/>
      <use xlink:href="#DejaVuSans-73" x="365.625"/>
      <use xlink:href="#DejaVuSans-69" x="417.724609"/>
      <use xlink:href="#DejaVuSans-6f" x="445.507812"/>
      <use xlink:href="#DejaVuSans-6e" x="506.689453"/>
     </g>
    </g>
   </g>
   <g id="line2d_8">
    <path d="M 69.218182 184.543119 
L 69.43428 168.921641 
L 69.662553 166.171188 
L 70.344327 164.815502 
L 70.875949 164.705084 
L 71.188429 164.435971 
L 72.745756 164.326294 
L 72.922287 164.249394 
L 73.767404 164.141905 
L 73.917556 164.012391 
L 75.34908 163.902492 
L 75.586484 163.64758 
L 76.849593 163.537903 
L 77.099171 162.83861 
L 77.304109 162.492635 
L 77.459335 162.381549 
L 77.753553 162.06086 
L 77.906749 161.950664 
L 78.332858 161.391453 
L 78.739691 161.28185 
L 79.019705 160.896534 
L 79.457989 160.153527 
L 79.69032 159.994462 
L 80.830669 159.883524 
L 81.184745 159.419677 
L 81.536793 159.308628 
L 81.747818 159.152938 
L 81.817822 159.043261 
L 81.9558 159.036957 
L 82.64772 158.926984 
L 82.935851 158.709224 
L 83.549651 158.598472 
L 83.69676 158.56436 
L 85.307858 158.453534 
L 85.470185 158.434587 
L 86.12964 158.32402 
L 86.324433 158.239111 
L 86.802284 158.128767 
L 87.075196 157.926135 
L 88.464109 157.81516 
L 88.879058 156.990062 
L 89.258498 156.695143 
L 89.424884 156.584761 
L 89.780989 156.03404 
L 89.995058 155.954619 
L 90.162458 155.844052 
L 90.31464 155.826366 
L 91.382956 155.716133 
L 91.554415 155.670972 
L 92.024149 155.560145 
L 92.176331 155.502749 
L 93.317695 155.391663 
L 93.701193 155.124589 
L 96.870633 155.014616 
L 97.309931 154.083362 
L 97.408342 153.975725 
L 97.592989 153.735348 
L 98.072869 153.089559 
L 99.59976 152.979066 
L 100.086742 152.320448 
L 100.38096 152.209622 
L 100.519953 152.166574 
L 101.570007 152.057268 
L 101.793207 151.615964 
L 101.992058 151.505286 
L 102.208156 151.422491 
L 103.420538 151.311442 
L 104.037382 150.509332 
L 105.399916 150.398246 
L 106.040095 149.638701 
L 106.431709 149.527764 
L 106.75332 149.162767 
L 109.021844 149.052126 
L 109.464185 148.731141 
L 114.014422 148.62076 
L 114.210229 148.472966 
L 114.733735 148.364884 
L 114.897076 148.132293 
L 115.342462 148.024136 
L 115.467251 147.983091 
L 120.004298 147.873006 
L 120.160538 147.826807 
L 120.528818 147.71687 
L 120.773324 147.566963 
L 121.120298 147.456397 
L 121.528145 147.115019 
L 121.909615 147.004266 
L 122.141945 146.825476 
L 122.772993 146.714538 
L 123.298527 145.938457 
L 123.696229 145.828632 
L 123.9732 145.612986 
L 125.4798 145.503605 
L 125.616764 145.444169 
L 128.538655 145.334195 
L 128.937371 144.539575 
L 129.094625 144.329342 
L 129.489284 144.219332 
L 129.760167 143.880067 
L 130.137578 143.770724 
L 130.414549 142.827717 
L 130.978636 141.117231 
L 131.087193 140.914451 
L 131.392571 140.349974 
L 131.476778 140.241113 
L 131.904916 139.296437 
L 132.047967 139.283868 
L 133.698633 139.173264 
L 133.880236 139.062808 
L 134.574185 138.952501 
L 134.786225 138.619985 
L 135.327993 138.41409 
L 135.484233 138.303968 
L 135.629313 138.23352 
L 135.778451 138.123139 
L 136.45008 137.337676 
L 137.271862 137.226998 
L 137.583327 136.920177 
L 137.835949 136.809314 
L 138.004364 136.695076 
L 139.18428 136.585066 
L 139.423713 136.3217 
L 140.031425 136.213209 
L 140.329702 135.561488 
L 141.903262 135.450847 
L 142.179218 135.313139 
L 143.805535 135.20209 
L 144.160625 134.831532 
L 144.466004 134.720668 
L 145.033135 134.352557 
L 145.135604 134.243065 
L 145.274596 134.229384 
L 146.289142 134.118335 
L 146.752789 132.946927 
L 147.092662 132.606624 
L 147.215422 132.59932 
L 147.513698 132.489198 
L 147.723709 132.282302 
L 147.804873 132.17218 
L 147.941836 132.142481 
L 148.497807 132.031951 
L 148.694629 132.006256 
L 149.357127 131.895244 
L 149.474815 131.881451 
L 151.045331 131.770736 
L 151.405495 131.333956 
L 152.233364 131.224057 
L 152.795422 130.426878 
L 153.083553 130.316793 
L 153.285447 130.205893 
L 153.405164 130.094807 
L 153.657785 129.795809 
L 153.847505 129.685724 
L 154.280716 129.063554 
L 155.021335 128.952616 
L 155.191778 128.810236 
L 156.274298 128.699707 
L 156.485324 128.58762 
L 157.702778 128.479277 
L 157.846844 128.407198 
L 158.182658 128.296927 
L 158.313535 128.282059 
L 158.845156 128.171752 
L 159.04908 127.752139 
L 159.266193 127.422478 
L 159.71868 127.312541 
L 159.876949 127.225964 
L 160.185371 127.116658 
L 160.338567 127.049732 
L 162.056193 126.939499 
L 162.343309 126.576838 
L 162.415342 126.466864 
L 162.629411 126.377098 
L 165.373756 126.26757 
L 165.619276 126.011138 
L 166.170175 125.900348 
L 166.442073 125.738725 
L 166.538455 125.628826 
L 166.765713 125.34199 
L 167.495171 125.230978 
L 167.671702 125.153781 
L 168.043025 125.044623 
L 168.272313 124.823712 
L 170.352131 124.714183 
L 170.675771 124.254156 
L 172.478618 124.143366 
L 172.633844 123.8526 
L 172.915887 123.25479 
L 173.08836 123.202176 
L 173.821876 123.092017 
L 174.317989 122.373073 
L 175.905753 122.263211 
L 176.426215 121.543377 
L 176.732607 121.43281 
L 177.097844 120.996475 
L 177.285535 120.885649 
L 177.441775 120.858322 
L 177.89832 120.747607 
L 178.194567 120.518131 
L 178.357909 120.407416 
L 178.593284 120.09837 
L 178.753582 120.037673 
L 179.044756 119.92718 
L 179.207084 119.890733 
L 180.645709 119.780351 
L 181.015004 119.477979 
L 181.655182 119.367042 
L 182.035636 118.97546 
L 183.441796 118.865524 
L 183.784713 118.371162 
L 184.865204 118.261448 
L 185.052895 118.176279 
L 186.079615 118.066157 
L 186.371804 117.04384 
L 186.577756 116.525081 
L 186.673124 116.41507 
L 186.902411 116.198868 
L 188.353211 116.087782 
L 188.555105 116.000463 
L 188.921356 115.889525 
L 189.2034 115.505248 
L 189.361669 115.48797 
L 189.576753 115.377106 
L 189.726905 115.337173 
L 190.802324 115.227459 
L 191.083353 114.760869 
L 193.497971 114.651377 
L 194.29236 113.354868 
L 194.495269 113.245858 
L 194.721513 112.989834 
L 194.90616 112.880417 
L 195.14052 112.624059 
L 196.04448 112.514382 
L 196.242316 112.391171 
L 196.721182 112.280493 
L 196.958585 112.082348 
L 197.407015 111.972523 
L 197.773265 111.417093 
L 198.412429 111.307416 
L 198.60012 111.185095 
L 198.843611 111.075122 
L 198.993764 111.051355 
L 199.975844 110.941196 
L 200.431375 110.660663 
L 201.985658 110.550356 
L 202.761785 109.636233 
L 203.161516 109.526778 
L 203.371527 109.308017 
L 204.14664 109.19771 
L 204.334331 109.016213 
L 204.504775 108.905349 
L 204.664058 108.871163 
L 205.037411 108.761301 
L 205.177418 108.716288 
L 205.938327 108.605239 
L 206.435455 107.853555 
L 208.181487 107.743545 
L 208.33164 107.709692 
L 209.207193 107.598977 
L 209.421262 107.013106 
L 209.594749 106.736096 
L 209.818964 106.626048 
L 210.111153 106.38734 
L 210.477404 106.278256 
L 210.834524 105.771028 
L 212.539975 105.660016 
L 213.257258 104.99198 
L 213.604233 104.881932 
L 213.731051 104.849971 
L 214.228178 104.739293 
L 214.495004 104.482157 
L 215.126051 104.372924 
L 215.508535 103.810858 
L 217.123691 103.699772 
L 217.252538 103.685497 
L 217.685749 103.576673 
L 218.089538 102.467704 
L 218.257953 102.354579 
L 219.772669 102.245162 
L 220.294145 101.384431 
L 220.51836 101.274976 
L 220.750691 101.013539 
L 221.303618 100.90249 
L 221.456815 100.841571 
L 224.151447 100.731004 
L 224.322905 100.645984 
L 224.437549 100.536455 
L 224.99352 99.768494 
L 226.224164 99.657593 
L 226.551862 99.356742 
L 226.758829 99.24573 
L 228.130495 97.437098 
L 228.212673 97.327421 
L 228.407465 97.125457 
L 228.975611 97.014445 
L 229.190695 96.891383 
L 229.878556 96.781409 
L 230.181905 96.479631 
L 230.732804 96.369472 
L 230.921509 96.200618 
L 232.337815 96.089718 
L 232.958716 95.281527 
L 234.050367 95.170812 
L 234.840698 93.906931 
L 235.127815 93.79718 
L 235.322607 93.458249 
L 235.806545 93.347682 
L 235.934378 92.964035 
L 236.06424 92.902004 
L 236.563396 92.793328 
L 236.77848 92.541716 
L 237.098062 92.431075 
L 237.328364 92.16541 
L 237.750415 92.055103 
L 238.284065 91.23946 
L 238.559007 90.703607 
L 238.957724 89.689447 
L 239.182953 89.258118 
L 240.265473 89.147106 
L 240.497804 88.998868 
L 243.162 88.888561 
L 243.938127 87.875773 
L 244.079149 87.764798 
L 244.340902 87.451711 
L 245.591836 87.341848 
L 245.759236 87.292609 
L 246.528262 87.181931 
L 246.769724 87.052194 
L 247.066985 86.942777 
L 247.476862 86.120051 
L 247.751804 85.887238 
L 250.957767 85.776301 
L 251.169807 85.548975 
L 251.586785 85.43863 
L 251.903324 85.264363 
L 252.081884 85.154204 
L 252.638869 84.553169 
L 252.933087 84.44301 
L 253.112662 84.287134 
L 253.289193 84.177419 
L 253.525582 83.949834 
L 254.750138 83.839453 
L 254.932756 83.80319 
L 258.253364 83.692772 
L 258.356847 83.429035 
L 258.65208 82.908904 
L 258.782956 82.90464 
L 259.303418 82.795223 
L 259.641262 82.434935 
L 260.831324 82.324331 
L 261.058582 82.255774 
L 261.621655 82.146282 
L 261.939207 81.597489 
L 263.151589 81.487442 
L 263.358556 81.316845 
L 263.706545 81.205945 
L 264.059607 80.744471 
L 265.891876 80.633904 
L 266.002462 80.354966 
L 266.149571 80.180736 
L 266.736993 80.069984 
L 267.210785 79.7873 
L 268.67376 79.676919 
L 269.025807 79.349149 
L 271.647393 79.238878 
L 271.888855 79.028534 
L 272.708607 78.918227 
L 272.896298 78.783077 
L 274.917273 78.672177 
L 275.515855 77.570661 
L 275.987618 77.460243 
L 276.258502 77.370291 
L 277.701185 77.260725 
L 277.859455 77.215453 
L 278.450935 77.105591 
L 278.590942 77.089091 
L 278.725876 76.979488 
L 278.887189 76.913638 
L 279.131695 76.804294 
L 279.397505 76.440299 
L 279.685636 76.329509 
L 280.362338 75.282054 
L 280.532782 75.171116 
L 280.703225 75.117686 
L 280.978167 75.006934 
L 281.394131 74.865778 
L 282.901745 74.755916 
L 283.157411 74.615353 
L 284.148622 74.504415 
L 284.309935 74.109163 
L 284.586905 73.497003 
L 287.990705 73.386993 
L 288.211876 73.245354 
L 288.439135 73.134306 
L 288.967713 72.323074 
L 289.55412 71.232089 
L 290.250098 71.121077 
L 290.634611 70.536393 
L 290.878102 70.13747 
L 292.647469 70.026384 
L 293.564618 68.791869 
L 294.47568 68.681969 
L 294.883527 67.999362 
L 295.120931 67.897879 
L 297.445255 67.787238 
L 297.683673 67.701477 
L 297.932236 67.591911 
L 298.132102 67.484533 
L 299.723924 67.373818 
L 299.860887 67.338408 
L 300.198731 67.227767 
L 300.437149 67.063956 
L 300.652233 66.953204 
L 300.837895 66.848495 
L 301.93056 66.73804 
L 302.197385 66.419391 
L 302.415513 66.308638 
L 302.72292 66.05558 
L 303.058735 65.945718 
L 303.298167 65.681759 
L 304.443589 65.571786 
L 305.083767 64.651656 
L 305.297836 64.540941 
L 305.582924 64.272088 
L 306.442244 64.163078 
L 306.713127 63.841166 
L 307.255909 63.730414 
L 307.761153 62.885071 
L 307.991455 62.178511 
L 308.214655 61.825824 
L 308.427709 61.612662 
L 308.750335 61.503504 
L 308.928895 61.229682 
L 309.149051 61.079924 
L 309.57516 60.970358 
L 309.826767 60.735469 
L 310.183887 60.624494 
L 310.644491 59.974367 
L 311.297858 59.298063 
L 311.99688 59.18909 
L 312.193702 58.902959 
L 312.719236 58.299402 
L 313.032731 58.190244 
L 313.308687 57.826582 
L 313.543047 57.716831 
L 313.777407 57.417203 
L 314.208589 56.957472 
L 315.754756 56.846386 
L 315.888676 56.790175 
L 316.242753 56.679534 
L 316.757127 55.986026 
L 317.365855 55.876275 
L 317.580938 55.726257 
L 319.156527 55.616357 
L 319.63032 55.106534 
L 320.247164 54.998896 
L 320.436884 54.653217 
L 320.557615 54.649546 
L 321.898844 54.539239 
L 322.05204 54.456666 
L 322.901215 54.346322 
L 323.463273 53.364717 
L 323.747345 53.014292 
L 324.118669 52.903836 
L 324.455498 52.308696 
L 324.667538 52.105545 
L 324.973931 51.995757 
L 325.4112 51.539325 
L 325.998622 51.428721 
L 326.260375 50.79654 
L 327.779149 50.68564 
L 328.124095 50.434065 
L 328.293524 50.32398 
L 328.43556 50.261837 
L 328.825145 50.152012 
L 329.090956 49.985457 
L 331.684135 49.875706 
L 331.974295 49.54167 
L 332.881298 48.491396 
L 333.105513 48.010493 
L 333.203924 47.900186 
L 333.456545 47.757287 
L 335.121415 47.648055 
L 335.361862 47.412201 
L 336.212051 47.302858 
L 336.369305 47.23152 
L 336.683815 47.121805 
L 336.918175 46.949504 
L 337.59792 46.838863 
L 337.838367 46.327259 
L 338.078815 45.842018 
L 338.286796 45.731526 
L 338.540433 45.521108 
L 341.216804 45.411727 
L 341.440004 45.23416 
L 342.659487 45.124891 
L 342.814713 45.0329 
L 343.013564 44.923112 
L 343.386916 44.242284 
L 344.824527 44.131643 
L 345.002073 44.058043 
L 345.545869 43.947699 
L 345.821825 43.788115 
L 349.669996 43.677252 
L 349.870876 43.381888 
L 350.326407 43.272025 
L 350.535404 43.077514 
L 350.698745 42.968244 
L 350.887451 42.813814 
L 351.142102 42.70284 
L 351.323705 42.586785 
L 352.286509 42.47581 
L 352.475215 42.466133 
L 353.448164 42.355752 
L 353.780935 41.908775 
L 353.94732 41.797912 
L 354.165447 41.497505 
L 354.823887 41.386642 
L 355.041 41.265137 
L 355.3758 41.154162 
L 355.702484 40.468477 
L 356.127578 39.957801 
L 356.61456 39.849125 
L 356.739349 39.823875 
L 358.394073 39.7129 
L 358.961204 39.237262 
L 360.479978 39.128586 
L 360.691004 38.749203 
L 361.031891 38.62718 
L 362.032233 38.51639 
L 362.246302 38.408085 
L 362.38428 38.297148 
L 362.807345 37.875088 
L 363.167509 37.765188 
L 363.315633 37.72088 
L 363.847255 37.610424 
L 364.117124 37.405679 
L 365.82156 37.294667 
L 365.948378 37.117879 
L 366.149258 36.978354 
L 366.354196 36.868492 
L 366.509422 36.787921 
L 367.377873 36.676909 
L 367.7076 36.516361 
L 368.535469 36.406239 
L 368.796207 36.153886 
L 369.18072 36.044061 
L 370.255124 34.849887 
L 371.987967 34.739023 
L 372.398858 34.035318 
L 372.576404 33.811812 
L 372.980193 33.700948 
L 373.119185 33.685338 
L 373.522975 33.575179 
L 373.581818 33.48 
L 373.581818 33.48 
" clip-path="url(#p77e51e9be3)" style="fill: none; stroke: #0000ff; stroke-width: 1.5; stroke-linecap: square"/>
   </g>
   <g id="line2d_9">
    <path d="M 69.522545 184.68 
L 69.682844 183.590877 
L 70.132287 182.24434 
L 70.369691 182.126333 
L 70.868847 182.015797 
L 71.076829 181.696778 
L 72.701116 181.587164 
L 72.874604 181.485609 
L 73.759287 181.378262 
L 73.911469 181.217367 
L 75.340964 181.106495 
L 75.638225 180.804471 
L 76.842491 180.695068 
L 77.057575 180.100463 
L 77.269615 179.497297 
L 77.449189 179.386971 
L 77.750509 179.008613 
L 77.901676 178.897573 
L 78.273 178.250973 
L 78.731575 178.140101 
L 78.954775 177.81273 
L 79.342331 177.030037 
L 79.65684 176.66985 
L 80.821538 176.561118 
L 81.075175 176.202525 
L 81.14112 176.092325 
L 81.316636 175.974318 
L 81.550996 175.864873 
L 81.704193 175.792693 
L 81.770138 175.681863 
L 81.974062 175.58614 
L 82.641633 175.47573 
L 82.896284 175.21521 
L 83.541535 175.105387 
L 83.712993 175.051252 
L 85.293655 174.942394 
L 85.428589 174.904374 
L 86.11848 174.793502 
L 86.452265 174.683133 
L 86.793153 174.574569 
L 87.009251 174.328905 
L 88.455993 174.218662 
L 88.661945 173.751757 
L 88.911524 173.208812 
L 89.14284 172.93566 
L 89.417782 172.824872 
L 89.907807 172.097531 
L 90.153327 171.987918 
L 90.290291 171.952373 
L 91.373825 171.842299 
L 91.520935 171.776497 
L 92.012989 171.666716 
L 92.20068 171.586101 
L 93.308564 171.47632 
L 93.613942 171.158098 
L 96.863531 171.047562 
L 97.281524 169.995326 
L 97.708647 169.394049 
L 97.993735 168.854838 
L 99.590629 168.744679 
L 99.753971 168.397795 
L 99.977171 167.984353 
L 100.372844 167.874027 
L 100.536185 167.810198 
L 101.565949 167.70092 
L 101.793207 167.187015 
L 101.983942 167.07652 
L 102.162502 166.96804 
L 103.412422 166.858217 
L 103.724902 166.353628 
L 103.928825 166.006366 
L 104.089124 165.934521 
L 105.390785 165.825454 
L 105.778342 165.172517 
L 106.047196 164.949136 
L 106.424607 164.838642 
L 106.86492 164.410471 
L 109.008655 164.299431 
L 109.282582 163.921954 
L 114.006305 163.812173 
L 114.238636 163.62975 
L 114.726633 163.520808 
L 114.901135 163.244174 
L 115.33536 163.134687 
L 115.497687 163.075306 
L 119.996182 162.96435 
L 120.199091 162.898423 
L 120.521716 162.788348 
L 120.723611 162.60433 
L 121.112182 162.49329 
L 121.490607 162.092817 
L 121.89744 161.983245 
L 122.15412 161.76511 
L 122.759804 161.655077 
L 123.266062 160.761177 
L 123.690142 160.651522 
L 123.958996 160.392806 
L 125.415884 160.282689 
L 125.566036 160.201739 
L 128.52648 160.090741 
L 128.777073 159.67411 
L 129.065204 158.939971 
L 129.482182 158.830442 
L 129.771327 158.431478 
L 130.134535 158.325642 
L 130.41252 157.246549 
L 130.533251 156.728782 
L 130.726015 155.981046 
L 131.353004 154.460227 
L 131.457502 154.349313 
L 131.58432 154.00629 
L 131.961731 153.229472 
L 133.684429 153.120488 
L 133.870091 152.979275 
L 134.566069 152.86962 
L 134.944495 152.328647 
L 135.422345 152.219327 
L 135.638444 152.040681 
L 135.764247 151.93195 
L 136.089916 151.347248 
L 136.240069 151.2386 
L 136.445007 151.02676 
L 137.262731 150.9187 
L 137.486945 150.554232 
L 137.82276 150.44315 
L 138.115964 150.299461 
L 138.307713 150.188883 
L 138.448735 150.179105 
L 139.250225 150.06924 
L 139.542415 149.865541 
L 140.030411 149.757774 
L 140.348978 149.016459 
L 141.894131 148.906426 
L 142.073705 148.735376 
L 143.796404 148.626141 
L 144.15048 148.19029 
L 144.457887 148.080341 
L 144.748047 147.648184 
L 145.126473 147.539116 
L 145.261407 147.508775 
L 146.285084 147.398575 
L 146.86236 145.870328 
L 147.216436 145.663859 
L 147.506596 145.554707 
L 147.77748 145.235604 
L 147.941836 145.146806 
L 148.488676 145.037654 
L 148.62564 144.992625 
L 149.350025 144.882047 
L 149.486989 144.851371 
L 151.037215 144.741086 
L 151.279691 144.231712 
L 152.224233 144.120966 
L 152.426127 143.765647 
L 152.661502 143.30147 
L 152.811655 143.205076 
L 153.075436 143.094329 
L 153.495458 142.663934 
L 153.684164 142.490828 
L 153.833302 142.381886 
L 154.28376 141.662057 
L 155.013218 141.55278 
L 155.218156 141.375351 
L 156.268211 141.264772 
L 156.470105 141.123392 
L 157.693647 141.012729 
L 157.859018 140.919189 
L 158.172513 140.809828 
L 158.299331 140.777556 
L 158.836025 140.667608 
L 159.0714 140.117947 
L 159.356487 139.804677 
L 159.709549 139.69519 
L 159.900284 139.582262 
L 160.178269 139.471935 
L 160.323349 139.382801 
L 162.047062 139.274321 
L 162.254029 139.006877 
L 162.502593 138.679338 
L 165.33216 138.56876 
L 165.661887 138.207314 
L 166.162058 138.09791 
L 166.374098 137.898995 
L 166.527295 137.788795 
L 166.903691 137.449968 
L 167.489084 137.339473 
L 167.661556 137.236952 
L 168.035924 137.126961 
L 168.257095 136.863378 
L 170.344015 136.753513 
L 170.855345 136.156096 
L 172.509055 136.045392 
L 172.702833 135.523639 
L 172.958498 135.028114 
L 173.81376 134.917829 
L 174.038989 134.34471 
L 174.212476 134.08973 
L 175.897636 133.981585 
L 176.130982 133.570536 
L 176.345051 133.201746 
L 176.507378 133.150674 
L 176.724491 133.040138 
L 176.922327 132.620108 
L 177.056247 132.531688 
L 177.275389 132.422116 
L 177.414382 132.375325 
L 177.891218 132.264453 
L 178.202684 131.990295 
L 178.350807 131.879422 
L 178.703869 131.498798 
L 179.008233 131.390234 
L 179.152298 131.280201 
L 179.401876 131.170588 
L 179.520578 131.161608 
L 180.705567 131.050861 
L 180.962247 130.813045 
L 181.646051 130.702802 
L 182.107669 130.24429 
L 183.431651 130.133334 
L 183.950084 129.560341 
L 184.858102 129.449679 
L 185.296385 129.339772 
L 186.071498 129.230411 
L 186.294698 128.517254 
L 186.546305 127.470936 
L 186.666022 127.360274 
L 186.942993 127.101726 
L 188.343065 126.992365 
L 188.524669 126.87717 
L 188.911211 126.767221 
L 189.289636 126.297127 
L 189.562549 126.18701 
L 189.726905 126.126455 
L 190.798265 126.017471 
L 191.076251 125.474189 
L 193.490869 125.364241 
L 194.329898 123.882869 
L 194.488167 123.773634 
L 194.777313 123.469722 
L 194.889927 123.359227 
L 195.249076 123.055735 
L 196.036364 122.945912 
L 196.230142 122.792151 
L 196.71408 122.682244 
L 196.955542 122.442623 
L 197.395855 122.332506 
L 197.858487 121.689683 
L 198.398225 121.580028 
L 198.638673 121.427107 
L 198.83448 121.317704 
L 198.973473 121.275739 
L 199.963669 121.165622 
L 200.220349 120.889365 
L 200.692113 120.778577 
L 200.851396 120.743368 
L 202.031313 120.633629 
L 202.455393 120.024546 
L 202.543658 119.9138 
L 202.837876 119.674095 
L 203.154415 119.563265 
L 203.389789 119.302619 
L 204.140553 119.192208 
L 204.343462 118.972353 
L 204.495644 118.863411 
L 204.642753 118.808185 
L 205.029295 118.698194 
L 205.196695 118.632896 
L 205.930211 118.523157 
L 206.268055 117.923642 
L 206.526764 117.65645 
L 208.173371 117.546543 
L 208.336713 117.493625 
L 209.198062 117.384305 
L 209.722582 116.344156 
L 209.839255 116.233242 
L 210.091876 115.996978 
L 210.470302 115.887784 
L 210.743215 115.409129 
L 210.93192 115.299432 
L 212.275178 115.188476 
L 212.409098 115.176852 
L 212.609978 115.066525 
L 213.294796 114.417701 
L 213.598145 114.311487 
L 213.72192 114.256974 
L 214.220062 114.147949 
L 214.484858 113.84068 
L 215.090542 113.730479 
L 215.582596 113.0809 
L 217.115575 112.970321 
L 217.251524 112.939015 
L 217.680676 112.830451 
L 218.218385 111.432674 
L 219.766582 111.322641 
L 220.298204 110.334655 
L 220.513287 110.223657 
L 220.754749 109.914877 
L 221.294487 109.804173 
L 221.464931 109.720242 
L 222.95124 109.610335 
L 223.076029 109.607146 
L 224.375662 109.496568 
L 224.720607 108.866964 
L 225.050335 108.505727 
L 226.20996 108.394645 
L 226.553891 108.039704 
L 226.749698 107.929125 
L 227.82816 106.175232 
L 228.002662 105.867039 
L 228.204556 105.758013 
L 228.434858 105.514322 
L 228.96648 105.403953 
L 229.152142 105.249395 
L 229.868411 105.138859 
L 230.240749 104.783372 
L 230.724687 104.673255 
L 230.939771 104.467583 
L 232.328684 104.356585 
L 233.034807 103.42735 
L 234.042251 103.318576 
L 234.317193 102.8463 
L 234.382124 102.73526 
L 234.562713 102.258074 
L 234.733156 101.871574 
L 235.123756 101.764269 
L 235.308404 101.363753 
L 235.799444 101.252797 
L 236.197145 100.734191 
L 236.559338 100.624116 
L 236.631371 100.379669 
L 236.757175 100.326415 
L 237.051393 100.217474 
L 237.297927 99.90051 
L 237.743313 99.79031 
L 237.986804 99.365454 
L 238.941491 97.182676 
L 239.152516 96.610019 
L 240.258371 96.499398 
L 240.440989 96.316598 
L 242.485298 96.20581 
L 242.617189 96.204215 
L 243.222873 96.095567 
L 243.436942 95.810875 
L 243.579993 95.409436 
L 243.755509 95.045472 
L 244.070018 94.934768 
L 244.429167 94.565516 
L 245.585749 94.454476 
L 245.727785 94.385443 
L 246.52116 94.275327 
L 246.736244 94.113341 
L 247.059884 94.002721 
L 247.163367 93.64354 
L 247.356131 93.264846 
L 247.679771 92.794836 
L 250.949651 92.684048 
L 251.248942 92.411988 
L 251.577655 92.301283 
L 251.767375 92.089863 
L 252.069709 91.980963 
L 252.231022 91.869126 
L 252.341607 91.686325 
L 252.55872 91.319507 
L 252.691625 91.284928 
L 252.928015 91.174014 
L 253.133967 90.983828 
L 253.281076 90.874341 
L 253.516451 90.60207 
L 254.742022 90.491198 
L 254.919567 90.436098 
L 258.245247 90.32552 
L 258.795131 89.406314 
L 258.98688 89.311388 
L 259.36632 89.201566 
L 259.660538 88.887498 
L 260.818135 88.776752 
L 261.007855 88.684722 
L 261.616582 88.577543 
L 261.860073 87.939672 
L 263.144487 87.830604 
L 263.355513 87.622037 
L 263.700458 87.511081 
L 263.901338 87.157273 
L 263.968298 87.04661 
L 264.139756 86.97422 
L 265.812742 86.863474 
L 266.180007 86.336181 
L 266.725833 86.226652 
L 266.9886 85.985352 
L 268.608829 85.874396 
L 269.152625 85.394986 
L 271.637247 85.284114 
L 271.873636 85.032113 
L 272.701505 84.921618 
L 272.942967 84.754303 
L 274.908142 84.643221 
L 275.33628 83.677308 
L 275.497593 83.382083 
L 275.971385 83.271588 
L 276.164149 83.155303 
L 277.693069 83.04485 
L 277.839164 82.980056 
L 278.442818 82.86994 
L 278.584855 82.837039 
L 278.709644 82.727552 
L 278.861825 82.638459 
L 279.127636 82.529937 
L 279.317356 82.191026 
L 279.485771 82.102732 
L 279.676505 81.993748 
L 280.357265 80.791823 
L 280.524665 80.680867 
L 280.727575 80.605791 
L 280.968022 80.496639 
L 281.176004 80.326051 
L 282.890585 80.216228 
L 283.144222 80.037246 
L 284.139491 79.926836 
L 284.769524 78.767505 
L 287.985633 78.656759 
L 288.503051 78.228924 
L 289.583542 76.208047 
L 290.239953 76.098644 
L 290.512865 75.641097 
L 290.835491 74.997141 
L 290.962309 74.969151 
L 292.639353 74.858782 
L 293.123291 74.1596 
L 293.186193 74.049399 
L 293.396204 73.551902 
L 293.529109 73.446191 
L 294.469593 73.335697 
L 294.906862 72.505751 
L 295.232531 72.434368 
L 297.438153 72.323916 
L 297.592364 72.212079 
L 297.923105 72.101836 
L 298.081375 71.96654 
L 299.714793 71.856382 
L 299.870018 71.801155 
L 300.190615 71.6915 
L 300.441207 71.490529 
L 300.644116 71.379825 
L 300.840938 71.246669 
L 301.924473 71.136552 
L 302.182167 70.761006 
L 302.407396 70.651099 
L 302.664076 70.349243 
L 303.048589 70.238917 
L 303.276862 69.92615 
L 304.431415 69.815404 
L 304.590698 69.461008 
L 305.194353 68.760273 
L 305.287691 68.649652 
L 305.609302 68.330675 
L 306.436156 68.221062 
L 306.750665 67.842955 
L 307.244749 67.733049 
L 307.442585 67.518732 
L 307.51056 67.410042 
L 308.382055 65.320721 
L 308.746276 65.211527 
L 308.957302 64.836652 
L 309.19572 64.717765 
L 309.567044 64.609327 
L 309.751691 64.389009 
L 310.138233 64.280194 
L 310.353316 63.974897 
L 311.214665 62.701043 
L 311.988764 62.590003 
L 312.237327 62.180171 
L 312.767935 61.570752 
L 313.028673 61.463027 
L 313.234625 61.035612 
L 313.535945 60.924572 
L 313.987418 60.245323 
L 314.053364 60.135122 
L 314.215691 60.051947 
L 315.744611 59.943509 
L 315.886647 59.8626 
L 316.235651 59.75219 
L 316.708429 58.952459 
L 317.359767 58.842678 
L 317.573836 58.658451 
L 319.148411 58.547915 
L 319.297549 58.289954 
L 319.542055 57.957044 
L 320.243105 57.846634 
L 320.542396 57.439823 
L 321.37128 57.331217 
L 321.495055 57.3206 
L 322.840342 57.210483 
L 323.110211 56.683904 
L 323.339498 56.197318 
L 323.594149 55.77435 
L 323.762564 55.589032 
L 324.111567 55.480258 
L 324.343898 54.97655 
L 324.914073 54.445942 
L 325.035818 54.336287 
L 325.316847 53.919656 
L 325.993549 53.810337 
L 326.402411 53.078967 
L 327.771033 52.969018 
L 328.093658 52.668715 
L 328.285407 52.558221 
L 328.45788 52.473787 
L 328.817029 52.364216 
L 328.998633 52.160978 
L 331.675004 52.051869 
L 332.005745 51.60389 
L 332.155898 51.493396 
L 332.313153 51.3803 
L 333.048698 50.053486 
L 333.238418 49.747182 
L 335.056484 49.637779 
L 335.335484 49.248551 
L 336.203935 49.139232 
L 336.375393 49.044055 
L 336.676713 48.934358 
L 336.955713 48.724867 
L 337.587775 48.614751 
L 337.846484 47.988294 
L 338.064611 47.471409 
L 338.276651 47.36188 
L 338.497822 47.1082 
L 341.206658 46.99737 
L 341.506964 46.783431 
L 342.652385 46.673902 
L 342.838047 46.555644 
L 343.005447 46.444604 
L 343.595913 45.66082 
L 344.815396 45.549948 
L 345.118745 45.452295 
L 345.536738 45.341885 
L 345.780229 45.146788 
L 349.414331 45.03663 
L 349.537091 45.03365 
L 349.720724 44.922946 
L 350.070742 44.687018 
L 350.32032 44.576817 
L 350.551636 44.342525 
L 350.689615 44.234297 
L 350.872233 44.044069 
L 351.132971 43.935379 
L 351.309502 43.787116 
L 352.275349 43.677922 
L 352.408255 43.650561 
L 353.440047 43.541116 
L 353.795138 43.01974 
L 353.940218 42.908994 
L 354.208058 42.554262 
L 354.815771 42.443935 
L 355.117091 42.291266 
L 355.36464 42.183122 
L 355.941916 40.811615 
L 356.608473 40.700617 
L 356.831673 40.660037 
L 358.385956 40.549248 
L 358.642636 40.138157 
L 358.822211 39.996105 
L 360.474905 39.887751 
L 360.741731 39.367634 
L 361.988607 39.257434 
L 362.188473 39.097252 
L 362.347756 38.98638 
L 362.733284 38.454387 
L 363.160407 38.344523 
L 363.306502 38.279854 
L 363.840153 38.168814 
L 364.029873 37.991175 
L 364.198287 37.923108 
L 364.499607 37.814082 
L 364.620338 37.803549 
L 365.887505 37.692761 
L 366.114764 37.439459 
L 366.345065 37.328839 
L 366.512465 37.223926 
L 367.367727 37.11469 
L 367.583825 36.916573 
L 368.528367 36.807085 
L 368.758669 36.506321 
L 369.174633 36.395616 
L 369.380585 36.173075 
L 369.820898 35.473431 
L 369.929455 35.363986 
L 370.182076 35.039553 
L 371.967676 34.928765 
L 372.55104 33.855547 
L 372.969033 33.745892 
L 373.101938 33.712403 
L 373.514858 33.602119 
L 373.581818 33.48 
L 373.581818 33.48 
" clip-path="url(#p77e51e9be3)" style="fill: none; stroke: #ff0000; stroke-width: 1.5; stroke-linecap: square"/>
   </g>
   <g id="patch_3">
    <path d="M 54 192.24 
L 54 25.92 
" style="fill: none; stroke: #000000; stroke-width: 2; stroke-linejoin: miter; stroke-linecap: square"/>
   </g>
   <g id="patch_4">
    <path d="M 388.8 192.24 
L 388.8 25.92 
" style="fill: none; stroke: #000000; stroke-width: 2; stroke-linejoin: miter; stroke-linecap: square"/>
   </g>
   <g id="patch_5">
    <path d="M 54 192.24 
L 388.8 192.24 
" style="fill: none; stroke: #000000; stroke-width: 2; stroke-linejoin: miter; stroke-linecap: square"/>
   </g>
   <g id="patch_6">
    <path d="M 54 25.92 
L 388.8 25.92 
" style="fill: none; stroke: #000000; stroke-width: 2; stroke-linejoin: miter; stroke-linecap: square"/>
   </g>
   <g id="text_10">
    <!-- cumulative sum of events -->
    <g transform="translate(85.169063 19.92) scale(0.21 -0.21)">
     <defs>
      <path id="DejaVuSans-63" d="M 3122 3366 
L 3122 2828 
Q 2878 2963 2633 3030 
Q 2388 3097 2138 3097 
Q 1578 3097 1268 2742 
Q 959 2388 959 1747 
Q 959 1106 1268 751 
Q 1578 397 2138 397 
Q 2388 397 2633 464 
Q 2878 531 3122 666 
L 3122 134 
Q 2881 22 2623 -34 
Q 2366 -91 2075 -91 
Q 1284 -91 818 406 
Q 353 903 353 1747 
Q 353 2603 823 3093 
Q 1294 3584 2113 3584 
Q 2378 3584 2631 3529 
Q 2884 3475 3122 3366 
z
" transform="scale(0.015625)"/>
      <path id="DejaVuSans-75" d="M 544 1381 
L 544 3500 
L 1119 3500 
L 1119 1403 
Q 1119 906 1312 657 
Q 1506 409 1894 409 
Q 2359 409 2629 706 
Q 2900 1003 2900 1516 
L 2900 3500 
L 3475 3500 
L 3475 0 
L 2900 0 
L 2900 538 
Q 2691 219 2414 64 
Q 2138 -91 1772 -91 
Q 1169 -91 856 284 
Q 544 659 544 1381 
z
M 1991 3584 
L 1991 3584 
z
" transform="scale(0.015625)"/>
      <path id="DejaVuSans-6c" d="M 603 4863 
L 1178 4863 
L 1178 0 
L 603 0 
L 603 4863 
z
" transform="scale(0.015625)"/>
      <path id="DejaVuSans-61" d="M 2194 1759 
Q 1497 1759 1228 1600 
Q 959 1441 959 1056 
Q 959 750 1161 570 
Q 1363 391 1709 391 
Q 2188 391 2477 730 
Q 2766 1069 2766 1631 
L 2766 1759 
L 2194 1759 
z
M 3341 1997 
L 3341 0 
L 2766 0 
L 2766 531 
Q 2569 213 2275 61 
Q 1981 -91 1556 -91 
Q 1019 -91 701 211 
Q 384 513 384 1019 
Q 384 1609 779 1909 
Q 1175 2209 1959 2209 
L 2766 2209 
L 2766 2266 
Q 2766 2663 2505 2880 
Q 2244 3097 1772 3097 
Q 1472 3097 1187 3025 
Q 903 2953 641 2809 
L 641 3341 
Q 956 3463 1253 3523 
Q 1550 3584 1831 3584 
Q 2591 3584 2966 3190 
Q 3341 2797 3341 1997 
z
" transform="scale(0.015625)"/>
      <path id="DejaVuSans-76" d="M 191 3500 
L 800 3500 
L 1894 563 
L 2988 3500 
L 3597 3500 
L 2284 0 
L 1503 0 
L 191 3500 
z
" transform="scale(0.015625)"/>
      <path id="DejaVuSans-66" d="M 2375 4863 
L 2375 4384 
L 1825 4384 
Q 1516 4384 1395 4259 
Q 1275 4134 1275 3809 
L 1275 3500 
L 2222 3500 
L 2222 3053 
L 1275 3053 
L 1275 0 
L 697 0 
L 697 3053 
L 147 3053 
L 147 3500 
L 697 3500 
L 697 3744 
Q 697 4328 969 4595 
Q 1241 4863 1831 4863 
L 2375 4863 
z
" transform="scale(0.015625)"/>
     </defs>
     <use xlink:href="#DejaVuSans-63"/>
     <use xlink:href="#DejaVuSans-75" x="54.980469"/>
     <use xlink:href="#DejaVuSans-6d" x="118.359375"/>
     <use xlink:href="#DejaVuSans-75" x="215.771484"/>
     <use xlink:href="#DejaVuSans-6c" x="279.150391"/>
     <use xlink:href="#DejaVuSans-61" x="306.933594"/>
     <use xlink:href="#DejaVuSans-74" x="368.212891"/>
     <use xlink:href="#DejaVuSans-69" x="407.421875"/>
     <use xlink:href="#DejaVuSans-76" x="435.205078"/>
     <use xlink:href="#DejaVuSans-65" x="494.384766"/>
     <use xlink:href="#DejaVuSans-20" x="555.908203"/>
     <use xlink:href="#DejaVuSans-73" x="587.695312"/>
     <use xlink:href="#DejaVuSans-75" x="639.794922"/>
     <use xlink:href="#DejaVuSans-6d" x="703.173828"/>
     <use xlink:href="#DejaVuSans-20" x="800.585938"/>
     <use xlink:href="#DejaVuSans-6f" x="832.373047"/>
     <use xlink:href="#DejaVuSans-66" x="893.554688"/>
     <use xlink:href="#DejaVuSans-20" x="928.759766"/>
     <use xlink:href="#DejaVuSans-65" x="960.546875"/>
     <use xlink:href="#DejaVuSans-76" x="1022.070312"/>
     <use xlink:href="#DejaVuSans-65" x="1081.25"/>
     <use xlink:href="#DejaVuSans-6e" x="1142.773438"/>
     <use xlink:href="#DejaVuSans-74" x="1206.152344"/>
     <use xlink:href="#DejaVuSans-73" x="1245.361328"/>
    </g>
   </g>
   <g id="legend_1">
    <g id="patch_7">
     <path d="M 61 63.27625 
L 171.423438 63.27625 
Q 173.423438 63.27625 173.423438 61.27625 
L 173.423438 32.92 
Q 173.423438 30.92 171.423438 30.92 
L 61 30.92 
Q 59 30.92 59 32.92 
L 59 61.27625 
Q 59 63.27625 61 63.27625 
z
" style="fill: #ffffff; opacity: 0.8; stroke: #cccccc; stroke-linejoin: miter"/>
    </g>
    <g id="line2d_10">
     <path d="M 63 39.018437 
L 73 39.018437 
L 83 39.018437 
" style="fill: none; stroke: #0000ff; stroke-width: 1.5; stroke-linecap: square"/>
    </g>
    <g id="text_11">
     <!-- all frames -->
     <g transform="translate(91 42.518437) scale(0.1 -0.1)">
      <defs>
       <path id="DejaVuSans-72" d="M 2631 2963 
Q 2534 3019 2420 3045 
Q 2306 3072 2169 3072 
Q 1681 3072 1420 2755 
Q 1159 2438 1159 1844 
L 1159 0 
L 581 0 
L 581 3500 
L 1159 3500 
L 1159 2956 
Q 1341 3275 1631 3429 
Q 1922 3584 2338 3584 
Q 2397 3584 2469 3576 
Q 2541 3569 2628 3553 
L 2631 2963 
z
" transform="scale(0.015625)"/>
      </defs>
      <use xlink:href="#DejaVuSans-61"/>
      <use xlink:href="#DejaVuSans-6c" x="61.279297"/>
      <use xlink:href="#DejaVuSans-6c" x="89.0625"/>
      <use xlink:href="#DejaVuSans-20" x="116.845703"/>
      <use xlink:href="#DejaVuSans-66" x="148.632812"/>
      <use xlink:href="#DejaVuSans-72" x="183.837891"/>
      <use xlink:href="#DejaVuSans-61" x="224.951172"/>
      <use xlink:href="#DejaVuSans-6d" x="286.230469"/>
      <use xlink:href="#DejaVuSans-65" x="383.642578"/>
      <use xlink:href="#DejaVuSans-73" x="445.166016"/>
     </g>
    </g>
    <g id="line2d_11">
     <path d="M 63 53.696562 
L 73 53.696562 
L 83 53.696562 
" style="fill: none; stroke: #ff0000; stroke-width: 1.5; stroke-linecap: square"/>
    </g>
    <g id="text_12">
     <!-- w/o first frames -->
     <g transform="translate(91 57.196562) scale(0.1 -0.1)">
      <defs>
       <path id="DejaVuSans-77" d="M 269 3500 
L 844 3500 
L 1563 769 
L 2278 3500 
L 2956 3500 
L 3675 769 
L 4391 3500 
L 4966 3500 
L 4050 0 
L 3372 0 
L 2619 2869 
L 1863 0 
L 1184 0 
L 269 3500 
z
" transform="scale(0.015625)"/>
       <path id="DejaVuSans-2f" d="M 1625 4666 
L 2156 4666 
L 531 -594 
L 0 -594 
L 1625 4666 
z
" transform="scale(0.015625)"/>
      </defs>
      <use xlink:href="#DejaVuSans-77"/>
      <use xlink:href="#DejaVuSans-2f" x="81.787109"/>
      <use xlink:href="#DejaVuSans-6f" x="115.478516"/>
      <use xlink:href="#DejaVuSans-20" x="176.660156"/>
      <use xlink:href="#DejaVuSans-66" x="208.447266"/>
      <use xlink:href="#DejaVuSans-69" x="243.652344"/>
      <use xlink:href="#DejaVuSans-72" x="271.435547"/>
      <use xlink:href="#DejaVuSans-73" x="312.548828"/>
      <use xlink:href="#DejaVuSans-74" x="364.648438"/>
      <use xlink:href="#DejaVuSans-20" x="403.857422"/>
      <use xlink:href="#DejaVuSans-66" x="435.644531"/>
      <use xlink:href="#DejaVuSans-72" x="470.849609"/>
      <use xlink:href="#DejaVuSans-61" x="511.962891"/>
      <use xlink:href="#DejaVuSans-6d" x="573.242188"/>
      <use xlink:href="#DejaVuSans-65" x="670.654297"/>
      <use xlink:href="#DejaVuSans-73" x="732.177734"/>
     </g>
    </g>
   </g>
  </g>
 </g>
 <defs>
  <clipPath id="p77e51e9be3">
   <rect x="54" y="25.92" width="334.8" height="166.32"/>
  </clipPath>
 </defs>
</svg>
