<?xml version="1.0" encoding="utf-8" standalone="no"?>
<!DOCTYPE svg PUBLIC "-//W3C//DTD SVG 1.1//EN"
  "http://www.w3.org/Graphics/SVG/1.1/DTD/svg11.dtd">
<svg xmlns:xlink="http://www.w3.org/1999/xlink" width="432pt" height="216pt" viewBox="0 0 432 216" xmlns="http://www.w3.org/2000/svg" version="1.1">
 <metadata>
  <rdf:RDF xmlns:dc="http://purl.org/dc/elements/1.1/" xmlns:cc="http://creativecommons.org/ns#" xmlns:rdf="http://www.w3.org/1999/02/22-rdf-syntax-ns#">
   <cc:Work>
    <dc:type rdf:resource="http://purl.org/dc/dcmitype/StillImage"/>
    <dc:date>2024-09-18T17:12:31.557462</dc:date>
    <dc:format>image/svg+xml</dc:format>
    <dc:creator>
     <cc:Agent>
      <dc:title>Matplotlib v3.8.4, https://matplotlib.org/</dc:title>
     </cc:Agent>
    </dc:creator>
   </cc:Work>
  </rdf:RDF>
 </metadata>
 <defs>
  <style type="text/css">*{stroke-linejoin: round; stroke-linecap: butt}</style>
 </defs>
 <g id="figure_1">
  <g id="patch_1">
   <path d="M 0 216 
L 432 216 
L 432 0 
L 0 0 
z
" style="fill: #ffffff"/>
  </g>
  <g id="axes_1">
   <g id="patch_2">
    <path d="M 54 192.24 
L 388.8 192.24 
L 388.8 25.92 
L 54 25.92 
z
" style="fill: #ffffff"/>
   </g>
   <g id="matplotlib.axis_1">
    <g id="xtick_1">
     <g id="line2d_1">
      <defs>
       <path id="m3eee73924a" d="M 0 0 
L 0 6 
" style="stroke: #000000; stroke-width: 2"/>
      </defs>
      <g>
       <use xlink:href="#m3eee73924a" x="69.218182" y="192.24" style="stroke: #000000; stroke-width: 2"/>
      </g>
     </g>
     <g id="text_1">
      <!-- 0 -->
      <g transform="translate(62.537557 217.696719) scale(0.21 -0.21)">
       <defs>
        <path id="DejaVuSans-30" d="M 2034 4250 
Q 1547 4250 1301 3770 
Q 1056 3291 1056 2328 
Q 1056 1369 1301 889 
Q 1547 409 2034 409 
Q 2525 409 2770 889 
Q 3016 1369 3016 2328 
Q 3016 3291 2770 3770 
Q 2525 4250 2034 4250 
z
M 2034 4750 
Q 2819 4750 3233 4129 
Q 3647 3509 3647 2328 
Q 3647 1150 3233 529 
Q 2819 -91 2034 -91 
Q 1250 -91 836 529 
Q 422 1150 422 2328 
Q 422 3509 836 4129 
Q 1250 4750 2034 4750 
z
" transform="scale(0.015625)"/>
       </defs>
       <use xlink:href="#DejaVuSans-30"/>
      </g>
     </g>
    </g>
    <g id="xtick_2">
     <g id="line2d_2">
      <g>
       <use xlink:href="#m3eee73924a" x="170.672727" y="192.24" style="stroke: #000000; stroke-width: 2"/>
      </g>
     </g>
     <g id="text_2">
      <!-- 100 -->
      <g transform="translate(150.630852 217.696719) scale(0.21 -0.21)">
       <defs>
        <path id="DejaVuSans-31" d="M 794 531 
L 1825 531 
L 1825 4091 
L 703 3866 
L 703 4441 
L 1819 4666 
L 2450 4666 
L 2450 531 
L 3481 531 
L 3481 0 
L 794 0 
L 794 531 
z
" transform="scale(0.015625)"/>
       </defs>
       <use xlink:href="#DejaVuSans-31"/>
       <use xlink:href="#DejaVuSans-30" x="63.623047"/>
       <use xlink:href="#DejaVuSans-30" x="127.246094"/>
      </g>
     </g>
    </g>
    <g id="xtick_3">
     <g id="line2d_3">
      <g>
       <use xlink:href="#m3eee73924a" x="272.127273" y="192.24" style="stroke: #000000; stroke-width: 2"/>
      </g>
     </g>
     <g id="text_3">
      <!-- 200 -->
      <g transform="translate(252.085398 217.696719) scale(0.21 -0.21)">
       <defs>
        <path id="DejaVuSans-32" d="M 1228 531 
L 3431 531 
L 3431 0 
L 469 0 
L 469 531 
Q 828 903 1448 1529 
Q 2069 2156 2228 2338 
Q 2531 2678 2651 2914 
Q 2772 3150 2772 3378 
Q 2772 3750 2511 3984 
Q 2250 4219 1831 4219 
Q 1534 4219 1204 4116 
Q 875 4013 500 3803 
L 500 4441 
Q 881 4594 1212 4672 
Q 1544 4750 1819 4750 
Q 2544 4750 2975 4387 
Q 3406 4025 3406 3419 
Q 3406 3131 3298 2873 
Q 3191 2616 2906 2266 
Q 2828 2175 2409 1742 
Q 1991 1309 1228 531 
z
" transform="scale(0.015625)"/>
       </defs>
       <use xlink:href="#DejaVuSans-32"/>
       <use xlink:href="#DejaVuSans-30" x="63.623047"/>
       <use xlink:href="#DejaVuSans-30" x="127.246094"/>
      </g>
     </g>
    </g>
    <g id="xtick_4">
     <g id="line2d_4">
      <g>
       <use xlink:href="#m3eee73924a" x="373.581818" y="192.24" style="stroke: #000000; stroke-width: 2"/>
      </g>
     </g>
     <g id="text_4">
      <!-- 300 -->
      <g transform="translate(353.539943 217.696719) scale(0.21 -0.21)">
       <defs>
        <path id="DejaVuSans-33" d="M 2597 2516 
Q 3050 2419 3304 2112 
Q 3559 1806 3559 1356 
Q 3559 666 3084 287 
Q 2609 -91 1734 -91 
Q 1441 -91 1130 -33 
Q 819 25 488 141 
L 488 750 
Q 750 597 1062 519 
Q 1375 441 1716 441 
Q 2309 441 2620 675 
Q 2931 909 2931 1356 
Q 2931 1769 2642 2001 
Q 2353 2234 1838 2234 
L 1294 2234 
L 1294 2753 
L 1863 2753 
Q 2328 2753 2575 2939 
Q 2822 3125 2822 3475 
Q 2822 3834 2567 4026 
Q 2313 4219 1838 4219 
Q 1578 4219 1281 4162 
Q 984 4106 628 3988 
L 628 4550 
Q 988 4650 1302 4700 
Q 1616 4750 1894 4750 
Q 2613 4750 3031 4423 
Q 3450 4097 3450 3541 
Q 3450 3153 3228 2886 
Q 3006 2619 2597 2516 
z
" transform="scale(0.015625)"/>
       </defs>
       <use xlink:href="#DejaVuSans-33"/>
       <use xlink:href="#DejaVuSans-30" x="63.623047"/>
       <use xlink:href="#DejaVuSans-30" x="127.246094"/>
      </g>
     </g>
    </g>
    <g id="text_5">
     <!-- time (s) -->
     <g transform="translate(180.678047 242.020781) scale(0.21 -0.21)">
      <defs>
       <path id="DejaVuSans-74" d="M 1172 4494 
L 1172 3500 
L 2356 3500 
L 2356 3053 
L 1172 3053 
L 1172 1153 
Q 1172 725 1289 603 
Q 1406 481 1766 481 
L 2356 481 
L 2356 0 
L 1766 0 
Q 1100 0 847 248 
Q 594 497 594 1153 
L 594 3053 
L 172 3053 
L 172 3500 
L 594 3500 
L 594 4494 
L 1172 4494 
z
" transform="scale(0.015625)"/>
       <path id="DejaVuSans-69" d="M 603 3500 
L 1178 3500 
L 1178 0 
L 603 0 
L 603 3500 
z
M 603 4863 
L 1178 4863 
L 1178 4134 
L 603 4134 
L 603 4863 
z
" transform="scale(0.015625)"/>
       <path id="DejaVuSans-6d" d="M 3328 2828 
Q 3544 3216 3844 3400 
Q 4144 3584 4550 3584 
Q 5097 3584 5394 3201 
Q 5691 2819 5691 2113 
L 5691 0 
L 5113 0 
L 5113 2094 
Q 5113 2597 4934 2840 
Q 4756 3084 4391 3084 
Q 3944 3084 3684 2787 
Q 3425 2491 3425 1978 
L 3425 0 
L 2847 0 
L 2847 2094 
Q 2847 2600 2669 2842 
Q 2491 3084 2119 3084 
Q 1678 3084 1418 2786 
Q 1159 2488 1159 1978 
L 1159 0 
L 581 0 
L 581 3500 
L 1159 3500 
L 1159 2956 
Q 1356 3278 1631 3431 
Q 1906 3584 2284 3584 
Q 2666 3584 2933 3390 
Q 3200 3197 3328 2828 
z
" transform="scale(0.015625)"/>
       <path id="DejaVuSans-65" d="M 3597 1894 
L 3597 1613 
L 953 1613 
Q 991 1019 1311 708 
Q 1631 397 2203 397 
Q 2534 397 2845 478 
Q 3156 559 3463 722 
L 3463 178 
Q 3153 47 2828 -22 
Q 2503 -91 2169 -91 
Q 1331 -91 842 396 
Q 353 884 353 1716 
Q 353 2575 817 3079 
Q 1281 3584 2069 3584 
Q 2775 3584 3186 3129 
Q 3597 2675 3597 1894 
z
M 3022 2063 
Q 3016 2534 2758 2815 
Q 2500 3097 2075 3097 
Q 1594 3097 1305 2825 
Q 1016 2553 972 2059 
L 3022 2063 
z
" transform="scale(0.015625)"/>
       <path id="DejaVuSans-20" transform="scale(0.015625)"/>
       <path id="DejaVuSans-28" d="M 1984 4856 
Q 1566 4138 1362 3434 
Q 1159 2731 1159 2009 
Q 1159 1288 1364 580 
Q 1569 -128 1984 -844 
L 1484 -844 
Q 1016 -109 783 600 
Q 550 1309 550 2009 
Q 550 2706 781 3412 
Q 1013 4119 1484 4856 
L 1984 4856 
z
" transform="scale(0.015625)"/>
       <path id="DejaVuSans-73" d="M 2834 3397 
L 2834 2853 
Q 2591 2978 2328 3040 
Q 2066 3103 1784 3103 
Q 1356 3103 1142 2972 
Q 928 2841 928 2578 
Q 928 2378 1081 2264 
Q 1234 2150 1697 2047 
L 1894 2003 
Q 2506 1872 2764 1633 
Q 3022 1394 3022 966 
Q 3022 478 2636 193 
Q 2250 -91 1575 -91 
Q 1294 -91 989 -36 
Q 684 19 347 128 
L 347 722 
Q 666 556 975 473 
Q 1284 391 1588 391 
Q 1994 391 2212 530 
Q 2431 669 2431 922 
Q 2431 1156 2273 1281 
Q 2116 1406 1581 1522 
L 1381 1569 
Q 847 1681 609 1914 
Q 372 2147 372 2553 
Q 372 3047 722 3315 
Q 1072 3584 1716 3584 
Q 2034 3584 2315 3537 
Q 2597 3491 2834 3397 
z
" transform="scale(0.015625)"/>
       <path id="DejaVuSans-29" d="M 513 4856 
L 1013 4856 
Q 1481 4119 1714 3412 
Q 1947 2706 1947 2009 
Q 1947 1309 1714 600 
Q 1481 -109 1013 -844 
L 513 -844 
Q 928 -128 1133 580 
Q 1338 1288 1338 2009 
Q 1338 2731 1133 3434 
Q 928 4138 513 4856 
z
" transform="scale(0.015625)"/>
      </defs>
      <use xlink:href="#DejaVuSans-74"/>
      <use xlink:href="#DejaVuSans-69" x="39.208984"/>
      <use xlink:href="#DejaVuSans-6d" x="66.992188"/>
      <use xlink:href="#DejaVuSans-65" x="164.404297"/>
      <use xlink:href="#DejaVuSans-20" x="225.927734"/>
      <use xlink:href="#DejaVuSans-28" x="257.714844"/>
      <use xlink:href="#DejaVuSans-73" x="296.728516"/>
      <use xlink:href="#DejaVuSans-29" x="348.828125"/>
     </g>
    </g>
   </g>
   <g id="matplotlib.axis_2">
    <g id="ytick_1">
     <g id="line2d_5">
      <defs>
       <path id="m39e5115daa" d="M 0 0 
L -6 0 
" style="stroke: #000000; stroke-width: 2"/>
      </defs>
      <g>
       <use xlink:href="#m39e5115daa" x="54" y="184.68" style="stroke: #000000; stroke-width: 2"/>
      </g>
     </g>
     <g id="text_6">
      <!-- 0.0 -->
      <g transform="translate(11.103437 192.658359) scale(0.21 -0.21)">
       <defs>
        <path id="DejaVuSans-2e" d="M 684 794 
L 1344 794 
L 1344 0 
L 684 0 
L 684 794 
z
" transform="scale(0.015625)"/>
       </defs>
       <use xlink:href="#DejaVuSans-30"/>
       <use xlink:href="#DejaVuSans-2e" x="63.623047"/>
       <use xlink:href="#DejaVuSans-30" x="95.410156"/>
      </g>
     </g>
    </g>
    <g id="ytick_2">
     <g id="line2d_6">
      <g>
       <use xlink:href="#m39e5115daa" x="54" y="109.08" style="stroke: #000000; stroke-width: 2"/>
      </g>
     </g>
     <g id="text_7">
      <!-- 0.5 -->
      <g transform="translate(11.103437 117.058359) scale(0.21 -0.21)">
       <defs>
        <path id="DejaVuSans-35" d="M 691 4666 
L 3169 4666 
L 3169 4134 
L 1269 4134 
L 1269 2991 
Q 1406 3038 1543 3061 
Q 1681 3084 1819 3084 
Q 2600 3084 3056 2656 
Q 3513 2228 3513 1497 
Q 3513 744 3044 326 
Q 2575 -91 1722 -91 
Q 1428 -91 1123 -41 
Q 819 9 494 109 
L 494 744 
Q 775 591 1075 516 
Q 1375 441 1709 441 
Q 2250 441 2565 725 
Q 2881 1009 2881 1497 
Q 2881 1984 2565 2268 
Q 2250 2553 1709 2553 
Q 1456 2553 1204 2497 
Q 953 2441 691 2322 
L 691 4666 
z
" transform="scale(0.015625)"/>
       </defs>
       <use xlink:href="#DejaVuSans-30"/>
       <use xlink:href="#DejaVuSans-2e" x="63.623047"/>
       <use xlink:href="#DejaVuSans-35" x="95.410156"/>
      </g>
     </g>
    </g>
    <g id="ytick_3">
     <g id="line2d_7">
      <g>
       <use xlink:href="#m39e5115daa" x="54" y="33.48" style="stroke: #000000; stroke-width: 2"/>
      </g>
     </g>
     <g id="text_8">
      <!-- 1.0 -->
      <g transform="translate(11.103437 41.458359) scale(0.21 -0.21)">
       <use xlink:href="#DejaVuSans-31"/>
       <use xlink:href="#DejaVuSans-2e" x="63.623047"/>
       <use xlink:href="#DejaVuSans-30" x="95.410156"/>
      </g>
     </g>
    </g>
    <g id="text_9">
     <!-- % emission -->
     <g transform="translate(2.736094 168.934922) rotate(-90) scale(0.21 -0.21)">
      <defs>
       <path id="DejaVuSans-25" d="M 4653 2053 
Q 4381 2053 4226 1822 
Q 4072 1591 4072 1178 
Q 4072 772 4226 539 
Q 4381 306 4653 306 
Q 4919 306 5073 539 
Q 5228 772 5228 1178 
Q 5228 1588 5073 1820 
Q 4919 2053 4653 2053 
z
M 4653 2450 
Q 5147 2450 5437 2106 
Q 5728 1763 5728 1178 
Q 5728 594 5436 251 
Q 5144 -91 4653 -91 
Q 4153 -91 3862 251 
Q 3572 594 3572 1178 
Q 3572 1766 3864 2108 
Q 4156 2450 4653 2450 
z
M 1428 4353 
Q 1159 4353 1004 4120 
Q 850 3888 850 3481 
Q 850 3069 1003 2837 
Q 1156 2606 1428 2606 
Q 1700 2606 1854 2837 
Q 2009 3069 2009 3481 
Q 2009 3884 1853 4118 
Q 1697 4353 1428 4353 
z
M 4250 4750 
L 4750 4750 
L 1831 -91 
L 1331 -91 
L 4250 4750 
z
M 1428 4750 
Q 1922 4750 2215 4408 
Q 2509 4066 2509 3481 
Q 2509 2891 2217 2550 
Q 1925 2209 1428 2209 
Q 931 2209 642 2551 
Q 353 2894 353 3481 
Q 353 4063 643 4406 
Q 934 4750 1428 4750 
z
" transform="scale(0.015625)"/>
       <path id="DejaVuSans-6f" d="M 1959 3097 
Q 1497 3097 1228 2736 
Q 959 2375 959 1747 
Q 959 1119 1226 758 
Q 1494 397 1959 397 
Q 2419 397 2687 759 
Q 2956 1122 2956 1747 
Q 2956 2369 2687 2733 
Q 2419 3097 1959 3097 
z
M 1959 3584 
Q 2709 3584 3137 3096 
Q 3566 2609 3566 1747 
Q 3566 888 3137 398 
Q 2709 -91 1959 -91 
Q 1206 -91 779 398 
Q 353 888 353 1747 
Q 353 2609 779 3096 
Q 1206 3584 1959 3584 
z
" transform="scale(0.015625)"/>
       <path id="DejaVuSans-6e" d="M 3513 2113 
L 3513 0 
L 2938 0 
L 2938 2094 
Q 2938 2591 2744 2837 
Q 2550 3084 2163 3084 
Q 1697 3084 1428 2787 
Q 1159 2491 1159 1978 
L 1159 0 
L 581 0 
L 581 3500 
L 1159 3500 
L 1159 2956 
Q 1366 3272 1645 3428 
Q 1925 3584 2291 3584 
Q 2894 3584 3203 3211 
Q 3513 2838 3513 2113 
z
" transform="scale(0.015625)"/>
      </defs>
      <use xlink:href="#DejaVuSans-25"/>
      <use xlink:href="#DejaVuSans-20" x="95.019531"/>
      <use xlink:href="#DejaVuSans-65" x="126.806641"/>
      <use xlink:href="#DejaVuSans-6d" x="188.330078"/>
      <use xlink:href="#DejaVuSans-69" x="285.742188"/>
      <use xlink:href="#DejaVuSans-73" x="313.525391"/>
      <use xlink:href="#DejaVuSans-73" x="365.625"/>
      <use xlink:href="#DejaVuSans-69" x="417.724609"/>
      <use xlink:href="#DejaVuSans-6f" x="445.507812"/>
      <use xlink:href="#DejaVuSans-6e" x="506.689453"/>
     </g>
    </g>
   </g>
   <g id="line2d_8">
    <defs>
     <path id="m8427026468" d="M -3 3 
L 3 -3 
M -3 -3 
L 3 3 
" style="stroke: #0000ff"/>
    </defs>
    <g clip-path="url(#p92b699855d)">
     <use xlink:href="#m8427026468" x="69.218182" y="184.662307" style="fill: #0000ff; stroke: #0000ff"/>
     <use xlink:href="#m8427026468" x="79.363636" y="176.518936" style="fill: #0000ff; stroke: #0000ff"/>
     <use xlink:href="#m8427026468" x="89.509091" y="171.377065" style="fill: #0000ff; stroke: #0000ff"/>
     <use xlink:href="#m8427026468" x="99.654545" y="166.062917" style="fill: #0000ff; stroke: #0000ff"/>
     <use xlink:href="#m8427026468" x="109.8" y="160.875266" style="fill: #0000ff; stroke: #0000ff"/>
     <use xlink:href="#m8427026468" x="119.945455" y="156.174075" style="fill: #0000ff; stroke: #0000ff"/>
     <use xlink:href="#m8427026468" x="130.090909" y="151.895603" style="fill: #0000ff; stroke: #0000ff"/>
     <use xlink:href="#m8427026468" x="140.236364" y="146.660706" style="fill: #0000ff; stroke: #0000ff"/>
     <use xlink:href="#m8427026468" x="150.381818" y="141.407215" style="fill: #0000ff; stroke: #0000ff"/>
     <use xlink:href="#m8427026468" x="160.527273" y="137.159864" style="fill: #0000ff; stroke: #0000ff"/>
     <use xlink:href="#m8427026468" x="170.672727" y="131.667659" style="fill: #0000ff; stroke: #0000ff"/>
     <use xlink:href="#m8427026468" x="180.818182" y="126.803199" style="fill: #0000ff; stroke: #0000ff"/>
     <use xlink:href="#m8427026468" x="190.963636" y="122.639416" style="fill: #0000ff; stroke: #0000ff"/>
     <use xlink:href="#m8427026468" x="201.109091" y="118.086454" style="fill: #0000ff; stroke: #0000ff"/>
     <use xlink:href="#m8427026468" x="211.254545" y="112.703294" style="fill: #0000ff; stroke: #0000ff"/>
     <use xlink:href="#m8427026468" x="221.4" y="107.320386" style="fill: #0000ff; stroke: #0000ff"/>
     <use xlink:href="#m8427026468" x="231.545455" y="102.69483" style="fill: #0000ff; stroke: #0000ff"/>
     <use xlink:href="#m8427026468" x="241.690909" y="97.249862" style="fill: #0000ff; stroke: #0000ff"/>
     <use xlink:href="#m8427026468" x="251.836364" y="91.379331" style="fill: #0000ff; stroke: #0000ff"/>
     <use xlink:href="#m8427026468" x="261.981818" y="86.801628" style="fill: #0000ff; stroke: #0000ff"/>
     <use xlink:href="#m8427026468" x="272.127273" y="81.714266" style="fill: #0000ff; stroke: #0000ff"/>
     <use xlink:href="#m8427026468" x="282.272727" y="75.812389" style="fill: #0000ff; stroke: #0000ff"/>
     <use xlink:href="#m8427026468" x="292.418182" y="70.667397" style="fill: #0000ff; stroke: #0000ff"/>
     <use xlink:href="#m8427026468" x="302.563636" y="66.37007" style="fill: #0000ff; stroke: #0000ff"/>
     <use xlink:href="#m8427026468" x="312.709091" y="61.381048" style="fill: #0000ff; stroke: #0000ff"/>
     <use xlink:href="#m8427026468" x="322.854545" y="56.836858" style="fill: #0000ff; stroke: #0000ff"/>
     <use xlink:href="#m8427026468" x="333" y="51.494919" style="fill: #0000ff; stroke: #0000ff"/>
     <use xlink:href="#m8427026468" x="343.145455" y="47.396828" style="fill: #0000ff; stroke: #0000ff"/>
     <use xlink:href="#m8427026468" x="353.290909" y="42.789807" style="fill: #0000ff; stroke: #0000ff"/>
     <use xlink:href="#m8427026468" x="363.436364" y="37.553913" style="fill: #0000ff; stroke: #0000ff"/>
    </g>
   </g>
   <g id="line2d_9">
    <defs>
     <path id="mb3e9f827a6" d="M -3 3 
L 3 -3 
M -3 -3 
L 3 3 
" style="stroke: #ff0000"/>
    </defs>
    <g clip-path="url(#p92b699855d)">
     <use xlink:href="#mb3e9f827a6" x="69.218182" y="184.65988" style="fill: #ff0000; stroke: #ff0000"/>
     <use xlink:href="#mb3e9f827a6" x="79.363636" y="177.038066" style="fill: #ff0000; stroke: #ff0000"/>
     <use xlink:href="#mb3e9f827a6" x="89.509091" y="171.523938" style="fill: #ff0000; stroke: #ff0000"/>
     <use xlink:href="#mb3e9f827a6" x="99.654545" y="165.72528" style="fill: #ff0000; stroke: #ff0000"/>
     <use xlink:href="#mb3e9f827a6" x="109.8" y="158.456072" style="fill: #ff0000; stroke: #ff0000"/>
     <use xlink:href="#mb3e9f827a6" x="119.945455" y="151.58017" style="fill: #ff0000; stroke: #ff0000"/>
     <use xlink:href="#mb3e9f827a6" x="130.090909" y="146.867086" style="fill: #ff0000; stroke: #ff0000"/>
     <use xlink:href="#mb3e9f827a6" x="140.236364" y="142.534034" style="fill: #ff0000; stroke: #ff0000"/>
     <use xlink:href="#mb3e9f827a6" x="150.381818" y="138.531127" style="fill: #ff0000; stroke: #ff0000"/>
     <use xlink:href="#mb3e9f827a6" x="160.527273" y="132.594297" style="fill: #ff0000; stroke: #ff0000"/>
     <use xlink:href="#mb3e9f827a6" x="170.672727" y="127.10518" style="fill: #ff0000; stroke: #ff0000"/>
     <use xlink:href="#mb3e9f827a6" x="180.818182" y="122.069611" style="fill: #ff0000; stroke: #ff0000"/>
     <use xlink:href="#mb3e9f827a6" x="190.963636" y="117.586816" style="fill: #ff0000; stroke: #ff0000"/>
     <use xlink:href="#mb3e9f827a6" x="201.109091" y="112.14961" style="fill: #ff0000; stroke: #ff0000"/>
     <use xlink:href="#mb3e9f827a6" x="211.254545" y="106.898497" style="fill: #ff0000; stroke: #ff0000"/>
     <use xlink:href="#mb3e9f827a6" x="221.4" y="101.237692" style="fill: #ff0000; stroke: #ff0000"/>
     <use xlink:href="#mb3e9f827a6" x="231.545455" y="95.450309" style="fill: #ff0000; stroke: #ff0000"/>
     <use xlink:href="#mb3e9f827a6" x="241.690909" y="90.579888" style="fill: #ff0000; stroke: #ff0000"/>
     <use xlink:href="#mb3e9f827a6" x="251.836364" y="85.04875" style="fill: #ff0000; stroke: #ff0000"/>
     <use xlink:href="#mb3e9f827a6" x="261.981818" y="80.959868" style="fill: #ff0000; stroke: #ff0000"/>
     <use xlink:href="#mb3e9f827a6" x="272.127273" y="75.624922" style="fill: #ff0000; stroke: #ff0000"/>
     <use xlink:href="#mb3e9f827a6" x="282.272727" y="71.796801" style="fill: #ff0000; stroke: #ff0000"/>
     <use xlink:href="#mb3e9f827a6" x="292.418182" y="68.411668" style="fill: #ff0000; stroke: #ff0000"/>
     <use xlink:href="#mb3e9f827a6" x="302.563636" y="65.03827" style="fill: #ff0000; stroke: #ff0000"/>
     <use xlink:href="#mb3e9f827a6" x="312.709091" y="60.729624" style="fill: #ff0000; stroke: #ff0000"/>
     <use xlink:href="#mb3e9f827a6" x="322.854545" y="55.664989" style="fill: #ff0000; stroke: #ff0000"/>
     <use xlink:href="#mb3e9f827a6" x="333" y="51.353751" style="fill: #ff0000; stroke: #ff0000"/>
     <use xlink:href="#mb3e9f827a6" x="343.145455" y="46.197437" style="fill: #ff0000; stroke: #ff0000"/>
     <use xlink:href="#mb3e9f827a6" x="353.290909" y="41.812277" style="fill: #ff0000; stroke: #ff0000"/>
     <use xlink:href="#mb3e9f827a6" x="363.436364" y="37.492951" style="fill: #ff0000; stroke: #ff0000"/>
    </g>
   </g>
   <g id="line2d_10">
    <path d="M 69.218182 184.68 
L 72.915839 175.047081 
L 76.629746 165.986726 
L 80.360917 157.465276 
L 84.1124 149.447002 
L 87.886224 141.9012 
L 91.686454 134.795749 
L 95.515119 128.104971 
L 99.376282 121.80178 
L 103.274005 115.861584 
L 107.213366 110.260622 
L 111.198428 104.978812 
L 115.236298 99.994186 
L 119.332056 95.289603 
L 123.492809 90.847454 
L 127.726683 86.651195 
L 132.042817 82.685446 
L 136.450352 78.936887 
L 140.960459 75.392445 
L 145.585324 72.040343 
L 150.338149 68.870089 
L 155.233153 65.872439 
L 160.2876 63.038257 
L 165.519771 60.359914 
L 170.950991 57.830243 
L 176.604619 55.443221 
L 182.508075 53.193216 
L 188.691826 51.075635 
L 195.192432 49.086067 
L 202.052547 47.220739 
L 209.319902 45.477029 
L 217.054414 43.85205 
L 225.326159 42.343802 
L 234.221458 40.950507 
L 243.847961 39.67065 
L 254.342768 38.502913 
L 265.881572 37.446381 
L 278.697952 36.500249 
L 293.11181 35.663801 
L 309.576085 34.93644 
L 328.767142 34.317475 
L 351.751319 33.806236 
L 373.581818 33.48 
L 373.581818 33.48 
" clip-path="url(#p92b699855d)" style="fill: none; stroke: #bfbf00; stroke-width: 1.5; stroke-linecap: square"/>
   </g>
   <g id="line2d_11">
    <path d="M 69.218182 184.68 
L 74.995708 176.937255 
L 80.824013 169.496684 
L 86.707158 162.345257 
L 92.650221 155.469758 
L 98.657265 148.859168 
L 104.733366 142.502222 
L 110.884619 136.387607 
L 117.116102 130.505992 
L 123.434922 124.847031 
L 129.84819 119.401438 
L 136.363014 114.160878 
L 142.987518 109.117124 
L 149.730844 104.262171 
L 156.601114 99.589677 
L 163.6095 95.092132 
L 170.766159 90.763704 
L 178.083276 86.598257 
L 185.573038 82.590638 
L 193.249664 78.735567 
L 201.128387 75.02829 
L 209.224439 71.465024 
L 217.557117 68.041206 
L 226.144701 64.753783 
L 235.008518 61.599509 
L 244.17294 58.575172 
L 253.664373 55.678069 
L 263.512269 52.905761 
L 273.748108 50.256432 
L 284.409468 47.727935 
L 295.537985 45.31856 
L 307.181392 43.026734 
L 319.392498 40.8514 
L 332.235283 38.791134 
L 345.781851 36.845044 
L 360.11751 35.012255 
L 373.581818 33.48 
L 373.581818 33.48 
" clip-path="url(#p92b699855d)" style="fill: none; stroke: #008000; stroke-width: 1.5; stroke-linecap: square"/>
   </g>
   <g id="line2d_12">
    <path d="M 69.218182 184.68 
L 87.27181 173.905012 
L 105.486912 163.292566 
L 123.867551 152.840993 
L 142.41982 142.547614 
L 161.148796 132.410501 
L 180.059558 122.427868 
L 199.158198 112.597546 
L 218.449795 102.918051 
L 237.940442 93.387524 
L 257.637248 84.003792 
L 277.546306 74.765346 
L 297.67371 65.670819 
L 318.027584 56.718095 
L 338.614021 47.906134 
L 359.441147 39.233174 
L 373.581818 33.48 
L 373.581818 33.48 
" clip-path="url(#p92b699855d)" style="fill: none; stroke: #ff0000; stroke-width: 1.5; stroke-linecap: square"/>
   </g>
   <g id="line2d_13">
    <path d="M 69.218182 184.68 
L 124.577428 156.627176 
L 180.132678 128.72423 
L 235.885962 100.970572 
L 291.839312 73.365631 
L 347.995774 45.908359 
L 373.581818 33.48 
L 373.581818 33.48 
" clip-path="url(#p92b699855d)" style="fill: none; stroke: #0000ff; stroke-width: 1.5; stroke-linecap: square"/>
   </g>
   <g id="line2d_14">
    <defs>
     <path id="m1056959286" d="M -3 3 
L 3 -3 
M -3 -3 
L 3 3 
" style="stroke: #008000"/>
    </defs>
    <g clip-path="url(#p92b699855d)">
     <use xlink:href="#m1056959286" x="69.218182" y="184.64862" style="fill: #008000; stroke: #008000"/>
     <use xlink:href="#m1056959286" x="79.363636" y="168.722484" style="fill: #008000; stroke: #008000"/>
     <use xlink:href="#m1056959286" x="89.509091" y="155.183154" style="fill: #008000; stroke: #008000"/>
     <use xlink:href="#m1056959286" x="99.654545" y="145.1292" style="fill: #008000; stroke: #008000"/>
     <use xlink:href="#m1056959286" x="109.8" y="133.299437" style="fill: #008000; stroke: #008000"/>
     <use xlink:href="#m1056959286" x="119.945455" y="125.518361" style="fill: #008000; stroke: #008000"/>
     <use xlink:href="#m1056959286" x="130.090909" y="117.124714" style="fill: #008000; stroke: #008000"/>
     <use xlink:href="#m1056959286" x="140.236364" y="108.186017" style="fill: #008000; stroke: #008000"/>
     <use xlink:href="#m1056959286" x="150.381818" y="101.274419" style="fill: #008000; stroke: #008000"/>
     <use xlink:href="#m1056959286" x="160.527273" y="94.433693" style="fill: #008000; stroke: #008000"/>
     <use xlink:href="#m1056959286" x="170.672727" y="88.666928" style="fill: #008000; stroke: #008000"/>
     <use xlink:href="#m1056959286" x="180.818182" y="82.427431" style="fill: #008000; stroke: #008000"/>
     <use xlink:href="#m1056959286" x="190.963636" y="76.378709" style="fill: #008000; stroke: #008000"/>
     <use xlink:href="#m1056959286" x="201.109091" y="72.862833" style="fill: #008000; stroke: #008000"/>
     <use xlink:href="#m1056959286" x="211.254545" y="69.406824" style="fill: #008000; stroke: #008000"/>
     <use xlink:href="#m1056959286" x="221.4" y="64.609296" style="fill: #008000; stroke: #008000"/>
     <use xlink:href="#m1056959286" x="231.545455" y="60.893234" style="fill: #008000; stroke: #008000"/>
     <use xlink:href="#m1056959286" x="241.690909" y="57.239974" style="fill: #008000; stroke: #008000"/>
     <use xlink:href="#m1056959286" x="251.836364" y="55.635739" style="fill: #008000; stroke: #008000"/>
     <use xlink:href="#m1056959286" x="261.981818" y="52.327449" style="fill: #008000; stroke: #008000"/>
     <use xlink:href="#m1056959286" x="272.127273" y="48.302408" style="fill: #008000; stroke: #008000"/>
     <use xlink:href="#m1056959286" x="282.272727" y="46.232211" style="fill: #008000; stroke: #008000"/>
     <use xlink:href="#m1056959286" x="292.418182" y="44.243263" style="fill: #008000; stroke: #008000"/>
     <use xlink:href="#m1056959286" x="302.563636" y="42.551072" style="fill: #008000; stroke: #008000"/>
     <use xlink:href="#m1056959286" x="312.709091" y="40.395623" style="fill: #008000; stroke: #008000"/>
     <use xlink:href="#m1056959286" x="322.854545" y="39.179686" style="fill: #008000; stroke: #008000"/>
     <use xlink:href="#m1056959286" x="333" y="37.997938" style="fill: #008000; stroke: #008000"/>
     <use xlink:href="#m1056959286" x="343.145455" y="36.678471" style="fill: #008000; stroke: #008000"/>
     <use xlink:href="#m1056959286" x="353.290909" y="35.362923" style="fill: #008000; stroke: #008000"/>
     <use xlink:href="#m1056959286" x="363.436364" y="34.338285" style="fill: #008000; stroke: #008000"/>
    </g>
   </g>
   <g id="line2d_15">
    <defs>
     <path id="mdd72acf9dd" d="M -3 3 
L 3 -3 
M -3 -3 
L 3 3 
" style="stroke: #bfbf00"/>
    </defs>
    <g clip-path="url(#p92b699855d)">
     <use xlink:href="#mdd72acf9dd" x="69.218182" y="184.6678" style="fill: #bfbf00; stroke: #bfbf00"/>
     <use xlink:href="#mdd72acf9dd" x="79.363636" y="160.038927" style="fill: #bfbf00; stroke: #bfbf00"/>
     <use xlink:href="#mdd72acf9dd" x="89.509091" y="139.42885" style="fill: #bfbf00; stroke: #bfbf00"/>
     <use xlink:href="#mdd72acf9dd" x="99.654545" y="120.811022" style="fill: #bfbf00; stroke: #bfbf00"/>
     <use xlink:href="#mdd72acf9dd" x="109.8" y="108.146156" style="fill: #bfbf00; stroke: #bfbf00"/>
     <use xlink:href="#mdd72acf9dd" x="119.945455" y="95.022302" style="fill: #bfbf00; stroke: #bfbf00"/>
     <use xlink:href="#mdd72acf9dd" x="130.090909" y="83.678176" style="fill: #bfbf00; stroke: #bfbf00"/>
     <use xlink:href="#mdd72acf9dd" x="140.236364" y="74.671246" style="fill: #bfbf00; stroke: #bfbf00"/>
     <use xlink:href="#mdd72acf9dd" x="150.381818" y="68.657903" style="fill: #bfbf00; stroke: #bfbf00"/>
     <use xlink:href="#mdd72acf9dd" x="160.527273" y="62.883691" style="fill: #bfbf00; stroke: #bfbf00"/>
     <use xlink:href="#mdd72acf9dd" x="170.672727" y="57.818116" style="fill: #bfbf00; stroke: #bfbf00"/>
     <use xlink:href="#mdd72acf9dd" x="180.818182" y="53.586446" style="fill: #bfbf00; stroke: #bfbf00"/>
     <use xlink:href="#mdd72acf9dd" x="190.963636" y="50.793974" style="fill: #bfbf00; stroke: #bfbf00"/>
     <use xlink:href="#mdd72acf9dd" x="201.109091" y="48.043583" style="fill: #bfbf00; stroke: #bfbf00"/>
     <use xlink:href="#mdd72acf9dd" x="211.254545" y="45.043807" style="fill: #bfbf00; stroke: #bfbf00"/>
     <use xlink:href="#mdd72acf9dd" x="221.4" y="43.293253" style="fill: #bfbf00; stroke: #bfbf00"/>
     <use xlink:href="#mdd72acf9dd" x="231.545455" y="41.328233" style="fill: #bfbf00; stroke: #bfbf00"/>
     <use xlink:href="#mdd72acf9dd" x="241.690909" y="40.291798" style="fill: #bfbf00; stroke: #bfbf00"/>
     <use xlink:href="#mdd72acf9dd" x="251.836364" y="38.759775" style="fill: #bfbf00; stroke: #bfbf00"/>
     <use xlink:href="#mdd72acf9dd" x="261.981818" y="37.489956" style="fill: #bfbf00; stroke: #bfbf00"/>
     <use xlink:href="#mdd72acf9dd" x="272.127273" y="36.549084" style="fill: #bfbf00; stroke: #bfbf00"/>
     <use xlink:href="#mdd72acf9dd" x="282.272727" y="35.893488" style="fill: #bfbf00; stroke: #bfbf00"/>
     <use xlink:href="#mdd72acf9dd" x="292.418182" y="35.613427" style="fill: #bfbf00; stroke: #bfbf00"/>
     <use xlink:href="#mdd72acf9dd" x="302.563636" y="35.228786" style="fill: #bfbf00; stroke: #bfbf00"/>
     <use xlink:href="#mdd72acf9dd" x="312.709091" y="34.993458" style="fill: #bfbf00; stroke: #bfbf00"/>
     <use xlink:href="#mdd72acf9dd" x="322.854545" y="34.290743" style="fill: #bfbf00; stroke: #bfbf00"/>
     <use xlink:href="#mdd72acf9dd" x="333" y="34.120744" style="fill: #bfbf00; stroke: #bfbf00"/>
     <use xlink:href="#mdd72acf9dd" x="343.145455" y="33.899737" style="fill: #bfbf00; stroke: #bfbf00"/>
     <use xlink:href="#mdd72acf9dd" x="353.290909" y="33.587498" style="fill: #bfbf00; stroke: #bfbf00"/>
     <use xlink:href="#mdd72acf9dd" x="363.436364" y="33.504841" style="fill: #bfbf00; stroke: #bfbf00"/>
    </g>
   </g>
   <g id="patch_3">
    <path d="M 54 192.24 
L 54 25.92 
" style="fill: none; stroke: #000000; stroke-width: 2; stroke-linejoin: miter; stroke-linecap: square"/>
   </g>
   <g id="patch_4">
    <path d="M 388.8 192.24 
L 388.8 25.92 
" style="fill: none; stroke: #000000; stroke-width: 2; stroke-linejoin: miter; stroke-linecap: square"/>
   </g>
   <g id="patch_5">
    <path d="M 54 192.24 
L 388.8 192.24 
" style="fill: none; stroke: #000000; stroke-width: 2; stroke-linejoin: miter; stroke-linecap: square"/>
   </g>
   <g id="patch_6">
    <path d="M 54 25.92 
L 388.8 25.92 
" style="fill: none; stroke: #000000; stroke-width: 2; stroke-linejoin: miter; stroke-linecap: square"/>
   </g>
   <g id="text_10">
    <!-- bleaching rate -->
    <g transform="translate(145.591641 19.92) scale(0.21 -0.21)">
     <defs>
      <path id="DejaVuSans-62" d="M 3116 1747 
Q 3116 2381 2855 2742 
Q 2594 3103 2138 3103 
Q 1681 3103 1420 2742 
Q 1159 2381 1159 1747 
Q 1159 1113 1420 752 
Q 1681 391 2138 391 
Q 2594 391 2855 752 
Q 3116 1113 3116 1747 
z
M 1159 2969 
Q 1341 3281 1617 3432 
Q 1894 3584 2278 3584 
Q 2916 3584 3314 3078 
Q 3713 2572 3713 1747 
Q 3713 922 3314 415 
Q 2916 -91 2278 -91 
Q 1894 -91 1617 61 
Q 1341 213 1159 525 
L 1159 0 
L 581 0 
L 581 4863 
L 1159 4863 
L 1159 2969 
z
" transform="scale(0.015625)"/>
      <path id="DejaVuSans-6c" d="M 603 4863 
L 1178 4863 
L 1178 0 
L 603 0 
L 603 4863 
z
" transform="scale(0.015625)"/>
      <path id="DejaVuSans-61" d="M 2194 1759 
Q 1497 1759 1228 1600 
Q 959 1441 959 1056 
Q 959 750 1161 570 
Q 1363 391 1709 391 
Q 2188 391 2477 730 
Q 2766 1069 2766 1631 
L 2766 1759 
L 2194 1759 
z
M 3341 1997 
L 3341 0 
L 2766 0 
L 2766 531 
Q 2569 213 2275 61 
Q 1981 -91 1556 -91 
Q 1019 -91 701 211 
Q 384 513 384 1019 
Q 384 1609 779 1909 
Q 1175 2209 1959 2209 
L 2766 2209 
L 2766 2266 
Q 2766 2663 2505 2880 
Q 2244 3097 1772 3097 
Q 1472 3097 1187 3025 
Q 903 2953 641 2809 
L 641 3341 
Q 956 3463 1253 3523 
Q 1550 3584 1831 3584 
Q 2591 3584 2966 3190 
Q 3341 2797 3341 1997 
z
" transform="scale(0.015625)"/>
      <path id="DejaVuSans-63" d="M 3122 3366 
L 3122 2828 
Q 2878 2963 2633 3030 
Q 2388 3097 2138 3097 
Q 1578 3097 1268 2742 
Q 959 2388 959 1747 
Q 959 1106 1268 751 
Q 1578 397 2138 397 
Q 2388 397 2633 464 
Q 2878 531 3122 666 
L 3122 134 
Q 2881 22 2623 -34 
Q 2366 -91 2075 -91 
Q 1284 -91 818 406 
Q 353 903 353 1747 
Q 353 2603 823 3093 
Q 1294 3584 2113 3584 
Q 2378 3584 2631 3529 
Q 2884 3475 3122 3366 
z
" transform="scale(0.015625)"/>
      <path id="DejaVuSans-68" d="M 3513 2113 
L 3513 0 
L 2938 0 
L 2938 2094 
Q 2938 2591 2744 2837 
Q 2550 3084 2163 3084 
Q 1697 3084 1428 2787 
Q 1159 2491 1159 1978 
L 1159 0 
L 581 0 
L 581 4863 
L 1159 4863 
L 1159 2956 
Q 1366 3272 1645 3428 
Q 1925 3584 2291 3584 
Q 2894 3584 3203 3211 
Q 3513 2838 3513 2113 
z
" transform="scale(0.015625)"/>
      <path id="DejaVuSans-67" d="M 2906 1791 
Q 2906 2416 2648 2759 
Q 2391 3103 1925 3103 
Q 1463 3103 1205 2759 
Q 947 2416 947 1791 
Q 947 1169 1205 825 
Q 1463 481 1925 481 
Q 2391 481 2648 825 
Q 2906 1169 2906 1791 
z
M 3481 434 
Q 3481 -459 3084 -895 
Q 2688 -1331 1869 -1331 
Q 1566 -1331 1297 -1286 
Q 1028 -1241 775 -1147 
L 775 -588 
Q 1028 -725 1275 -790 
Q 1522 -856 1778 -856 
Q 2344 -856 2625 -561 
Q 2906 -266 2906 331 
L 2906 616 
Q 2728 306 2450 153 
Q 2172 0 1784 0 
Q 1141 0 747 490 
Q 353 981 353 1791 
Q 353 2603 747 3093 
Q 1141 3584 1784 3584 
Q 2172 3584 2450 3431 
Q 2728 3278 2906 2969 
L 2906 3500 
L 3481 3500 
L 3481 434 
z
" transform="scale(0.015625)"/>
      <path id="DejaVuSans-72" d="M 2631 2963 
Q 2534 3019 2420 3045 
Q 2306 3072 2169 3072 
Q 1681 3072 1420 2755 
Q 1159 2438 1159 1844 
L 1159 0 
L 581 0 
L 581 3500 
L 1159 3500 
L 1159 2956 
Q 1341 3275 1631 3429 
Q 1922 3584 2338 3584 
Q 2397 3584 2469 3576 
Q 2541 3569 2628 3553 
L 2631 2963 
z
" transform="scale(0.015625)"/>
     </defs>
     <use xlink:href="#DejaVuSans-62"/>
     <use xlink:href="#DejaVuSans-6c" x="63.476562"/>
     <use xlink:href="#DejaVuSans-65" x="91.259766"/>
     <use xlink:href="#DejaVuSans-61" x="152.783203"/>
     <use xlink:href="#DejaVuSans-63" x="214.0625"/>
     <use xlink:href="#DejaVuSans-68" x="269.042969"/>
     <use xlink:href="#DejaVuSans-69" x="332.421875"/>
     <use xlink:href="#DejaVuSans-6e" x="360.205078"/>
     <use xlink:href="#DejaVuSans-67" x="423.583984"/>
     <use xlink:href="#DejaVuSans-20" x="487.060547"/>
     <use xlink:href="#DejaVuSans-72" x="518.847656"/>
     <use xlink:href="#DejaVuSans-61" x="559.960938"/>
     <use xlink:href="#DejaVuSans-74" x="621.240234"/>
     <use xlink:href="#DejaVuSans-65" x="660.449219"/>
    </g>
   </g>
   <g id="legend_1">
    <g id="patch_7">
     <path d="M 61 92.6325 
L 111.878125 92.6325 
Q 113.878125 92.6325 113.878125 90.6325 
L 113.878125 32.92 
Q 113.878125 30.92 111.878125 30.92 
L 61 30.92 
Q 59 30.92 59 32.92 
L 59 90.6325 
Q 59 92.6325 61 92.6325 
z
" style="fill: #ffffff; opacity: 0.8; stroke: #cccccc; stroke-linejoin: miter"/>
    </g>
    <g id="line2d_16">
     <g>
      <use xlink:href="#m8427026468" x="73" y="39.018438" style="fill: #0000ff; stroke: #0000ff"/>
     </g>
    </g>
    <g id="text_11">
     <!-- 1e1 -->
     <g transform="translate(91 42.518438) scale(0.1 -0.1)">
      <use xlink:href="#DejaVuSans-31"/>
      <use xlink:href="#DejaVuSans-65" x="63.623047"/>
      <use xlink:href="#DejaVuSans-31" x="125.146484"/>
     </g>
    </g>
    <g id="line2d_17">
     <g>
      <use xlink:href="#mb3e9f827a6" x="73" y="53.696562" style="fill: #ff0000; stroke: #ff0000"/>
     </g>
    </g>
    <g id="text_12">
     <!-- 1e2 -->
     <g transform="translate(91 57.196562) scale(0.1 -0.1)">
      <use xlink:href="#DejaVuSans-31"/>
      <use xlink:href="#DejaVuSans-65" x="63.623047"/>
      <use xlink:href="#DejaVuSans-32" x="125.146484"/>
     </g>
    </g>
    <g id="line2d_18">
     <g>
      <use xlink:href="#m1056959286" x="73" y="68.374687" style="fill: #008000; stroke: #008000"/>
     </g>
    </g>
    <g id="text_13">
     <!-- 1e3 -->
     <g transform="translate(91 71.874687) scale(0.1 -0.1)">
      <use xlink:href="#DejaVuSans-31"/>
      <use xlink:href="#DejaVuSans-65" x="63.623047"/>
      <use xlink:href="#DejaVuSans-33" x="125.146484"/>
     </g>
    </g>
    <g id="line2d_19">
     <g>
      <use xlink:href="#mdd72acf9dd" x="73" y="83.052813" style="fill: #bfbf00; stroke: #bfbf00"/>
     </g>
    </g>
    <g id="text_14">
     <!-- 1e4 -->
     <g transform="translate(91 86.552813) scale(0.1 -0.1)">
      <defs>
       <path id="DejaVuSans-34" d="M 2419 4116 
L 825 1625 
L 2419 1625 
L 2419 4116 
z
M 2253 4666 
L 3047 4666 
L 3047 1625 
L 3713 1625 
L 3713 1100 
L 3047 1100 
L 3047 0 
L 2419 0 
L 2419 1100 
L 313 1100 
L 313 1709 
L 2253 4666 
z
" transform="scale(0.015625)"/>
      </defs>
      <use xlink:href="#DejaVuSans-31"/>
      <use xlink:href="#DejaVuSans-65" x="63.623047"/>
      <use xlink:href="#DejaVuSans-34" x="125.146484"/>
     </g>
    </g>
   </g>
  </g>
 </g>
 <defs>
  <clipPath id="p92b699855d">
   <rect x="54" y="25.92" width="334.8" height="166.32"/>
  </clipPath>
 </defs>
</svg>
