<?xml version="1.0" encoding="utf-8" standalone="no"?>
<!DOCTYPE svg PUBLIC "-//W3C//DTD SVG 1.1//EN"
  "http://www.w3.org/Graphics/SVG/1.1/DTD/svg11.dtd">
<svg xmlns:xlink="http://www.w3.org/1999/xlink" width="432pt" height="216pt" viewBox="0 0 432 216" xmlns="http://www.w3.org/2000/svg" version="1.1">
 <metadata>
  <rdf:RDF xmlns:dc="http://purl.org/dc/elements/1.1/" xmlns:cc="http://creativecommons.org/ns#" xmlns:rdf="http://www.w3.org/1999/02/22-rdf-syntax-ns#">
   <cc:Work>
    <dc:type rdf:resource="http://purl.org/dc/dcmitype/StillImage"/>
    <dc:date>2024-08-16T09:31:28.916456</dc:date>
    <dc:format>image/svg+xml</dc:format>
    <dc:creator>
     <cc:Agent>
      <dc:title>Matplotlib v3.8.4, https://matplotlib.org/</dc:title>
     </cc:Agent>
    </dc:creator>
   </cc:Work>
  </rdf:RDF>
 </metadata>
 <defs>
  <style type="text/css">*{stroke-linejoin: round; stroke-linecap: butt}</style>
 </defs>
 <g id="figure_1">
  <g id="patch_1">
   <path d="M 0 216 
L 432 216 
L 432 0 
L 0 0 
z
" style="fill: #ffffff"/>
  </g>
  <g id="axes_1">
   <g id="patch_2">
    <path d="M 54 192.24 
L 388.8 192.24 
L 388.8 25.92 
L 54 25.92 
z
" style="fill: #ffffff"/>
   </g>
   <g id="matplotlib.axis_1">
    <g id="xtick_1">
     <g id="line2d_1">
      <defs>
       <path id="mdec5635177" d="M 0 0 
L 0 6 
" style="stroke: #000000; stroke-width: 2"/>
      </defs>
      <g>
       <use xlink:href="#mdec5635177" x="68.913514" y="192.24" style="stroke: #000000; stroke-width: 2"/>
      </g>
     </g>
     <g id="text_1">
      <!-- 0 -->
      <g transform="translate(62.232889 217.696719) scale(0.21 -0.21)">
       <defs>
        <path id="DejaVuSans-30" d="M 2034 4250 
Q 1547 4250 1301 3770 
Q 1056 3291 1056 2328 
Q 1056 1369 1301 889 
Q 1547 409 2034 409 
Q 2525 409 2770 889 
Q 3016 1369 3016 2328 
Q 3016 3291 2770 3770 
Q 2525 4250 2034 4250 
z
M 2034 4750 
Q 2819 4750 3233 4129 
Q 3647 3509 3647 2328 
Q 3647 1150 3233 529 
Q 2819 -91 2034 -91 
Q 1250 -91 836 529 
Q 422 1150 422 2328 
Q 422 3509 836 4129 
Q 1250 4750 2034 4750 
z
" transform="scale(0.015625)"/>
       </defs>
       <use xlink:href="#DejaVuSans-30"/>
      </g>
     </g>
    </g>
    <g id="xtick_2">
     <g id="line2d_2">
      <g>
       <use xlink:href="#mdec5635177" x="170.469615" y="192.24" style="stroke: #000000; stroke-width: 2"/>
      </g>
     </g>
     <g id="text_2">
      <!-- 100 -->
      <g transform="translate(150.42774 217.696719) scale(0.21 -0.21)">
       <defs>
        <path id="DejaVuSans-31" d="M 794 531 
L 1825 531 
L 1825 4091 
L 703 3866 
L 703 4441 
L 1819 4666 
L 2450 4666 
L 2450 531 
L 3481 531 
L 3481 0 
L 794 0 
L 794 531 
z
" transform="scale(0.015625)"/>
       </defs>
       <use xlink:href="#DejaVuSans-31"/>
       <use xlink:href="#DejaVuSans-30" x="63.623047"/>
       <use xlink:href="#DejaVuSans-30" x="127.246094"/>
      </g>
     </g>
    </g>
    <g id="xtick_3">
     <g id="line2d_3">
      <g>
       <use xlink:href="#mdec5635177" x="272.025717" y="192.24" style="stroke: #000000; stroke-width: 2"/>
      </g>
     </g>
     <g id="text_3">
      <!-- 200 -->
      <g transform="translate(251.983842 217.696719) scale(0.21 -0.21)">
       <defs>
        <path id="DejaVuSans-32" d="M 1228 531 
L 3431 531 
L 3431 0 
L 469 0 
L 469 531 
Q 828 903 1448 1529 
Q 2069 2156 2228 2338 
Q 2531 2678 2651 2914 
Q 2772 3150 2772 3378 
Q 2772 3750 2511 3984 
Q 2250 4219 1831 4219 
Q 1534 4219 1204 4116 
Q 875 4013 500 3803 
L 500 4441 
Q 881 4594 1212 4672 
Q 1544 4750 1819 4750 
Q 2544 4750 2975 4387 
Q 3406 4025 3406 3419 
Q 3406 3131 3298 2873 
Q 3191 2616 2906 2266 
Q 2828 2175 2409 1742 
Q 1991 1309 1228 531 
z
" transform="scale(0.015625)"/>
       </defs>
       <use xlink:href="#DejaVuSans-32"/>
       <use xlink:href="#DejaVuSans-30" x="63.623047"/>
       <use xlink:href="#DejaVuSans-30" x="127.246094"/>
      </g>
     </g>
    </g>
    <g id="xtick_4">
     <g id="line2d_4">
      <g>
       <use xlink:href="#mdec5635177" x="373.581818" y="192.24" style="stroke: #000000; stroke-width: 2"/>
      </g>
     </g>
     <g id="text_4">
      <!-- 300 -->
      <g transform="translate(353.539943 217.696719) scale(0.21 -0.21)">
       <defs>
        <path id="DejaVuSans-33" d="M 2597 2516 
Q 3050 2419 3304 2112 
Q 3559 1806 3559 1356 
Q 3559 666 3084 287 
Q 2609 -91 1734 -91 
Q 1441 -91 1130 -33 
Q 819 25 488 141 
L 488 750 
Q 750 597 1062 519 
Q 1375 441 1716 441 
Q 2309 441 2620 675 
Q 2931 909 2931 1356 
Q 2931 1769 2642 2001 
Q 2353 2234 1838 2234 
L 1294 2234 
L 1294 2753 
L 1863 2753 
Q 2328 2753 2575 2939 
Q 2822 3125 2822 3475 
Q 2822 3834 2567 4026 
Q 2313 4219 1838 4219 
Q 1578 4219 1281 4162 
Q 984 4106 628 3988 
L 628 4550 
Q 988 4650 1302 4700 
Q 1616 4750 1894 4750 
Q 2613 4750 3031 4423 
Q 3450 4097 3450 3541 
Q 3450 3153 3228 2886 
Q 3006 2619 2597 2516 
z
" transform="scale(0.015625)"/>
       </defs>
       <use xlink:href="#DejaVuSans-33"/>
       <use xlink:href="#DejaVuSans-30" x="63.623047"/>
       <use xlink:href="#DejaVuSans-30" x="127.246094"/>
      </g>
     </g>
    </g>
    <g id="text_5">
     <!-- time (s) -->
     <g transform="translate(180.678047 242.020781) scale(0.21 -0.21)">
      <defs>
       <path id="DejaVuSans-74" d="M 1172 4494 
L 1172 3500 
L 2356 3500 
L 2356 3053 
L 1172 3053 
L 1172 1153 
Q 1172 725 1289 603 
Q 1406 481 1766 481 
L 2356 481 
L 2356 0 
L 1766 0 
Q 1100 0 847 248 
Q 594 497 594 1153 
L 594 3053 
L 172 3053 
L 172 3500 
L 594 3500 
L 594 4494 
L 1172 4494 
z
" transform="scale(0.015625)"/>
       <path id="DejaVuSans-69" d="M 603 3500 
L 1178 3500 
L 1178 0 
L 603 0 
L 603 3500 
z
M 603 4863 
L 1178 4863 
L 1178 4134 
L 603 4134 
L 603 4863 
z
" transform="scale(0.015625)"/>
       <path id="DejaVuSans-6d" d="M 3328 2828 
Q 3544 3216 3844 3400 
Q 4144 3584 4550 3584 
Q 5097 3584 5394 3201 
Q 5691 2819 5691 2113 
L 5691 0 
L 5113 0 
L 5113 2094 
Q 5113 2597 4934 2840 
Q 4756 3084 4391 3084 
Q 3944 3084 3684 2787 
Q 3425 2491 3425 1978 
L 3425 0 
L 2847 0 
L 2847 2094 
Q 2847 2600 2669 2842 
Q 2491 3084 2119 3084 
Q 1678 3084 1418 2786 
Q 1159 2488 1159 1978 
L 1159 0 
L 581 0 
L 581 3500 
L 1159 3500 
L 1159 2956 
Q 1356 3278 1631 3431 
Q 1906 3584 2284 3584 
Q 2666 3584 2933 3390 
Q 3200 3197 3328 2828 
z
" transform="scale(0.015625)"/>
       <path id="DejaVuSans-65" d="M 3597 1894 
L 3597 1613 
L 953 1613 
Q 991 1019 1311 708 
Q 1631 397 2203 397 
Q 2534 397 2845 478 
Q 3156 559 3463 722 
L 3463 178 
Q 3153 47 2828 -22 
Q 2503 -91 2169 -91 
Q 1331 -91 842 396 
Q 353 884 353 1716 
Q 353 2575 817 3079 
Q 1281 3584 2069 3584 
Q 2775 3584 3186 3129 
Q 3597 2675 3597 1894 
z
M 3022 2063 
Q 3016 2534 2758 2815 
Q 2500 3097 2075 3097 
Q 1594 3097 1305 2825 
Q 1016 2553 972 2059 
L 3022 2063 
z
" transform="scale(0.015625)"/>
       <path id="DejaVuSans-20" transform="scale(0.015625)"/>
       <path id="DejaVuSans-28" d="M 1984 4856 
Q 1566 4138 1362 3434 
Q 1159 2731 1159 2009 
Q 1159 1288 1364 580 
Q 1569 -128 1984 -844 
L 1484 -844 
Q 1016 -109 783 600 
Q 550 1309 550 2009 
Q 550 2706 781 3412 
Q 1013 4119 1484 4856 
L 1984 4856 
z
" transform="scale(0.015625)"/>
       <path id="DejaVuSans-73" d="M 2834 3397 
L 2834 2853 
Q 2591 2978 2328 3040 
Q 2066 3103 1784 3103 
Q 1356 3103 1142 2972 
Q 928 2841 928 2578 
Q 928 2378 1081 2264 
Q 1234 2150 1697 2047 
L 1894 2003 
Q 2506 1872 2764 1633 
Q 3022 1394 3022 966 
Q 3022 478 2636 193 
Q 2250 -91 1575 -91 
Q 1294 -91 989 -36 
Q 684 19 347 128 
L 347 722 
Q 666 556 975 473 
Q 1284 391 1588 391 
Q 1994 391 2212 530 
Q 2431 669 2431 922 
Q 2431 1156 2273 1281 
Q 2116 1406 1581 1522 
L 1381 1569 
Q 847 1681 609 1914 
Q 372 2147 372 2553 
Q 372 3047 722 3315 
Q 1072 3584 1716 3584 
Q 2034 3584 2315 3537 
Q 2597 3491 2834 3397 
z
" transform="scale(0.015625)"/>
       <path id="DejaVuSans-29" d="M 513 4856 
L 1013 4856 
Q 1481 4119 1714 3412 
Q 1947 2706 1947 2009 
Q 1947 1309 1714 600 
Q 1481 -109 1013 -844 
L 513 -844 
Q 928 -128 1133 580 
Q 1338 1288 1338 2009 
Q 1338 2731 1133 3434 
Q 928 4138 513 4856 
z
" transform="scale(0.015625)"/>
      </defs>
      <use xlink:href="#DejaVuSans-74"/>
      <use xlink:href="#DejaVuSans-69" x="39.208984"/>
      <use xlink:href="#DejaVuSans-6d" x="66.992188"/>
      <use xlink:href="#DejaVuSans-65" x="164.404297"/>
      <use xlink:href="#DejaVuSans-20" x="225.927734"/>
      <use xlink:href="#DejaVuSans-28" x="257.714844"/>
      <use xlink:href="#DejaVuSans-73" x="296.728516"/>
      <use xlink:href="#DejaVuSans-29" x="348.828125"/>
     </g>
    </g>
   </g>
   <g id="matplotlib.axis_2">
    <g id="ytick_1">
     <g id="line2d_5">
      <defs>
       <path id="m14ecb436f9" d="M 0 0 
L -6 0 
" style="stroke: #000000; stroke-width: 2"/>
      </defs>
      <g>
       <use xlink:href="#m14ecb436f9" x="54" y="184.68" style="stroke: #000000; stroke-width: 2"/>
      </g>
     </g>
     <g id="text_6">
      <!-- 0.0 -->
      <g transform="translate(11.103437 192.658359) scale(0.21 -0.21)">
       <defs>
        <path id="DejaVuSans-2e" d="M 684 794 
L 1344 794 
L 1344 0 
L 684 0 
L 684 794 
z
" transform="scale(0.015625)"/>
       </defs>
       <use xlink:href="#DejaVuSans-30"/>
       <use xlink:href="#DejaVuSans-2e" x="63.623047"/>
       <use xlink:href="#DejaVuSans-30" x="95.410156"/>
      </g>
     </g>
    </g>
    <g id="ytick_2">
     <g id="line2d_6">
      <g>
       <use xlink:href="#m14ecb436f9" x="54" y="109.08" style="stroke: #000000; stroke-width: 2"/>
      </g>
     </g>
     <g id="text_7">
      <!-- 0.5 -->
      <g transform="translate(11.103437 117.058359) scale(0.21 -0.21)">
       <defs>
        <path id="DejaVuSans-35" d="M 691 4666 
L 3169 4666 
L 3169 4134 
L 1269 4134 
L 1269 2991 
Q 1406 3038 1543 3061 
Q 1681 3084 1819 3084 
Q 2600 3084 3056 2656 
Q 3513 2228 3513 1497 
Q 3513 744 3044 326 
Q 2575 -91 1722 -91 
Q 1428 -91 1123 -41 
Q 819 9 494 109 
L 494 744 
Q 775 591 1075 516 
Q 1375 441 1709 441 
Q 2250 441 2565 725 
Q 2881 1009 2881 1497 
Q 2881 1984 2565 2268 
Q 2250 2553 1709 2553 
Q 1456 2553 1204 2497 
Q 953 2441 691 2322 
L 691 4666 
z
" transform="scale(0.015625)"/>
       </defs>
       <use xlink:href="#DejaVuSans-30"/>
       <use xlink:href="#DejaVuSans-2e" x="63.623047"/>
       <use xlink:href="#DejaVuSans-35" x="95.410156"/>
      </g>
     </g>
    </g>
    <g id="ytick_3">
     <g id="line2d_7">
      <g>
       <use xlink:href="#m14ecb436f9" x="54" y="33.48" style="stroke: #000000; stroke-width: 2"/>
      </g>
     </g>
     <g id="text_8">
      <!-- 1.0 -->
      <g transform="translate(11.103437 41.458359) scale(0.21 -0.21)">
       <use xlink:href="#DejaVuSans-31"/>
       <use xlink:href="#DejaVuSans-2e" x="63.623047"/>
       <use xlink:href="#DejaVuSans-30" x="95.410156"/>
      </g>
     </g>
    </g>
    <g id="text_9">
     <!-- % emission -->
     <g transform="translate(2.736094 168.934922) rotate(-90) scale(0.21 -0.21)">
      <defs>
       <path id="DejaVuSans-25" d="M 4653 2053 
Q 4381 2053 4226 1822 
Q 4072 1591 4072 1178 
Q 4072 772 4226 539 
Q 4381 306 4653 306 
Q 4919 306 5073 539 
Q 5228 772 5228 1178 
Q 5228 1588 5073 1820 
Q 4919 2053 4653 2053 
z
M 4653 2450 
Q 5147 2450 5437 2106 
Q 5728 1763 5728 1178 
Q 5728 594 5436 251 
Q 5144 -91 4653 -91 
Q 4153 -91 3862 251 
Q 3572 594 3572 1178 
Q 3572 1766 3864 2108 
Q 4156 2450 4653 2450 
z
M 1428 4353 
Q 1159 4353 1004 4120 
Q 850 3888 850 3481 
Q 850 3069 1003 2837 
Q 1156 2606 1428 2606 
Q 1700 2606 1854 2837 
Q 2009 3069 2009 3481 
Q 2009 3884 1853 4118 
Q 1697 4353 1428 4353 
z
M 4250 4750 
L 4750 4750 
L 1831 -91 
L 1331 -91 
L 4250 4750 
z
M 1428 4750 
Q 1922 4750 2215 4408 
Q 2509 4066 2509 3481 
Q 2509 2891 2217 2550 
Q 1925 2209 1428 2209 
Q 931 2209 642 2551 
Q 353 2894 353 3481 
Q 353 4063 643 4406 
Q 934 4750 1428 4750 
z
" transform="scale(0.015625)"/>
       <path id="DejaVuSans-6f" d="M 1959 3097 
Q 1497 3097 1228 2736 
Q 959 2375 959 1747 
Q 959 1119 1226 758 
Q 1494 397 1959 397 
Q 2419 397 2687 759 
Q 2956 1122 2956 1747 
Q 2956 2369 2687 2733 
Q 2419 3097 1959 3097 
z
M 1959 3584 
Q 2709 3584 3137 3096 
Q 3566 2609 3566 1747 
Q 3566 888 3137 398 
Q 2709 -91 1959 -91 
Q 1206 -91 779 398 
Q 353 888 353 1747 
Q 353 2609 779 3096 
Q 1206 3584 1959 3584 
z
" transform="scale(0.015625)"/>
       <path id="DejaVuSans-6e" d="M 3513 2113 
L 3513 0 
L 2938 0 
L 2938 2094 
Q 2938 2591 2744 2837 
Q 2550 3084 2163 3084 
Q 1697 3084 1428 2787 
Q 1159 2491 1159 1978 
L 1159 0 
L 581 0 
L 581 3500 
L 1159 3500 
L 1159 2956 
Q 1366 3272 1645 3428 
Q 1925 3584 2291 3584 
Q 2894 3584 3203 3211 
Q 3513 2838 3513 2113 
z
" transform="scale(0.015625)"/>
      </defs>
      <use xlink:href="#DejaVuSans-25"/>
      <use xlink:href="#DejaVuSans-20" x="95.019531"/>
      <use xlink:href="#DejaVuSans-65" x="126.806641"/>
      <use xlink:href="#DejaVuSans-6d" x="188.330078"/>
      <use xlink:href="#DejaVuSans-69" x="285.742188"/>
      <use xlink:href="#DejaVuSans-73" x="313.525391"/>
      <use xlink:href="#DejaVuSans-73" x="365.625"/>
      <use xlink:href="#DejaVuSans-69" x="417.724609"/>
      <use xlink:href="#DejaVuSans-6f" x="445.507812"/>
      <use xlink:href="#DejaVuSans-6e" x="506.689453"/>
     </g>
    </g>
   </g>
   <g id="line2d_8">
    <path d="M 69.218182 184.663329 
L 69.423325 182.756906 
L 69.651826 182.206195 
L 70.267256 182.095378 
L 71.553972 181.596322 
L 71.968321 181.486061 
L 72.207993 181.429198 
L 72.558362 181.318369 
L 74.148731 180.133644 
L 74.462539 179.787094 
L 74.905324 179.676691 
L 75.075938 179.672763 
L 75.67715 179.561842 
L 76.439836 179.190325 
L 76.69068 179.080219 
L 77.069484 178.770578 
L 77.341654 178.661532 
L 77.827093 178.550819 
L 78.090123 178.452473 
L 78.457756 178.341876 
L 78.629386 178.113005 
L 78.893432 177.885039 
L 79.311843 177.774546 
L 79.584013 177.677983 
L 80.752924 177.568498 
L 80.930647 177.459387 
L 81.145946 177.349669 
L 81.282031 177.33367 
L 81.436396 177.222956 
L 82.006126 176.369415 
L 82.301654 175.79406 
L 82.708894 175.423098 
L 83.61579 175.01904 
L 83.816871 174.860924 
L 84.085995 174.820811 
L 84.462768 174.710123 
L 84.666896 174.60193 
L 84.916724 174.491023 
L 85.258968 174.31789 
L 86.46647 174.207345 
L 86.829025 174.070229 
L 87.468829 173.959555 
L 88.951548 173.099707 
L 89.151613 172.71674 
L 89.444095 172.338128 
L 90.000622 171.850702 
L 90.231155 171.693607 
L 90.56629 171.618756 
L 91.017199 171.508869 
L 91.315774 171.316391 
L 91.407174 171.143413 
L 91.613333 170.942224 
L 92.085569 170.831123 
L 92.612645 170.754811 
L 93.177297 170.644021 
L 93.645471 170.201064 
L 93.884128 170.015202 
L 94.283243 169.904243 
L 94.631581 169.79561 
L 95.121081 169.685116 
L 95.377002 169.223175 
L 95.633939 168.838011 
L 97.268993 167.96935 
L 97.593972 167.858391 
L 98.020508 167.727815 
L 98.447043 167.617864 
L 99.01982 167.09959 
L 99.416904 166.982338 
L 100.148108 166.871715 
L 100.418247 166.499849 
L 100.707682 166.097354 
L 100.967666 165.865977 
L 101.228665 165.755341 
L 101.577002 165.676005 
L 101.946667 165.565007 
L 102.308206 165.287843 
L 102.553972 165.065654 
L 102.73068 164.928861 
L 103.019099 164.741552 
L 103.232367 164.630696 
L 104.222539 164.068975 
L 104.456118 163.920241 
L 104.698837 163.913702 
L 105.071548 163.803338 
L 105.243178 163.779611 
L 105.593546 163.669143 
L 106.002817 163.423562 
L 106.762457 163.136847 
L 107.276331 162.474725 
L 107.59217 162.344731 
L 107.821687 162.234185 
L 108.043079 162.218781 
L 108.657494 162.107977 
L 109.321671 161.809114 
L 109.577592 161.698375 
L 110.001081 161.496734 
L 110.627682 161.45945 
L 110.936413 161.349047 
L 111.38326 161.151774 
L 111.759017 161.040711 
L 112.037281 160.859708 
L 112.573497 160.270758 
L 113.380868 160.15967 
L 113.699754 159.946204 
L 113.85412 159.944705 
L 114.698051 159.834728 
L 114.878821 159.795273 
L 115.126618 159.617734 
L 115.590729 159.1919 
L 116.181785 159.081226 
L 117.333432 158.047211 
L 117.520295 157.876134 
L 117.685831 157.765756 
L 118.151974 157.534249 
L 118.41602 157.521779 
L 118.729828 157.411375 
L 119.241671 156.93412 
L 119.369631 156.824208 
L 120.035839 156.111944 
L 121.887207 155.133564 
L 124.031057 155.022657 
L 124.82421 154.771882 
L 125.465029 154.66175 
L 126.04593 154.045286 
L 128.311646 152.988294 
L 129.276429 152.877774 
L 129.744603 152.499847 
L 130.268632 152.266673 
L 130.663686 151.971274 
L 130.872891 151.860535 
L 131.691433 150.970692 
L 132.997445 150.859979 
L 133.213759 150.857705 
L 134.035348 150.746681 
L 134.639607 150.302832 
L 134.849828 150.191912 
L 135.27941 149.755908 
L 135.489631 149.625164 
L 135.751646 149.515122 
L 136.046159 149.176378 
L 137.08914 149.065575 
L 137.628403 148.915458 
L 137.807142 148.771597 
L 138.037674 148.664916 
L 138.702867 148.554357 
L 139.07964 148.442145 
L 139.918493 148.331522 
L 140.169337 148.323251 
L 140.476036 148.212731 
L 140.785782 148.04115 
L 141.062015 147.759333 
L 141.500737 147.37612 
L 141.912039 147.318973 
L 142.905258 147.208144 
L 143.202817 147.083318 
L 144.439771 146.702444 
L 144.849042 146.356774 
L 145.266437 146.245905 
L 145.531499 146.178278 
L 146.715643 146.067422 
L 147.662146 145.676042 
L 147.990172 145.565174 
L 148.91941 144.918495 
L 149.589681 144.808169 
L 149.907551 144.695207 
L 150.516888 144.584856 
L 151.156691 144.134688 
L 151.604554 144.024788 
L 151.848288 143.806386 
L 152.200688 143.696176 
L 152.349975 143.689805 
L 152.794791 143.57873 
L 153.379754 143.291408 
L 154.026667 143.180875 
L 154.225717 143.103013 
L 154.953874 142.992338 
L 157.329271 141.288564 
L 157.614644 141.178807 
L 157.853301 141.03147 
L 158.245307 140.920692 
L 158.543882 140.806024 
L 158.874955 140.787505 
L 159.359378 140.67705 
L 159.592957 140.65773 
L 160.157609 140.546874 
L 161.976478 138.323302 
L 163.547551 137.628652 
L 164.125405 137.518029 
L 164.440229 137.097455 
L 164.678886 136.986574 
L 164.867781 136.955209 
L 165.32783 136.70517 
L 165.667027 136.47851 
L 166.185979 136.39288 
L 166.503849 136.282658 
L 166.930385 135.99372 
L 167.629091 135.58983 
L 167.88095 135.330849 
L 168.433415 134.771686 
L 169.010254 134.361968 
L 169.364685 134.049355 
L 170.470631 133.581159 
L 170.652416 133.491549 
L 170.802719 133.380965 
L 171.000753 133.330978 
L 171.441507 133.220277 
L 171.748206 133.143759 
L 172.727207 133.032929 
L 173.095856 132.837956 
L 173.491925 132.595969 
L 173.842293 132.380021 
L 175.297592 131.648825 
L 175.50172 131.556126 
L 176.015594 131.445103 
L 176.333464 131.348527 
L 176.902179 131.237724 
L 177.369337 131.18364 
L 177.749156 131.073133 
L 177.900475 131.043048 
L 178.161474 130.932658 
L 178.559574 130.743332 
L 178.933301 130.63249 
L 179.848321 130.203516 
L 180.101196 130.092466 
L 181.250811 129.489778 
L 181.534152 129.346963 
L 181.690549 129.185759 
L 182.321212 128.843603 
L 182.541589 128.73298 
L 182.810713 128.644366 
L 183.606912 128.179711 
L 183.818149 128.079091 
L 184.158362 127.968493 
L 184.675283 127.39686 
L 184.892613 127.231856 
L 185.174939 127.120871 
L 185.383129 126.984996 
L 185.923407 126.575898 
L 186.257527 126.470354 
L 186.583522 126.359615 
L 188.584177 125.295322 
L 188.846192 125.024011 
L 189.45959 124.750711 
L 189.623096 124.640514 
L 189.831286 124.578457 
L 190.014087 124.433523 
L 190.456871 124.09023 
L 190.654906 123.980098 
L 190.964652 123.745748 
L 191.092613 123.634699 
L 191.430794 123.267744 
L 191.854283 122.9603 
L 192.396593 122.865456 
L 192.648452 122.75442 
L 193.602064 122.301925 
L 193.802129 122.191651 
L 194.118984 121.86534 
L 194.583096 121.754691 
L 195.198526 121.320806 
L 196.218149 121.209912 
L 196.494382 121.143706 
L 197.047862 121.033019 
L 197.580016 120.7958 
L 198.941884 120.51291 
L 199.161245 120.402494 
L 199.864013 120.054109 
L 200.049861 119.943616 
L 200.322031 119.8275 
L 200.837936 119.717368 
L 201.036986 119.674321 
L 201.615856 119.563491 
L 201.878886 119.50712 
L 202.290188 119.396691 
L 203.396134 118.468273 
L 203.893759 118.294417 
L 204.372088 118.183316 
L 204.566061 118.134647 
L 205.317576 118.023688 
L 205.870041 117.847958 
L 205.971597 117.737516 
L 206.235643 117.283083 
L 208.063653 117.172538 
L 208.285045 117.171116 
L 208.685176 117.060196 
L 209.05484 117.016787 
L 209.868305 116.906164 
L 210.268436 116.578327 
L 210.568026 116.417239 
L 210.918395 116.306241 
L 211.815135 115.952481 
L 212.306667 115.841379 
L 212.626568 115.707702 
L 213.20036 115.596743 
L 214.0514 115.096161 
L 214.207797 115.068854 
L 214.881114 114.732811 
L 215.334054 114.623752 
L 215.516855 114.504109 
L 216.909189 114.393176 
L 217.271744 114.147117 
L 217.834365 113.353863 
L 218.063882 113.285538 
L 218.261916 113.175807 
L 218.745324 112.679878 
L 219.027649 112.568854 
L 219.349582 112.315067 
L 220.217887 112.204121 
L 220.418968 112.17003 
L 220.704341 112.059859 
L 220.91964 111.761346 
L 221.397969 111.331635 
L 221.729042 111.220922 
L 221.991057 110.908166 
L 222.220573 110.807817 
L 222.476495 110.697647 
L 222.80249 110.52339 
L 223.035053 110.413736 
L 223.30113 110.205401 
L 223.522523 110.094403 
L 223.838362 109.829128 
L 224.138968 109.41172 
L 224.356298 109.405013 
L 224.732056 109.294106 
L 225.164685 108.823196 
L 225.569894 108.712495 
L 225.915184 108.522795 
L 226.181261 108.487773 
L 226.411794 108.376892 
L 226.824111 108.376608 
L 227.477117 108.266553 
L 227.867093 107.964537 
L 228.59525 107.854535 
L 228.852187 107.71592 
L 229.480819 107.353682 
L 229.78955 107.243033 
L 230.273972 106.750826 
L 231.114857 106.169681 
L 231.819656 106.05876 
L 232.70421 105.673325 
L 232.940835 105.507507 
L 233.477052 105.397543 
L 233.852809 105.094674 
L 234.011237 104.983857 
L 234.195053 104.890887 
L 234.9943 104.58387 
L 235.839247 103.774371 
L 236.160164 103.663878 
L 236.51561 103.417742 
L 236.652711 103.307067 
L 237.536249 102.771722 
L 238.832105 102.66088 
L 239.502375 102.102906 
L 240.012187 101.553048 
L 240.535201 101.220856 
L 240.943456 100.676038 
L 241.307027 100.591507 
L 241.930581 100.481957 
L 242.190565 100.26411 
L 242.453595 100.1974 
L 243.80226 100.086403 
L 244.149582 100.004017 
L 244.731499 99.893187 
L 245.790729 98.88542 
L 246.730123 98.774487 
L 246.818477 98.639181 
L 247.015495 98.511655 
L 247.32321 98.401574 
L 247.567961 98.171722 
L 247.750762 98.167134 
L 248.219951 98.056382 
L 248.632269 97.669796 
L 249.429484 97.558773 
L 250.108894 96.896483 
L 250.447076 96.584839 
L 250.870565 96.312236 
L 251.182342 96.284541 
L 251.440295 96.173725 
L 251.687076 96.133999 
L 251.931826 96.023389 
L 252.102441 95.977149 
L 252.344144 95.86716 
L 252.924029 95.365505 
L 253.211433 95.340732 
L 253.84819 95.229656 
L 254.400655 94.670455 
L 254.641343 94.559587 
L 255.203964 94.313864 
L 255.491368 94.202853 
L 256.863391 93.882926 
L 257.900278 93.771967 
L 258.371499 93.672833 
L 258.571564 93.562494 
L 258.815299 93.379734 
L 259.328157 92.899984 
L 259.946634 92.497684 
L 260.472695 92.288082 
L 260.783456 92.177446 
L 261.31561 91.916203 
L 261.957445 91.805528 
L 262.643964 91.113696 
L 262.920197 90.798201 
L 263.338608 90.547593 
L 263.720459 90.346392 
L 264.165274 90.254675 
L 264.901556 90.143794 
L 265.455037 89.888379 
L 266.161867 89.661473 
L 266.659492 89.551018 
L 267.013923 89.319912 
L 267.571466 89.209728 
L 267.776609 89.152465 
L 267.995971 89.041584 
L 268.272203 88.673362 
L 268.498673 88.536957 
L 268.961769 88.383869 
L 269.240033 88.273052 
L 269.795545 88.088818 
L 270.416052 87.978234 
L 270.788763 87.908966 
L 271.124914 87.798614 
L 271.954627 87.141093 
L 273.736937 86.292062 
L 274.870303 86.181025 
L 275.082555 85.97468 
L 275.585258 85.791933 
L 276.028043 85.681555 
L 276.411925 85.515931 
L 276.871974 85.405205 
L 277.168518 85.052982 
L 277.346241 84.960232 
L 278.131269 84.694491 
L 278.312039 84.583545 
L 279.191515 83.358939 
L 279.367207 83.234463 
L 280.278165 82.695435 
L 280.689468 82.339309 
L 281.233808 82.228453 
L 281.657297 82.127639 
L 282.224996 82.016693 
L 282.701294 81.630043 
L 283.013071 81.389645 
L 283.569599 81.278647 
L 283.81638 81.110438 
L 283.954496 81.000009 
L 284.178935 80.893599 
L 284.454152 80.650203 
L 284.662342 80.549583 
L 285.040131 80.51531 
L 285.76321 80.405049 
L 285.921638 80.398187 
L 286.254742 80.287474 
L 286.584799 79.916021 
L 286.824472 79.765788 
L 287.258116 79.654933 
L 287.547551 79.458577 
L 288.854578 78.520906 
L 289.049566 78.410593 
L 289.406028 78.021526 
L 291.475741 76.938339 
L 291.766192 76.82769 
L 292.019066 76.80311 
L 292.244521 76.692022 
L 292.706601 76.306277 
L 293.104701 75.971487 
L 293.426634 75.860968 
L 294.13448 75.102684 
L 294.371106 74.82548 
L 296.594169 73.858525 
L 296.89579 73.706561 
L 297.305061 73.454506 
L 297.721441 73.271797 
L 298.16321 73.160799 
L 298.551155 72.781192 
L 299.780999 72.670117 
L 299.985127 72.523826 
L 300.198395 72.324433 
L 300.43502 72.189903 
L 301.253563 71.771836 
L 301.872039 71.661342 
L 302.169599 71.606263 
L 302.535201 71.496093 
L 302.730188 71.417183 
L 302.90588 71.307633 
L 303.100868 71.150267 
L 303.641147 70.950176 
L 304.071744 70.839437 
L 304.417035 70.78432 
L 305.034496 70.674343 
L 305.348305 70.276398 
L 305.809369 69.965258 
L 305.923112 69.854467 
L 306.395348 69.432303 
L 306.602523 69.321732 
L 306.841179 69.245072 
L 307.236233 69.134681 
L 308.031417 68.41098 
L 308.277183 68.161755 
L 308.447797 68.130003 
L 308.889566 68.019109 
L 309.121114 67.96761 
L 309.515152 67.856741 
L 309.993481 67.69449 
L 310.243309 67.583428 
L 310.548993 67.362828 
L 310.843505 67.251766 
L 311.497527 67.005151 
L 312.026634 66.894709 
L 312.405438 66.418217 
L 312.678624 66.198044 
L 313.321474 66.087291 
L 313.743948 65.678465 
L 315.63086 64.814805 
L 316.131532 64.231204 
L 316.582441 64.01434 
L 316.804848 63.992163 
L 317.374578 63.881075 
L 317.784865 63.6013 
L 318.012351 63.377767 
L 318.547551 63.26673 
L 319.809894 62.857051 
L 320.244554 62.745976 
L 320.860999 62.400912 
L 321.050909 62.290742 
L 321.507912 61.988674 
L 322.37317 61.55895 
L 322.843374 61.447888 
L 323.462867 61.016872 
L 324.017363 60.906831 
L 324.201179 60.832587 
L 324.795283 60.722481 
L 325.012613 60.62513 
L 325.283767 60.514133 
L 325.803735 60.091982 
L 326.096216 59.981049 
L 326.788829 59.597862 
L 327.391057 59.14993 
L 328.972285 57.677224 
L 329.115479 57.666963 
L 329.6324 57.556081 
L 329.954333 57.4433 
L 330.383915 57.332393 
L 330.53828 57.317105 
L 330.923178 57.206288 
L 332.707518 56.62177 
L 332.903522 56.51138 
L 333.237641 56.335365 
L 333.924161 56.224406 
L 334.163833 55.98888 
L 334.394365 55.908355 
L 334.653333 55.798133 
L 334.9905 55.590534 
L 335.433284 55.479614 
L 336.011138 55.461069 
L 336.357445 55.350511 
L 336.576806 55.088686 
L 336.920066 54.980131 
L 337.288714 54.869573 
L 337.627912 54.4559 
L 337.943751 54.012698 
L 338.176314 53.843752 
L 338.290057 53.718112 
L 338.715577 53.102721 
L 339.025324 52.999206 
L 339.238591 52.888169 
L 339.693563 52.428115 
L 340.146503 51.823165 
L 340.343522 51.605706 
L 340.504996 51.559247 
L 340.901065 51.448598 
L 341.239247 51.37575 
L 341.75312 51.265101 
L 342.337068 51.011767 
L 342.822506 50.900821 
L 343.166781 50.596776 
L 343.686749 50.329278 
L 343.944701 50.264868 
L 344.84855 50.082638 
L 345.206028 49.97226 
L 346.130188 49.384176 
L 347.21887 49.273242 
L 347.548927 49.251493 
L 348.316691 49.140728 
L 348.54113 49.110901 
L 348.974775 49.000239 
L 349.176871 48.710578 
L 349.445995 48.262684 
L 349.954791 48.053043 
L 350.388436 47.663447 
L 351.094251 47.424897 
L 352.061065 47.033839 
L 352.430729 46.923527 
L 352.724226 46.747654 
L 352.940541 46.608303 
L 353.104046 46.346956 
L 353.517379 45.821485 
L 353.902277 45.224108 
L 354.102342 44.972118 
L 354.479115 44.835442 
L 354.812219 44.724534 
L 355.425618 44.458419 
L 355.95371 44.347887 
L 356.240098 44.135144 
L 357.907649 43.336346 
L 358.458084 42.850652 
L 359.115152 42.739926 
L 359.550827 42.267943 
L 359.829091 42.071523 
L 360.240393 41.642627 
L 360.603964 41.103211 
L 360.92285 40.958135 
L 361.182834 40.847731 
L 361.578903 40.705847 
L 362.085667 40.59503 
L 362.962097 40.315333 
L 363.499328 40.204516 
L 363.86493 39.909672 
L 364.476298 39.547602 
L 364.714955 39.437263 
L 365.182113 38.927726 
L 365.706143 38.063342 
L 365.977297 37.908742 
L 366.230172 37.798597 
L 366.700377 37.428992 
L 367.72 36.566198 
L 367.941392 36.383955 
L 370.505684 35.38579 
L 371.104865 34.66108 
L 371.29579 34.467245 
L 371.622801 34.2964 
L 371.789353 34.281835 
L 372.811007 34.171186 
L 373.056773 33.898829 
L 373.581818 33.48 
L 373.581818 33.48 
" clip-path="url(#pb43d711660)" style="fill: none; stroke: #0000ff; stroke-width: 1.5; stroke-linecap: square"/>
   </g>
   <g id="line2d_9">
    <path d="M 69.218182 184.628537 
L 69.403014 180.809161 
L 69.75846 179.759607 
L 69.923997 179.595906 
L 70.070238 179.366018 
L 70.398264 178.738083 
L 70.624734 178.408707 
L 70.945651 177.925523 
L 71.199541 177.587902 
L 71.443276 177.355414 
L 71.583423 177.245265 
L 71.919574 176.732611 
L 72.182604 176.154397 
L 72.568518 175.598407 
L 72.784832 175.299872 
L 72.93412 175.189538 
L 73.085438 175.121865 
L 73.211368 175.010858 
L 73.37792 174.990677 
L 73.81258 174.880064 
L 73.990303 174.435988 
L 74.154824 174.289936 
L 74.723538 173.796952 
L 75.071876 173.687918 
L 75.45068 173.129978 
L 75.661916 172.936273 
L 75.981818 172.411611 
L 76.14837 172.15374 
L 76.413432 171.535976 
L 76.563735 171.442712 
L 76.640917 171.331913 
L 76.802391 171.254951 
L 77.056282 171.144478 
L 77.299001 171.072997 
L 77.362981 170.962291 
L 77.715381 170.204839 
L 77.779361 170.095249 
L 78.340966 169.140631 
L 78.844685 169.029577 
L 79.34231 168.213696 
L 79.81353 167.755802 
L 79.956724 167.716763 
L 80.320295 167.605918 
L 80.566061 167.314605 
L 80.671679 167.204155 
L 80.839247 167.028633 
L 81.518657 166.487948 
L 81.586699 166.379054 
L 81.839574 165.999028 
L 82.210254 165.823251 
L 82.376806 165.712708 
L 82.522031 165.654301 
L 82.913022 165.543317 
L 83.155741 165.363847 
L 83.35276 165.254837 
L 83.49697 165.204535 
L 83.64321 165.09441 
L 84.016937 164.429968 
L 84.300278 164.21204 
L 84.445504 164.100963 
L 84.826339 163.779692 
L 85.0914 163.669126 
L 85.616446 162.445489 
L 85.826667 162.335271 
L 86.090713 162.226401 
L 86.178051 162.11602 
L 86.913317 161.57854 
L 87.032138 161.468252 
L 87.305324 161.049118 
L 87.807011 160.938784 
L 88.609304 159.873809 
L 88.750467 159.745431 
L 89.404488 159.126321 
L 89.80665 159.017125 
L 90.013825 158.797037 
L 90.211859 158.689049 
L 90.36724 158.543903 
L 90.467781 158.434034 
L 90.810025 157.972099 
L 91.146175 157.352733 
L 91.402097 156.944746 
L 91.743325 156.834807 
L 92.000262 156.463861 
L 92.550696 156.353132 
L 94.270041 154.33138 
L 94.458935 154.220651 
L 94.565569 153.934726 
L 94.818444 153.566961 
L 95.11905 153.456511 
L 95.397314 152.852798 
L 95.68878 152.286056 
L 96.990729 150.937711 
L 97.122752 150.790127 
L 97.52593 150.390175 
L 97.702637 150.234671 
L 98.810614 148.832192 
L 98.952793 148.721324 
L 99.060442 148.472556 
L 99.187387 148.441832 
L 99.444324 148.332148 
L 99.785553 147.877807 
L 99.987649 147.76889 
L 100.375594 147.022353 
L 100.616282 146.963505 
L 100.971728 146.852869 
L 101.504898 146.032413 
L 101.702932 145.876701 
L 102.121343 144.998 
L 102.642326 143.691666 
L 102.707322 143.584002 
L 102.892154 143.271788 
L 102.983554 142.979662 
L 103.223227 142.383218 
L 103.319705 142.273882 
L 103.734054 141.501591 
L 103.85389 141.391884 
L 104.158559 141.078811 
L 104.475414 140.968152 
L 104.633841 140.958862 
L 105.272629 140.386686 
L 105.924619 139.438107 
L 106.11656 139.32847 
L 106.304439 139.00901 
L 106.385684 138.898165 
L 106.583718 138.622527 
L 107.183915 137.81633 
L 107.327109 137.729452 
L 107.560688 137.619257 
L 107.804423 137.39492 
L 107.998395 137.285375 
L 108.393448 136.558277 
L 108.608747 136.448384 
L 108.830139 136.170169 
L 108.93068 136.059301 
L 109.723833 134.998599 
L 110.09045 134.737081 
L 110.313874 134.554198 
L 110.55964 134.150135 
L 110.995315 133.507616 
L 111.182179 133.477054 
L 111.390369 133.367811 
L 111.581294 133.135253 
L 111.822998 133.049582 
L 112.201802 132.939179 
L 112.3714 132.867605 
L 112.518657 132.757619 
L 112.767469 132.611777 
L 113.18588 132.500746 
L 113.58398 132.184584 
L 113.770844 132.073716 
L 113.968878 131.948635 
L 114.040983 131.838231 
L 114.185192 131.738534 
L 114.599541 131.627712 
L 114.84226 131.492599 
L 115.374414 131.382241 
L 115.792826 131.157765 
L 116.015233 131.046757 
L 116.219361 130.882313 
L 116.307715 130.771329 
L 116.599181 130.403541 
L 116.842916 130.346528 
L 117.20344 130.236426 
L 117.404521 129.995647 
L 117.697002 129.886242 
L 118.056511 129.305566 
L 118.311417 129.070175 
L 118.583587 128.959655 
L 118.820213 128.864765 
L 118.96036 128.753757 
L 119.155348 128.733832 
L 119.403145 128.623219 
L 119.623522 128.437223 
L 119.823587 128.326611 
L 120.085602 128.116301 
L 120.365897 128.006199 
L 120.494873 127.987179 
L 120.814775 127.896213 
L 120.994529 127.785972 
L 121.23217 127.664607 
L 121.886192 127.553809 
L 122.027355 127.499884 
L 122.661065 126.574319 
L 122.829648 126.381147 
L 123.00534 126.270442 
L 123.128223 125.899775 
L 123.302899 125.632799 
L 123.541556 125.330989 
L 123.621785 125.222188 
L 123.784275 125.096039 
L 124.151908 124.985287 
L 124.373301 124.745413 
L 124.596724 124.636426 
L 124.795774 124.270613 
L 125.420344 123.737359 
L 125.649861 123.627095 
L 125.822506 123.331578 
L 126.149517 122.768622 
L 126.350598 122.597466 
L 126.912203 122.486551 
L 127.126486 122.372479 
L 127.179296 122.262748 
L 127.474824 121.67427 
L 127.740901 121.563332 
L 127.873939 121.291851 
L 128.087207 120.614288 
L 128.379689 120.022117 
L 128.882391 119.912363 
L 129.154562 119.677158 
L 129.381032 119.566499 
L 130.021851 119.156514 
L 130.104111 119.047225 
L 130.29199 118.850129 
L 130.533694 118.740027 
L 130.681966 118.723864 
L 130.955152 118.614436 
L 131.222244 117.973983 
L 131.381687 117.86423 
L 131.579722 117.677073 
L 131.853923 117.567111 
L 132.265225 117.103945 
L 132.412482 116.994145 
L 132.570909 116.935251 
L 132.928387 116.824638 
L 133.214775 116.287715 
L 133.352891 116.217163 
L 133.655528 116.106062 
L 134.210025 115.860104 
L 134.559378 115.751837 
L 134.813268 115.336395 
L 135.371826 115.22555 
L 135.502834 115.059852 
L 135.725242 114.993224 
L 135.838984 114.882728 
L 136.160917 114.433612 
L 136.452383 114.322558 
L 136.642293 114.026577 
L 138.144308 112.966015 
L 138.484521 112.855426 
L 138.784111 112.608724 
L 139.190336 112.49853 
L 139.334545 112.426352 
L 139.607731 112.31632 
L 139.866699 111.939289 
L 139.984505 111.831672 
L 140.286126 111.156176 
L 140.492285 111.14612 
L 140.630401 111.035763 
L 141.159509 110.388552 
L 141.403243 110.090388 
L 141.56878 109.979752 
L 142.152727 109.321511 
L 142.290844 109.212129 
L 142.488878 109.039626 
L 143.097199 108.928828 
L 143.283047 108.882497 
L 143.547093 108.850031 
L 144.423522 108.739628 
L 144.796233 108.482197 
L 144.886618 108.372908 
L 145.054185 108.258278 
L 145.377133 108.147503 
L 145.557903 107.969055 
L 145.915381 107.642419 
L 146.487142 107.531319 
L 146.578542 107.355286 
L 147.202097 106.169991 
L 147.592072 106.059077 
L 148.299918 105.432349 
L 148.698018 105.32162 
L 149.0819 104.996773 
L 149.315479 104.887855 
L 149.631319 104.465563 
L 150.075119 104.355368 
L 150.446814 104.111593 
L 152.083898 103.623462 
L 152.58457 103.305721 
L 153.376708 103.195108 
L 153.558493 103.188907 
L 153.67122 103.078597 
L 154.67561 102.056353 
L 154.824898 101.945276 
L 155.04629 101.869521 
L 155.216904 101.76065 
L 155.379394 101.664668 
L 155.811007 101.554845 
L 156.179656 101.243955 
L 156.325897 101.133412 
L 156.483309 101.120268 
L 157.035774 101.010932 
L 157.331302 100.646419 
L 157.420672 100.536039 
L 157.628862 100.372477 
L 157.938608 100.261377 
L 158.740901 99.446958 
L 159.06588 99.336415 
L 159.696544 99.024991 
L 159.822473 98.914471 
L 159.974808 98.88925 
L 160.918264 98.778754 
L 161.145749 98.703394 
L 161.278788 98.593734 
L 161.504242 98.264195 
L 161.631188 98.153605 
L 162.087174 97.800031 
L 162.615266 97.689882 
L 163.100704 97.211714 
L 163.304832 97.101613 
L 163.573956 96.907861 
L 163.951744 96.796807 
L 164.120328 96.63559 
L 164.79466 95.979091 
L 165.571564 95.597137 
L 165.734054 95.486129 
L 166.212383 95.245211 
L 166.692744 95.134946 
L 166.985225 95.027399 
L 167.123342 94.918134 
L 167.472695 94.440964 
L 167.589484 94.330886 
L 167.868763 94.018439 
L 168.428337 93.908988 
L 168.64059 93.679309 
L 169.069156 93.149144 
L 169.253989 92.837441 
L 169.457101 92.666587 
L 169.974021 91.608974 
L 170.456413 91.290257 
L 170.594529 91.179436 
L 170.728583 91.161112 
L 171.270893 91.051405 
L 171.506503 90.899827 
L 172.102637 90.528416 
L 172.257002 90.418199 
L 172.445897 90.264669 
L 172.668305 90.17865 
L 173.01258 90.06964 
L 173.146634 90.023077 
L 173.237019 89.913533 
L 173.371073 89.873496 
L 173.870729 89.635132 
L 174.245471 89.524449 
L 174.338903 89.336387 
L 174.521704 89.252806 
L 175.024406 89.142379 
L 175.578903 88.719901 
L 175.710925 88.608917 
L 175.913022 88.543706 
L 176.163866 88.432838 
L 176.341589 88.427612 
L 176.60665 88.318091 
L 176.735627 88.284185 
L 176.886945 88.17348 
L 177.16724 88.035254 
L 177.434333 87.924851 
L 177.598853 87.907317 
L 177.74611 87.797192 
L 178.044685 87.638391 
L 178.519967 87.527663 
L 179.229844 86.602005 
L 179.531466 86.152866 
L 179.807699 86.059763 
L 180.713579 85.948988 
L 180.979656 85.751869 
L 181.898739 85.64186 
L 182.52534 84.970497 
L 182.645176 84.859513 
L 182.9143 84.678534 
L 183.151941 84.567758 
L 183.532776 84.068875 
L 183.797838 83.660029 
L 183.882129 83.549091 
L 184.837772 82.926497 
L 185.129238 82.815629 
L 185.737559 82.171902 
L 185.996527 81.892967 
L 186.539853 81.781913 
L 186.736871 81.531659 
L 186.989746 81.141205 
L 187.135987 81.093574 
L 187.480262 80.983078 
L 187.834693 80.66601 
L 188.156626 80.555095 
L 188.433874 80.461319 
L 189.5124 80.350242 
L 189.756134 80.098827 
L 189.957215 80.042371 
L 190.233448 79.931549 
L 190.546241 79.89827 
L 190.614283 79.78926 
L 190.748337 79.747017 
L 191.599378 79.636149 
L 191.76593 79.625536 
L 192.189419 79.515968 
L 192.406749 79.234943 
L 193.135921 78.451202 
L 193.895561 78.340218 
L 194.159607 78.275216 
L 194.284521 78.164371 
L 194.691761 77.867322 
L 194.931433 77.757406 
L 195.306175 77.484253 
L 195.766224 77.257942 
L 196.162293 77.147236 
L 196.332907 77.102578 
L 196.591876 76.993428 
L 196.726945 76.959801 
L 196.968649 76.849862 
L 197.201212 76.695752 
L 197.429713 76.585325 
L 197.587125 76.571577 
L 197.999443 76.461034 
L 198.21982 76.371415 
L 198.303096 76.261894 
L 198.467617 76.160803 
L 198.932744 76.050237 
L 199.257723 75.602422 
L 199.515676 75.098058 
L 199.994005 74.989396 
L 200.16665 74.832801 
L 200.399214 74.721887 
L 200.588108 74.502566 
L 200.956757 74.392417 
L 201.349779 74.075791 
L 201.691007 73.965039 
L 201.999738 73.859559 
L 202.207928 73.749503 
L 202.515643 73.520614 
L 202.884292 73.40956 
L 203.059984 73.362487 
L 203.426601 73.251595 
L 203.879541 73.111536 
L 204.269517 73.000737 
L 204.816904 72.715578 
L 205.114464 72.60536 
L 205.308436 72.460842 
L 205.576544 72.349974 
L 205.804029 72.149881 
L 205.966519 72.047838 
L 206.236658 71.936993 
L 206.398133 71.933672 
L 207.631024 71.823501 
L 207.972252 71.625174 
L 208.247469 71.514375 
L 208.485111 71.46974 
L 208.6476 71.359313 
L 208.91774 71.205738 
L 209.49864 71.095288 
L 209.86932 70.933514 
L 210.479672 70.823134 
L 210.759967 70.675178 
L 211.154005 70.564147 
L 211.306339 70.549447 
L 211.614054 70.438765 
L 211.963407 70.232031 
L 212.384865 70.122463 
L 212.761638 69.600194 
L 213.564947 69.489906 
L 213.830008 69.298732 
L 214.035152 69.270353 
L 214.752138 69.159717 
L 214.949156 69.084172 
L 215.165471 68.973304 
L 215.684423 68.825766 
L 216.335397 68.715037 
L 216.475545 68.683059 
L 217.324554 68.572191 
L 217.497199 68.524513 
L 218.109582 68.414528 
L 218.293399 68.34797 
L 219.228731 68.237868 
L 219.427781 68.004567 
L 219.724324 67.894186 
L 219.928452 67.854614 
L 220.296085 67.745627 
L 220.744963 66.971942 
L 220.99276 66.861051 
L 221.298444 66.674289 
L 222.940606 66.564651 
L 223.165045 66.432348 
L 223.447371 66.322038 
L 223.594627 66.31247 
L 223.862735 66.203088 
L 224.065848 66.008221 
L 224.390827 65.89863 
L 224.611204 65.751185 
L 224.73104 65.640201 
L 224.947355 65.502858 
L 225.226634 65.392687 
L 225.395217 65.382004 
L 226.600688 65.271577 
L 226.795676 65.204671 
L 227.019099 65.094198 
L 227.214087 64.89111 
L 227.415168 64.780033 
L 227.597969 64.590043 
L 228.90398 64.479871 
L 229.065455 64.458483 
L 230.518722 64.347499 
L 230.726912 64.304535 
L 230.933071 64.193691 
L 231.169697 63.836284 
L 231.322031 63.70189 
L 231.826765 63.592741 
L 232.02683 63.427507 
L 233.905618 63.317127 
L 234.313874 62.981643 
L 234.774939 62.808861 
L 234.839934 62.699131 
L 235.083669 62.395649 
L 235.417789 61.808262 
L 235.565045 61.710863 
L 235.679803 61.599902 
L 235.919476 61.511862 
L 236.340934 61.400809 
L 236.48819 61.233299 
L 236.6324 61.22027 
L 238.227846 61.109542 
L 238.582277 60.704272 
L 238.90421 60.472364 
L 239.44855 60.36131 
L 239.600885 60.118673 
L 239.737985 60.078009 
L 240.182801 59.967001 
L 240.459034 59.659106 
L 240.775889 59.549051 
L 240.966814 59.508503 
L 241.204455 59.397728 
L 241.640131 59.16575 
L 242.376413 59.055811 
L 242.641474 58.744503 
L 243.055823 58.634285 
L 243.299558 58.261342 
L 243.579853 58.047501 
L 244.898051 57.937051 
L 245.187486 57.760252 
L 246.885504 57.650058 
L 247.045962 57.649082 
L 247.224701 57.538423 
L 247.52226 57.452381 
L 248.650549 57.342233 
L 249.052711 57.094602 
L 249.402064 56.984896 
L 249.571663 56.851199 
L 249.909844 56.740401 
L 250.057101 56.736963 
L 250.636986 56.626049 
L 251.063522 56.282924 
L 251.634267 56.172544 
L 251.941982 56.030673 
L 252.335004 55.920432 
L 252.610221 55.7104 
L 252.932154 55.599509 
L 253.243931 55.31082 
L 253.465324 55.069646 
L 254.663686 54.149492 
L 254.920622 54.03932 
L 255.094283 54.002697 
L 255.675184 53.891713 
L 256.682621 53.66359 
L 257.823096 53.552885 
L 258.213071 53.419745 
L 258.377592 53.310387 
L 258.537035 53.159993 
L 260.060377 53.049078 
L 260.542768 52.48647 
L 260.799705 52.372746 
L 261.34303 52.261854 
L 261.637543 52.112923 
L 262.109779 52.003518 
L 262.281409 51.845902 
L 263.00855 51.735521 
L 263.343686 51.591072 
L 263.634136 51.480297 
L 263.874824 51.470404 
L 264.753284 51.359629 
L 265.046781 50.982505 
L 265.305749 50.8584 
L 266.041016 50.747578 
L 266.30303 50.679929 
L 267.616151 50.569293 
L 267.787781 50.45169 
L 267.979722 50.340613 
L 268.1676 50.174705 
L 268.360557 50.065928 
L 268.524062 49.8895 
L 268.660147 49.88806 
L 269.528452 49.777819 
L 269.69602 49.765929 
L 271.402162 49.655014 
L 271.855102 49.496306 
L 272.511155 49.385624 
L 272.716298 49.271853 
L 273.494218 49.160822 
L 273.85068 48.810661 
L 274.751482 48.700699 
L 274.898739 48.676825 
L 275.047011 48.565748 
L 275.53448 48.176107 
L 276.995872 48.065216 
L 277.152269 48.009666 
L 277.971826 47.899332 
L 278.252121 47.612988 
L 278.399378 47.502074 
L 278.637019 47.493783 
L 280.125831 47.383263 
L 280.291368 47.345247 
L 281.690811 47.234681 
L 281.867518 47.210017 
L 282.243276 47.099335 
L 282.392563 47.073371 
L 284.105815 46.96241 
L 284.346503 46.820539 
L 285.622048 46.710275 
L 285.896249 46.50159 
L 286.157248 46.390885 
L 286.370516 46.378669 
L 287.585127 46.26938 
L 287.72629 46.242418 
L 288.272662 46.131411 
L 288.500147 46.032804 
L 289.493366 45.92247 
L 289.650778 45.919475 
L 290.962883 45.809373 
L 291.261458 45.616364 
L 292.284128 45.505821 
L 292.451695 45.467224 
L 292.794955 45.356263 
L 293.02955 45.302501 
L 294.71335 45.192074 
L 294.955053 45.09435 
L 297.117183 44.984597 
L 297.258346 44.96574 
L 298.585684 44.855591 
L 298.722785 44.829163 
L 302.273186 44.718853 
L 302.475283 44.658542 
L 302.883538 44.548208 
L 303.025717 44.492216 
L 304.693268 44.381952 
L 305.220344 43.978424 
L 305.685471 43.867881 
L 305.851007 43.81881 
L 309.428829 43.708406 
L 309.632957 43.665931 
L 309.894971 43.556688 
L 310.162064 43.294033 
L 310.722654 43.183281 
L 310.907486 43.131446 
L 311.276134 43.021716 
L 311.411204 42.995427 
L 313.463653 42.884536 
L 314.982932 42.44666 
L 315.20534 42.336396 
L 315.396265 42.237372 
L 315.942637 42.155696 
L 316.737821 42.046128 
L 316.877969 41.970745 
L 317.543161 41.86004 
L 318.161638 41.297083 
L 319.827158 41.186819 
L 320.107453 41.080665 
L 320.495397 40.970122 
L 320.775692 40.902449 
L 321.241835 40.792046 
L 321.648059 40.555215 
L 322.679869 40.444904 
L 323.087109 40.139564 
L 324.245864 40.029346 
L 324.469287 39.767619 
L 324.816609 39.656588 
L 325.015659 39.563486 
L 326.245504 39.452572 
L 326.502441 39.31149 
L 326.640557 39.201295 
L 326.798984 39.188058 
L 327.899853 39.077004 
L 328.090778 39.060562 
L 331.577199 38.949973 
L 332.578542 38.397537 
L 332.813137 38.286994 
L 333.051794 38.269808 
L 333.929238 38.158963 
L 334.222735 38.07601 
L 334.430925 37.965699 
L 334.677707 37.882652 
L 335.105258 37.771645 
L 335.310401 37.688947 
L 336.675315 37.578543 
L 336.853038 37.561172 
L 337.170909 37.450397 
L 337.40855 37.401837 
L 338.054447 37.291573 
L 338.208812 37.224318 
L 338.644488 37.113566 
L 339.038526 36.962429 
L 341.514464 36.851328 
L 342.074038 36.636002 
L 344.545913 36.525482 
L 344.916593 36.316472 
L 346.086519 36.205627 
L 346.242916 36.187211 
L 347.184341 36.076482 
L 347.403702 36.063872 
L 349.946667 35.953515 
L 350.128452 35.88143 
L 351.405012 35.770469 
L 351.562424 35.76882 
L 351.950369 35.658115 
L 352.162621 35.586633 
L 352.645012 35.476787 
L 352.845078 35.385519 
L 353.721507 35.275209 
L 353.891106 35.242278 
L 357.501425 35.132153 
L 357.839607 34.943533 
L 358.806421 34.832479 
L 359.324357 34.805354 
L 359.472629 34.695276 
L 359.653399 34.637798 
L 365.152662 34.526953 
L 365.357805 34.480251 
L 365.48475 34.370103 
L 365.736609 34.187382 
L 366.05448 34.077234 
L 366.193612 34.065135 
L 368.790401 33.954545 
L 368.994529 33.930045 
L 371.585225 33.819014 
L 371.82896 33.734597 
L 372.060508 33.624379 
L 372.342834 33.521105 
L 373.581818 33.48 
L 373.581818 33.48 
" clip-path="url(#pb43d711660)" style="fill: none; stroke: #008000; stroke-width: 1.5; stroke-linecap: square"/>
   </g>
   <g id="line2d_10">
    <path d="M 69.218182 184.68 
L 69.289271 184.585788 
L 69.410123 184.22636 
L 69.54113 184.121856 
L 69.680262 183.696717 
L 69.831581 183.593005 
L 69.99407 182.685328 
L 70.241867 182.577262 
L 70.358657 182.449799 
L 70.583096 182.349254 
L 70.695823 182.305711 
L 70.813628 182.196062 
L 70.969009 181.058398 
L 70.981196 180.952707 
L 71.110172 180.477295 
L 71.128452 180.374771 
L 71.271646 179.777438 
L 71.283833 179.669372 
L 71.550925 177.597906 
L 71.765209 177.507653 
L 71.897232 177.029866 
L 71.935823 176.926946 
L 72.054644 176.81215 
L 72.140966 176.705667 
L 72.343063 175.174928 
L 72.802097 175.065278 
L 72.93412 174.894272 
L 73.362686 174.791352 
L 73.590172 173.293864 
L 73.598296 173.192131 
L 73.71407 173.078128 
L 73.756724 172.973228 
L 73.896871 172.417064 
L 73.991319 172.323644 
L 74.122326 171.914338 
L 74.156855 171.818939 
L 74.2838 171.453573 
L 74.460508 171.35184 
L 74.593546 170.821405 
L 74.664636 170.712943 
L 74.799705 170.193592 
L 75.046486 170.087901 
L 75.168354 169.948563 
L 75.199836 169.849206 
L 75.317641 169.726097 
L 75.942211 169.625552 
L 76.09353 168.890465 
L 76.163604 168.785961 
L 76.349451 167.381497 
L 76.449992 167.271056 
L 76.572875 166.993171 
L 76.729271 166.387526 
L 76.866372 166.292127 
L 77.005504 165.689648 
L 77.024799 165.604145 
L 77.192367 164.141491 
L 77.206585 164.03105 
L 77.336577 163.576222 
L 77.481802 163.475677 
L 77.615856 162.96266 
L 77.630074 162.865281 
L 77.752957 162.658649 
L 77.80475 162.57473 
L 77.925602 162.287345 
L 78.090123 162.187196 
L 78.322686 159.768968 
L 78.353153 159.662485 
L 78.487207 159.388955 
L 78.685242 159.286827 
L 78.820311 158.669702 
L 79.023423 158.576282 
L 79.201147 157.376866 
L 79.362621 157.266425 
L 79.503784 156.587944 
L 79.80439 156.47869 
L 79.965864 155.865127 
L 79.978051 155.755478 
L 80.097887 155.648599 
L 80.178116 155.554784 
L 80.353808 153.324187 
L 81.065717 153.214142 
L 81.49733 149.585019 
L 81.556233 149.488036 
L 81.763407 147.941463 
L 81.995971 147.846064 
L 82.113776 147.679413 
L 82.166585 147.578867 
L 82.33923 146.300678 
L 82.672334 146.208842 
L 82.861229 144.307986 
L 83.231908 144.212191 
L 83.3619 143.783093 
L 83.509156 143.685319 
L 83.651335 143.011588 
L 83.661491 142.911438 
L 83.786405 142.694119 
L 83.807731 142.58724 
L 83.953972 142.433256 
L 84.334808 142.327169 
L 84.45769 142.001783 
L 84.689238 141.911925 
L 84.841572 140.899349 
L 84.983751 140.278266 
L 85.463096 140.16822 
L 85.586994 140.014236 
L 86.246093 139.903795 
L 86.430925 139.50676 
L 86.726454 139.397111 
L 86.848321 139.201958 
L 87.080885 139.091517 
L 87.19869 139.054308 
L 87.484062 138.949012 
L 87.712563 137.532673 
L 88.008092 137.453899 
L 88.120819 137.388189 
L 89.092711 137.284477 
L 89.272465 136.613912 
L 89.608616 136.505055 
L 89.737592 136.324944 
L 89.792432 136.229941 
L 89.927502 135.814302 
L 90.541916 135.722466 
L 90.661753 135.450519 
L 90.869943 135.35512 
L 90.998919 135.078027 
L 91.945422 134.981836 
L 92.123145 133.907112 
L 92.47656 133.810922 
L 92.607568 133.51562 
L 92.654283 133.420221 
L 92.785291 133.075042 
L 93.259558 132.966185 
L 93.448452 132.30235 
L 93.882097 132.206951 
L 94.009042 131.955984 
L 94.361441 131.848313 
L 94.487371 131.519761 
L 94.551351 131.414861 
L 94.848911 129.667594 
L 94.873284 129.566257 
L 95.00226 129.2381 
L 95.145455 129.134388 
L 95.28154 128.437698 
L 95.487699 128.342299 
L 95.663391 127.329723 
L 96.283898 127.222448 
L 96.408812 126.863811 
L 96.522555 126.829768 
L 96.630205 126.733578 
L 96.750041 126.423234 
L 97.591941 126.323876 
L 97.809271 125.076563 
L 97.824505 124.974435 
L 98.075348 123.281002 
L 98.288616 123.17254 
L 98.615627 121.913748 
L 98.84819 121.810036 
L 99.027944 120.655351 
L 99.358002 120.550055 
L 99.543849 119.734611 
L 99.769304 119.643171 
L 99.897265 119.116694 
L 99.95312 119.007837 
L 100.064832 118.984877 
L 100.252711 118.889082 
L 100.37864 118.602885 
L 100.419263 118.50907 
L 100.534021 118.431088 
L 101.336314 118.326584 
L 101.460213 118.0582 
L 101.972056 117.947759 
L 102.123374 117.149336 
L 102.541785 117.039686 
L 102.676855 116.344184 
L 103.1105 116.242847 
L 103.239476 115.843438 
L 103.418215 115.741309 
L 103.607109 114.303594 
L 103.68226 114.195528 
L 103.794988 114.144463 
L 104.30683 114.042335 
L 104.445962 113.366229 
L 104.721179 113.274788 
L 104.835938 113.179389 
L 104.895856 113.082011 
L 105.070532 112.089227 
L 105.322391 111.985515 
L 105.445274 111.82876 
L 105.458477 111.717923 
L 105.588468 111.445184 
L 106.150074 111.347806 
L 106.261785 111.324055 
L 106.685274 111.213614 
L 106.869091 109.811921 
L 107.16665 109.707813 
L 107.28344 109.596184 
L 107.330156 109.494452 
L 107.489599 108.543628 
L 107.506863 108.452187 
L 107.66326 107.461778 
L 107.980115 107.351337 
L 108.095889 107.286814 
L 108.919509 107.18904 
L 109.032236 107.14906 
L 109.09317 107.046139 
L 109.205897 107.002992 
L 109.864996 106.902447 
L 109.979754 106.818528 
L 110.096544 106.712441 
L 110.238722 106.185964 
L 110.426601 106.088586 
L 110.645962 104.61089 
L 110.81353 104.501636 
L 110.939459 104.168334 
L 111.065389 104.065018 
L 111.185225 103.881345 
L 111.200459 103.772487 
L 111.322326 103.557146 
L 111.533563 103.46333 
L 111.659492 103.197717 
L 112.28 103.091235 
L 112.409992 102.67797 
L 112.669975 102.574259 
L 112.789812 102.337146 
L 113.837871 102.233435 
L 113.961769 102.005427 
L 114.084652 101.910819 
L 114.202457 101.783753 
L 114.558919 101.687958 
L 114.679771 101.524077 
L 114.815856 101.423532 
L 114.963112 100.834908 
L 115.095135 100.753364 
L 115.234267 99.889626 
L 115.793841 99.781164 
L 115.988829 97.785701 
L 116.262015 97.691489 
L 116.378804 97.586194 
L 116.424505 97.482482 
L 116.537232 97.453981 
L 117.261327 97.346706 
L 117.401474 97.244182 
L 117.482719 97.150762 
L 117.605602 96.94413 
L 117.93769 96.84121 
L 118.061589 96.667038 
L 118.076822 96.569263 
L 118.219001 96.101373 
L 119.097461 96.00439 
L 119.241671 95.382911 
L 119.506732 95.286324 
L 119.733202 93.217233 
L 119.745389 93.111146 
L 119.902801 92.121134 
L 121.337789 92.014651 
L 121.460672 91.833353 
L 121.934939 91.730829 
L 122.095397 91.132308 
L 122.537166 91.027013 
L 122.664111 90.768921 
L 122.921048 90.662438 
L 123.039869 90.466098 
L 123.606552 90.365553 
L 123.743653 89.804242 
L 123.872629 89.694197 
L 124.068632 88.835605 
L 124.457592 88.733873 
L 124.576413 88.586618 
L 125.225356 88.490823 
L 125.345192 88.324567 
L 125.755479 88.226793 
L 125.932187 86.537319 
L 126.052023 86.455379 
L 128.042523 86.35523 
L 128.196888 85.513264 
L 128.739197 85.405593 
L 128.86208 85.209649 
L 129.454152 85.104354 
L 129.579066 84.881888 
L 129.859361 84.787281 
L 129.977166 84.644776 
L 130.112236 84.558481 
L 130.22801 84.403309 
L 130.611892 84.299993 
L 130.738837 84.149572 
L 130.940934 84.043485 
L 131.063817 83.783809 
L 131.660966 83.675743 
L 131.777756 83.478611 
L 132.161638 83.385983 
L 132.286552 83.08989 
L 133.226962 82.981428 
L 133.36 82.690876 
L 133.950041 82.591915 
L 134.093235 82.141045 
L 134.112531 82.0405 
L 134.249631 81.648216 
L 134.953415 81.540546 
L 135.0895 81.216347 
L 135.138247 81.114219 
L 135.333235 79.807529 
L 136.065455 79.696692 
L 136.229975 78.882039 
L 136.343718 78.785848 
L 136.483866 78.127555 
L 138.77294 78.034531 
L 138.886683 77.983467 
L 139.191351 77.885693 
L 139.30611 77.785939 
L 139.384308 77.696082 
L 139.497035 77.643039 
L 140.784767 77.536952 
L 140.924914 77.154564 
L 140.959443 77.046893 
L 141.089435 76.405622 
L 141.405274 76.301118 
L 141.535266 75.987607 
L 141.793219 75.894979 
L 141.939459 75.058555 
L 142.207568 74.952864 
L 142.322326 74.866569 
L 143.241409 74.757316 
L 143.357183 74.717335 
L 143.676069 74.614019 
L 143.798952 74.495265 
L 143.958395 74.398679 
L 144.084324 74.123565 
L 146.93602 74.016687 
L 147.055856 73.574526 
L 147.765733 73.465668 
L 147.900803 73.103072 
L 148.418739 73.008069 
L 148.569042 72.323254 
L 149.600852 72.231418 
L 149.71561 72.137998 
L 149.788731 72.034286 
L 149.907551 71.930574 
L 150.212219 71.846655 
L 150.339165 71.399348 
L 152.375364 71.305928 
L 152.532776 70.467525 
L 153.090319 70.361438 
L 153.206093 70.285039 
L 154.071351 70.177765 
L 154.191188 70.097804 
L 156.307617 69.996467 
L 156.443702 69.742333 
L 157.287633 69.646538 
L 157.564881 66.857798 
L 157.940639 66.767545 
L 158.0686 66.414054 
L 158.920655 66.315884 
L 159.051663 65.741906 
L 160.083473 65.637798 
L 160.218542 65.256202 
L 163.198198 65.152094 
L 163.311941 65.102218 
L 164.642326 65.009985 
L 164.761147 64.793457 
L 167.196462 64.687766 
L 167.337625 64.316066 
L 167.616904 64.211562 
L 167.827125 62.511797 
L 168.449664 62.404918 
L 168.562391 62.344353 
L 168.678165 62.261226 
L 168.798002 61.890317 
L 172.49769 61.782251 
L 172.649009 60.894367 
L 175.124947 60.784321 
L 175.261032 60.537313 
L 175.683505 60.440726 
L 175.799279 60.258241 
L 176.751876 60.150571 
L 176.917412 59.668429 
L 179.649271 59.571051 
L 179.776216 59.220727 
L 179.806683 59.110681 
L 179.929566 58.938092 
L 179.992531 58.829234 
L 180.122523 58.267132 
L 180.785684 58.165003 
L 180.901458 58.123044 
L 182.056151 58.03002 
L 182.184111 57.729176 
L 184.033448 57.621506 
L 184.178673 57.101759 
L 184.961671 56.995276 
L 185.128223 55.774089 
L 185.517183 55.674336 
L 185.716233 54.430585 
L 186.52665 54.328457 
L 186.651564 54.085011 
L 189.210778 53.983278 
L 189.33163 53.828898 
L 189.732776 53.72677 
L 189.918624 52.228886 
L 190.327895 52.11884 
L 190.453825 51.900729 
L 191.959902 51.805329 
L 192.123407 50.687854 
L 192.387453 50.607497 
L 192.50018 50.541391 
L 193.409107 50.441637 
L 193.525897 50.341092 
L 194.080393 50.23263 
L 194.199214 50.049353 
L 194.880655 49.944454 
L 195.000491 49.800366 
L 195.738804 49.694675 
L 195.988632 48.346816 
L 196.042457 48.246667 
L 196.154169 48.226083 
L 197.952727 48.12633 
L 198.110139 47.411035 
L 198.811892 47.310094 
L 198.934775 47.078523 
L 200.793251 46.970853 
L 200.951679 45.889796 
L 205.502408 45.787667 
L 205.618182 45.743332 
L 206.71905 45.645162 
L 206.837871 45.520471 
L 207.961081 45.427842 
L 208.08498 45.009037 
L 208.169271 44.902158 
L 208.281998 44.874845 
L 211.105258 44.765987 
L 211.220016 44.665837 
L 213.49792 44.563709 
L 213.613694 44.493248 
L 217.081835 44.385974 
L 217.193546 44.373703 
L 223.067551 44.285825 
L 223.183325 44.131444 
L 224.567535 44.022982 
L 224.714791 43.348064 
L 229.95407 43.25504 
L 230.090156 42.713125 
L 230.334906 42.61931 
L 230.446618 42.584871 
L 230.833546 42.478388 
L 230.960491 42.301841 
L 238.168943 42.195358 
L 238.310106 41.93212 
L 242.748108 41.835137 
L 242.895364 41.309453 
L 244.837117 41.207324 
L 244.990467 40.341212 
L 248.264636 40.250959 
L 248.414939 39.443827 
L 250.751744 39.34249 
L 250.880721 39.011562 
L 254.307224 38.901517 
L 254.600721 37.700122 
L 257.081736 37.592452 
L 257.200557 37.492699 
L 262.352498 37.388591 
L 262.469287 37.283691 
L 269.852416 37.176417 
L 269.983423 36.931388 
L 272.345618 36.834801 
L 272.46647 36.696651 
L 276.544963 36.611544 
L 276.660737 36.434996 
L 302.427551 36.329305 
L 302.557543 35.907728 
L 313.325536 35.808371 
L 313.469746 35.372939 
L 318.428731 35.27279 
L 318.551613 35.047157 
L 351.666011 34.956113 
L 351.790925 34.635477 
L 353.126388 34.536515 
L 353.301065 33.62013 
L 359.195381 33.514835 
L 359.307093 33.48 
L 373.581818 33.48 
L 373.581818 33.48 
" clip-path="url(#pb43d711660)" style="fill: none; stroke: #bfbf00; stroke-width: 1.5; stroke-linecap: square"/>
   </g>
   <g id="line2d_11">
    <path d="M 69.218182 184.654287 
L 69.43145 182.04006 
L 69.590893 181.748772 
L 69.724947 181.637912 
L 70.010319 181.374216 
L 70.089533 181.263413 
L 71.528583 180.325865 
L 71.943948 180.215099 
L 72.664996 179.610834 
L 72.97068 179.231666 
L 73.298706 179.169633 
L 73.518067 179.058886 
L 73.696806 179.017252 
L 74.076626 178.906278 
L 74.271613 178.567246 
L 74.603702 178.199217 
L 75.517707 178.088908 
L 75.701523 177.916697 
L 75.831515 177.805818 
L 77.155807 177.295239 
L 77.332514 177.187149 
L 78.333857 177.07627 
L 78.511581 177.07145 
L 79.087404 176.960704 
L 79.609402 176.691789 
L 80.324357 176.5811 
L 80.577232 176.1317 
L 80.875807 175.67602 
L 81.440459 174.96877 
L 82.299623 174.857739 
L 82.681474 174.652357 
L 83.276593 174.541687 
L 83.708206 174.226394 
L 83.971237 174.09836 
L 84.197707 174.032417 
L 85.864242 173.922088 
L 86.010483 173.887229 
L 86.288747 173.776122 
L 86.471548 173.652699 
L 86.72036 173.541915 
L 87.126585 172.954652 
L 87.751155 172.553017 
L 88.015201 172.167796 
L 88.298542 171.818687 
L 88.398067 171.708396 
L 88.893661 171.234688 
L 89.129271 171.123847 
L 89.400426 170.98957 
L 89.675643 170.878957 
L 89.934611 170.728834 
L 90.198657 170.620707 
L 90.386536 170.364563 
L 90.594726 170.253798 
L 91.246716 170.083086 
L 91.554431 169.972606 
L 91.924095 169.703501 
L 92.181032 169.494514 
L 92.378051 169.440052 
L 92.529369 169.331014 
L 92.683735 169.216225 
L 93.819132 168.651545 
L 94.036462 168.369176 
L 94.263948 168.120338 
L 94.533071 167.845029 
L 95.261229 167.734453 
L 95.655266 167.332912 
L 96.229058 167.223058 
L 96.935889 166.468784 
L 97.159312 166.357867 
L 97.686388 165.880611 
L 98.074333 165.555848 
L 98.347518 165.445614 
L 98.58516 165.215203 
L 98.971073 165.104229 
L 99.181294 165.072292 
L 99.474791 164.962267 
L 99.748993 164.728496 
L 99.866798 164.618054 
L 100.25982 164.269191 
L 100.634562 164.158976 
L 100.925012 164.043164 
L 101.011335 163.932171 
L 101.627781 163.22938 
L 102.202588 163.118292 
L 103.303456 162.202927 
L 103.747256 162.092276 
L 104.419558 161.728289 
L 104.69579 161.617277 
L 104.934447 161.419297 
L 105.335594 161.245226 
L 106.008911 161.135106 
L 106.273972 161.02453 
L 106.697461 160.913955 
L 106.842686 160.906042 
L 106.980803 160.796149 
L 107.273284 160.492166 
L 107.596233 160.381363 
L 108.537658 159.766945 
L 108.662572 159.657433 
L 108.864668 159.518962 
L 109.287142 159.408766 
L 110.073186 158.445353 
L 110.983129 158.334322 
L 112.224144 157.370454 
L 113.321966 157.259461 
L 113.708894 156.885341 
L 114.33448 156.77467 
L 114.609697 156.541621 
L 114.956003 156.431767 
L 115.204816 156.267033 
L 115.37543 156.157273 
L 115.598853 155.978933 
L 116.436691 155.868054 
L 116.704799 155.768997 
L 116.876429 155.659181 
L 117.150631 155.25819 
L 117.681769 155.147406 
L 118.289075 154.801656 
L 118.74303 154.690777 
L 119.011138 154.539478 
L 119.725078 154.428447 
L 119.85507 154.203994 
L 119.984046 154.177788 
L 120.832039 154.067061 
L 121.053432 154.006697 
L 122.103522 153.895874 
L 122.826601 153.113439 
L 123.028698 152.810178 
L 123.517183 152.249349 
L 124.14683 152.138413 
L 124.365176 152.137312 
L 124.777494 152.026262 
L 125.11466 151.974836 
L 125.561507 151.86483 
L 125.844848 151.65776 
L 126.174906 151.5469 
L 128.13697 149.759531 
L 128.359378 149.648443 
L 129.144406 149.159725 
L 129.428763 149.048903 
L 131.029287 147.994384 
L 131.37864 147.652506 
L 131.573628 147.587322 
L 132.008288 147.476518 
L 132.307879 147.294649 
L 133.246257 147.18432 
L 133.443276 147.165514 
L 134.261818 147.055015 
L 134.994038 146.55956 
L 135.338313 146.448662 
L 137.007895 145.770825 
L 137.182572 145.694615 
L 137.346077 145.584192 
L 137.753317 145.168229 
L 138.070172 144.881173 
L 138.866372 144.770503 
L 139.049173 144.540869 
L 139.653432 144.009758 
L 139.887011 143.89886 
L 140.09317 143.836864 
L 140.434398 143.726212 
L 141.01733 143.342661 
L 142.544734 143.232143 
L 142.751908 143.195082 
L 142.901196 143.084677 
L 143.481081 142.789879 
L 143.765438 142.678924 
L 144.308763 142.566147 
L 144.68249 142.45542 
L 144.965831 142.210396 
L 145.241048 142.075721 
L 145.485799 141.965259 
L 145.846323 141.856278 
L 145.99561 141.745949 
L 146.155053 141.654938 
L 146.74611 141.545008 
L 146.948206 141.346628 
L 147.103587 141.236243 
L 147.800262 140.76022 
L 148.945815 140.649227 
L 149.411957 140.222409 
L 150.326978 140.112384 
L 150.542277 140.010045 
L 150.911941 139.89945 
L 151.396364 139.500054 
L 151.979296 139.389839 
L 152.199672 139.306988 
L 152.498247 139.197171 
L 152.679017 139.141552 
L 152.999934 139.030464 
L 153.148206 139.010652 
L 153.310696 138.899678 
L 153.557477 138.765307 
L 154.981294 138.654314 
L 155.152924 138.628411 
L 155.413923 138.519202 
L 155.694218 138.159124 
L 155.91561 137.995889 
L 156.120753 137.798478 
L 156.659001 137.68794 
L 156.864144 137.593115 
L 156.999214 137.483318 
L 157.482621 136.858766 
L 158.902375 136.7484 
L 159.205012 136.487531 
L 159.65389 136.376557 
L 159.902703 136.140168 
L 160.789287 135.785689 
L 161.029975 135.674677 
L 161.383391 135.565411 
L 162.368485 135.454911 
L 162.691433 135.314087 
L 162.86611 135.204594 
L 163.178903 134.88708 
L 165.095266 134.776543 
L 165.479148 134.506376 
L 166.008256 134.395535 
L 166.303784 134.172107 
L 166.944603 134.061057 
L 167.127404 134.010807 
L 167.279738 133.900478 
L 167.704242 133.694641 
L 167.961179 133.585356 
L 168.208976 133.323425 
L 168.543096 133.21302 
L 168.779722 133.134059 
L 169.284455 133.023427 
L 169.522097 132.730261 
L 169.739427 132.616231 
L 170.256347 132.505599 
L 170.782408 132.0332 
L 172.324029 131.129924 
L 173.177101 131.019083 
L 173.421851 130.916781 
L 173.677772 130.807382 
L 173.820966 130.774097 
L 174.091106 130.664793 
L 174.437412 129.983502 
L 174.568419 129.768841 
L 174.768485 129.613007 
L 175.503751 129.089942 
L 176.731564 128.979594 
L 177.053497 128.844501 
L 177.482064 128.734077 
L 177.688223 128.672138 
L 177.834464 128.562208 
L 178.404193 127.777059 
L 178.721048 127.741535 
L 179.623882 127.630808 
L 179.784341 127.317052 
L 180.058542 126.752409 
L 180.795839 126.64227 
L 180.988796 126.586518 
L 181.44783 126.475999 
L 181.604226 126.459623 
L 181.728124 126.349825 
L 181.86421 126.335365 
L 182.612678 126.224847 
L 182.977265 125.726242 
L 183.125536 125.614205 
L 183.287011 125.503516 
L 183.491138 125.338611 
L 185.384144 124.404554 
L 185.729435 124.294415 
L 186.138706 123.781502 
L 186.922719 123.670566 
L 187.758526 122.871792 
L 188.433874 122.57392 
L 188.78932 122.463591 
L 188.93353 122.425752 
L 189.268665 122.316011 
L 189.479902 122.175112 
L 189.625127 122.064195 
L 189.804881 121.886632 
L 189.990729 121.883577 
L 190.398984 121.772546 
L 190.601081 121.684078 
L 191.398296 121.5743 
L 191.535397 121.568949 
L 191.905061 121.458354 
L 192.716495 120.648024 
L 192.921638 120.402241 
L 193.224275 120.292178 
L 193.383718 120.238722 
L 194.345455 120.12845 
L 194.610516 119.947054 
L 195.38742 119.836175 
L 195.940901 119.766911 
L 196.135889 119.65626 
L 196.781785 119.257813 
L 197.456118 119.146896 
L 197.780082 118.964134 
L 198.586437 118.348331 
L 198.956102 118.237869 
L 199.239443 118.136345 
L 199.48724 118.025523 
L 199.825422 117.46885 
L 200.032596 117.395507 
L 200.446945 117.285083 
L 200.993317 116.641992 
L 201.227912 116.627285 
L 201.349779 116.516596 
L 201.719443 116.333872 
L 202.378542 116.223106 
L 202.629386 116.038352 
L 202.976708 115.92734 
L 203.101622 115.64592 
L 203.324029 115.190695 
L 203.650025 114.86339 
L 204.484816 114.752701 
L 204.722457 114.710023 
L 205.539984 114.599087 
L 205.920819 114.288576 
L 207.008485 114.000647 
L 207.227846 113.89011 
L 207.459394 113.759419 
L 207.892023 113.649603 
L 208.071777 113.51933 
L 209.460049 113.408584 
L 210.224767 112.714863 
L 211.061589 111.234021 
L 211.817166 111.123483 
L 213.184111 109.882901 
L 213.380115 109.748738 
L 214.426143 109.637878 
L 214.658706 109.546374 
L 214.943063 109.303343 
L 215.155315 108.996096 
L 215.339132 108.803656 
L 215.484357 108.693119 
L 216.112989 108.319511 
L 216.610614 108.209277 
L 216.933563 107.99139 
L 217.557117 107.880435 
L 218.028337 107.525804 
L 218.220278 107.415096 
L 218.580803 106.996287 
L 218.827584 106.917212 
L 219.432858 106.806921 
L 219.567928 106.789918 
L 220.806912 106.679419 
L 220.9562 106.401604 
L 221.151188 106.207039 
L 221.405078 106.096976 
L 221.65389 105.880683 
L 221.806224 105.769785 
L 222.027617 105.65012 
L 222.254087 105.540038 
L 222.466339 105.43785 
L 223.307224 105.327141 
L 223.458542 105.324637 
L 224.136937 105.214327 
L 224.57769 104.988811 
L 224.807207 104.95583 
L 226.244226 104.84535 
L 226.853563 104.507949 
L 227.081048 104.397108 
L 227.487273 103.872145 
L 228.050909 103.761683 
L 228.336282 103.341811 
L 228.657199 103.23078 
L 230.21507 102.065952 
L 230.693399 101.955737 
L 231.051892 101.772235 
L 231.291564 101.662362 
L 231.565766 101.326385 
L 231.95371 101.217081 
L 232.242129 101.106296 
L 232.794595 100.531596 
L 233.176446 100.121421 
L 233.323702 100.011605 
L 233.621261 99.645702 
L 233.87312 99.624012 
L 234.328092 99.513057 
L 235.201474 98.159128 
L 235.749877 97.825068 
L 236.427256 97.714435 
L 236.774578 97.57716 
L 237.34837 97.466604 
L 237.871384 97.071079 
L 238.168943 96.959972 
L 239.404881 96.438538 
L 239.666896 96.328456 
L 240.001016 96.101498 
L 240.790106 95.990619 
L 241.398428 95.372387 
L 241.581229 95.272362 
L 241.833088 95.162166 
L 242.084947 94.949232 
L 242.334775 94.839264 
L 242.709517 94.483722 
L 243.084259 94.373185 
L 243.270106 94.33749 
L 243.751482 94.226497 
L 243.944439 94.164235 
L 245.331695 94.053432 
L 246.193907 93.391402 
L 246.369599 93.355214 
L 246.85199 93.24481 
L 247.134316 93.171827 
L 247.985356 93.061023 
L 248.274791 92.7971 
L 248.70742 92.236176 
L 248.884128 92.232362 
L 249.5219 92.12247 
L 249.742277 92.006865 
L 250.330287 91.896043 
L 251.469746 91.062922 
L 252.111581 90.952593 
L 252.303522 90.887846 
L 253.004259 90.777327 
L 253.636953 90.379373 
L 254.287928 90.268342 
L 254.820082 89.845947 
L 255.025225 89.736054 
L 255.162326 89.721727 
L 255.895561 89.610696 
L 256.732383 88.503006 
L 256.917215 88.392164 
L 257.754038 87.92933 
L 258.005897 87.688273 
L 259.143325 86.61882 
L 259.222539 86.508149 
L 259.510958 86.254871 
L 259.935463 86.145472 
L 260.158886 85.957435 
L 261.225225 85.847467 
L 261.635512 85.511243 
L 261.936118 85.400212 
L 262.178837 85.303148 
L 262.983161 85.192477 
L 263.742801 84.724311 
L 264.215037 84.613925 
L 264.502441 84.481527 
L 264.87312 84.33742 
L 265.219427 84.226693 
L 265.399181 84.21265 
L 265.626667 84.101828 
L 265.882588 84.034955 
L 266.514267 83.924209 
L 266.753939 83.827429 
L 267.513579 83.717195 
L 268.224472 82.923659 
L 268.541327 82.739151 
L 268.799279 82.628196 
L 269.200426 82.39881 
L 270.184505 82.28886 
L 270.408943 82.111355 
L 270.77353 82.001482 
L 270.937035 81.971309 
L 271.718002 81.860677 
L 271.94041 81.809611 
L 272.31312 81.69858 
L 272.593415 81.521151 
L 272.708174 81.411411 
L 272.960033 81.249618 
L 273.413989 81.138985 
L 273.598821 80.951423 
L 273.929894 80.841378 
L 274.320885 80.148892 
L 274.552432 79.724997 
L 276.164128 79.614307 
L 276.480983 79.470068 
L 277.168518 79.359435 
L 277.60724 79.087826 
L 277.964717 78.821359 
L 278.139394 78.700442 
L 278.960983 78.589639 
L 279.366192 78.192444 
L 279.757183 77.795381 
L 280.052711 77.685204 
L 280.698608 76.764242 
L 280.872269 76.761111 
L 281.475512 76.65044 
L 281.671515 76.633134 
L 282.200622 76.52216 
L 282.367174 76.499084 
L 282.582473 76.473789 
L 282.83027 76.363631 
L 283.054709 76.255314 
L 283.233448 76.14489 
L 283.495463 75.580209 
L 283.679279 75.357028 
L 283.914889 74.88425 
L 284.178935 74.549582 
L 284.379001 74.482405 
L 284.490713 74.37164 
L 285.107158 73.937137 
L 285.847502 73.826505 
L 286.277084 73.504324 
L 287.393186 73.393388 
L 287.705979 73.145195 
L 287.972056 73.034544 
L 288.11525 73.025587 
L 289.582735 72.914613 
L 290.575954 72.07318 
L 290.76688 71.883473 
L 291.134513 71.773657 
L 291.484881 71.2 
L 291.957117 70.778477 
L 292.455758 70.667503 
L 292.680197 70.656383 
L 292.840655 70.545675 
L 292.965569 70.365646 
L 293.362654 69.885865 
L 293.487568 69.776561 
L 293.88973 69.270954 
L 294.170025 69.212108 
L 294.437117 69.102709 
L 294.677805 68.850608 
L 294.778346 68.740032 
L 294.966224 68.493852 
L 295.537985 67.575735 
L 295.687273 67.536151 
L 295.859918 67.426144 
L 296.403243 66.822182 
L 297.325373 66.71193 
L 297.662539 66.151518 
L 297.902211 65.817477 
L 298.486159 65.707622 
L 298.638493 65.672364 
L 299.365635 65.563231 
L 299.90896 64.501444 
L 300.614775 63.92329 
L 302.035545 63.137497 
L 302.643866 62.68064 
L 303.351712 62.570007 
L 303.705127 62.360755 
L 304.224079 62.188449 
L 304.61507 62.077911 
L 305.483374 61.492186 
L 305.95561 61.38142 
L 306.123178 61.312992 
L 306.68783 61.202852 
L 307.426143 60.419753 
L 309.14041 59.496475 
L 309.400393 59.401764 
L 310.195577 59.291227 
L 310.391581 59.219059 
L 311.273088 59.10949 
L 311.4305 59.064098 
L 311.721966 58.9532 
L 312.850254 58.521753 
L 313.046257 58.504313 
L 313.325536 58.3937 
L 314.382735 57.909346 
L 315.155577 57.798277 
L 315.448059 57.693072 
L 315.72226 57.582136 
L 316.004586 57.417326 
L 316.703292 57.306428 
L 316.994758 57.185396 
L 317.142015 57.07558 
L 317.331925 56.932327 
L 318.111876 56.608761 
L 319.363047 56.497976 
L 319.863718 56.303051 
L 320.178542 56.19221 
L 320.414152 56.085353 
L 321.006224 55.974342 
L 321.278395 55.8357 
L 321.481507 55.724935 
L 321.891794 55.499457 
L 322.050221 55.389014 
L 322.2381 55.312881 
L 322.401605 55.202571 
L 322.82611 54.919102 
L 323.75027 54.398902 
L 324.585061 54.287985 
L 324.692711 54.124788 
L 325.028862 53.477256 
L 325.509222 53.180199 
L 326.568452 52.694916 
L 327.866339 52.584416 
L 329.629353 51.373096 
L 330.150336 51.262084 
L 330.521016 50.860733 
L 330.751548 50.58882 
L 331.207535 49.970796 
L 332.049435 49.859822 
L 332.199738 49.80796 
L 332.291138 49.697384 
L 332.453628 49.653909 
L 333.283342 49.543638 
L 333.54231 49.393155 
L 335.052449 49.283016 
L 335.241343 49.170618 
L 335.819197 49.059701 
L 336.68344 48.582103 
L 338.108272 48.471357 
L 339.545291 47.370802 
L 339.947453 47.032699 
L 340.170876 46.921896 
L 340.687797 46.356608 
L 340.853333 46.342433 
L 341.314398 46.232256 
L 341.65258 46.062796 
L 344.453497 45.951898 
L 344.679967 45.936053 
L 344.979558 45.825553 
L 345.394922 45.576583 
L 345.780835 45.465514 
L 346.323145 45.225064 
L 346.551646 45.114147 
L 347.208714 44.739022 
L 347.327535 44.628332 
L 347.614939 44.539712 
L 347.917576 44.429213 
L 348.173497 44.351542 
L 349.030631 44.240948 
L 349.351548 44.177965 
L 349.836986 44.067067 
L 350.081736 44.049894 
L 350.219853 43.939223 
L 350.914496 43.617611 
L 351.699525 43.50696 
L 352.042785 43.363081 
L 352.92226 43.252031 
L 353.049206 43.247059 
L 353.197477 43.136237 
L 353.597609 42.460145 
L 354.772613 41.902828 
L 355.351482 41.57 
L 355.996364 41.460013 
L 356.196429 41.363841 
L 356.537658 41.253 
L 356.801704 41.150736 
L 357.8 41.040065 
L 358.518002 40.520738 
L 360.491237 40.410447 
L 360.91371 40.052249 
L 362.715315 39.941218 
L 363.312465 39.256739 
L 363.481048 39.083769 
L 363.644554 38.91894 
L 364.257952 38.712705 
L 364.389975 38.602357 
L 364.839869 37.995776 
L 365.032826 37.885372 
L 365.325307 37.591029 
L 365.734578 37.480263 
L 365.987453 37.450641 
L 367.378771 37.340312 
L 368.022637 36.879679 
L 368.203407 36.770147 
L 368.433939 36.576626 
L 368.841179 36.397811 
L 369.150925 36.287976 
L 369.515512 36.004355 
L 369.653628 35.894159 
L 370.946437 34.861046 
L 371.544603 34.471745 
L 371.781229 34.275206 
L 372.032072 34.116336 
L 372.521572 33.621071 
L 373.150205 33.616554 
L 373.550336 33.506263 
L 373.581818 33.48 
L 373.581818 33.48 
" clip-path="url(#pb43d711660)" style="fill: none; stroke: #ff0000; stroke-width: 1.5; stroke-linecap: square"/>
   </g>
   <g id="patch_3">
    <path d="M 54 192.24 
L 54 25.92 
" style="fill: none; stroke: #000000; stroke-width: 2; stroke-linejoin: miter; stroke-linecap: square"/>
   </g>
   <g id="patch_4">
    <path d="M 388.8 192.24 
L 388.8 25.92 
" style="fill: none; stroke: #000000; stroke-width: 2; stroke-linejoin: miter; stroke-linecap: square"/>
   </g>
   <g id="patch_5">
    <path d="M 54 192.24 
L 388.8 192.24 
" style="fill: none; stroke: #000000; stroke-width: 2; stroke-linejoin: miter; stroke-linecap: square"/>
   </g>
   <g id="patch_6">
    <path d="M 54 25.92 
L 388.8 25.92 
" style="fill: none; stroke: #000000; stroke-width: 2; stroke-linejoin: miter; stroke-linecap: square"/>
   </g>
   <g id="text_10">
    <!-- bleaching rate -->
    <g transform="translate(145.591641 19.92) scale(0.21 -0.21)">
     <defs>
      <path id="DejaVuSans-62" d="M 3116 1747 
Q 3116 2381 2855 2742 
Q 2594 3103 2138 3103 
Q 1681 3103 1420 2742 
Q 1159 2381 1159 1747 
Q 1159 1113 1420 752 
Q 1681 391 2138 391 
Q 2594 391 2855 752 
Q 3116 1113 3116 1747 
z
M 1159 2969 
Q 1341 3281 1617 3432 
Q 1894 3584 2278 3584 
Q 2916 3584 3314 3078 
Q 3713 2572 3713 1747 
Q 3713 922 3314 415 
Q 2916 -91 2278 -91 
Q 1894 -91 1617 61 
Q 1341 213 1159 525 
L 1159 0 
L 581 0 
L 581 4863 
L 1159 4863 
L 1159 2969 
z
" transform="scale(0.015625)"/>
      <path id="DejaVuSans-6c" d="M 603 4863 
L 1178 4863 
L 1178 0 
L 603 0 
L 603 4863 
z
" transform="scale(0.015625)"/>
      <path id="DejaVuSans-61" d="M 2194 1759 
Q 1497 1759 1228 1600 
Q 959 1441 959 1056 
Q 959 750 1161 570 
Q 1363 391 1709 391 
Q 2188 391 2477 730 
Q 2766 1069 2766 1631 
L 2766 1759 
L 2194 1759 
z
M 3341 1997 
L 3341 0 
L 2766 0 
L 2766 531 
Q 2569 213 2275 61 
Q 1981 -91 1556 -91 
Q 1019 -91 701 211 
Q 384 513 384 1019 
Q 384 1609 779 1909 
Q 1175 2209 1959 2209 
L 2766 2209 
L 2766 2266 
Q 2766 2663 2505 2880 
Q 2244 3097 1772 3097 
Q 1472 3097 1187 3025 
Q 903 2953 641 2809 
L 641 3341 
Q 956 3463 1253 3523 
Q 1550 3584 1831 3584 
Q 2591 3584 2966 3190 
Q 3341 2797 3341 1997 
z
" transform="scale(0.015625)"/>
      <path id="DejaVuSans-63" d="M 3122 3366 
L 3122 2828 
Q 2878 2963 2633 3030 
Q 2388 3097 2138 3097 
Q 1578 3097 1268 2742 
Q 959 2388 959 1747 
Q 959 1106 1268 751 
Q 1578 397 2138 397 
Q 2388 397 2633 464 
Q 2878 531 3122 666 
L 3122 134 
Q 2881 22 2623 -34 
Q 2366 -91 2075 -91 
Q 1284 -91 818 406 
Q 353 903 353 1747 
Q 353 2603 823 3093 
Q 1294 3584 2113 3584 
Q 2378 3584 2631 3529 
Q 2884 3475 3122 3366 
z
" transform="scale(0.015625)"/>
      <path id="DejaVuSans-68" d="M 3513 2113 
L 3513 0 
L 2938 0 
L 2938 2094 
Q 2938 2591 2744 2837 
Q 2550 3084 2163 3084 
Q 1697 3084 1428 2787 
Q 1159 2491 1159 1978 
L 1159 0 
L 581 0 
L 581 4863 
L 1159 4863 
L 1159 2956 
Q 1366 3272 1645 3428 
Q 1925 3584 2291 3584 
Q 2894 3584 3203 3211 
Q 3513 2838 3513 2113 
z
" transform="scale(0.015625)"/>
      <path id="DejaVuSans-67" d="M 2906 1791 
Q 2906 2416 2648 2759 
Q 2391 3103 1925 3103 
Q 1463 3103 1205 2759 
Q 947 2416 947 1791 
Q 947 1169 1205 825 
Q 1463 481 1925 481 
Q 2391 481 2648 825 
Q 2906 1169 2906 1791 
z
M 3481 434 
Q 3481 -459 3084 -895 
Q 2688 -1331 1869 -1331 
Q 1566 -1331 1297 -1286 
Q 1028 -1241 775 -1147 
L 775 -588 
Q 1028 -725 1275 -790 
Q 1522 -856 1778 -856 
Q 2344 -856 2625 -561 
Q 2906 -266 2906 331 
L 2906 616 
Q 2728 306 2450 153 
Q 2172 0 1784 0 
Q 1141 0 747 490 
Q 353 981 353 1791 
Q 353 2603 747 3093 
Q 1141 3584 1784 3584 
Q 2172 3584 2450 3431 
Q 2728 3278 2906 2969 
L 2906 3500 
L 3481 3500 
L 3481 434 
z
" transform="scale(0.015625)"/>
      <path id="DejaVuSans-72" d="M 2631 2963 
Q 2534 3019 2420 3045 
Q 2306 3072 2169 3072 
Q 1681 3072 1420 2755 
Q 1159 2438 1159 1844 
L 1159 0 
L 581 0 
L 581 3500 
L 1159 3500 
L 1159 2956 
Q 1341 3275 1631 3429 
Q 1922 3584 2338 3584 
Q 2397 3584 2469 3576 
Q 2541 3569 2628 3553 
L 2631 2963 
z
" transform="scale(0.015625)"/>
     </defs>
     <use xlink:href="#DejaVuSans-62"/>
     <use xlink:href="#DejaVuSans-6c" x="63.476562"/>
     <use xlink:href="#DejaVuSans-65" x="91.259766"/>
     <use xlink:href="#DejaVuSans-61" x="152.783203"/>
     <use xlink:href="#DejaVuSans-63" x="214.0625"/>
     <use xlink:href="#DejaVuSans-68" x="269.042969"/>
     <use xlink:href="#DejaVuSans-69" x="332.421875"/>
     <use xlink:href="#DejaVuSans-6e" x="360.205078"/>
     <use xlink:href="#DejaVuSans-67" x="423.583984"/>
     <use xlink:href="#DejaVuSans-20" x="487.060547"/>
     <use xlink:href="#DejaVuSans-72" x="518.847656"/>
     <use xlink:href="#DejaVuSans-61" x="559.960938"/>
     <use xlink:href="#DejaVuSans-74" x="621.240234"/>
     <use xlink:href="#DejaVuSans-65" x="660.449219"/>
    </g>
   </g>
   <g id="legend_1">
    <g id="patch_7">
     <path d="M 61 92.6325 
L 111.878125 92.6325 
Q 113.878125 92.6325 113.878125 90.6325 
L 113.878125 32.92 
Q 113.878125 30.92 111.878125 30.92 
L 61 30.92 
Q 59 30.92 59 32.92 
L 59 90.6325 
Q 59 92.6325 61 92.6325 
z
" style="fill: #ffffff; opacity: 0.8; stroke: #cccccc; stroke-linejoin: miter"/>
    </g>
    <g id="line2d_12">
     <path d="M 63 39.018438 
L 73 39.018438 
L 83 39.018438 
" style="fill: none; stroke: #0000ff; stroke-width: 1.5; stroke-linecap: square"/>
    </g>
    <g id="text_11">
     <!-- 1e1 -->
     <g transform="translate(91 42.518438) scale(0.1 -0.1)">
      <use xlink:href="#DejaVuSans-31"/>
      <use xlink:href="#DejaVuSans-65" x="63.623047"/>
      <use xlink:href="#DejaVuSans-31" x="125.146484"/>
     </g>
    </g>
    <g id="line2d_13">
     <path d="M 63 53.696562 
L 73 53.696562 
L 83 53.696562 
" style="fill: none; stroke: #008000; stroke-width: 1.5; stroke-linecap: square"/>
    </g>
    <g id="text_12">
     <!-- 1e3 -->
     <g transform="translate(91 57.196562) scale(0.1 -0.1)">
      <use xlink:href="#DejaVuSans-31"/>
      <use xlink:href="#DejaVuSans-65" x="63.623047"/>
      <use xlink:href="#DejaVuSans-33" x="125.146484"/>
     </g>
    </g>
    <g id="line2d_14">
     <path d="M 63 68.374687 
L 73 68.374687 
L 83 68.374687 
" style="fill: none; stroke: #bfbf00; stroke-width: 1.5; stroke-linecap: square"/>
    </g>
    <g id="text_13">
     <!-- 1e4 -->
     <g transform="translate(91 71.874687) scale(0.1 -0.1)">
      <defs>
       <path id="DejaVuSans-34" d="M 2419 4116 
L 825 1625 
L 2419 1625 
L 2419 4116 
z
M 2253 4666 
L 3047 4666 
L 3047 1625 
L 3713 1625 
L 3713 1100 
L 3047 1100 
L 3047 0 
L 2419 0 
L 2419 1100 
L 313 1100 
L 313 1709 
L 2253 4666 
z
" transform="scale(0.015625)"/>
      </defs>
      <use xlink:href="#DejaVuSans-31"/>
      <use xlink:href="#DejaVuSans-65" x="63.623047"/>
      <use xlink:href="#DejaVuSans-34" x="125.146484"/>
     </g>
    </g>
    <g id="line2d_15">
     <path d="M 63 83.052813 
L 73 83.052813 
L 83 83.052813 
" style="fill: none; stroke: #ff0000; stroke-width: 1.5; stroke-linecap: square"/>
    </g>
    <g id="text_14">
     <!-- 1e2 -->
     <g transform="translate(91 86.552813) scale(0.1 -0.1)">
      <use xlink:href="#DejaVuSans-31"/>
      <use xlink:href="#DejaVuSans-65" x="63.623047"/>
      <use xlink:href="#DejaVuSans-32" x="125.146484"/>
     </g>
    </g>
   </g>
  </g>
 </g>
 <defs>
  <clipPath id="pb43d711660">
   <rect x="54" y="25.92" width="334.8" height="166.32"/>
  </clipPath>
 </defs>
</svg>
