<?xml version="1.0" encoding="utf-8" standalone="no"?>
<!DOCTYPE svg PUBLIC "-//W3C//DTD SVG 1.1//EN"
  "http://www.w3.org/Graphics/SVG/1.1/DTD/svg11.dtd">
<svg xmlns:xlink="http://www.w3.org/1999/xlink" width="432pt" height="216pt" viewBox="0 0 432 216" xmlns="http://www.w3.org/2000/svg" version="1.1">
 <metadata>
  <rdf:RDF xmlns:dc="http://purl.org/dc/elements/1.1/" xmlns:cc="http://creativecommons.org/ns#" xmlns:rdf="http://www.w3.org/1999/02/22-rdf-syntax-ns#">
   <cc:Work>
    <dc:type rdf:resource="http://purl.org/dc/dcmitype/StillImage"/>
    <dc:date>2024-08-20T08:53:50.926698</dc:date>
    <dc:format>image/svg+xml</dc:format>
    <dc:creator>
     <cc:Agent>
      <dc:title>Matplotlib v3.8.4, https://matplotlib.org/</dc:title>
     </cc:Agent>
    </dc:creator>
   </cc:Work>
  </rdf:RDF>
 </metadata>
 <defs>
  <style type="text/css">*{stroke-linejoin: round; stroke-linecap: butt}</style>
 </defs>
 <g id="figure_1">
  <g id="patch_1">
   <path d="M 0 216 
L 432 216 
L 432 0 
L 0 0 
z
" style="fill: #ffffff"/>
  </g>
  <g id="axes_1">
   <g id="patch_2">
    <path d="M 54 192.24 
L 388.8 192.24 
L 388.8 25.92 
L 54 25.92 
z
" style="fill: #ffffff"/>
   </g>
   <g id="matplotlib.axis_1">
    <g id="xtick_1">
     <g id="line2d_1">
      <defs>
       <path id="m1c077bd79b" d="M 0 0 
L 0 6 
" style="stroke: #000000; stroke-width: 2"/>
      </defs>
      <g>
       <use xlink:href="#m1c077bd79b" x="66.557303" y="192.24" style="stroke: #000000; stroke-width: 2"/>
      </g>
     </g>
     <g id="text_1">
      <!-- 0 -->
      <g transform="translate(59.876678 217.696719) scale(0.21 -0.21)">
       <defs>
        <path id="DejaVuSans-30" d="M 2034 4250 
Q 1547 4250 1301 3770 
Q 1056 3291 1056 2328 
Q 1056 1369 1301 889 
Q 1547 409 2034 409 
Q 2525 409 2770 889 
Q 3016 1369 3016 2328 
Q 3016 3291 2770 3770 
Q 2525 4250 2034 4250 
z
M 2034 4750 
Q 2819 4750 3233 4129 
Q 3647 3509 3647 2328 
Q 3647 1150 3233 529 
Q 2819 -91 2034 -91 
Q 1250 -91 836 529 
Q 422 1150 422 2328 
Q 422 3509 836 4129 
Q 1250 4750 2034 4750 
z
" transform="scale(0.015625)"/>
       </defs>
       <use xlink:href="#DejaVuSans-30"/>
      </g>
     </g>
    </g>
    <g id="xtick_2">
     <g id="line2d_2">
      <g>
       <use xlink:href="#m1c077bd79b" x="168.898808" y="192.24" style="stroke: #000000; stroke-width: 2"/>
      </g>
     </g>
     <g id="text_2">
      <!-- 100 -->
      <g transform="translate(148.856933 217.696719) scale(0.21 -0.21)">
       <defs>
        <path id="DejaVuSans-31" d="M 794 531 
L 1825 531 
L 1825 4091 
L 703 3866 
L 703 4441 
L 1819 4666 
L 2450 4666 
L 2450 531 
L 3481 531 
L 3481 0 
L 794 0 
L 794 531 
z
" transform="scale(0.015625)"/>
       </defs>
       <use xlink:href="#DejaVuSans-31"/>
       <use xlink:href="#DejaVuSans-30" x="63.623047"/>
       <use xlink:href="#DejaVuSans-30" x="127.246094"/>
      </g>
     </g>
    </g>
    <g id="xtick_3">
     <g id="line2d_3">
      <g>
       <use xlink:href="#m1c077bd79b" x="271.240313" y="192.24" style="stroke: #000000; stroke-width: 2"/>
      </g>
     </g>
     <g id="text_3">
      <!-- 200 -->
      <g transform="translate(251.198438 217.696719) scale(0.21 -0.21)">
       <defs>
        <path id="DejaVuSans-32" d="M 1228 531 
L 3431 531 
L 3431 0 
L 469 0 
L 469 531 
Q 828 903 1448 1529 
Q 2069 2156 2228 2338 
Q 2531 2678 2651 2914 
Q 2772 3150 2772 3378 
Q 2772 3750 2511 3984 
Q 2250 4219 1831 4219 
Q 1534 4219 1204 4116 
Q 875 4013 500 3803 
L 500 4441 
Q 881 4594 1212 4672 
Q 1544 4750 1819 4750 
Q 2544 4750 2975 4387 
Q 3406 4025 3406 3419 
Q 3406 3131 3298 2873 
Q 3191 2616 2906 2266 
Q 2828 2175 2409 1742 
Q 1991 1309 1228 531 
z
" transform="scale(0.015625)"/>
       </defs>
       <use xlink:href="#DejaVuSans-32"/>
       <use xlink:href="#DejaVuSans-30" x="63.623047"/>
       <use xlink:href="#DejaVuSans-30" x="127.246094"/>
      </g>
     </g>
    </g>
    <g id="xtick_4">
     <g id="line2d_4">
      <g>
       <use xlink:href="#m1c077bd79b" x="373.581818" y="192.24" style="stroke: #000000; stroke-width: 2"/>
      </g>
     </g>
     <g id="text_4">
      <!-- 300 -->
      <g transform="translate(353.539943 217.696719) scale(0.21 -0.21)">
       <defs>
        <path id="DejaVuSans-33" d="M 2597 2516 
Q 3050 2419 3304 2112 
Q 3559 1806 3559 1356 
Q 3559 666 3084 287 
Q 2609 -91 1734 -91 
Q 1441 -91 1130 -33 
Q 819 25 488 141 
L 488 750 
Q 750 597 1062 519 
Q 1375 441 1716 441 
Q 2309 441 2620 675 
Q 2931 909 2931 1356 
Q 2931 1769 2642 2001 
Q 2353 2234 1838 2234 
L 1294 2234 
L 1294 2753 
L 1863 2753 
Q 2328 2753 2575 2939 
Q 2822 3125 2822 3475 
Q 2822 3834 2567 4026 
Q 2313 4219 1838 4219 
Q 1578 4219 1281 4162 
Q 984 4106 628 3988 
L 628 4550 
Q 988 4650 1302 4700 
Q 1616 4750 1894 4750 
Q 2613 4750 3031 4423 
Q 3450 4097 3450 3541 
Q 3450 3153 3228 2886 
Q 3006 2619 2597 2516 
z
" transform="scale(0.015625)"/>
       </defs>
       <use xlink:href="#DejaVuSans-33"/>
       <use xlink:href="#DejaVuSans-30" x="63.623047"/>
       <use xlink:href="#DejaVuSans-30" x="127.246094"/>
      </g>
     </g>
    </g>
    <g id="text_5">
     <!-- time (s) -->
     <g transform="translate(180.678047 242.020781) scale(0.21 -0.21)">
      <defs>
       <path id="DejaVuSans-74" d="M 1172 4494 
L 1172 3500 
L 2356 3500 
L 2356 3053 
L 1172 3053 
L 1172 1153 
Q 1172 725 1289 603 
Q 1406 481 1766 481 
L 2356 481 
L 2356 0 
L 1766 0 
Q 1100 0 847 248 
Q 594 497 594 1153 
L 594 3053 
L 172 3053 
L 172 3500 
L 594 3500 
L 594 4494 
L 1172 4494 
z
" transform="scale(0.015625)"/>
       <path id="DejaVuSans-69" d="M 603 3500 
L 1178 3500 
L 1178 0 
L 603 0 
L 603 3500 
z
M 603 4863 
L 1178 4863 
L 1178 4134 
L 603 4134 
L 603 4863 
z
" transform="scale(0.015625)"/>
       <path id="DejaVuSans-6d" d="M 3328 2828 
Q 3544 3216 3844 3400 
Q 4144 3584 4550 3584 
Q 5097 3584 5394 3201 
Q 5691 2819 5691 2113 
L 5691 0 
L 5113 0 
L 5113 2094 
Q 5113 2597 4934 2840 
Q 4756 3084 4391 3084 
Q 3944 3084 3684 2787 
Q 3425 2491 3425 1978 
L 3425 0 
L 2847 0 
L 2847 2094 
Q 2847 2600 2669 2842 
Q 2491 3084 2119 3084 
Q 1678 3084 1418 2786 
Q 1159 2488 1159 1978 
L 1159 0 
L 581 0 
L 581 3500 
L 1159 3500 
L 1159 2956 
Q 1356 3278 1631 3431 
Q 1906 3584 2284 3584 
Q 2666 3584 2933 3390 
Q 3200 3197 3328 2828 
z
" transform="scale(0.015625)"/>
       <path id="DejaVuSans-65" d="M 3597 1894 
L 3597 1613 
L 953 1613 
Q 991 1019 1311 708 
Q 1631 397 2203 397 
Q 2534 397 2845 478 
Q 3156 559 3463 722 
L 3463 178 
Q 3153 47 2828 -22 
Q 2503 -91 2169 -91 
Q 1331 -91 842 396 
Q 353 884 353 1716 
Q 353 2575 817 3079 
Q 1281 3584 2069 3584 
Q 2775 3584 3186 3129 
Q 3597 2675 3597 1894 
z
M 3022 2063 
Q 3016 2534 2758 2815 
Q 2500 3097 2075 3097 
Q 1594 3097 1305 2825 
Q 1016 2553 972 2059 
L 3022 2063 
z
" transform="scale(0.015625)"/>
       <path id="DejaVuSans-20" transform="scale(0.015625)"/>
       <path id="DejaVuSans-28" d="M 1984 4856 
Q 1566 4138 1362 3434 
Q 1159 2731 1159 2009 
Q 1159 1288 1364 580 
Q 1569 -128 1984 -844 
L 1484 -844 
Q 1016 -109 783 600 
Q 550 1309 550 2009 
Q 550 2706 781 3412 
Q 1013 4119 1484 4856 
L 1984 4856 
z
" transform="scale(0.015625)"/>
       <path id="DejaVuSans-73" d="M 2834 3397 
L 2834 2853 
Q 2591 2978 2328 3040 
Q 2066 3103 1784 3103 
Q 1356 3103 1142 2972 
Q 928 2841 928 2578 
Q 928 2378 1081 2264 
Q 1234 2150 1697 2047 
L 1894 2003 
Q 2506 1872 2764 1633 
Q 3022 1394 3022 966 
Q 3022 478 2636 193 
Q 2250 -91 1575 -91 
Q 1294 -91 989 -36 
Q 684 19 347 128 
L 347 722 
Q 666 556 975 473 
Q 1284 391 1588 391 
Q 1994 391 2212 530 
Q 2431 669 2431 922 
Q 2431 1156 2273 1281 
Q 2116 1406 1581 1522 
L 1381 1569 
Q 847 1681 609 1914 
Q 372 2147 372 2553 
Q 372 3047 722 3315 
Q 1072 3584 1716 3584 
Q 2034 3584 2315 3537 
Q 2597 3491 2834 3397 
z
" transform="scale(0.015625)"/>
       <path id="DejaVuSans-29" d="M 513 4856 
L 1013 4856 
Q 1481 4119 1714 3412 
Q 1947 2706 1947 2009 
Q 1947 1309 1714 600 
Q 1481 -109 1013 -844 
L 513 -844 
Q 928 -128 1133 580 
Q 1338 1288 1338 2009 
Q 1338 2731 1133 3434 
Q 928 4138 513 4856 
z
" transform="scale(0.015625)"/>
      </defs>
      <use xlink:href="#DejaVuSans-74"/>
      <use xlink:href="#DejaVuSans-69" x="39.208984"/>
      <use xlink:href="#DejaVuSans-6d" x="66.992188"/>
      <use xlink:href="#DejaVuSans-65" x="164.404297"/>
      <use xlink:href="#DejaVuSans-20" x="225.927734"/>
      <use xlink:href="#DejaVuSans-28" x="257.714844"/>
      <use xlink:href="#DejaVuSans-73" x="296.728516"/>
      <use xlink:href="#DejaVuSans-29" x="348.828125"/>
     </g>
    </g>
   </g>
   <g id="matplotlib.axis_2">
    <g id="ytick_1">
     <g id="line2d_5">
      <defs>
       <path id="maa41f04c63" d="M 0 0 
L -6 0 
" style="stroke: #000000; stroke-width: 2"/>
      </defs>
      <g>
       <use xlink:href="#maa41f04c63" x="54" y="184.681351" style="stroke: #000000; stroke-width: 2"/>
      </g>
     </g>
     <g id="text_6">
      <!-- 0.0 -->
      <g transform="translate(11.103437 192.65971) scale(0.21 -0.21)">
       <defs>
        <path id="DejaVuSans-2e" d="M 684 794 
L 1344 794 
L 1344 0 
L 684 0 
L 684 794 
z
" transform="scale(0.015625)"/>
       </defs>
       <use xlink:href="#DejaVuSans-30"/>
       <use xlink:href="#DejaVuSans-2e" x="63.623047"/>
       <use xlink:href="#DejaVuSans-30" x="95.410156"/>
      </g>
     </g>
    </g>
    <g id="ytick_2">
     <g id="line2d_6">
      <g>
       <use xlink:href="#maa41f04c63" x="54" y="109.080675" style="stroke: #000000; stroke-width: 2"/>
      </g>
     </g>
     <g id="text_7">
      <!-- 0.5 -->
      <g transform="translate(11.103437 117.059035) scale(0.21 -0.21)">
       <defs>
        <path id="DejaVuSans-35" d="M 691 4666 
L 3169 4666 
L 3169 4134 
L 1269 4134 
L 1269 2991 
Q 1406 3038 1543 3061 
Q 1681 3084 1819 3084 
Q 2600 3084 3056 2656 
Q 3513 2228 3513 1497 
Q 3513 744 3044 326 
Q 2575 -91 1722 -91 
Q 1428 -91 1123 -41 
Q 819 9 494 109 
L 494 744 
Q 775 591 1075 516 
Q 1375 441 1709 441 
Q 2250 441 2565 725 
Q 2881 1009 2881 1497 
Q 2881 1984 2565 2268 
Q 2250 2553 1709 2553 
Q 1456 2553 1204 2497 
Q 953 2441 691 2322 
L 691 4666 
z
" transform="scale(0.015625)"/>
       </defs>
       <use xlink:href="#DejaVuSans-30"/>
       <use xlink:href="#DejaVuSans-2e" x="63.623047"/>
       <use xlink:href="#DejaVuSans-35" x="95.410156"/>
      </g>
     </g>
    </g>
    <g id="ytick_3">
     <g id="line2d_7">
      <g>
       <use xlink:href="#maa41f04c63" x="54" y="33.48" style="stroke: #000000; stroke-width: 2"/>
      </g>
     </g>
     <g id="text_8">
      <!-- 1.0 -->
      <g transform="translate(11.103437 41.458359) scale(0.21 -0.21)">
       <use xlink:href="#DejaVuSans-31"/>
       <use xlink:href="#DejaVuSans-2e" x="63.623047"/>
       <use xlink:href="#DejaVuSans-30" x="95.410156"/>
      </g>
     </g>
    </g>
    <g id="text_9">
     <!-- % emission -->
     <g transform="translate(2.736094 168.934922) rotate(-90) scale(0.21 -0.21)">
      <defs>
       <path id="DejaVuSans-25" d="M 4653 2053 
Q 4381 2053 4226 1822 
Q 4072 1591 4072 1178 
Q 4072 772 4226 539 
Q 4381 306 4653 306 
Q 4919 306 5073 539 
Q 5228 772 5228 1178 
Q 5228 1588 5073 1820 
Q 4919 2053 4653 2053 
z
M 4653 2450 
Q 5147 2450 5437 2106 
Q 5728 1763 5728 1178 
Q 5728 594 5436 251 
Q 5144 -91 4653 -91 
Q 4153 -91 3862 251 
Q 3572 594 3572 1178 
Q 3572 1766 3864 2108 
Q 4156 2450 4653 2450 
z
M 1428 4353 
Q 1159 4353 1004 4120 
Q 850 3888 850 3481 
Q 850 3069 1003 2837 
Q 1156 2606 1428 2606 
Q 1700 2606 1854 2837 
Q 2009 3069 2009 3481 
Q 2009 3884 1853 4118 
Q 1697 4353 1428 4353 
z
M 4250 4750 
L 4750 4750 
L 1831 -91 
L 1331 -91 
L 4250 4750 
z
M 1428 4750 
Q 1922 4750 2215 4408 
Q 2509 4066 2509 3481 
Q 2509 2891 2217 2550 
Q 1925 2209 1428 2209 
Q 931 2209 642 2551 
Q 353 2894 353 3481 
Q 353 4063 643 4406 
Q 934 4750 1428 4750 
z
" transform="scale(0.015625)"/>
       <path id="DejaVuSans-6f" d="M 1959 3097 
Q 1497 3097 1228 2736 
Q 959 2375 959 1747 
Q 959 1119 1226 758 
Q 1494 397 1959 397 
Q 2419 397 2687 759 
Q 2956 1122 2956 1747 
Q 2956 2369 2687 2733 
Q 2419 3097 1959 3097 
z
M 1959 3584 
Q 2709 3584 3137 3096 
Q 3566 2609 3566 1747 
Q 3566 888 3137 398 
Q 2709 -91 1959 -91 
Q 1206 -91 779 398 
Q 353 888 353 1747 
Q 353 2609 779 3096 
Q 1206 3584 1959 3584 
z
" transform="scale(0.015625)"/>
       <path id="DejaVuSans-6e" d="M 3513 2113 
L 3513 0 
L 2938 0 
L 2938 2094 
Q 2938 2591 2744 2837 
Q 2550 3084 2163 3084 
Q 1697 3084 1428 2787 
Q 1159 2491 1159 1978 
L 1159 0 
L 581 0 
L 581 3500 
L 1159 3500 
L 1159 2956 
Q 1366 3272 1645 3428 
Q 1925 3584 2291 3584 
Q 2894 3584 3203 3211 
Q 3513 2838 3513 2113 
z
" transform="scale(0.015625)"/>
      </defs>
      <use xlink:href="#DejaVuSans-25"/>
      <use xlink:href="#DejaVuSans-20" x="95.019531"/>
      <use xlink:href="#DejaVuSans-65" x="126.806641"/>
      <use xlink:href="#DejaVuSans-6d" x="188.330078"/>
      <use xlink:href="#DejaVuSans-69" x="285.742188"/>
      <use xlink:href="#DejaVuSans-73" x="313.525391"/>
      <use xlink:href="#DejaVuSans-73" x="365.625"/>
      <use xlink:href="#DejaVuSans-69" x="417.724609"/>
      <use xlink:href="#DejaVuSans-6f" x="445.507812"/>
      <use xlink:href="#DejaVuSans-6e" x="506.689453"/>
     </g>
    </g>
   </g>
   <g id="line2d_8">
    <path d="M 69.218182 184.675899 
L 70.078874 181.135378 
L 70.495404 180.113687 
L 71.108429 179.152553 
L 71.837101 178.381442 
L 72.902476 177.447426 
L 73.327193 177.055598 
L 73.677201 176.619697 
L 74.074286 176.08854 
L 74.233939 175.869342 
L 74.5338 175.464525 
L 76.883561 172.576699 
L 77.662379 171.628785 
L 78.386957 171.076188 
L 79.223087 170.432049 
L 79.862722 169.980249 
L 82.09786 168.399873 
L 82.609568 168.13062 
L 83.753746 167.720432 
L 85.205972 167.373847 
L 86.09839 167.076925 
L 86.370618 166.966106 
L 87.377658 166.659492 
L 87.706175 166.548466 
L 88.099166 166.237136 
L 89.996578 164.391889 
L 90.749811 163.616519 
L 91.055812 163.352002 
L 91.790624 162.629997 
L 92.120164 162.390104 
L 93.387152 161.336309 
L 93.850759 161.003284 
L 94.092285 160.93154 
L 95.657086 160.479183 
L 96.139115 160.141125 
L 96.593511 159.79097 
L 97.022322 159.457992 
L 97.332417 159.309255 
L 97.738712 159.201742 
L 98.177758 159.10546 
L 99.17354 158.879102 
L 100.438481 158.282493 
L 101.070952 157.620263 
L 101.428124 157.279186 
L 102.274488 156.696297 
L 104.087979 155.746911 
L 105.686554 154.606356 
L 106.6414 153.958642 
L 107.133663 153.78106 
L 107.673002 153.500942 
L 108.937943 152.825911 
L 109.325818 152.560696 
L 110.287828 152.069236 
L 112.432906 150.644964 
L 112.897536 150.254551 
L 113.407197 149.927817 
L 116.907276 148.633148 
L 117.473225 148.427844 
L 117.804811 148.317238 
L 121.038803 146.392154 
L 121.524925 146.097311 
L 122.531966 145.298747 
L 123.018088 144.846004 
L 123.266778 144.599937 
L 124.866375 143.313842 
L 125.201032 143.02222 
L 126.609251 142.395376 
L 129.583295 141.263942 
L 130.123658 140.95105 
L 130.509486 140.738737 
L 133.61248 138.415053 
L 134.575514 137.715299 
L 135.672615 137.139494 
L 136.963141 136.758839 
L 137.534207 136.647813 
L 138.050008 136.46228 
L 138.387735 136.394327 
L 140.793784 135.726744 
L 141.158119 135.499528 
L 141.539853 135.207458 
L 142.122176 134.798189 
L 142.508004 134.44977 
L 142.815028 134.188672 
L 143.157872 134.001592 
L 143.589754 133.734901 
L 145.29374 132.661736 
L 146.031622 132.22524 
L 146.408239 131.917202 
L 146.769504 131.637975 
L 147.681367 130.967773 
L 151.018723 129.128026 
L 151.543735 128.963135 
L 153.488224 127.935931 
L 153.798319 127.728231 
L 155.282271 126.83727 
L 155.89939 126.455219 
L 158.195933 124.817445 
L 158.702524 124.492329 
L 161.299951 122.924833 
L 161.705223 122.77412 
L 163.283329 121.533117 
L 163.570909 121.314075 
L 166.128423 119.336489 
L 166.58282 119.09603 
L 168.182417 117.486318 
L 168.627603 117.007928 
L 170.035822 116.18174 
L 170.780868 115.885931 
L 171.008066 115.808141 
L 171.340676 115.697039 
L 171.669192 115.594055 
L 172.21979 115.467074 
L 173.082529 115.247928 
L 173.6014 115.070751 
L 175.322784 114.479694 
L 178.183229 112.192348 
L 179.049038 111.331878 
L 179.476826 111.065677 
L 181.889015 110.021853 
L 182.475432 109.853713 
L 182.944156 109.572477 
L 183.321796 109.289326 
L 183.973712 108.716893 
L 184.777092 108.157679 
L 185.907966 107.758612 
L 186.573186 107.529547 
L 187.392941 106.93749 
L 187.647772 106.731091 
L 188.947509 106.202284 
L 189.458193 106.063215 
L 189.905425 105.92825 
L 191.04858 105.706863 
L 191.567451 105.567049 
L 192.453729 105.142485 
L 194.239588 104.558879 
L 197.711012 102.403962 
L 198.173595 102.170299 
L 198.56147 101.975366 
L 199.44263 101.550184 
L 200.277737 101.239868 
L 201.210068 100.838928 
L 201.82207 100.636383 
L 205.111326 99.473967 
L 206.341471 98.737177 
L 206.795867 98.398685 
L 207.537843 97.728762 
L 207.99838 97.389874 
L 208.41491 97.079888 
L 209.127207 96.61566 
L 210.973447 95.292514 
L 211.271261 95.125153 
L 211.919083 94.837035 
L 214.277031 93.851287 
L 214.748826 93.613007 
L 216.712759 92.206784 
L 217.136453 92.028046 
L 217.614388 91.815248 
L 219.10755 91.389595 
L 222.594325 91.021098 
L 223.136735 90.836593 
L 223.638209 90.702783 
L 224.931805 90.205659 
L 225.626704 89.939171 
L 227.670464 89.828202 
L 228.851485 89.503552 
L 229.112456 89.455357 
L 229.727528 89.344444 
L 230.147128 89.132098 
L 230.666 88.788324 
L 232.197029 88.12275 
L 232.564435 87.981224 
L 233.631857 87.233048 
L 234.257163 86.845705 
L 234.525298 86.652517 
L 235.156745 86.193355 
L 236.037905 85.728981 
L 236.852544 85.387891 
L 237.624199 85.011098 
L 238.085759 84.827032 
L 238.739721 84.543598 
L 239.354794 84.198937 
L 239.925859 83.782726 
L 240.640203 83.322569 
L 241.538761 82.967485 
L 242.171232 82.814333 
L 242.760719 82.703411 
L 243.213068 82.590834 
L 243.724776 82.479926 
L 245.660054 81.702844 
L 246.194276 81.416345 
L 246.467528 81.240928 
L 247.155263 80.727052 
L 248.612606 79.439255 
L 249.127384 79.074772 
L 249.679005 78.743821 
L 251.873207 77.676981 
L 252.686822 77.452557 
L 253.212857 77.266717 
L 254.930147 76.984934 
L 255.717154 76.87421 
L 257.650385 76.201292 
L 258.605231 75.84511 
L 259.282732 75.351802 
L 259.564171 75.194287 
L 260.333779 74.771256 
L 261.197541 74.435396 
L 261.699014 74.258786 
L 263.996581 73.056127 
L 265.380238 71.949571 
L 265.875571 71.61149 
L 266.43845 71.169844 
L 267.912167 70.221175 
L 268.41057 69.866898 
L 269.768642 68.654127 
L 270.900539 67.713065 
L 273.404836 66.240498 
L 274.432345 65.890013 
L 275.112916 65.623312 
L 277.223197 65.183855 
L 278.016344 64.999486 
L 279.188154 64.617902 
L 281.990265 64.040691 
L 284.063704 63.086164 
L 285.241654 62.712617 
L 286.210828 62.520858 
L 287.142136 62.409884 
L 287.56276 62.345143 
L 290.384315 61.699075 
L 291.009622 61.422551 
L 292.060669 61.214219 
L 292.74738 61.042579 
L 294.423734 60.195475 
L 295.094071 59.752834 
L 295.538233 59.545242 
L 296.734605 59.153301 
L 298.725148 58.45044 
L 301.424917 57.426489 
L 302.565001 57.315402 
L 303.686664 57.038151 
L 304.090913 56.902889 
L 305.629106 56.434629 
L 306.318887 56.191453 
L 306.608514 56.080578 
L 307.307506 55.886442 
L 307.786465 55.775544 
L 308.336038 55.653585 
L 308.747451 55.542744 
L 310.19149 54.768643 
L 312.10937 54.127899 
L 313.021232 53.851294 
L 314.223745 53.520976 
L 314.790717 53.341239 
L 316.020862 52.868437 
L 318.677647 51.022384 
L 319.848434 50.119279 
L 322.705809 48.924717 
L 325.820061 48.150262 
L 327.291732 48.0396 
L 328.010169 47.824656 
L 328.93943 47.452702 
L 329.538128 47.191208 
L 330.223816 46.929224 
L 330.699704 46.798762 
L 331.934966 46.68768 
L 333.623601 46.184571 
L 334.119957 46.055204 
L 337.335527 45.751433 
L 337.905569 45.613412 
L 339.181768 45.278254 
L 339.989243 45.065848 
L 340.568495 44.653513 
L 343.54868 42.916736 
L 347.705792 41.787066 
L 348.488705 41.372491 
L 349.22454 41.146115 
L 349.994148 41.035079 
L 351.864951 40.760488 
L 353.194367 40.649392 
L 354.975109 40.266379 
L 356.175575 39.94213 
L 359.03295 39.620103 
L 359.789254 39.306711 
L 362.310948 37.902516 
L 362.71008 37.754463 
L 365.248149 36.294833 
L 366.448615 35.999943 
L 367.305214 35.601059 
L 367.620426 35.466518 
L 368.135203 35.300227 
L 369.945625 34.743711 
L 372.320971 33.739159 
L 372.908411 33.628402 
L 373.581818 33.48 
L 373.581818 33.48 
" clip-path="url(#p2b7bc2b826)" style="fill: none; stroke: #0000ff; stroke-width: 1.5; stroke-linecap: square"/>
   </g>
   <g id="line2d_9">
    <path d="M 69.218182 184.662778 
L 70.492334 163.907942 
L 72.201437 143.484893 
L 72.602615 139.794967 
L 74.024139 128.976961 
L 74.559385 125.835111 
L 75.133521 122.804492 
L 75.54391 120.816288 
L 77.639864 111.657575 
L 78.038996 109.997187 
L 78.647928 107.630874 
L 79.160659 105.734513 
L 79.895471 103.351631 
L 81.649604 98.815974 
L 81.93309 98.306936 
L 82.292309 97.736717 
L 82.623896 97.226229 
L 85.735077 92.544904 
L 86.324564 91.76674 
L 86.929403 91.049594 
L 87.117711 90.843986 
L 87.424736 90.509267 
L 88.170805 89.600203 
L 89.257672 88.246629 
L 89.833855 87.49729 
L 90.616767 86.473442 
L 90.898206 86.100005 
L 91.2738 85.656006 
L 91.756852 85.14525 
L 92.15189 84.722422 
L 92.485523 84.413546 
L 95.050201 82.512373 
L 96.863693 80.842844 
L 97.135921 80.630851 
L 99.470331 78.765314 
L 100.735272 77.479796 
L 102.12814 76.169623 
L 102.593793 75.7427 
L 103.752299 74.800319 
L 104.061371 74.58388 
L 104.418543 74.326784 
L 104.752176 74.070217 
L 105.829832 73.227562 
L 106.080569 73.038184 
L 106.401921 72.797294 
L 106.897254 72.403601 
L 107.417149 72.014312 
L 107.717009 71.792572 
L 108.076228 71.480247 
L 108.294215 71.331551 
L 108.580772 71.108744 
L 110.349233 69.889669 
L 110.895736 69.579389 
L 111.379812 69.330839 
L 113.711151 68.00182 
L 114.542164 67.635129 
L 116.931838 66.615568 
L 118.483336 65.896058 
L 118.739189 65.759415 
L 119.155719 65.580552 
L 122.148185 64.406784 
L 122.621003 64.295704 
L 124.160219 63.947341 
L 125.670779 63.602893 
L 126.601064 63.201009 
L 126.924463 63.091076 
L 127.279588 62.955587 
L 131.055989 61.251657 
L 131.820481 60.981895 
L 132.462162 60.61253 
L 132.6474 60.501992 
L 133.099749 60.223072 
L 133.543911 59.989325 
L 134.60724 59.523212 
L 136.079934 59.201595 
L 138.568879 58.176669 
L 138.873857 58.035446 
L 140.265702 57.55619 
L 140.70577 57.435696 
L 141.986062 57.165468 
L 144.859812 56.298193 
L 146.348881 55.816146 
L 147.075505 55.617482 
L 147.562651 55.462861 
L 149.574685 54.798258 
L 150.024987 54.651408 
L 150.951178 54.391451 
L 151.460839 54.281326 
L 151.950031 54.170625 
L 152.780021 53.92338 
L 153.225206 53.774136 
L 153.93341 53.472781 
L 155.709035 52.697576 
L 156.037551 52.586496 
L 156.501158 52.462011 
L 158.661587 51.744283 
L 159.193763 51.454318 
L 162.637555 49.911418 
L 163.483919 49.664062 
L 165.393611 49.022377 
L 165.720081 48.911694 
L 166.370973 48.699491 
L 167.691178 48.262069 
L 168.30318 48.082956 
L 168.982728 47.881938 
L 171.484978 46.96769 
L 172.205462 46.64002 
L 172.705912 46.412349 
L 173.17873 46.22596 
L 173.619821 46.11502 
L 174.032258 46.023993 
L 175.406704 45.82661 
L 176.155844 45.659772 
L 177.097386 45.451635 
L 177.587602 45.388641 
L 178.674468 45.277678 
L 179.268049 45.214614 
L 180.292488 45.103586 
L 181.28213 44.997686 
L 182.317826 44.886658 
L 183.249134 44.793609 
L 184.285853 44.682594 
L 184.858966 44.650255 
L 196.258786 44.539181 
L 197.038628 44.501244 
L 204.49523 44.390135 
L 205.066296 44.321583 
L 208.290053 43.695337 
L 208.814042 43.52745 
L 211.069648 42.823926 
L 212.578162 42.476279 
L 213.072472 42.365456 
L 215.053803 41.917024 
L 215.549136 41.805956 
L 216.282925 41.652901 
L 217.273591 41.497365 
L 219.01749 41.450095 
L 235.442278 41.339102 
L 236.197558 41.169724 
L 239.487838 40.794988 
L 262.93837 40.683943 
L 264.06515 40.559965 
L 264.567647 40.448961 
L 270.626264 38.531214 
L 271.692662 38.42021 
L 272.484786 38.331769 
L 273.435538 38.220724 
L 274.272692 38.130157 
L 275.851821 38.053245 
L 284.636816 37.942142 
L 285.474993 37.855962 
L 286.415511 37.802691 
L 294.604879 37.691745 
L 295.53414 37.594018 
L 296.542203 37.483026 
L 299.995206 37.142988 
L 308.429169 37.031955 
L 309.236644 36.948541 
L 323.610508 36.837555 
L 324.30029 36.760363 
L 325.303237 36.649313 
L 326.505749 36.516171 
L 327.48004 36.405173 
L 328.3131 36.315537 
L 329.273064 36.204533 
L 335.421741 35.182503 
L 335.86488 35.079899 
L 336.3684 34.968831 
L 341.743376 34.133143 
L 342.67366 34.128541 
L 366.309431 34.017613 
L 367.230504 33.921826 
L 368.276435 33.810839 
L 369.882173 33.640156 
L 370.856464 33.529268 
L 371.367148 33.51852 
L 373.581818 33.48 
L 373.581818 33.48 
" clip-path="url(#p2b7bc2b826)" style="fill: none; stroke: #008000; stroke-width: 1.5; stroke-linecap: square"/>
   </g>
   <g id="line2d_10">
    <path d="M 69.218182 184.68 
L 69.65518 184.171395 
L 70.106506 184.040365 
L 71.103312 183.929818 
L 72.321176 183.189421 
L 72.623084 183.078573 
L 72.839024 183.023334 
L 73.064176 182.851829 
L 73.531876 182.577706 
L 73.942266 182.484448 
L 74.308648 182.373342 
L 74.776349 182.109603 
L 75.094631 182.000134 
L 75.33718 181.789656 
L 75.598151 181.68001 
L 75.801811 181.570745 
L 76.414836 181.45987 
L 76.810898 181.347099 
L 77.060611 181.236797 
L 77.386057 180.962224 
L 77.667496 180.919375 
L 78.323506 180.808814 
L 78.799394 180.411139 
L 79.801317 179.96431 
L 79.989625 179.85349 
L 80.442998 179.60247 
L 80.564784 179.491417 
L 80.777655 179.350057 
L 81.609691 179.011115 
L 82.334269 178.90069 
L 82.871562 178.662716 
L 83.104901 178.551609 
L 83.825385 178.212981 
L 84.14162 178.102242 
L 84.808887 177.807049 
L 85.049389 177.696953 
L 85.366648 177.458882 
L 85.522207 177.348417 
L 85.989908 177.094722 
L 86.316377 176.984229 
L 86.572231 176.957537 
L 86.774867 176.846513 
L 87.045049 176.655767 
L 87.553686 176.545097 
L 88.425636 175.723874 
L 88.94553 175.612972 
L 89.189103 175.606326 
L 90.093802 175.495847 
L 90.464278 175.36962 
L 90.798935 175.258514 
L 91.351579 174.913553 
L 91.551145 174.80246 
L 91.99019 174.688542 
L 92.474265 174.577818 
L 92.864187 174.062868 
L 93.151766 173.570134 
L 93.889648 172.393019 
L 94.199743 172.282404 
L 94.546681 171.929501 
L 94.864963 171.609377 
L 95.192456 171.396143 
L 95.9068 171.2852 
L 96.401109 170.889108 
L 96.885184 170.133181 
L 97.306831 169.751076 
L 98.490923 169.04362 
L 99.121346 168.387828 
L 99.307608 168.220854 
L 99.533782 168.102051 
L 99.780426 167.9922 
L 100.395498 167.40528 
L 101.174317 167.294228 
L 101.562191 166.88711 
L 102.216153 166.77614 
L 102.452562 166.555877 
L 102.710463 166.229244 
L 103.440158 165.868959 
L 103.792213 165.729455 
L 104.211813 165.618444 
L 104.601734 165.563477 
L 104.922063 165.452439 
L 105.138003 165.377139 
L 105.360084 165.267261 
L 105.564767 165.169759 
L 106.086709 165.059922 
L 106.738624 164.359712 
L 107.004712 164.249014 
L 107.247262 164.208431 
L 107.621832 164.097829 
L 107.778414 164.070373 
L 108.133539 163.959553 
L 109.60521 163.15027 
L 109.765886 163.079542 
L 110.481253 162.968981 
L 111.584495 162.464266 
L 111.936549 162.353186 
L 112.246644 162.348792 
L 112.579254 162.238231 
L 113.002948 161.907176 
L 113.346815 161.79652 
L 114.464385 161.354427 
L 115.78766 161.243579 
L 116.600252 160.915445 
L 117.896919 160.804583 
L 118.243856 160.607151 
L 118.507898 160.496331 
L 118.817992 160.383805 
L 119.08408 160.272849 
L 119.359379 160.064008 
L 119.621373 159.918309 
L 120.007201 159.807448 
L 120.886314 159.442046 
L 121.1217 159.331007 
L 121.657969 159.094138 
L 123.75904 158.983222 
L 124.493852 158.60839 
L 124.88582 158.49798 
L 125.746512 157.982634 
L 126.783232 157.871595 
L 128.634589 156.017333 
L 128.826992 155.882196 
L 129.374519 155.771649 
L 129.633443 155.745748 
L 130.076581 155.63546 
L 130.328341 155.425064 
L 130.460362 155.277482 
L 130.747942 154.930324 
L 131.145027 154.88622 
L 132.14388 154.775277 
L 132.943167 154.544535 
L 134.123164 154.433551 
L 134.363667 154.322226 
L 134.536624 154.212143 
L 134.903007 153.957069 
L 135.94382 153.514607 
L 136.437106 153.403924 
L 136.733896 153.08687 
L 137.179082 152.822544 
L 137.464615 152.712134 
L 137.667251 152.701244 
L 137.927198 152.590697 
L 138.272089 152.305479 
L 138.524873 152.12314 
L 139.049884 151.730514 
L 139.641418 151.619721 
L 139.837914 151.60587 
L 140.054878 151.49565 
L 140.565562 151.084192 
L 141.839714 150.973727 
L 142.290017 150.715256 
L 142.602158 150.605173 
L 142.995149 150.331118 
L 143.175271 150.220202 
L 143.470014 150.018185 
L 143.710517 149.98875 
L 143.838443 149.877834 
L 144.136257 149.618544 
L 144.277489 149.507601 
L 144.587583 149.301586 
L 144.891538 148.950117 
L 145.195492 148.767122 
L 145.636584 148.405991 
L 146.064371 147.934695 
L 146.635437 147.600024 
L 146.827839 147.490104 
L 147.225947 147.118793 
L 147.530925 147.007919 
L 148.001696 146.21976 
L 148.369102 146.214233 
L 148.621885 146.103986 
L 149.637113 145.245645 
L 150.373972 144.674964 
L 150.76901 143.99566 
L 151.029981 143.688295 
L 151.403528 143.222553 
L 151.760699 143.111528 
L 153.249768 142.043528 
L 153.731797 141.718096 
L 153.888379 141.678686 
L 154.522897 141.56807 
L 154.845272 141.518207 
L 155.239287 141.408056 
L 155.431689 141.358848 
L 155.736667 141.248 
L 156.309779 140.923864 
L 156.69356 140.737908 
L 156.857306 140.627184 
L 157.159214 140.585386 
L 157.334218 140.474415 
L 158.23687 140.05653 
L 158.453834 139.983196 
L 158.6534 139.872089 
L 159.042297 139.403604 
L 159.571403 139.019357 
L 159.879451 138.703981 
L 160.704324 138.400164 
L 161.126994 138.289262 
L 161.422761 137.882949 
L 161.589578 137.735366 
L 162.297781 137.624641 
L 162.511675 137.584072 
L 162.746037 137.473674 
L 164.817429 135.878593 
L 165.086587 135.857905 
L 165.258521 135.747563 
L 165.620809 135.568553 
L 166.116142 135.457829 
L 166.315708 135.452848 
L 166.803877 135.342055 
L 167.805801 134.882754 
L 168.229494 134.771838 
L 168.595877 134.59684 
L 168.750413 134.487071 
L 168.945885 134.399954 
L 169.197645 134.288875 
L 169.414609 134.241905 
L 170.339776 134.131221 
L 170.782915 133.672657 
L 171.753112 133.260271 
L 172.071395 132.948321 
L 172.249469 132.91759 
L 172.599477 132.807506 
L 172.801089 132.69352 
L 173.236041 132.583287 
L 173.444818 132.500919 
L 173.605494 132.390767 
L 173.774357 132.330724 
L 173.976993 132.220191 
L 174.240011 132.09204 
L 174.777304 131.924889 
L 175.001432 131.813919 
L 175.448664 131.690558 
L 175.650277 131.580433 
L 175.892826 131.409461 
L 176.126165 131.298464 
L 176.43933 131.035421 
L 176.878375 130.95293 
L 177.481166 130.842069 
L 178.616134 130.420063 
L 179.083834 130.309161 
L 179.464545 129.997988 
L 180.019236 129.887482 
L 180.210614 129.743352 
L 180.361056 129.495374 
L 180.635332 129.30497 
L 180.871741 129.268999 
L 181.405963 129.158588 
L 181.613716 129.054168 
L 182.061972 128.944303 
L 182.45701 128.425519 
L 182.838744 128.315353 
L 183.175448 128.024868 
L 183.586861 127.893197 
L 183.960407 127.783769 
L 184.405593 127.224346 
L 186.109579 126.507406 
L 186.572162 126.3966 
L 187.126853 126.071194 
L 187.305951 125.974743 
L 187.851431 125.863637 
L 189.131723 125.4249 
L 189.360968 125.306002 
L 189.890074 125.195072 
L 190.378243 125.101515 
L 191.072118 124.990572 
L 191.623739 124.815246 
L 191.869359 124.704235 
L 192.096557 124.660363 
L 192.443495 124.550225 
L 193.238688 123.835236 
L 194.667375 123.724253 
L 195.153498 123.432908 
L 195.676463 123.321965 
L 195.869888 123.143474 
L 196.247528 122.824741 
L 196.656894 122.671018 
L 197.200328 122.560375 
L 197.621975 122.178365 
L 197.913648 122.00697 
L 198.243188 121.896505 
L 198.48676 121.579901 
L 198.699631 121.469081 
L 199.531667 120.975815 
L 199.686203 120.865035 
L 199.93694 120.816073 
L 200.525403 120.705212 
L 200.864154 120.601406 
L 201.420891 120.490504 
L 201.839468 119.921447 
L 201.979676 119.810818 
L 202.184359 119.694307 
L 202.70016 119.583678 
L 203.062449 119.424223 
L 203.519916 119.313581 
L 203.740973 119.278715 
L 204.003991 119.168018 
L 204.32432 119.101343 
L 204.952697 118.990604 
L 205.581074 118.644621 
L 205.757101 118.53365 
L 206.098922 118.424127 
L 206.430508 118.313211 
L 206.882857 118.160838 
L 207.272779 118.050114 
L 207.608459 117.985404 
L 209.04124 117.874338 
L 209.785263 117.30902 
L 210.135271 116.988759 
L 210.726804 116.399943 
L 211.441148 115.532404 
L 211.972301 115.413301 
L 212.722464 115.303996 
L 213.185047 114.63086 
L 213.577015 114.384193 
L 213.771464 114.290785 
L 214.073372 114.179746 
L 215.155121 113.837515 
L 215.345477 113.649636 
L 215.819318 113.538733 
L 216.997268 112.504712 
L 217.176366 112.410459 
L 217.816 112.299775 
L 217.986911 112.286456 
L 218.496571 112.175554 
L 218.853743 111.741908 
L 218.993951 111.703153 
L 219.260039 111.592633 
L 219.563993 111.510538 
L 220.347929 111.066411 
L 220.721476 110.724276 
L 220.94151 110.647803 
L 221.27105 110.53686 
L 221.723399 110.368508 
L 221.90659 110.257456 
L 222.10411 110.143469 
L 222.367127 110.032677 
L 222.547248 109.967953 
L 223.257498 109.857256 
L 224.116144 109.127106 
L 224.359716 108.970872 
L 224.950227 108.665786 
L 225.301258 108.265941 
L 225.509011 108.20845 
L 226.008438 108.098298 
L 226.393242 107.770355 
L 227.735963 107.008601 
L 228.016378 106.847617 
L 228.229249 106.672906 
L 228.547531 106.562072 
L 228.752214 106.289218 
L 229.256757 105.706433 
L 229.771535 105.595449 
L 229.99771 105.558387 
L 231.251393 105.447307 
L 231.720117 105.160561 
L 232.088547 104.9921 
L 232.674964 104.881894 
L 232.850991 104.864822 
L 233.04544 104.754412 
L 233.422057 104.239312 
L 233.870312 103.769148 
L 234.305264 103.658178 
L 235.674593 103.372019 
L 235.96729 103.261308 
L 236.438061 102.87979 
L 236.986611 102.768956 
L 237.667182 102.490125 
L 238.240295 102.3794 
L 238.628169 102.219849 
L 238.982271 102.108756 
L 239.678193 101.277285 
L 239.881852 101.114022 
L 241.708648 100.336221 
L 242.334978 100.225401 
L 242.761742 99.558979 
L 243.521116 99.139784 
L 243.982677 99.028977 
L 244.278443 98.88396 
L 244.885329 98.773235 
L 245.267062 98.320498 
L 245.567946 98.012409 
L 245.852456 97.730849 
L 246.154363 97.486693 
L 246.484926 97.375722 
L 247.314916 97.068944 
L 247.602496 96.95867 
L 248.473422 96.055378 
L 248.959544 95.898502 
L 249.257358 95.78745 
L 249.421104 95.610651 
L 249.814095 95.374027 
L 250.03413 95.262975 
L 250.210157 95.093559 
L 251.388108 93.423737 
L 251.655219 92.718397 
L 252.110639 92.434476 
L 252.967237 92.32356 
L 253.482015 91.983144 
L 253.841234 91.685658 
L 254.171797 91.50658 
L 254.471657 91.32218 
L 254.79301 91.211729 
L 255.357935 90.624536 
L 256.152105 90.031653 
L 256.364975 89.806437 
L 256.620829 89.670386 
L 257.194965 89.55947 
L 257.912379 89.240915 
L 258.705525 89.130136 
L 258.997199 88.972182 
L 259.30627 88.861184 
L 259.500719 88.759371 
L 259.858914 88.648523 
L 260.319451 88.385453 
L 260.652061 88.274811 
L 260.856744 88.053716 
L 261.278391 87.702615 
L 261.729717 87.591699 
L 262.447131 87.26381 
L 263.116444 87.15329 
L 263.712072 86.639214 
L 263.952574 86.566289 
L 264.423345 86.456219 
L 264.630075 86.345563 
L 264.975989 86.234497 
L 265.327021 86.193286 
L 265.531704 86.083421 
L 265.762996 85.957535 
L 266.050575 85.846592 
L 266.19897 85.81305 
L 266.371928 85.703554 
L 266.580704 85.465443 
L 266.90308 85.355387 
L 267.356453 84.786603 
L 267.890676 84.342722 
L 268.677682 83.950996 
L 269.300941 83.840108 
L 269.752268 83.462274 
L 269.917037 83.301918 
L 270.528016 82.470774 
L 271.11648 82.359899 
L 271.250547 82.177301 
L 271.543244 81.966673 
L 272.154223 81.714765 
L 273.183778 81.604437 
L 273.407906 81.556443 
L 273.862302 81.445528 
L 274.735275 80.964242 
L 275.058675 80.854214 
L 275.33909 80.686039 
L 275.828283 80.576461 
L 276.041153 80.450193 
L 276.329756 80.339769 
L 276.825089 80.130983 
L 277.322469 80.021637 
L 277.685781 79.578574 
L 278.172927 79.31444 
L 279.040783 79.203716 
L 282.51937 77.222817 
L 282.736334 77.05482 
L 283.109881 76.944 
L 283.865161 76.340036 
L 284.225403 76.052076 
L 284.454648 75.826887 
L 284.705385 75.695039 
L 285.534351 75.584137 
L 287.046958 74.844681 
L 287.414364 74.733615 
L 287.877972 74.452396 
L 288.200347 74.342694 
L 288.39889 74.248291 
L 288.577987 74.137934 
L 288.816443 73.977456 
L 289.28312 73.87103 
L 289.814273 73.760196 
L 290.712831 73.180836 
L 290.876578 73.139966 
L 291.532587 73.028887 
L 293.094318 72.348791 
L 293.427951 72.026361 
L 293.566112 71.915582 
L 294.314229 71.745387 
L 294.538357 71.635249 
L 294.729735 71.529424 
L 295.0429 71.411385 
L 295.298754 71.153309 
L 295.550514 71.006791 
L 295.715284 70.896694 
L 296.00184 70.739627 
L 296.193219 70.525315 
L 296.410183 70.328101 
L 296.665013 70.243795 
L 296.91575 70.133767 
L 297.563572 69.210607 
L 297.843987 69.128321 
L 298.466224 69.017664 
L 298.703656 68.757938 
L 298.869449 68.739161 
L 299.061851 68.628067 
L 299.590957 68.352798 
L 299.824295 68.241991 
L 300.465977 67.704225 
L 301.260147 67.593664 
L 303.234314 65.927664 
L 303.557714 65.816926 
L 304.118545 65.458388 
L 305.300589 65.089874 
L 305.607614 64.979477 
L 306.036425 64.792771 
L 306.64024 64.682196 
L 307.724036 64.188411 
L 308.229603 64.078137 
L 308.677859 63.811464 
L 308.956228 63.70044 
L 309.210035 63.452258 
L 309.406531 63.33733 
L 309.773937 63.296842 
L 310.251871 63.186172 
L 310.829077 63.025039 
L 311.328504 62.914041 
L 311.909804 62.489224 
L 312.363177 62.278964 
L 312.557625 62.218662 
L 313.520659 62.107787 
L 313.82359 62.088724 
L 313.953564 61.978163 
L 314.141872 61.883431 
L 314.277986 61.772679 
L 315.032243 61.27461 
L 315.49278 61.163762 
L 316.4159 60.713972 
L 316.633888 60.616103 
L 317.006411 60.506156 
L 317.596921 59.936949 
L 318.033919 59.829486 
L 318.394162 59.71872 
L 318.844464 59.21148 
L 319.444185 59.100537 
L 319.724601 59.037915 
L 319.901652 58.927518 
L 320.202536 58.630169 
L 320.522865 58.519799 
L 320.860592 58.384252 
L 321.154312 58.273568 
L 321.422447 58.169285 
L 321.784736 58.058819 
L 322.09483 57.836265 
L 322.562531 57.726441 
L 322.744699 57.611745 
L 323.610508 57.500857 
L 323.845894 57.375299 
L 324.373976 57.264492 
L 324.789482 56.786878 
L 325.67883 56.38223 
L 325.97562 56.271642 
L 326.199748 56.110495 
L 326.534405 56.023951 
L 326.855757 55.912953 
L 327.643787 55.482145 
L 328.083855 55.371284 
L 328.463542 55.026952 
L 328.709162 54.960563 
L 329.016186 54.850084 
L 329.369265 54.755994 
L 330.278057 54.646116 
L 330.68947 54.155046 
L 331.449867 54.044335 
L 331.893006 53.78263 
L 332.166258 53.736738 
L 333.042301 53.626014 
L 333.442456 53.556801 
L 333.784277 53.446253 
L 333.978726 53.314063 
L 334.459731 53.203789 
L 334.74117 53.068324 
L 335.606979 52.957285 
L 336.996777 52.359613 
L 337.167687 52.249516 
L 338.078527 50.876934 
L 338.490963 50.363253 
L 339.140831 49.824204 
L 339.460137 49.596109 
L 339.720084 49.42219 
L 340.148895 49.31242 
L 340.37814 49.16305 
L 342.262247 49.052625 
L 342.816938 48.7377 
L 343.149548 48.626648 
L 343.953952 48.152104 
L 344.116675 48.088077 
L 344.605868 47.977297 
L 345.031608 47.712263 
L 345.231174 47.603517 
L 345.670219 47.492533 
L 346.610738 46.858752 
L 347.493945 46.750238 
L 347.685324 46.555972 
L 348.157118 46.34776 
L 348.519407 46.237294 
L 348.788565 46.086928 
L 349.593993 45.975876 
L 350.025874 45.826341 
L 350.414772 45.715821 
L 350.769897 45.340021 
L 351.202801 44.870199 
L 351.534388 44.69183 
L 352.195514 44.58146 
L 352.640699 44.215171 
L 353.324341 44.130183 
L 354.456238 44.01954 
L 354.871744 43.943108 
L 355.308742 43.832793 
L 355.867527 43.430874 
L 356.003641 43.320791 
L 356.221629 43.242339 
L 357.204107 43.131437 
L 357.659527 42.843081 
L 357.925615 42.733516 
L 358.145649 42.563922 
L 358.45165 42.503102 
L 358.634841 42.393373 
L 358.884555 42.17232 
L 359.075933 42.061267 
L 359.369653 41.989516 
L 360.007241 41.878519 
L 360.314265 41.451873 
L 361.718391 39.905017 
L 362.5842 39.793937 
L 362.756134 39.523785 
L 363.009941 39.249416 
L 363.306731 38.884341 
L 363.518578 38.770383 
L 364.568602 38.659399 
L 364.959546 38.608567 
L 365.201072 38.498143 
L 365.362772 38.232644 
L 365.546987 38.072206 
L 365.893924 37.961932 
L 366.108841 37.628871 
L 366.739265 36.727395 
L 367.00433 36.44013 
L 367.26223 36.118382 
L 367.643964 35.652053 
L 368.049236 35.541683 
L 368.274388 35.319593 
L 368.962123 35.208813 
L 371.375335 34.222827 
L 371.762186 33.758422 
L 371.930026 33.749729 
L 372.692471 33.638677 
L 373.130492 33.530463 
L 373.581818 33.48 
L 373.581818 33.48 
" clip-path="url(#p2b7bc2b826)" style="fill: none; stroke: #bfbf00; stroke-width: 1.5; stroke-linecap: square"/>
   </g>
   <g id="patch_3">
    <path d="M 54 192.24 
L 54 25.92 
" style="fill: none; stroke: #000000; stroke-width: 2; stroke-linejoin: miter; stroke-linecap: square"/>
   </g>
   <g id="patch_4">
    <path d="M 388.8 192.24 
L 388.8 25.92 
" style="fill: none; stroke: #000000; stroke-width: 2; stroke-linejoin: miter; stroke-linecap: square"/>
   </g>
   <g id="patch_5">
    <path d="M 54 192.24 
L 388.8 192.24 
" style="fill: none; stroke: #000000; stroke-width: 2; stroke-linejoin: miter; stroke-linecap: square"/>
   </g>
   <g id="patch_6">
    <path d="M 54 25.92 
L 388.8 25.92 
" style="fill: none; stroke: #000000; stroke-width: 2; stroke-linejoin: miter; stroke-linecap: square"/>
   </g>
   <g id="text_10">
    <!-- ON to OFF rate -->
    <g transform="translate(143.055234 19.92) scale(0.21 -0.21)">
     <defs>
      <path id="DejaVuSans-4f" d="M 2522 4238 
Q 1834 4238 1429 3725 
Q 1025 3213 1025 2328 
Q 1025 1447 1429 934 
Q 1834 422 2522 422 
Q 3209 422 3611 934 
Q 4013 1447 4013 2328 
Q 4013 3213 3611 3725 
Q 3209 4238 2522 4238 
z
M 2522 4750 
Q 3503 4750 4090 4092 
Q 4678 3434 4678 2328 
Q 4678 1225 4090 567 
Q 3503 -91 2522 -91 
Q 1538 -91 948 565 
Q 359 1222 359 2328 
Q 359 3434 948 4092 
Q 1538 4750 2522 4750 
z
" transform="scale(0.015625)"/>
      <path id="DejaVuSans-4e" d="M 628 4666 
L 1478 4666 
L 3547 763 
L 3547 4666 
L 4159 4666 
L 4159 0 
L 3309 0 
L 1241 3903 
L 1241 0 
L 628 0 
L 628 4666 
z
" transform="scale(0.015625)"/>
      <path id="DejaVuSans-46" d="M 628 4666 
L 3309 4666 
L 3309 4134 
L 1259 4134 
L 1259 2759 
L 3109 2759 
L 3109 2228 
L 1259 2228 
L 1259 0 
L 628 0 
L 628 4666 
z
" transform="scale(0.015625)"/>
      <path id="DejaVuSans-72" d="M 2631 2963 
Q 2534 3019 2420 3045 
Q 2306 3072 2169 3072 
Q 1681 3072 1420 2755 
Q 1159 2438 1159 1844 
L 1159 0 
L 581 0 
L 581 3500 
L 1159 3500 
L 1159 2956 
Q 1341 3275 1631 3429 
Q 1922 3584 2338 3584 
Q 2397 3584 2469 3576 
Q 2541 3569 2628 3553 
L 2631 2963 
z
" transform="scale(0.015625)"/>
      <path id="DejaVuSans-61" d="M 2194 1759 
Q 1497 1759 1228 1600 
Q 959 1441 959 1056 
Q 959 750 1161 570 
Q 1363 391 1709 391 
Q 2188 391 2477 730 
Q 2766 1069 2766 1631 
L 2766 1759 
L 2194 1759 
z
M 3341 1997 
L 3341 0 
L 2766 0 
L 2766 531 
Q 2569 213 2275 61 
Q 1981 -91 1556 -91 
Q 1019 -91 701 211 
Q 384 513 384 1019 
Q 384 1609 779 1909 
Q 1175 2209 1959 2209 
L 2766 2209 
L 2766 2266 
Q 2766 2663 2505 2880 
Q 2244 3097 1772 3097 
Q 1472 3097 1187 3025 
Q 903 2953 641 2809 
L 641 3341 
Q 956 3463 1253 3523 
Q 1550 3584 1831 3584 
Q 2591 3584 2966 3190 
Q 3341 2797 3341 1997 
z
" transform="scale(0.015625)"/>
     </defs>
     <use xlink:href="#DejaVuSans-4f"/>
     <use xlink:href="#DejaVuSans-4e" x="78.710938"/>
     <use xlink:href="#DejaVuSans-20" x="153.515625"/>
     <use xlink:href="#DejaVuSans-74" x="185.302734"/>
     <use xlink:href="#DejaVuSans-6f" x="224.511719"/>
     <use xlink:href="#DejaVuSans-20" x="285.693359"/>
     <use xlink:href="#DejaVuSans-4f" x="317.480469"/>
     <use xlink:href="#DejaVuSans-46" x="396.191406"/>
     <use xlink:href="#DejaVuSans-46" x="453.710938"/>
     <use xlink:href="#DejaVuSans-20" x="511.230469"/>
     <use xlink:href="#DejaVuSans-72" x="543.017578"/>
     <use xlink:href="#DejaVuSans-61" x="584.130859"/>
     <use xlink:href="#DejaVuSans-74" x="645.410156"/>
     <use xlink:href="#DejaVuSans-65" x="684.619141"/>
    </g>
   </g>
   <g id="legend_1">
    <g id="patch_7">
     <path d="M 318.4375 187.24 
L 381.8 187.24 
Q 383.8 187.24 383.8 185.24 
L 383.8 142.205625 
Q 383.8 140.205625 381.8 140.205625 
L 318.4375 140.205625 
Q 316.4375 140.205625 316.4375 142.205625 
L 316.4375 185.24 
Q 316.4375 187.24 318.4375 187.24 
z
" style="fill: #ffffff; opacity: 0.8; stroke: #cccccc; stroke-linejoin: miter"/>
    </g>
    <g id="line2d_11">
     <path d="M 320.4375 148.304062 
L 330.4375 148.304062 
L 340.4375 148.304062 
" style="fill: none; stroke: #0000ff; stroke-width: 1.5; stroke-linecap: square"/>
    </g>
    <g id="text_11">
     <!-- x 0.1 -->
     <g transform="translate(348.4375 151.804062) scale(0.1 -0.1)">
      <defs>
       <path id="DejaVuSans-78" d="M 3513 3500 
L 2247 1797 
L 3578 0 
L 2900 0 
L 1881 1375 
L 863 0 
L 184 0 
L 1544 1831 
L 300 3500 
L 978 3500 
L 1906 2253 
L 2834 3500 
L 3513 3500 
z
" transform="scale(0.015625)"/>
      </defs>
      <use xlink:href="#DejaVuSans-78"/>
      <use xlink:href="#DejaVuSans-20" x="59.179688"/>
      <use xlink:href="#DejaVuSans-30" x="90.966797"/>
      <use xlink:href="#DejaVuSans-2e" x="154.589844"/>
      <use xlink:href="#DejaVuSans-31" x="186.376953"/>
     </g>
    </g>
    <g id="line2d_12">
     <path d="M 320.4375 162.982188 
L 330.4375 162.982188 
L 340.4375 162.982188 
" style="fill: none; stroke: #008000; stroke-width: 1.5; stroke-linecap: square"/>
    </g>
    <g id="text_12">
     <!-- x 0.01 -->
     <g transform="translate(348.4375 166.482188) scale(0.1 -0.1)">
      <use xlink:href="#DejaVuSans-78"/>
      <use xlink:href="#DejaVuSans-20" x="59.179688"/>
      <use xlink:href="#DejaVuSans-30" x="90.966797"/>
      <use xlink:href="#DejaVuSans-2e" x="154.589844"/>
      <use xlink:href="#DejaVuSans-30" x="186.376953"/>
      <use xlink:href="#DejaVuSans-31" x="250"/>
     </g>
    </g>
    <g id="line2d_13">
     <path d="M 320.4375 177.660313 
L 330.4375 177.660313 
L 340.4375 177.660313 
" style="fill: none; stroke: #bfbf00; stroke-width: 1.5; stroke-linecap: square"/>
    </g>
    <g id="text_13">
     <!-- x 1 -->
     <g transform="translate(348.4375 181.160313) scale(0.1 -0.1)">
      <use xlink:href="#DejaVuSans-78"/>
      <use xlink:href="#DejaVuSans-20" x="59.179688"/>
      <use xlink:href="#DejaVuSans-31" x="90.966797"/>
     </g>
    </g>
   </g>
  </g>
 </g>
 <defs>
  <clipPath id="p2b7bc2b826">
   <rect x="54" y="25.92" width="334.8" height="166.32"/>
  </clipPath>
 </defs>
</svg>
