<?xml version="1.0" encoding="utf-8" standalone="no"?>
<!DOCTYPE svg PUBLIC "-//W3C//DTD SVG 1.1//EN"
  "http://www.w3.org/Graphics/SVG/1.1/DTD/svg11.dtd">
<svg xmlns:xlink="http://www.w3.org/1999/xlink" width="432pt" height="216pt" viewBox="0 0 432 216" xmlns="http://www.w3.org/2000/svg" version="1.1">
 <metadata>
  <rdf:RDF xmlns:dc="http://purl.org/dc/elements/1.1/" xmlns:cc="http://creativecommons.org/ns#" xmlns:rdf="http://www.w3.org/1999/02/22-rdf-syntax-ns#">
   <cc:Work>
    <dc:type rdf:resource="http://purl.org/dc/dcmitype/StillImage"/>
    <dc:date>2024-09-18T09:08:28.696665</dc:date>
    <dc:format>image/svg+xml</dc:format>
    <dc:creator>
     <cc:Agent>
      <dc:title>Matplotlib v3.8.4, https://matplotlib.org/</dc:title>
     </cc:Agent>
    </dc:creator>
   </cc:Work>
  </rdf:RDF>
 </metadata>
 <defs>
  <style type="text/css">*{stroke-linejoin: round; stroke-linecap: butt}</style>
 </defs>
 <g id="figure_1">
  <g id="patch_1">
   <path d="M 0 216 
L 432 216 
L 432 0 
L 0 0 
z
" style="fill: #ffffff"/>
  </g>
  <g id="axes_1">
   <g id="patch_2">
    <path d="M 54 192.24 
L 388.8 192.24 
L 388.8 25.92 
L 54 25.92 
z
" style="fill: #ffffff"/>
   </g>
   <g id="matplotlib.axis_1">
    <g id="xtick_1">
     <g id="line2d_1">
      <defs>
       <path id="m6a9780ba57" d="M 0 0 
L 0 6 
" style="stroke: #000000; stroke-width: 2"/>
      </defs>
      <g>
       <use xlink:href="#m6a9780ba57" x="69.218182" y="192.24" style="stroke: #000000; stroke-width: 2"/>
      </g>
     </g>
     <g id="text_1">
      <!-- 0 -->
      <g transform="translate(62.537557 217.696719) scale(0.21 -0.21)">
       <defs>
        <path id="DejaVuSans-30" d="M 2034 4250 
Q 1547 4250 1301 3770 
Q 1056 3291 1056 2328 
Q 1056 1369 1301 889 
Q 1547 409 2034 409 
Q 2525 409 2770 889 
Q 3016 1369 3016 2328 
Q 3016 3291 2770 3770 
Q 2525 4250 2034 4250 
z
M 2034 4750 
Q 2819 4750 3233 4129 
Q 3647 3509 3647 2328 
Q 3647 1150 3233 529 
Q 2819 -91 2034 -91 
Q 1250 -91 836 529 
Q 422 1150 422 2328 
Q 422 3509 836 4129 
Q 1250 4750 2034 4750 
z
" transform="scale(0.015625)"/>
       </defs>
       <use xlink:href="#DejaVuSans-30"/>
      </g>
     </g>
    </g>
    <g id="xtick_2">
     <g id="line2d_2">
      <g>
       <use xlink:href="#m6a9780ba57" x="170.672727" y="192.24" style="stroke: #000000; stroke-width: 2"/>
      </g>
     </g>
     <g id="text_2">
      <!-- 100 -->
      <g transform="translate(150.630852 217.696719) scale(0.21 -0.21)">
       <defs>
        <path id="DejaVuSans-31" d="M 794 531 
L 1825 531 
L 1825 4091 
L 703 3866 
L 703 4441 
L 1819 4666 
L 2450 4666 
L 2450 531 
L 3481 531 
L 3481 0 
L 794 0 
L 794 531 
z
" transform="scale(0.015625)"/>
       </defs>
       <use xlink:href="#DejaVuSans-31"/>
       <use xlink:href="#DejaVuSans-30" x="63.623047"/>
       <use xlink:href="#DejaVuSans-30" x="127.246094"/>
      </g>
     </g>
    </g>
    <g id="xtick_3">
     <g id="line2d_3">
      <g>
       <use xlink:href="#m6a9780ba57" x="272.127273" y="192.24" style="stroke: #000000; stroke-width: 2"/>
      </g>
     </g>
     <g id="text_3">
      <!-- 200 -->
      <g transform="translate(252.085398 217.696719) scale(0.21 -0.21)">
       <defs>
        <path id="DejaVuSans-32" d="M 1228 531 
L 3431 531 
L 3431 0 
L 469 0 
L 469 531 
Q 828 903 1448 1529 
Q 2069 2156 2228 2338 
Q 2531 2678 2651 2914 
Q 2772 3150 2772 3378 
Q 2772 3750 2511 3984 
Q 2250 4219 1831 4219 
Q 1534 4219 1204 4116 
Q 875 4013 500 3803 
L 500 4441 
Q 881 4594 1212 4672 
Q 1544 4750 1819 4750 
Q 2544 4750 2975 4387 
Q 3406 4025 3406 3419 
Q 3406 3131 3298 2873 
Q 3191 2616 2906 2266 
Q 2828 2175 2409 1742 
Q 1991 1309 1228 531 
z
" transform="scale(0.015625)"/>
       </defs>
       <use xlink:href="#DejaVuSans-32"/>
       <use xlink:href="#DejaVuSans-30" x="63.623047"/>
       <use xlink:href="#DejaVuSans-30" x="127.246094"/>
      </g>
     </g>
    </g>
    <g id="xtick_4">
     <g id="line2d_4">
      <g>
       <use xlink:href="#m6a9780ba57" x="373.581818" y="192.24" style="stroke: #000000; stroke-width: 2"/>
      </g>
     </g>
     <g id="text_4">
      <!-- 300 -->
      <g transform="translate(353.539943 217.696719) scale(0.21 -0.21)">
       <defs>
        <path id="DejaVuSans-33" d="M 2597 2516 
Q 3050 2419 3304 2112 
Q 3559 1806 3559 1356 
Q 3559 666 3084 287 
Q 2609 -91 1734 -91 
Q 1441 -91 1130 -33 
Q 819 25 488 141 
L 488 750 
Q 750 597 1062 519 
Q 1375 441 1716 441 
Q 2309 441 2620 675 
Q 2931 909 2931 1356 
Q 2931 1769 2642 2001 
Q 2353 2234 1838 2234 
L 1294 2234 
L 1294 2753 
L 1863 2753 
Q 2328 2753 2575 2939 
Q 2822 3125 2822 3475 
Q 2822 3834 2567 4026 
Q 2313 4219 1838 4219 
Q 1578 4219 1281 4162 
Q 984 4106 628 3988 
L 628 4550 
Q 988 4650 1302 4700 
Q 1616 4750 1894 4750 
Q 2613 4750 3031 4423 
Q 3450 4097 3450 3541 
Q 3450 3153 3228 2886 
Q 3006 2619 2597 2516 
z
" transform="scale(0.015625)"/>
       </defs>
       <use xlink:href="#DejaVuSans-33"/>
       <use xlink:href="#DejaVuSans-30" x="63.623047"/>
       <use xlink:href="#DejaVuSans-30" x="127.246094"/>
      </g>
     </g>
    </g>
    <g id="text_5">
     <!-- time (s) -->
     <g transform="translate(180.678047 242.020781) scale(0.21 -0.21)">
      <defs>
       <path id="DejaVuSans-74" d="M 1172 4494 
L 1172 3500 
L 2356 3500 
L 2356 3053 
L 1172 3053 
L 1172 1153 
Q 1172 725 1289 603 
Q 1406 481 1766 481 
L 2356 481 
L 2356 0 
L 1766 0 
Q 1100 0 847 248 
Q 594 497 594 1153 
L 594 3053 
L 172 3053 
L 172 3500 
L 594 3500 
L 594 4494 
L 1172 4494 
z
" transform="scale(0.015625)"/>
       <path id="DejaVuSans-69" d="M 603 3500 
L 1178 3500 
L 1178 0 
L 603 0 
L 603 3500 
z
M 603 4863 
L 1178 4863 
L 1178 4134 
L 603 4134 
L 603 4863 
z
" transform="scale(0.015625)"/>
       <path id="DejaVuSans-6d" d="M 3328 2828 
Q 3544 3216 3844 3400 
Q 4144 3584 4550 3584 
Q 5097 3584 5394 3201 
Q 5691 2819 5691 2113 
L 5691 0 
L 5113 0 
L 5113 2094 
Q 5113 2597 4934 2840 
Q 4756 3084 4391 3084 
Q 3944 3084 3684 2787 
Q 3425 2491 3425 1978 
L 3425 0 
L 2847 0 
L 2847 2094 
Q 2847 2600 2669 2842 
Q 2491 3084 2119 3084 
Q 1678 3084 1418 2786 
Q 1159 2488 1159 1978 
L 1159 0 
L 581 0 
L 581 3500 
L 1159 3500 
L 1159 2956 
Q 1356 3278 1631 3431 
Q 1906 3584 2284 3584 
Q 2666 3584 2933 3390 
Q 3200 3197 3328 2828 
z
" transform="scale(0.015625)"/>
       <path id="DejaVuSans-65" d="M 3597 1894 
L 3597 1613 
L 953 1613 
Q 991 1019 1311 708 
Q 1631 397 2203 397 
Q 2534 397 2845 478 
Q 3156 559 3463 722 
L 3463 178 
Q 3153 47 2828 -22 
Q 2503 -91 2169 -91 
Q 1331 -91 842 396 
Q 353 884 353 1716 
Q 353 2575 817 3079 
Q 1281 3584 2069 3584 
Q 2775 3584 3186 3129 
Q 3597 2675 3597 1894 
z
M 3022 2063 
Q 3016 2534 2758 2815 
Q 2500 3097 2075 3097 
Q 1594 3097 1305 2825 
Q 1016 2553 972 2059 
L 3022 2063 
z
" transform="scale(0.015625)"/>
       <path id="DejaVuSans-20" transform="scale(0.015625)"/>
       <path id="DejaVuSans-28" d="M 1984 4856 
Q 1566 4138 1362 3434 
Q 1159 2731 1159 2009 
Q 1159 1288 1364 580 
Q 1569 -128 1984 -844 
L 1484 -844 
Q 1016 -109 783 600 
Q 550 1309 550 2009 
Q 550 2706 781 3412 
Q 1013 4119 1484 4856 
L 1984 4856 
z
" transform="scale(0.015625)"/>
       <path id="DejaVuSans-73" d="M 2834 3397 
L 2834 2853 
Q 2591 2978 2328 3040 
Q 2066 3103 1784 3103 
Q 1356 3103 1142 2972 
Q 928 2841 928 2578 
Q 928 2378 1081 2264 
Q 1234 2150 1697 2047 
L 1894 2003 
Q 2506 1872 2764 1633 
Q 3022 1394 3022 966 
Q 3022 478 2636 193 
Q 2250 -91 1575 -91 
Q 1294 -91 989 -36 
Q 684 19 347 128 
L 347 722 
Q 666 556 975 473 
Q 1284 391 1588 391 
Q 1994 391 2212 530 
Q 2431 669 2431 922 
Q 2431 1156 2273 1281 
Q 2116 1406 1581 1522 
L 1381 1569 
Q 847 1681 609 1914 
Q 372 2147 372 2553 
Q 372 3047 722 3315 
Q 1072 3584 1716 3584 
Q 2034 3584 2315 3537 
Q 2597 3491 2834 3397 
z
" transform="scale(0.015625)"/>
       <path id="DejaVuSans-29" d="M 513 4856 
L 1013 4856 
Q 1481 4119 1714 3412 
Q 1947 2706 1947 2009 
Q 1947 1309 1714 600 
Q 1481 -109 1013 -844 
L 513 -844 
Q 928 -128 1133 580 
Q 1338 1288 1338 2009 
Q 1338 2731 1133 3434 
Q 928 4138 513 4856 
z
" transform="scale(0.015625)"/>
      </defs>
      <use xlink:href="#DejaVuSans-74"/>
      <use xlink:href="#DejaVuSans-69" x="39.208984"/>
      <use xlink:href="#DejaVuSans-6d" x="66.992188"/>
      <use xlink:href="#DejaVuSans-65" x="164.404297"/>
      <use xlink:href="#DejaVuSans-20" x="225.927734"/>
      <use xlink:href="#DejaVuSans-28" x="257.714844"/>
      <use xlink:href="#DejaVuSans-73" x="296.728516"/>
      <use xlink:href="#DejaVuSans-29" x="348.828125"/>
     </g>
    </g>
   </g>
   <g id="matplotlib.axis_2">
    <g id="ytick_1">
     <g id="line2d_5">
      <defs>
       <path id="m45dc69d742" d="M 0 0 
L -6 0 
" style="stroke: #000000; stroke-width: 2"/>
      </defs>
      <g>
       <use xlink:href="#m45dc69d742" x="54" y="184.68" style="stroke: #000000; stroke-width: 2"/>
      </g>
     </g>
     <g id="text_6">
      <!-- 0.0 -->
      <g transform="translate(11.103437 192.658359) scale(0.21 -0.21)">
       <defs>
        <path id="DejaVuSans-2e" d="M 684 794 
L 1344 794 
L 1344 0 
L 684 0 
L 684 794 
z
" transform="scale(0.015625)"/>
       </defs>
       <use xlink:href="#DejaVuSans-30"/>
       <use xlink:href="#DejaVuSans-2e" x="63.623047"/>
       <use xlink:href="#DejaVuSans-30" x="95.410156"/>
      </g>
     </g>
    </g>
    <g id="ytick_2">
     <g id="line2d_6">
      <g>
       <use xlink:href="#m45dc69d742" x="54" y="109.08" style="stroke: #000000; stroke-width: 2"/>
      </g>
     </g>
     <g id="text_7">
      <!-- 0.5 -->
      <g transform="translate(11.103437 117.058359) scale(0.21 -0.21)">
       <defs>
        <path id="DejaVuSans-35" d="M 691 4666 
L 3169 4666 
L 3169 4134 
L 1269 4134 
L 1269 2991 
Q 1406 3038 1543 3061 
Q 1681 3084 1819 3084 
Q 2600 3084 3056 2656 
Q 3513 2228 3513 1497 
Q 3513 744 3044 326 
Q 2575 -91 1722 -91 
Q 1428 -91 1123 -41 
Q 819 9 494 109 
L 494 744 
Q 775 591 1075 516 
Q 1375 441 1709 441 
Q 2250 441 2565 725 
Q 2881 1009 2881 1497 
Q 2881 1984 2565 2268 
Q 2250 2553 1709 2553 
Q 1456 2553 1204 2497 
Q 953 2441 691 2322 
L 691 4666 
z
" transform="scale(0.015625)"/>
       </defs>
       <use xlink:href="#DejaVuSans-30"/>
       <use xlink:href="#DejaVuSans-2e" x="63.623047"/>
       <use xlink:href="#DejaVuSans-35" x="95.410156"/>
      </g>
     </g>
    </g>
    <g id="ytick_3">
     <g id="line2d_7">
      <g>
       <use xlink:href="#m45dc69d742" x="54" y="33.48" style="stroke: #000000; stroke-width: 2"/>
      </g>
     </g>
     <g id="text_8">
      <!-- 1.0 -->
      <g transform="translate(11.103437 41.458359) scale(0.21 -0.21)">
       <use xlink:href="#DejaVuSans-31"/>
       <use xlink:href="#DejaVuSans-2e" x="63.623047"/>
       <use xlink:href="#DejaVuSans-30" x="95.410156"/>
      </g>
     </g>
    </g>
    <g id="text_9">
     <!-- % emission -->
     <g transform="translate(2.736094 168.934922) rotate(-90) scale(0.21 -0.21)">
      <defs>
       <path id="DejaVuSans-25" d="M 4653 2053 
Q 4381 2053 4226 1822 
Q 4072 1591 4072 1178 
Q 4072 772 4226 539 
Q 4381 306 4653 306 
Q 4919 306 5073 539 
Q 5228 772 5228 1178 
Q 5228 1588 5073 1820 
Q 4919 2053 4653 2053 
z
M 4653 2450 
Q 5147 2450 5437 2106 
Q 5728 1763 5728 1178 
Q 5728 594 5436 251 
Q 5144 -91 4653 -91 
Q 4153 -91 3862 251 
Q 3572 594 3572 1178 
Q 3572 1766 3864 2108 
Q 4156 2450 4653 2450 
z
M 1428 4353 
Q 1159 4353 1004 4120 
Q 850 3888 850 3481 
Q 850 3069 1003 2837 
Q 1156 2606 1428 2606 
Q 1700 2606 1854 2837 
Q 2009 3069 2009 3481 
Q 2009 3884 1853 4118 
Q 1697 4353 1428 4353 
z
M 4250 4750 
L 4750 4750 
L 1831 -91 
L 1331 -91 
L 4250 4750 
z
M 1428 4750 
Q 1922 4750 2215 4408 
Q 2509 4066 2509 3481 
Q 2509 2891 2217 2550 
Q 1925 2209 1428 2209 
Q 931 2209 642 2551 
Q 353 2894 353 3481 
Q 353 4063 643 4406 
Q 934 4750 1428 4750 
z
" transform="scale(0.015625)"/>
       <path id="DejaVuSans-6f" d="M 1959 3097 
Q 1497 3097 1228 2736 
Q 959 2375 959 1747 
Q 959 1119 1226 758 
Q 1494 397 1959 397 
Q 2419 397 2687 759 
Q 2956 1122 2956 1747 
Q 2956 2369 2687 2733 
Q 2419 3097 1959 3097 
z
M 1959 3584 
Q 2709 3584 3137 3096 
Q 3566 2609 3566 1747 
Q 3566 888 3137 398 
Q 2709 -91 1959 -91 
Q 1206 -91 779 398 
Q 353 888 353 1747 
Q 353 2609 779 3096 
Q 1206 3584 1959 3584 
z
" transform="scale(0.015625)"/>
       <path id="DejaVuSans-6e" d="M 3513 2113 
L 3513 0 
L 2938 0 
L 2938 2094 
Q 2938 2591 2744 2837 
Q 2550 3084 2163 3084 
Q 1697 3084 1428 2787 
Q 1159 2491 1159 1978 
L 1159 0 
L 581 0 
L 581 3500 
L 1159 3500 
L 1159 2956 
Q 1366 3272 1645 3428 
Q 1925 3584 2291 3584 
Q 2894 3584 3203 3211 
Q 3513 2838 3513 2113 
z
" transform="scale(0.015625)"/>
      </defs>
      <use xlink:href="#DejaVuSans-25"/>
      <use xlink:href="#DejaVuSans-20" x="95.019531"/>
      <use xlink:href="#DejaVuSans-65" x="126.806641"/>
      <use xlink:href="#DejaVuSans-6d" x="188.330078"/>
      <use xlink:href="#DejaVuSans-69" x="285.742188"/>
      <use xlink:href="#DejaVuSans-73" x="313.525391"/>
      <use xlink:href="#DejaVuSans-73" x="365.625"/>
      <use xlink:href="#DejaVuSans-69" x="417.724609"/>
      <use xlink:href="#DejaVuSans-6f" x="445.507812"/>
      <use xlink:href="#DejaVuSans-6e" x="506.689453"/>
     </g>
    </g>
   </g>
   <g id="line2d_8">
    <defs>
     <path id="m16cfe4b674" d="M -3 3 
L 3 -3 
M -3 -3 
L 3 3 
" style="stroke: #bfbf00"/>
    </defs>
    <g clip-path="url(#p6b22bc17bd)">
     <use xlink:href="#m16cfe4b674" x="69.218182" y="184.679751" style="fill: #bfbf00; stroke: #bfbf00"/>
     <use xlink:href="#m16cfe4b674" x="79.363636" y="179.734324" style="fill: #bfbf00; stroke: #bfbf00"/>
     <use xlink:href="#m16cfe4b674" x="89.509091" y="175.308331" style="fill: #bfbf00; stroke: #bfbf00"/>
     <use xlink:href="#m16cfe4b674" x="99.654545" y="169.820406" style="fill: #bfbf00; stroke: #bfbf00"/>
     <use xlink:href="#m16cfe4b674" x="109.8" y="164.204332" style="fill: #bfbf00; stroke: #bfbf00"/>
     <use xlink:href="#m16cfe4b674" x="119.945455" y="159.635689" style="fill: #bfbf00; stroke: #bfbf00"/>
     <use xlink:href="#m16cfe4b674" x="130.090909" y="154.698668" style="fill: #bfbf00; stroke: #bfbf00"/>
     <use xlink:href="#m16cfe4b674" x="140.236364" y="150.431831" style="fill: #bfbf00; stroke: #bfbf00"/>
     <use xlink:href="#m16cfe4b674" x="150.381818" y="144.46781" style="fill: #bfbf00; stroke: #bfbf00"/>
     <use xlink:href="#m16cfe4b674" x="160.527273" y="138.993632" style="fill: #bfbf00; stroke: #bfbf00"/>
     <use xlink:href="#m16cfe4b674" x="170.672727" y="133.645878" style="fill: #bfbf00; stroke: #bfbf00"/>
     <use xlink:href="#m16cfe4b674" x="180.818182" y="128.647924" style="fill: #bfbf00; stroke: #bfbf00"/>
     <use xlink:href="#m16cfe4b674" x="190.963636" y="123.575422" style="fill: #bfbf00; stroke: #bfbf00"/>
     <use xlink:href="#m16cfe4b674" x="201.109091" y="118.367331" style="fill: #bfbf00; stroke: #bfbf00"/>
     <use xlink:href="#m16cfe4b674" x="211.254545" y="113.05226" style="fill: #bfbf00; stroke: #bfbf00"/>
     <use xlink:href="#m16cfe4b674" x="221.4" y="108.634279" style="fill: #bfbf00; stroke: #bfbf00"/>
     <use xlink:href="#m16cfe4b674" x="231.545455" y="103.415992" style="fill: #bfbf00; stroke: #bfbf00"/>
     <use xlink:href="#m16cfe4b674" x="241.690909" y="98.061644" style="fill: #bfbf00; stroke: #bfbf00"/>
     <use xlink:href="#m16cfe4b674" x="251.836364" y="93.07298" style="fill: #bfbf00; stroke: #bfbf00"/>
     <use xlink:href="#m16cfe4b674" x="261.981818" y="87.238009" style="fill: #bfbf00; stroke: #bfbf00"/>
     <use xlink:href="#m16cfe4b674" x="272.127273" y="82.602014" style="fill: #bfbf00; stroke: #bfbf00"/>
     <use xlink:href="#m16cfe4b674" x="282.272727" y="77.174477" style="fill: #bfbf00; stroke: #bfbf00"/>
     <use xlink:href="#m16cfe4b674" x="292.418182" y="72.431362" style="fill: #bfbf00; stroke: #bfbf00"/>
     <use xlink:href="#m16cfe4b674" x="302.563636" y="67.221748" style="fill: #bfbf00; stroke: #bfbf00"/>
     <use xlink:href="#m16cfe4b674" x="312.709091" y="62.689769" style="fill: #bfbf00; stroke: #bfbf00"/>
     <use xlink:href="#m16cfe4b674" x="322.854545" y="57.747496" style="fill: #bfbf00; stroke: #bfbf00"/>
     <use xlink:href="#m16cfe4b674" x="333" y="52.497993" style="fill: #bfbf00; stroke: #bfbf00"/>
     <use xlink:href="#m16cfe4b674" x="343.145455" y="47.517204" style="fill: #bfbf00; stroke: #bfbf00"/>
     <use xlink:href="#m16cfe4b674" x="353.290909" y="43.129011" style="fill: #bfbf00; stroke: #bfbf00"/>
     <use xlink:href="#m16cfe4b674" x="363.436364" y="36.954629" style="fill: #bfbf00; stroke: #bfbf00"/>
    </g>
   </g>
   <g id="line2d_9">
    <defs>
     <path id="m384a238da8" d="M -3 3 
L 3 -3 
M -3 -3 
L 3 3 
" style="stroke: #0000ff"/>
    </defs>
    <g clip-path="url(#p6b22bc17bd)">
     <use xlink:href="#m384a238da8" x="69.218182" y="184.679749" style="fill: #0000ff; stroke: #0000ff"/>
     <use xlink:href="#m384a238da8" x="79.363636" y="176.022781" style="fill: #0000ff; stroke: #0000ff"/>
     <use xlink:href="#m384a238da8" x="89.509091" y="170.656548" style="fill: #0000ff; stroke: #0000ff"/>
     <use xlink:href="#m384a238da8" x="99.654545" y="159.425343" style="fill: #0000ff; stroke: #0000ff"/>
     <use xlink:href="#m384a238da8" x="109.8" y="149.496171" style="fill: #0000ff; stroke: #0000ff"/>
     <use xlink:href="#m384a238da8" x="119.945455" y="139.265102" style="fill: #0000ff; stroke: #0000ff"/>
     <use xlink:href="#m384a238da8" x="130.090909" y="132.366558" style="fill: #0000ff; stroke: #0000ff"/>
     <use xlink:href="#m384a238da8" x="140.236364" y="126.821064" style="fill: #0000ff; stroke: #0000ff"/>
     <use xlink:href="#m384a238da8" x="150.381818" y="121.78147" style="fill: #0000ff; stroke: #0000ff"/>
     <use xlink:href="#m384a238da8" x="160.527273" y="116.158361" style="fill: #0000ff; stroke: #0000ff"/>
     <use xlink:href="#m384a238da8" x="170.672727" y="108.417703" style="fill: #0000ff; stroke: #0000ff"/>
     <use xlink:href="#m384a238da8" x="180.818182" y="102.873564" style="fill: #0000ff; stroke: #0000ff"/>
     <use xlink:href="#m384a238da8" x="190.963636" y="98.083928" style="fill: #0000ff; stroke: #0000ff"/>
     <use xlink:href="#m384a238da8" x="201.109091" y="93.66895" style="fill: #0000ff; stroke: #0000ff"/>
     <use xlink:href="#m384a238da8" x="211.254545" y="89.460073" style="fill: #0000ff; stroke: #0000ff"/>
     <use xlink:href="#m384a238da8" x="221.4" y="83.143304" style="fill: #0000ff; stroke: #0000ff"/>
     <use xlink:href="#m384a238da8" x="231.545455" y="80.830933" style="fill: #0000ff; stroke: #0000ff"/>
     <use xlink:href="#m384a238da8" x="241.690909" y="76.503952" style="fill: #0000ff; stroke: #0000ff"/>
     <use xlink:href="#m384a238da8" x="251.836364" y="73.36597" style="fill: #0000ff; stroke: #0000ff"/>
     <use xlink:href="#m384a238da8" x="261.981818" y="68.541668" style="fill: #0000ff; stroke: #0000ff"/>
     <use xlink:href="#m384a238da8" x="272.127273" y="63.216006" style="fill: #0000ff; stroke: #0000ff"/>
     <use xlink:href="#m384a238da8" x="282.272727" y="58.735464" style="fill: #0000ff; stroke: #0000ff"/>
     <use xlink:href="#m384a238da8" x="292.418182" y="54.610233" style="fill: #0000ff; stroke: #0000ff"/>
     <use xlink:href="#m384a238da8" x="302.563636" y="51.225461" style="fill: #0000ff; stroke: #0000ff"/>
     <use xlink:href="#m384a238da8" x="312.709091" y="47.042412" style="fill: #0000ff; stroke: #0000ff"/>
     <use xlink:href="#m384a238da8" x="322.854545" y="45.030485" style="fill: #0000ff; stroke: #0000ff"/>
     <use xlink:href="#m384a238da8" x="333" y="43.300552" style="fill: #0000ff; stroke: #0000ff"/>
     <use xlink:href="#m384a238da8" x="343.145455" y="40.173931" style="fill: #0000ff; stroke: #0000ff"/>
     <use xlink:href="#m384a238da8" x="353.290909" y="38.108664" style="fill: #0000ff; stroke: #0000ff"/>
     <use xlink:href="#m384a238da8" x="363.436364" y="35.00759" style="fill: #0000ff; stroke: #0000ff"/>
    </g>
   </g>
   <g id="line2d_10">
    <path d="M 69.218182 184.68 
L 78.327599 176.881984 
L 87.537311 169.29042 
L 96.852435 161.899794 
L 106.279111 154.704238 
L 115.822456 147.699125 
L 125.489635 140.87876 
L 135.287811 134.237992 
L 145.223124 127.772826 
L 155.303762 121.478369 
L 165.536889 115.35086 
L 175.931716 109.385771 
L 186.49643 103.579671 
L 197.241264 97.928478 
L 208.175431 92.429158 
L 219.309163 87.078606 
L 230.654742 81.873246 
L 242.223426 76.810517 
L 254.028519 71.887455 
L 266.082301 67.102034 
L 278.400125 62.451504 
L 290.997341 57.933692 
L 303.890323 53.546596 
L 317.097495 49.288088 
L 330.637276 45.156623 
L 344.531159 41.150299 
L 358.800635 37.267838 
L 373.471289 33.507476 
L 373.581818 33.48 
L 373.581818 33.48 
" clip-path="url(#p6b22bc17bd)" style="fill: none; stroke: #0000ff; stroke-width: 1.5; stroke-linecap: square"/>
   </g>
   <g id="line2d_11">
    <path d="M 69.218182 184.68 
L 73.253507 175.611508 
L 77.309301 167.039595 
L 81.38761 158.935847 
L 85.492528 151.270135 
L 89.626101 144.018534 
L 93.792424 137.155451 
L 97.994566 130.659102 
L 102.236622 124.507929 
L 106.523707 118.680901 
L 110.859917 113.160273 
L 115.251391 107.927424 
L 119.705293 102.964578 
L 124.226741 98.258036 
L 128.824945 93.791489 
L 133.507069 89.552554 
L 138.282323 85.528554 
L 143.160943 81.707714 
L 148.154185 78.07921 
L 153.27433 74.633211 
L 158.535707 71.360274 
L 163.952643 68.252707 
L 169.541513 65.303256 
L 175.321761 62.504799 
L 181.314879 59.851114 
L 187.543383 57.337322 
L 194.034905 54.958283 
L 200.819123 52.710079 
L 207.930835 50.589032 
L 215.410975 48.59176 
L 223.305599 46.715751 
L 231.66997 44.958615 
L 240.570611 43.318198 
L 250.086324 41.792913 
L 260.313311 40.38143 
L 271.372334 39.082475 
L 283.413835 37.895202 
L 296.634311 36.818692 
L 311.290638 35.852361 
L 327.733847 34.99559 
L 346.458249 34.247826 
L 368.191491 33.608527 
L 373.581818 33.48 
L 373.581818 33.48 
" clip-path="url(#p6b22bc17bd)" style="fill: none; stroke: #008000; stroke-width: 1.5; stroke-linecap: square"/>
   </g>
   <g id="line2d_12">
    <path d="M 69.218182 184.68 
L 129.936373 154.0236 
L 190.851061 123.516999 
L 251.964291 93.159564 
L 313.279133 62.95018 
L 373.581818 33.48 
L 373.581818 33.48 
" clip-path="url(#p6b22bc17bd)" style="fill: none; stroke: #bfbf00; stroke-width: 1.5; stroke-linecap: square"/>
   </g>
   <g id="line2d_13">
    <defs>
     <path id="md59b70de1f" d="M -3 3 
L 3 -3 
M -3 -3 
L 3 3 
" style="stroke: #008000"/>
    </defs>
    <g clip-path="url(#p6b22bc17bd)">
     <use xlink:href="#md59b70de1f" x="69.218182" y="184.67516" style="fill: #008000; stroke: #008000"/>
     <use xlink:href="#md59b70de1f" x="79.363636" y="161.109899" style="fill: #008000; stroke: #008000"/>
     <use xlink:href="#md59b70de1f" x="89.509091" y="142.421526" style="fill: #008000; stroke: #008000"/>
     <use xlink:href="#md59b70de1f" x="99.654545" y="127.285653" style="fill: #008000; stroke: #008000"/>
     <use xlink:href="#md59b70de1f" x="109.8" y="109.786688" style="fill: #008000; stroke: #008000"/>
     <use xlink:href="#md59b70de1f" x="119.945455" y="102.029055" style="fill: #008000; stroke: #008000"/>
     <use xlink:href="#md59b70de1f" x="130.090909" y="93.422656" style="fill: #008000; stroke: #008000"/>
     <use xlink:href="#md59b70de1f" x="140.236364" y="85.62531" style="fill: #008000; stroke: #008000"/>
     <use xlink:href="#md59b70de1f" x="150.381818" y="79.827986" style="fill: #008000; stroke: #008000"/>
     <use xlink:href="#md59b70de1f" x="160.527273" y="71.513378" style="fill: #008000; stroke: #008000"/>
     <use xlink:href="#md59b70de1f" x="170.672727" y="66.073201" style="fill: #008000; stroke: #008000"/>
     <use xlink:href="#md59b70de1f" x="180.818182" y="60.043491" style="fill: #008000; stroke: #008000"/>
     <use xlink:href="#md59b70de1f" x="190.963636" y="53.57294" style="fill: #008000; stroke: #008000"/>
     <use xlink:href="#md59b70de1f" x="201.109091" y="47.38071" style="fill: #008000; stroke: #008000"/>
     <use xlink:href="#md59b70de1f" x="211.254545" y="43.892185" style="fill: #008000; stroke: #008000"/>
     <use xlink:href="#md59b70de1f" x="221.4" y="43.353729" style="fill: #008000; stroke: #008000"/>
     <use xlink:href="#md59b70de1f" x="231.545455" y="40.863832" style="fill: #008000; stroke: #008000"/>
     <use xlink:href="#md59b70de1f" x="241.690909" y="40.197969" style="fill: #008000; stroke: #008000"/>
     <use xlink:href="#md59b70de1f" x="251.836364" y="39.078518" style="fill: #008000; stroke: #008000"/>
     <use xlink:href="#md59b70de1f" x="261.981818" y="39.034927" style="fill: #008000; stroke: #008000"/>
     <use xlink:href="#md59b70de1f" x="272.127273" y="37.893109" style="fill: #008000; stroke: #008000"/>
     <use xlink:href="#md59b70de1f" x="282.272727" y="37.893109" style="fill: #008000; stroke: #008000"/>
     <use xlink:href="#md59b70de1f" x="292.418182" y="37.893109" style="fill: #008000; stroke: #008000"/>
     <use xlink:href="#md59b70de1f" x="302.563636" y="37.486629" style="fill: #008000; stroke: #008000"/>
     <use xlink:href="#md59b70de1f" x="312.709091" y="37.208638" style="fill: #008000; stroke: #008000"/>
     <use xlink:href="#md59b70de1f" x="322.854545" y="34.265663" style="fill: #008000; stroke: #008000"/>
     <use xlink:href="#md59b70de1f" x="333" y="34.265663" style="fill: #008000; stroke: #008000"/>
     <use xlink:href="#md59b70de1f" x="343.145455" y="33.860175" style="fill: #008000; stroke: #008000"/>
     <use xlink:href="#md59b70de1f" x="353.290909" y="33.48" style="fill: #008000; stroke: #008000"/>
     <use xlink:href="#md59b70de1f" x="363.436364" y="33.48" style="fill: #008000; stroke: #008000"/>
    </g>
   </g>
   <g id="patch_3">
    <path d="M 54 192.24 
L 54 25.92 
" style="fill: none; stroke: #000000; stroke-width: 2; stroke-linejoin: miter; stroke-linecap: square"/>
   </g>
   <g id="patch_4">
    <path d="M 388.8 192.24 
L 388.8 25.92 
" style="fill: none; stroke: #000000; stroke-width: 2; stroke-linejoin: miter; stroke-linecap: square"/>
   </g>
   <g id="patch_5">
    <path d="M 54 192.24 
L 388.8 192.24 
" style="fill: none; stroke: #000000; stroke-width: 2; stroke-linejoin: miter; stroke-linecap: square"/>
   </g>
   <g id="patch_6">
    <path d="M 54 25.92 
L 388.8 25.92 
" style="fill: none; stroke: #000000; stroke-width: 2; stroke-linejoin: miter; stroke-linecap: square"/>
   </g>
   <g id="text_10">
    <!-- ON to OFF rate -->
    <g transform="translate(143.055234 19.92) scale(0.21 -0.21)">
     <defs>
      <path id="DejaVuSans-4f" d="M 2522 4238 
Q 1834 4238 1429 3725 
Q 1025 3213 1025 2328 
Q 1025 1447 1429 934 
Q 1834 422 2522 422 
Q 3209 422 3611 934 
Q 4013 1447 4013 2328 
Q 4013 3213 3611 3725 
Q 3209 4238 2522 4238 
z
M 2522 4750 
Q 3503 4750 4090 4092 
Q 4678 3434 4678 2328 
Q 4678 1225 4090 567 
Q 3503 -91 2522 -91 
Q 1538 -91 948 565 
Q 359 1222 359 2328 
Q 359 3434 948 4092 
Q 1538 4750 2522 4750 
z
" transform="scale(0.015625)"/>
      <path id="DejaVuSans-4e" d="M 628 4666 
L 1478 4666 
L 3547 763 
L 3547 4666 
L 4159 4666 
L 4159 0 
L 3309 0 
L 1241 3903 
L 1241 0 
L 628 0 
L 628 4666 
z
" transform="scale(0.015625)"/>
      <path id="DejaVuSans-46" d="M 628 4666 
L 3309 4666 
L 3309 4134 
L 1259 4134 
L 1259 2759 
L 3109 2759 
L 3109 2228 
L 1259 2228 
L 1259 0 
L 628 0 
L 628 4666 
z
" transform="scale(0.015625)"/>
      <path id="DejaVuSans-72" d="M 2631 2963 
Q 2534 3019 2420 3045 
Q 2306 3072 2169 3072 
Q 1681 3072 1420 2755 
Q 1159 2438 1159 1844 
L 1159 0 
L 581 0 
L 581 3500 
L 1159 3500 
L 1159 2956 
Q 1341 3275 1631 3429 
Q 1922 3584 2338 3584 
Q 2397 3584 2469 3576 
Q 2541 3569 2628 3553 
L 2631 2963 
z
" transform="scale(0.015625)"/>
      <path id="DejaVuSans-61" d="M 2194 1759 
Q 1497 1759 1228 1600 
Q 959 1441 959 1056 
Q 959 750 1161 570 
Q 1363 391 1709 391 
Q 2188 391 2477 730 
Q 2766 1069 2766 1631 
L 2766 1759 
L 2194 1759 
z
M 3341 1997 
L 3341 0 
L 2766 0 
L 2766 531 
Q 2569 213 2275 61 
Q 1981 -91 1556 -91 
Q 1019 -91 701 211 
Q 384 513 384 1019 
Q 384 1609 779 1909 
Q 1175 2209 1959 2209 
L 2766 2209 
L 2766 2266 
Q 2766 2663 2505 2880 
Q 2244 3097 1772 3097 
Q 1472 3097 1187 3025 
Q 903 2953 641 2809 
L 641 3341 
Q 956 3463 1253 3523 
Q 1550 3584 1831 3584 
Q 2591 3584 2966 3190 
Q 3341 2797 3341 1997 
z
" transform="scale(0.015625)"/>
     </defs>
     <use xlink:href="#DejaVuSans-4f"/>
     <use xlink:href="#DejaVuSans-4e" x="78.710938"/>
     <use xlink:href="#DejaVuSans-20" x="153.515625"/>
     <use xlink:href="#DejaVuSans-74" x="185.302734"/>
     <use xlink:href="#DejaVuSans-6f" x="224.511719"/>
     <use xlink:href="#DejaVuSans-20" x="285.693359"/>
     <use xlink:href="#DejaVuSans-4f" x="317.480469"/>
     <use xlink:href="#DejaVuSans-46" x="396.191406"/>
     <use xlink:href="#DejaVuSans-46" x="453.710938"/>
     <use xlink:href="#DejaVuSans-20" x="511.230469"/>
     <use xlink:href="#DejaVuSans-72" x="543.017578"/>
     <use xlink:href="#DejaVuSans-61" x="584.130859"/>
     <use xlink:href="#DejaVuSans-74" x="645.410156"/>
     <use xlink:href="#DejaVuSans-65" x="684.619141"/>
    </g>
   </g>
   <g id="legend_1">
    <g id="patch_7">
     <path d="M 61 77.954375 
L 124.3625 77.954375 
Q 126.3625 77.954375 126.3625 75.954375 
L 126.3625 32.92 
Q 126.3625 30.92 124.3625 30.92 
L 61 30.92 
Q 59 30.92 59 32.92 
L 59 75.954375 
Q 59 77.954375 61 77.954375 
z
" style="fill: #ffffff; opacity: 0.8; stroke: #cccccc; stroke-linejoin: miter"/>
    </g>
    <g id="line2d_14">
     <g>
      <use xlink:href="#m16cfe4b674" x="73" y="39.018438" style="fill: #bfbf00; stroke: #bfbf00"/>
     </g>
    </g>
    <g id="text_11">
     <!-- x 1 -->
     <g transform="translate(91 42.518438) scale(0.1 -0.1)">
      <defs>
       <path id="DejaVuSans-78" d="M 3513 3500 
L 2247 1797 
L 3578 0 
L 2900 0 
L 1881 1375 
L 863 0 
L 184 0 
L 1544 1831 
L 300 3500 
L 978 3500 
L 1906 2253 
L 2834 3500 
L 3513 3500 
z
" transform="scale(0.015625)"/>
      </defs>
      <use xlink:href="#DejaVuSans-78"/>
      <use xlink:href="#DejaVuSans-20" x="59.179688"/>
      <use xlink:href="#DejaVuSans-31" x="90.966797"/>
     </g>
    </g>
    <g id="line2d_15">
     <g>
      <use xlink:href="#m384a238da8" x="73" y="53.696562" style="fill: #0000ff; stroke: #0000ff"/>
     </g>
    </g>
    <g id="text_12">
     <!-- x 0.1 -->
     <g transform="translate(91 57.196562) scale(0.1 -0.1)">
      <use xlink:href="#DejaVuSans-78"/>
      <use xlink:href="#DejaVuSans-20" x="59.179688"/>
      <use xlink:href="#DejaVuSans-30" x="90.966797"/>
      <use xlink:href="#DejaVuSans-2e" x="154.589844"/>
      <use xlink:href="#DejaVuSans-31" x="186.376953"/>
     </g>
    </g>
    <g id="line2d_16">
     <g>
      <use xlink:href="#md59b70de1f" x="73" y="68.374687" style="fill: #008000; stroke: #008000"/>
     </g>
    </g>
    <g id="text_13">
     <!-- x 0.01 -->
     <g transform="translate(91 71.874687) scale(0.1 -0.1)">
      <use xlink:href="#DejaVuSans-78"/>
      <use xlink:href="#DejaVuSans-20" x="59.179688"/>
      <use xlink:href="#DejaVuSans-30" x="90.966797"/>
      <use xlink:href="#DejaVuSans-2e" x="154.589844"/>
      <use xlink:href="#DejaVuSans-30" x="186.376953"/>
      <use xlink:href="#DejaVuSans-31" x="250"/>
     </g>
    </g>
   </g>
  </g>
 </g>
 <defs>
  <clipPath id="p6b22bc17bd">
   <rect x="54" y="25.92" width="334.8" height="166.32"/>
  </clipPath>
 </defs>
</svg>
