<?xml version="1.0" encoding="utf-8" standalone="no"?>
<!DOCTYPE svg PUBLIC "-//W3C//DTD SVG 1.1//EN"
  "http://www.w3.org/Graphics/SVG/1.1/DTD/svg11.dtd">
<svg xmlns:xlink="http://www.w3.org/1999/xlink" width="432pt" height="216pt" viewBox="0 0 432 216" xmlns="http://www.w3.org/2000/svg" version="1.1">
 <metadata>
  <rdf:RDF xmlns:dc="http://purl.org/dc/elements/1.1/" xmlns:cc="http://creativecommons.org/ns#" xmlns:rdf="http://www.w3.org/1999/02/22-rdf-syntax-ns#">
   <cc:Work>
    <dc:type rdf:resource="http://purl.org/dc/dcmitype/StillImage"/>
    <dc:date>2024-08-16T12:44:18.986888</dc:date>
    <dc:format>image/svg+xml</dc:format>
    <dc:creator>
     <cc:Agent>
      <dc:title>Matplotlib v3.8.4, https://matplotlib.org/</dc:title>
     </cc:Agent>
    </dc:creator>
   </cc:Work>
  </rdf:RDF>
 </metadata>
 <defs>
  <style type="text/css">*{stroke-linejoin: round; stroke-linecap: butt}</style>
 </defs>
 <g id="figure_1">
  <g id="patch_1">
   <path d="M 0 216 
L 432 216 
L 432 0 
L 0 0 
z
" style="fill: #ffffff"/>
  </g>
  <g id="axes_1">
   <g id="patch_2">
    <path d="M 54 192.24 
L 388.8 192.24 
L 388.8 25.92 
L 54 25.92 
z
" style="fill: #ffffff"/>
   </g>
   <g id="matplotlib.axis_1">
    <g id="xtick_1">
     <g id="line2d_1">
      <defs>
       <path id="mb0d84b9ef4" d="M 0 0 
L 0 6 
" style="stroke: #000000; stroke-width: 2"/>
      </defs>
      <g>
       <use xlink:href="#mb0d84b9ef4" x="68.913514" y="192.24" style="stroke: #000000; stroke-width: 2"/>
      </g>
     </g>
     <g id="text_1">
      <!-- 0 -->
      <g transform="translate(62.232889 217.696719) scale(0.21 -0.21)">
       <defs>
        <path id="DejaVuSans-30" d="M 2034 4250 
Q 1547 4250 1301 3770 
Q 1056 3291 1056 2328 
Q 1056 1369 1301 889 
Q 1547 409 2034 409 
Q 2525 409 2770 889 
Q 3016 1369 3016 2328 
Q 3016 3291 2770 3770 
Q 2525 4250 2034 4250 
z
M 2034 4750 
Q 2819 4750 3233 4129 
Q 3647 3509 3647 2328 
Q 3647 1150 3233 529 
Q 2819 -91 2034 -91 
Q 1250 -91 836 529 
Q 422 1150 422 2328 
Q 422 3509 836 4129 
Q 1250 4750 2034 4750 
z
" transform="scale(0.015625)"/>
       </defs>
       <use xlink:href="#DejaVuSans-30"/>
      </g>
     </g>
    </g>
    <g id="xtick_2">
     <g id="line2d_2">
      <g>
       <use xlink:href="#mb0d84b9ef4" x="170.469615" y="192.24" style="stroke: #000000; stroke-width: 2"/>
      </g>
     </g>
     <g id="text_2">
      <!-- 100 -->
      <g transform="translate(150.42774 217.696719) scale(0.21 -0.21)">
       <defs>
        <path id="DejaVuSans-31" d="M 794 531 
L 1825 531 
L 1825 4091 
L 703 3866 
L 703 4441 
L 1819 4666 
L 2450 4666 
L 2450 531 
L 3481 531 
L 3481 0 
L 794 0 
L 794 531 
z
" transform="scale(0.015625)"/>
       </defs>
       <use xlink:href="#DejaVuSans-31"/>
       <use xlink:href="#DejaVuSans-30" x="63.623047"/>
       <use xlink:href="#DejaVuSans-30" x="127.246094"/>
      </g>
     </g>
    </g>
    <g id="xtick_3">
     <g id="line2d_3">
      <g>
       <use xlink:href="#mb0d84b9ef4" x="272.025717" y="192.24" style="stroke: #000000; stroke-width: 2"/>
      </g>
     </g>
     <g id="text_3">
      <!-- 200 -->
      <g transform="translate(251.983842 217.696719) scale(0.21 -0.21)">
       <defs>
        <path id="DejaVuSans-32" d="M 1228 531 
L 3431 531 
L 3431 0 
L 469 0 
L 469 531 
Q 828 903 1448 1529 
Q 2069 2156 2228 2338 
Q 2531 2678 2651 2914 
Q 2772 3150 2772 3378 
Q 2772 3750 2511 3984 
Q 2250 4219 1831 4219 
Q 1534 4219 1204 4116 
Q 875 4013 500 3803 
L 500 4441 
Q 881 4594 1212 4672 
Q 1544 4750 1819 4750 
Q 2544 4750 2975 4387 
Q 3406 4025 3406 3419 
Q 3406 3131 3298 2873 
Q 3191 2616 2906 2266 
Q 2828 2175 2409 1742 
Q 1991 1309 1228 531 
z
" transform="scale(0.015625)"/>
       </defs>
       <use xlink:href="#DejaVuSans-32"/>
       <use xlink:href="#DejaVuSans-30" x="63.623047"/>
       <use xlink:href="#DejaVuSans-30" x="127.246094"/>
      </g>
     </g>
    </g>
    <g id="xtick_4">
     <g id="line2d_4">
      <g>
       <use xlink:href="#mb0d84b9ef4" x="373.581818" y="192.24" style="stroke: #000000; stroke-width: 2"/>
      </g>
     </g>
     <g id="text_4">
      <!-- 300 -->
      <g transform="translate(353.539943 217.696719) scale(0.21 -0.21)">
       <defs>
        <path id="DejaVuSans-33" d="M 2597 2516 
Q 3050 2419 3304 2112 
Q 3559 1806 3559 1356 
Q 3559 666 3084 287 
Q 2609 -91 1734 -91 
Q 1441 -91 1130 -33 
Q 819 25 488 141 
L 488 750 
Q 750 597 1062 519 
Q 1375 441 1716 441 
Q 2309 441 2620 675 
Q 2931 909 2931 1356 
Q 2931 1769 2642 2001 
Q 2353 2234 1838 2234 
L 1294 2234 
L 1294 2753 
L 1863 2753 
Q 2328 2753 2575 2939 
Q 2822 3125 2822 3475 
Q 2822 3834 2567 4026 
Q 2313 4219 1838 4219 
Q 1578 4219 1281 4162 
Q 984 4106 628 3988 
L 628 4550 
Q 988 4650 1302 4700 
Q 1616 4750 1894 4750 
Q 2613 4750 3031 4423 
Q 3450 4097 3450 3541 
Q 3450 3153 3228 2886 
Q 3006 2619 2597 2516 
z
" transform="scale(0.015625)"/>
       </defs>
       <use xlink:href="#DejaVuSans-33"/>
       <use xlink:href="#DejaVuSans-30" x="63.623047"/>
       <use xlink:href="#DejaVuSans-30" x="127.246094"/>
      </g>
     </g>
    </g>
    <g id="text_5">
     <!-- time (s) -->
     <g transform="translate(180.678047 242.020781) scale(0.21 -0.21)">
      <defs>
       <path id="DejaVuSans-74" d="M 1172 4494 
L 1172 3500 
L 2356 3500 
L 2356 3053 
L 1172 3053 
L 1172 1153 
Q 1172 725 1289 603 
Q 1406 481 1766 481 
L 2356 481 
L 2356 0 
L 1766 0 
Q 1100 0 847 248 
Q 594 497 594 1153 
L 594 3053 
L 172 3053 
L 172 3500 
L 594 3500 
L 594 4494 
L 1172 4494 
z
" transform="scale(0.015625)"/>
       <path id="DejaVuSans-69" d="M 603 3500 
L 1178 3500 
L 1178 0 
L 603 0 
L 603 3500 
z
M 603 4863 
L 1178 4863 
L 1178 4134 
L 603 4134 
L 603 4863 
z
" transform="scale(0.015625)"/>
       <path id="DejaVuSans-6d" d="M 3328 2828 
Q 3544 3216 3844 3400 
Q 4144 3584 4550 3584 
Q 5097 3584 5394 3201 
Q 5691 2819 5691 2113 
L 5691 0 
L 5113 0 
L 5113 2094 
Q 5113 2597 4934 2840 
Q 4756 3084 4391 3084 
Q 3944 3084 3684 2787 
Q 3425 2491 3425 1978 
L 3425 0 
L 2847 0 
L 2847 2094 
Q 2847 2600 2669 2842 
Q 2491 3084 2119 3084 
Q 1678 3084 1418 2786 
Q 1159 2488 1159 1978 
L 1159 0 
L 581 0 
L 581 3500 
L 1159 3500 
L 1159 2956 
Q 1356 3278 1631 3431 
Q 1906 3584 2284 3584 
Q 2666 3584 2933 3390 
Q 3200 3197 3328 2828 
z
" transform="scale(0.015625)"/>
       <path id="DejaVuSans-65" d="M 3597 1894 
L 3597 1613 
L 953 1613 
Q 991 1019 1311 708 
Q 1631 397 2203 397 
Q 2534 397 2845 478 
Q 3156 559 3463 722 
L 3463 178 
Q 3153 47 2828 -22 
Q 2503 -91 2169 -91 
Q 1331 -91 842 396 
Q 353 884 353 1716 
Q 353 2575 817 3079 
Q 1281 3584 2069 3584 
Q 2775 3584 3186 3129 
Q 3597 2675 3597 1894 
z
M 3022 2063 
Q 3016 2534 2758 2815 
Q 2500 3097 2075 3097 
Q 1594 3097 1305 2825 
Q 1016 2553 972 2059 
L 3022 2063 
z
" transform="scale(0.015625)"/>
       <path id="DejaVuSans-20" transform="scale(0.015625)"/>
       <path id="DejaVuSans-28" d="M 1984 4856 
Q 1566 4138 1362 3434 
Q 1159 2731 1159 2009 
Q 1159 1288 1364 580 
Q 1569 -128 1984 -844 
L 1484 -844 
Q 1016 -109 783 600 
Q 550 1309 550 2009 
Q 550 2706 781 3412 
Q 1013 4119 1484 4856 
L 1984 4856 
z
" transform="scale(0.015625)"/>
       <path id="DejaVuSans-73" d="M 2834 3397 
L 2834 2853 
Q 2591 2978 2328 3040 
Q 2066 3103 1784 3103 
Q 1356 3103 1142 2972 
Q 928 2841 928 2578 
Q 928 2378 1081 2264 
Q 1234 2150 1697 2047 
L 1894 2003 
Q 2506 1872 2764 1633 
Q 3022 1394 3022 966 
Q 3022 478 2636 193 
Q 2250 -91 1575 -91 
Q 1294 -91 989 -36 
Q 684 19 347 128 
L 347 722 
Q 666 556 975 473 
Q 1284 391 1588 391 
Q 1994 391 2212 530 
Q 2431 669 2431 922 
Q 2431 1156 2273 1281 
Q 2116 1406 1581 1522 
L 1381 1569 
Q 847 1681 609 1914 
Q 372 2147 372 2553 
Q 372 3047 722 3315 
Q 1072 3584 1716 3584 
Q 2034 3584 2315 3537 
Q 2597 3491 2834 3397 
z
" transform="scale(0.015625)"/>
       <path id="DejaVuSans-29" d="M 513 4856 
L 1013 4856 
Q 1481 4119 1714 3412 
Q 1947 2706 1947 2009 
Q 1947 1309 1714 600 
Q 1481 -109 1013 -844 
L 513 -844 
Q 928 -128 1133 580 
Q 1338 1288 1338 2009 
Q 1338 2731 1133 3434 
Q 928 4138 513 4856 
z
" transform="scale(0.015625)"/>
      </defs>
      <use xlink:href="#DejaVuSans-74"/>
      <use xlink:href="#DejaVuSans-69" x="39.208984"/>
      <use xlink:href="#DejaVuSans-6d" x="66.992188"/>
      <use xlink:href="#DejaVuSans-65" x="164.404297"/>
      <use xlink:href="#DejaVuSans-20" x="225.927734"/>
      <use xlink:href="#DejaVuSans-28" x="257.714844"/>
      <use xlink:href="#DejaVuSans-73" x="296.728516"/>
      <use xlink:href="#DejaVuSans-29" x="348.828125"/>
     </g>
    </g>
   </g>
   <g id="matplotlib.axis_2">
    <g id="ytick_1">
     <g id="line2d_5">
      <defs>
       <path id="m648cf41d79" d="M 0 0 
L -6 0 
" style="stroke: #000000; stroke-width: 2"/>
      </defs>
      <g>
       <use xlink:href="#m648cf41d79" x="54" y="184.682667" style="stroke: #000000; stroke-width: 2"/>
      </g>
     </g>
     <g id="text_6">
      <!-- 0.0 -->
      <g transform="translate(11.103437 192.661026) scale(0.21 -0.21)">
       <defs>
        <path id="DejaVuSans-2e" d="M 684 794 
L 1344 794 
L 1344 0 
L 684 0 
L 684 794 
z
" transform="scale(0.015625)"/>
       </defs>
       <use xlink:href="#DejaVuSans-30"/>
       <use xlink:href="#DejaVuSans-2e" x="63.623047"/>
       <use xlink:href="#DejaVuSans-30" x="95.410156"/>
      </g>
     </g>
    </g>
    <g id="ytick_2">
     <g id="line2d_6">
      <g>
       <use xlink:href="#m648cf41d79" x="54" y="109.081333" style="stroke: #000000; stroke-width: 2"/>
      </g>
     </g>
     <g id="text_7">
      <!-- 0.5 -->
      <g transform="translate(11.103437 117.059693) scale(0.21 -0.21)">
       <defs>
        <path id="DejaVuSans-35" d="M 691 4666 
L 3169 4666 
L 3169 4134 
L 1269 4134 
L 1269 2991 
Q 1406 3038 1543 3061 
Q 1681 3084 1819 3084 
Q 2600 3084 3056 2656 
Q 3513 2228 3513 1497 
Q 3513 744 3044 326 
Q 2575 -91 1722 -91 
Q 1428 -91 1123 -41 
Q 819 9 494 109 
L 494 744 
Q 775 591 1075 516 
Q 1375 441 1709 441 
Q 2250 441 2565 725 
Q 2881 1009 2881 1497 
Q 2881 1984 2565 2268 
Q 2250 2553 1709 2553 
Q 1456 2553 1204 2497 
Q 953 2441 691 2322 
L 691 4666 
z
" transform="scale(0.015625)"/>
       </defs>
       <use xlink:href="#DejaVuSans-30"/>
       <use xlink:href="#DejaVuSans-2e" x="63.623047"/>
       <use xlink:href="#DejaVuSans-35" x="95.410156"/>
      </g>
     </g>
    </g>
    <g id="ytick_3">
     <g id="line2d_7">
      <g>
       <use xlink:href="#m648cf41d79" x="54" y="33.48" style="stroke: #000000; stroke-width: 2"/>
      </g>
     </g>
     <g id="text_8">
      <!-- 1.0 -->
      <g transform="translate(11.103437 41.458359) scale(0.21 -0.21)">
       <use xlink:href="#DejaVuSans-31"/>
       <use xlink:href="#DejaVuSans-2e" x="63.623047"/>
       <use xlink:href="#DejaVuSans-30" x="95.410156"/>
      </g>
     </g>
    </g>
    <g id="text_9">
     <!-- % emission -->
     <g transform="translate(2.736094 168.934922) rotate(-90) scale(0.21 -0.21)">
      <defs>
       <path id="DejaVuSans-25" d="M 4653 2053 
Q 4381 2053 4226 1822 
Q 4072 1591 4072 1178 
Q 4072 772 4226 539 
Q 4381 306 4653 306 
Q 4919 306 5073 539 
Q 5228 772 5228 1178 
Q 5228 1588 5073 1820 
Q 4919 2053 4653 2053 
z
M 4653 2450 
Q 5147 2450 5437 2106 
Q 5728 1763 5728 1178 
Q 5728 594 5436 251 
Q 5144 -91 4653 -91 
Q 4153 -91 3862 251 
Q 3572 594 3572 1178 
Q 3572 1766 3864 2108 
Q 4156 2450 4653 2450 
z
M 1428 4353 
Q 1159 4353 1004 4120 
Q 850 3888 850 3481 
Q 850 3069 1003 2837 
Q 1156 2606 1428 2606 
Q 1700 2606 1854 2837 
Q 2009 3069 2009 3481 
Q 2009 3884 1853 4118 
Q 1697 4353 1428 4353 
z
M 4250 4750 
L 4750 4750 
L 1831 -91 
L 1331 -91 
L 4250 4750 
z
M 1428 4750 
Q 1922 4750 2215 4408 
Q 2509 4066 2509 3481 
Q 2509 2891 2217 2550 
Q 1925 2209 1428 2209 
Q 931 2209 642 2551 
Q 353 2894 353 3481 
Q 353 4063 643 4406 
Q 934 4750 1428 4750 
z
" transform="scale(0.015625)"/>
       <path id="DejaVuSans-6f" d="M 1959 3097 
Q 1497 3097 1228 2736 
Q 959 2375 959 1747 
Q 959 1119 1226 758 
Q 1494 397 1959 397 
Q 2419 397 2687 759 
Q 2956 1122 2956 1747 
Q 2956 2369 2687 2733 
Q 2419 3097 1959 3097 
z
M 1959 3584 
Q 2709 3584 3137 3096 
Q 3566 2609 3566 1747 
Q 3566 888 3137 398 
Q 2709 -91 1959 -91 
Q 1206 -91 779 398 
Q 353 888 353 1747 
Q 353 2609 779 3096 
Q 1206 3584 1959 3584 
z
" transform="scale(0.015625)"/>
       <path id="DejaVuSans-6e" d="M 3513 2113 
L 3513 0 
L 2938 0 
L 2938 2094 
Q 2938 2591 2744 2837 
Q 2550 3084 2163 3084 
Q 1697 3084 1428 2787 
Q 1159 2491 1159 1978 
L 1159 0 
L 581 0 
L 581 3500 
L 1159 3500 
L 1159 2956 
Q 1366 3272 1645 3428 
Q 1925 3584 2291 3584 
Q 2894 3584 3203 3211 
Q 3513 2838 3513 2113 
z
" transform="scale(0.015625)"/>
      </defs>
      <use xlink:href="#DejaVuSans-25"/>
      <use xlink:href="#DejaVuSans-20" x="95.019531"/>
      <use xlink:href="#DejaVuSans-65" x="126.806641"/>
      <use xlink:href="#DejaVuSans-6d" x="188.330078"/>
      <use xlink:href="#DejaVuSans-69" x="285.742188"/>
      <use xlink:href="#DejaVuSans-73" x="313.525391"/>
      <use xlink:href="#DejaVuSans-73" x="365.625"/>
      <use xlink:href="#DejaVuSans-69" x="417.724609"/>
      <use xlink:href="#DejaVuSans-6f" x="445.507812"/>
      <use xlink:href="#DejaVuSans-6e" x="506.689453"/>
     </g>
    </g>
   </g>
   <g id="line2d_8">
    <path d="M 69.218182 184.660005 
L 69.483243 181.451101 
L 69.804161 180.484206 
L 70.001179 180.257737 
L 70.482555 180.147475 
L 71.276724 179.516604 
L 71.82208 179.311097 
L 72.822408 179.200087 
L 73.27027 179.054567 
L 74.016708 178.943815 
L 74.939853 178.424715 
L 75.222179 178.314059 
L 75.46896 178.156637 
L 76.040721 177.563009 
L 76.863325 177.452298 
L 77.266503 177.338662 
L 77.77733 177.227897 
L 78.038329 176.99139 
L 78.416118 176.81355 
L 78.576577 176.702472 
L 79.118886 175.950878 
L 79.464177 175.782533 
L 79.947584 175.6717 
L 80.777297 175.321503 
L 81.929959 175.211186 
L 82.452973 174.939354 
L 82.733268 174.829363 
L 82.926224 174.749761 
L 83.32534 174.639091 
L 83.764062 174.324166 
L 84.272858 173.918579 
L 84.385586 173.807569 
L 85.230532 172.810531 
L 85.473251 172.759929 
L 85.868305 172.649287 
L 86.352727 172.213176 
L 86.600524 171.980246 
L 87.093071 171.524793 
L 87.294152 171.376757 
L 87.526716 171.266767 
L 87.874038 170.640289 
L 88.171597 170.312781 
L 88.813432 169.7037 
L 88.988108 169.552481 
L 89.197314 169.442817 
L 89.433939 169.269412 
L 89.652285 169.159463 
L 90.143817 168.557973 
L 90.616052 168.419771 
L 90.832367 168.30887 
L 91.69864 167.841174 
L 92.211499 167.679848 
L 92.781229 167.569028 
L 93.251433 167.175303 
L 93.570319 167.065789 
L 93.744996 166.989778 
L 93.962326 166.879081 
L 94.751417 166.319759 
L 95.051007 166.209742 
L 95.231777 166.142668 
L 95.82588 166.031807 
L 96.177265 165.977234 
L 96.633251 165.867325 
L 97.026274 165.563091 
L 97.827551 165.381184 
L 98.066208 165.270229 
L 98.20534 165.092525 
L 98.38611 164.987908 
L 98.750696 164.877224 
L 99.006618 164.833928 
L 99.334644 164.723149 
L 99.959214 164.568284 
L 101.173825 164.457505 
L 102.857625 163.659526 
L 104.049894 163.548911 
L 104.213399 163.509327 
L 104.491663 163.398861 
L 104.708993 163.294639 
L 104.977101 163.183764 
L 105.722523 162.735724 
L 105.919541 162.624687 
L 106.195774 162.478201 
L 106.518722 162.367259 
L 107.208288 162.262152 
L 107.412416 162.151645 
L 107.747551 161.875324 
L 108.574218 161.527412 
L 108.799672 161.416646 
L 109.149025 161.355381 
L 109.369402 161.244275 
L 109.612121 161.091791 
L 112.25258 160.150442 
L 112.376478 160.039663 
L 113.026437 158.97449 
L 113.184865 158.864527 
L 113.621556 158.46483 
L 114.998657 157.605477 
L 115.427224 157.494372 
L 115.62932 157.350797 
L 115.822277 157.312111 
L 116.035545 157.20204 
L 116.445831 156.747647 
L 117.391319 156.168615 
L 117.56498 156.133915 
L 117.943784 156.023789 
L 118.870991 155.23759 
L 119.305651 155.127192 
L 120.213563 154.449827 
L 120.459328 154.339483 
L 120.730483 154.054891 
L 121.022965 153.918499 
L 121.336773 153.807543 
L 121.729795 153.453088 
L 122.026339 153.191185 
L 122.637707 153.080732 
L 123.01448 152.831344 
L 123.803571 152.721367 
L 123.980278 152.649641 
L 124.373301 152.446134 
L 124.792727 152.188516 
L 125.482293 151.652508 
L 125.88344 151.541906 
L 126.844161 151.056268 
L 127.690123 150.945353 
L 128.117674 150.691802 
L 128.244619 150.58101 
L 128.502572 150.420922 
L 129.520164 150.310292 
L 129.763898 150.249367 
L 130.118329 150.140097 
L 130.306208 150.026584 
L 130.543849 149.915901 
L 130.765242 149.642027 
L 131.171466 149.406921 
L 131.482228 149.029927 
L 131.836658 148.86097 
L 132.327174 148.750654 
L 132.678559 148.486261 
L 133.144701 148.375768 
L 133.496085 148.277884 
L 133.688026 148.167609 
L 134.302441 147.593664 
L 134.53602 147.482871 
L 136.016708 146.911361 
L 136.457461 146.800813 
L 137.039378 146.427587 
L 137.489271 146.316971 
L 137.784799 146.089537 
L 137.942211 145.9785 
L 138.478428 145.627432 
L 138.733333 145.516626 
L 139.100966 145.407846 
L 139.377199 145.297544 
L 139.604685 145.244684 
L 140.363309 144.798739 
L 140.567437 144.702732 
L 140.82742 144.672807 
L 141.54136 144.561987 
L 142.17507 144.067372 
L 143.069779 143.957083 
L 143.361245 143.771041 
L 143.644586 143.661173 
L 143.942146 143.398032 
L 144.205176 143.358095 
L 145.19027 143.247167 
L 145.910303 142.859263 
L 146.129664 142.388888 
L 146.340901 142.152667 
L 146.676036 142.041969 
L 147.191941 141.897347 
L 147.527076 141.787003 
L 147.889631 141.50535 
L 148.888943 140.832269 
L 149.222048 140.728305 
L 150.206126 140.617771 
L 150.399083 140.582881 
L 150.847961 140.471843 
L 151.093726 140.430791 
L 151.392301 140.31974 
L 151.665487 140.220564 
L 152.304275 140.110152 
L 152.664799 139.98188 
L 153.360459 139.871496 
L 154.260246 139.234925 
L 154.594365 139.123969 
L 155.405799 138.68405 
L 155.712498 138.573121 
L 156.129894 138.267282 
L 156.354333 138.152109 
L 156.793055 138.041997 
L 157.458247 137.523292 
L 158.033055 137.413424 
L 158.228043 137.342609 
L 158.719574 137.231762 
L 159.165405 136.916143 
L 160.115971 136.805296 
L 160.409468 136.480739 
L 160.795381 135.961286 
L 161.604783 135.437534 
L 161.937887 134.834943 
L 162.174513 134.78932 
L 162.573628 134.678772 
L 162.807207 134.482079 
L 163.875577 133.72552 
L 164.388436 133.61568 
L 164.54077 133.583224 
L 165.005897 133.472377 
L 165.538051 133.200055 
L 166.158559 132.887782 
L 166.471351 132.776799 
L 166.878591 132.480427 
L 167.041081 132.370845 
L 167.332547 132.10886 
L 168.007895 131.998965 
L 168.282097 131.799593 
L 168.479115 131.49238 
L 168.771597 130.965595 
L 169.336249 130.85453 
L 169.813563 130.713499 
L 170.37009 130.602693 
L 170.684914 130.318795 
L 171.032236 130.208506 
L 171.406978 129.868483 
L 171.649697 129.655957 
L 172.147322 129.039423 
L 172.448943 128.986999 
L 173.382244 128.877417 
L 173.629025 128.293678 
L 173.920491 127.852494 
L 174.508501 127.078727 
L 174.694349 126.91815 
L 176.007469 126.698496 
L 177.129664 126.587826 
L 177.353088 126.539877 
L 177.911646 126.428826 
L 178.03656 126.265745 
L 178.297559 126.089797 
L 178.735266 125.976107 
L 179.012514 125.865409 
L 179.602555 125.464352 
L 179.766061 125.353682 
L 180.139787 124.984333 
L 180.328681 124.873486 
L 180.635381 124.791925 
L 180.921769 124.681595 
L 181.161441 124.608849 
L 181.529075 124.498532 
L 181.830696 124.277355 
L 182.181065 124.028932 
L 182.464406 123.627576 
L 184.361474 121.514451 
L 184.639738 121.403386 
L 185.287666 120.917585 
L 185.398362 120.807119 
L 185.631941 120.75309 
L 185.993481 120.64208 
L 186.250418 120.546209 
L 186.726716 120.000517 
L 187.015135 119.436882 
L 187.333006 119.230206 
L 187.600098 119.059671 
L 188.474496 118.694851 
L 189.027977 118.583922 
L 189.424046 118.479305 
L 189.6495 118.368581 
L 189.827224 118.326549 
L 190.287273 118.216368 
L 190.575692 117.973536 
L 191.134251 117.86307 
L 192.294021 117.23447 
L 192.624079 117.123528 
L 193.592924 115.963668 
L 194.170778 115.85263 
L 194.954791 115.558625 
L 195.248288 115.447765 
L 195.477805 115.427388 
L 196.35525 115.3165 
L 196.980835 115.17687 
L 197.235741 115.066214 
L 197.476429 115.038601 
L 198.486912 114.928515 
L 198.702211 114.773936 
L 199.01602 114.663062 
L 199.34303 114.295168 
L 199.546143 114.111058 
L 199.785815 114.000238 
L 200.435774 113.70626 
L 200.726224 113.595522 
L 201.06136 113.530597 
L 201.425946 113.419914 
L 202.160197 112.752002 
L 203.109746 111.458837 
L 203.437772 111.290071 
L 203.649009 111.135804 
L 203.858215 110.977512 
L 204.47466 110.866556 
L 205.323669 110.176663 
L 205.590762 109.818862 
L 206.130025 109.708056 
L 206.851073 109.556129 
L 207.185192 109.445038 
L 207.359869 109.414364 
L 208.221065 109.304741 
L 208.562293 108.949838 
L 208.923833 108.838732 
L 209.232563 108.658009 
L 209.378804 108.547393 
L 209.609337 108.485271 
L 209.969861 108.375022 
L 210.820901 107.728589 
L 210.993546 107.617579 
L 211.224079 107.32205 
L 211.450549 107.191466 
L 212.451892 107.080714 
L 212.621491 107.036329 
L 213.04498 106.925605 
L 213.50706 106.853892 
L 215.498575 106.742868 
L 215.731138 106.500458 
L 215.942375 106.228475 
L 216.44914 105.942129 
L 216.972154 105.385676 
L 217.235184 105.275156 
L 217.466732 105.199335 
L 217.960295 105.088352 
L 218.181687 105.038173 
L 218.99312 104.927203 
L 220.671843 103.878734 
L 221.227355 103.522157 
L 222.432826 103.41112 
L 223.143718 102.782915 
L 223.394562 102.378199 
L 223.981556 102.05556 
L 224.325831 101.944795 
L 225.039771 101.270694 
L 225.205307 101.158038 
L 225.498804 101.047001 
L 225.956822 100.43686 
L 226.147748 100.242956 
L 226.65959 100.132068 
L 227.172449 99.76265 
L 227.39181 99.653014 
L 227.785848 99.149163 
L 228.074267 98.913785 
L 228.250975 98.844194 
L 228.952727 98.733524 
L 229.443243 98.213377 
L 230.331859 97.93073 
L 230.746208 97.820087 
L 230.962523 97.568005 
L 231.367731 96.819431 
L 231.553579 96.619079 
L 231.8095 96.54787 
L 232.524455 96.437064 
L 232.826077 96.374819 
L 233.098247 96.264815 
L 233.667977 95.732439 
L 233.92593 95.621402 
L 234.327076 95.428028 
L 234.794234 95.317127 
L 235.19335 94.993183 
L 235.783391 94.766742 
L 236.096183 94.65565 
L 236.558264 94.506471 
L 236.770516 94.395393 
L 237.687568 93.430266 
L 238.021687 93.321949 
L 238.250188 93.10001 
L 238.766093 92.611448 
L 239.621196 92.311458 
L 240.493563 92.200598 
L 240.682457 92.011251 
L 241.152662 91.72791 
L 241.670598 91.697563 
L 242.227125 91.586811 
L 242.649599 91.408169 
L 243.056839 91.297784 
L 243.388927 91.012662 
L 243.693595 90.903842 
L 244.143489 90.793103 
L 244.494873 90.742815 
L 245.231155 90.632036 
L 245.578477 90.583665 
L 246.708796 90.473158 
L 248.005667 89.099915 
L 248.210811 88.989368 
L 248.564226 88.659479 
L 248.839443 88.57785 
L 249.093333 88.467411 
L 249.302539 88.342853 
L 249.71181 88.010149 
L 250.342473 87.577657 
L 250.515119 87.466823 
L 251.032039 87.040262 
L 252.386798 86.9297 
L 252.774742 86.684855 
L 253.115971 86.371276 
L 253.645078 85.937015 
L 254.333628 85.826426 
L 254.819066 85.657837 
L 255.180606 85.546731 
L 256.397248 85.11462 
L 257.3143 85.0038 
L 257.563112 84.940848 
L 257.779427 84.829905 
L 258.009959 84.809148 
L 258.818346 84.698355 
L 259.438853 84.522393 
L 260.078657 84.411587 
L 260.804783 84.184629 
L 261.360295 84.073632 
L 261.628403 83.994887 
L 262.086421 83.884611 
L 262.518034 83.427825 
L 262.759738 83.404211 
L 263.275643 83.293296 
L 263.500082 83.254923 
L 263.807797 83.144049 
L 264.673055 82.849745 
L 264.893432 82.738721 
L 265.567764 82.536615 
L 265.810483 82.425849 
L 266.121245 82.381763 
L 266.475676 82.27078 
L 267.015954 81.916027 
L 267.125635 81.805914 
L 268.064013 80.814072 
L 269.052154 80.447987 
L 269.662506 80.337494 
L 270.257625 80.057949 
L 270.499328 79.947306 
L 270.885242 79.800834 
L 271.157412 79.690558 
L 271.658084 79.188666 
L 272.043997 78.925511 
L 272.292809 78.860205 
L 272.897068 78.750855 
L 273.177363 78.390496 
L 273.82326 78.075952 
L 274.341196 77.718464 
L 274.831712 77.039888 
L 275.070369 76.887771 
L 276.41294 76.259892 
L 276.892285 76.149154 
L 277.544275 75.885442 
L 277.997215 75.774921 
L 278.263292 75.73308 
L 278.647174 75.622273 
L 278.804586 75.593681 
L 279.06457 75.482589 
L 279.2819 75.26552 
L 279.586568 75.034114 
L 279.803898 75.03274 
L 280.163407 74.921866 
L 281.623784 74.454483 
L 283.009009 74.343704 
L 283.450778 74.28573 
L 284.474464 74.175767 
L 284.710074 73.969417 
L 285.604783 73.326017 
L 285.995774 73.14543 
L 286.277084 73.135854 
L 287.267256 73.025388 
L 288.157903 72.529127 
L 288.4057 72.418851 
L 288.625061 72.36727 
L 289.186667 72.256383 
L 289.51774 71.934506 
L 290.29769 71.824271 
L 290.562752 71.622246 
L 291.445274 71.295867 
L 291.746896 71.100059 
L 291.892121 70.930463 
L 292.064767 70.83009 
L 292.32475 70.805279 
L 292.588796 70.694364 
L 292.820344 70.617047 
L 293.576937 70.506866 
L 293.821687 70.297551 
L 294.010581 70.186473 
L 294.373137 70.160152 
L 294.736708 70.049346 
L 295.690319 69.248837 
L 296.162555 69.065924 
L 296.462146 68.956328 
L 296.676429 68.834721 
L 297.18421 68.551503 
L 297.427944 68.52423 
L 297.938771 68.413438 
L 298.153055 68.277385 
L 298.901523 68.16662 
L 299.461097 67.885646 
L 300.091761 67.774758 
L 301.353088 66.903394 
L 301.588698 66.792452 
L 301.935004 66.693847 
L 302.356462 66.583041 
L 303.597477 65.996214 
L 304.26267 65.885653 
L 304.537887 65.832127 
L 304.855758 65.723769 
L 305.03145 65.558988 
L 305.160426 65.44791 
L 305.489468 65.237941 
L 306.922424 64.448532 
L 307.497232 64.337876 
L 307.733857 64.317676 
L 307.942048 64.206734 
L 308.413268 63.959522 
L 308.62552 63.741337 
L 308.835741 63.61599 
L 309.697952 63.23652 
L 309.992465 63.126176 
L 310.221982 62.967285 
L 310.571335 62.856397 
L 311.881409 62.296966 
L 312.048976 62.186378 
L 312.484652 62.043388 
L 312.919312 61.932323 
L 313.183358 61.747261 
L 313.559115 61.636373 
L 314.794038 60.431856 
L 315.030663 60.24814 
L 315.254087 60.137674 
L 315.807568 59.650989 
L 316.067551 59.321862 
L 316.507289 58.918167 
L 317.276069 58.565154 
L 317.52285 58.45515 
L 317.778771 58.297905 
L 317.922981 58.187765 
L 318.131171 58.069777 
L 318.564816 57.958699 
L 320.562424 56.76339 
L 321.116921 56.002438 
L 323.319672 55.063224 
L 324.704898 54.952119 
L 325.144636 54.547933 
L 325.528518 54.437386 
L 325.973333 54.002581 
L 327.329107 53.891788 
L 328.685897 53.15192 
L 328.824013 53.101359 
L 329.006814 52.990961 
L 329.360229 52.845074 
L 330.144242 52.734132 
L 330.731237 52.173095 
L 331.017625 51.861883 
L 331.621884 51.286442 
L 332.040295 51.175595 
L 333.002031 50.736573 
L 333.375758 50.401978 
L 334.283669 49.981021 
L 335.390631 49.219769 
L 336.286355 49.108895 
L 336.564619 48.923765 
L 336.863194 48.767784 
L 337.420737 48.396531 
L 337.626896 48.285589 
L 338.024996 48.116536 
L 339.19086 47.769536 
L 339.346241 47.766829 
L 339.780901 47.655724 
L 340.432891 47.047473 
L 340.60249 46.606955 
L 340.844193 46.293186 
L 341.752105 46.182774 
L 342.154267 45.807643 
L 343.154595 45.696864 
L 343.338411 45.695667 
L 344.338739 45.584698 
L 345.817396 44.61409 
L 346.032695 44.503284 
L 346.239869 44.467849 
L 346.853268 44.357832 
L 347.526585 43.704108 
L 347.757117 43.593043 
L 347.923669 43.548563 
L 348.405045 43.438777 
L 348.809238 42.991009 
L 349.239836 42.879958 
L 351.657887 42.215951 
L 351.921933 42.117564 
L 352.406355 42.007002 
L 352.838984 41.636279 
L 353.155839 41.297943 
L 353.295987 41.148397 
L 353.716429 40.734989 
L 354.346077 40.625135 
L 354.634496 40.399551 
L 355.312891 40.288704 
L 355.603342 40.197635 
L 355.919181 40.087659 
L 356.099951 40.022734 
L 356.659525 39.911723 
L 356.838264 39.845153 
L 357.300344 39.734129 
L 357.575561 39.67757 
L 358.09959 39.566655 
L 358.710958 39.268528 
L 358.997346 39.157572 
L 359.232957 38.863241 
L 359.436069 38.60886 
L 360.027125 38.294152 
L 360.267813 38.24506 
L 361.083309 38.134268 
L 361.28439 38.118434 
L 361.662179 38.007968 
L 361.836855 37.944757 
L 362.05317 37.834346 
L 362.669615 37.474001 
L 362.971237 37.4214 
L 363.436364 37.310771 
L 365.351712 36.158841 
L 365.588337 36.013185 
L 365.88285 35.939854 
L 366.173301 35.828898 
L 366.430238 35.769414 
L 367.953579 35.658553 
L 368.39941 35.62067 
L 368.591351 35.50966 
L 368.991482 35.347845 
L 369.781589 35.237256 
L 370.155315 34.894336 
L 370.523964 34.548696 
L 370.77887 34.437985 
L 371.332351 34.194418 
L 371.587256 34.083476 
L 372.316429 33.854954 
L 372.69828 33.744664 
L 372.916626 33.68042 
L 373.389877 33.569573 
L 373.581818 33.48 
L 373.581818 33.48 
" clip-path="url(#p0ebc439ca8)" style="fill: none; stroke: #0000ff; stroke-width: 1.5; stroke-linecap: square"/>
   </g>
   <g id="line2d_9">
    <path d="M 69.218182 184.676445 
L 69.494414 183.684785 
L 69.678231 183.574168 
L 70.307879 183.289603 
L 70.986274 183.179914 
L 71.344767 182.665593 
L 71.944963 182.555138 
L 72.186667 182.391289 
L 72.710696 181.949933 
L 73.009271 181.839152 
L 73.202228 181.76663 
L 73.305815 181.655618 
L 74.118264 181.012201 
L 74.497068 180.901351 
L 74.843374 180.741077 
L 75.577625 180.630134 
L 75.716757 180.612677 
L 76.48249 180.502663 
L 76.647011 180.477823 
L 78.340966 180.367368 
L 78.638526 180.146852 
L 79.139197 180.035793 
L 79.437772 179.785284 
L 79.726192 179.676175 
L 79.971957 179.420536 
L 80.250221 179.309547 
L 80.406618 179.06837 
L 80.620901 178.857906 
L 81.027125 178.747195 
L 81.178444 178.7065 
L 82.199083 178.596625 
L 82.377821 178.541653 
L 83.234955 178.431384 
L 83.473612 178.147051 
L 83.892023 177.822139 
L 83.994595 177.711985 
L 84.254578 177.538711 
L 84.493235 177.427908 
L 84.610025 177.202076 
L 84.862899 176.701011 
L 85.113743 176.33545 
L 85.617461 176.225668 
L 85.812449 176.148805 
L 86.18516 176.038071 
L 86.668567 175.850589 
L 87.06362 175.739507 
L 87.891302 175.063799 
L 90.979623 174.953135 
L 91.687469 174.427091 
L 92.622801 174.316079 
L 93.093006 173.929602 
L 93.332678 173.819355 
L 93.696249 173.590877 
L 93.813038 173.480399 
L 94.383784 173.165585 
L 95.692842 173.055315 
L 95.911188 172.946671 
L 96.217887 172.835868 
L 96.333661 172.582248 
L 96.49412 172.40779 
L 96.704341 172.384738 
L 97.874267 172.274375 
L 98.197215 172.003878 
L 98.344472 171.893864 
L 98.633907 171.609044 
L 99.73579 171.49903 
L 100.288256 170.939905 
L 100.428403 170.82945 
L 101.372875 169.701938 
L 101.741523 169.590926 
L 102.484914 168.758914 
L 102.74896 168.648505 
L 103.075971 168.244686 
L 103.568518 168.134765 
L 104.054971 167.673328 
L 104.742506 167.563615 
L 105.040066 167.281836 
L 105.205602 167.171079 
L 105.487928 166.867501 
L 105.661589 166.778427 
L 106.114529 166.667809 
L 106.521769 166.514801 
L 106.89448 166.404718 
L 107.08439 166.352833 
L 108.510238 166.242424 
L 108.765143 166.107477 
L 109.252613 165.997301 
L 109.36534 165.736066 
L 109.61923 165.410806 
L 111.705192 165.300792 
L 112.211957 164.909509 
L 112.774578 164.704176 
L 113.282359 164.593164 
L 113.514922 164.523891 
L 113.788108 164.41332 
L 113.968878 164.002351 
L 114.14457 163.854265 
L 116.177723 163.743206 
L 116.730188 162.911681 
L 117.159771 162.800971 
L 117.352727 162.740705 
L 117.734578 162.630947 
L 117.884881 162.225967 
L 118.277903 160.937346 
L 118.500311 160.575059 
L 118.678034 160.381936 
L 118.857789 160.200328 
L 118.965438 160.0219 
L 119.247764 159.665556 
L 119.979984 159.555008 
L 120.302932 159.348769 
L 120.765012 159.23778 
L 121.76534 158.430491 
L 122.059853 158.320593 
L 122.376708 157.892376 
L 123.331335 157.781595 
L 123.473514 157.481384 
L 123.686781 157.352496 
L 125.26801 157.241832 
L 125.778837 156.92479 
L 126.358722 156.814126 
L 126.542539 156.767186 
L 127.060475 156.656661 
L 128.295397 155.756954 
L 128.645766 155.64701 
L 128.810287 155.602763 
L 129.670467 155.492679 
L 129.918264 155.056058 
L 130.659623 154.137757 
L 130.830238 154.027627 
L 131.002883 153.893353 
L 131.200917 153.782643 
L 131.689402 153.093354 
L 131.919934 152.982922 
L 132.261163 152.845723 
L 132.721212 152.736057 
L 133.049238 152.272368 
L 133.491007 152.161472 
L 134.020115 151.563602 
L 134.179558 151.452892 
L 134.427355 151.392069 
L 134.586798 151.282868 
L 134.734054 151.217542 
L 134.973726 150.79146 
L 135.223554 150.316419 
L 135.653137 150.205314 
L 135.825782 150.18449 
L 136.531597 150.07385 
L 136.893137 149.816214 
L 137.180541 149.706455 
L 137.364357 149.633793 
L 137.791908 149.523616 
L 138.053923 149.351851 
L 138.305782 149.241326 
L 138.572875 149.142896 
L 138.642948 148.994415 
L 138.825749 148.765682 
L 139.418837 148.361654 
L 140.119574 148.252081 
L 140.436429 147.954307 
L 141.064046 147.76267 
L 141.644947 147.65189 
L 142.233972 147.298586 
L 143.158133 147.187783 
L 143.523735 147.016923 
L 144.164554 146.906631 
L 144.569762 146.445959 
L 145.021687 146.335736 
L 145.211597 146.303909 
L 145.607666 146.192966 
L 145.981392 145.759921 
L 147.192957 145.649256 
L 147.459034 145.512847 
L 148.505061 145.40209 
L 148.991515 145.013849 
L 149.31751 144.903626 
L 149.51656 144.838903 
L 149.726781 144.645084 
L 149.944111 144.408643 
L 150.600164 144.297956 
L 150.828665 144.22534 
L 151.2095 144.114676 
L 151.358788 144.102837 
L 151.4705 143.992916 
L 151.962031 143.516226 
L 152.716593 143.117167 
L 153.058837 143.006828 
L 153.475217 142.791674 
L 153.956593 142.681312 
L 154.270401 142.549569 
L 154.388206 142.438974 
L 154.736544 142.190578 
L 155.346896 142.079937 
L 155.81507 141.713378 
L 156.252776 141.603781 
L 156.415266 141.555008 
L 156.902735 141.444877 
L 157.421687 141.079897 
L 157.538477 140.969047 
L 157.790336 140.724899 
L 158.038133 140.492683 
L 158.337723 140.382645 
L 158.50326 140.363934 
L 158.600753 140.256242 
L 158.764259 140.060217 
L 159.561474 139.949135 
L 160.046912 139.665151 
L 160.276429 139.554695 
L 160.528288 139.434629 
L 160.593284 139.324569 
L 160.782179 139.114662 
L 160.97412 139.004253 
L 161.141687 138.999192 
L 161.262539 138.888296 
L 161.476822 138.836528 
L 161.739853 138.725445 
L 161.912498 138.717901 
L 162.03335 138.607492 
L 162.333956 138.519903 
L 163.599345 138.408798 
L 163.716134 138.218647 
L 163.853235 138.173309 
L 164.011663 138.063503 
L 164.154857 138.021206 
L 165.179558 137.910426 
L 165.592891 137.667137 
L 165.990991 137.557215 
L 166.321048 137.068269 
L 166.56783 136.958162 
L 166.750631 136.784029 
L 167.600655 136.672947 
L 167.782441 136.26625 
L 167.987584 135.97284 
L 168.606061 135.86206 
L 169.142277 135.290933 
L 169.6724 134.640877 
L 170.073546 134.53077 
L 170.663587 133.369342 
L 170.805766 133.259885 
L 170.961147 133.168141 
L 171.979754 133.057639 
L 172.401212 132.837959 
L 172.855168 132.727039 
L 173.387322 132.49624 
L 173.574185 132.385274 
L 173.795577 132.36387 
L 174.143915 132.253066 
L 174.565373 131.774195 
L 175.250876 130.656735 
L 175.355479 130.545932 
L 175.541327 130.383244 
L 175.89068 130.272997 
L 176.247142 130.103507 
L 176.658444 129.993331 
L 176.915381 129.66171 
L 177.529795 129.551487 
L 178.808387 128.067839 
L 179.472563 127.957175 
L 179.649271 127.915551 
L 180.194627 127.665089 
L 180.449533 127.554958 
L 180.799902 127.196524 
L 181.039574 127.085489 
L 181.862179 126.364071 
L 182.222703 126.253128 
L 182.382146 126.216658 
L 182.647207 126.105901 
L 182.948829 125.985742 
L 183.169206 125.874869 
L 183.381458 125.805991 
L 183.54801 125.695675 
L 183.770418 125.491665 
L 183.917674 125.341188 
L 184.704734 124.069467 
L 184.878395 123.959151 
L 185.514136 123.300111 
L 185.956921 123.190491 
L 186.259558 122.925426 
L 186.539853 122.814902 
L 186.701327 122.772999 
L 187.602129 122.662149 
L 187.78493 122.590463 
L 188.224668 122.480518 
L 188.636986 122.162524 
L 189.227027 122.052278 
L 189.481933 121.625175 
L 189.70231 121.233985 
L 189.953153 120.809436 
L 190.21009 120.551544 
L 191.151515 120.440671 
L 191.437903 120.125881 
L 191.666405 119.909242 
L 191.817723 119.901233 
L 192.39964 119.790313 
L 192.899296 119.143739 
L 193.058739 118.999298 
L 193.269975 118.888402 
L 194.058051 118.482494 
L 195.036036 118.371876 
L 195.343751 118.182863 
L 195.458509 118.072314 
L 195.792629 117.746427 
L 196.664996 117.636135 
L 196.997084 117.470614 
L 197.28855 117.35995 
L 198.138575 116.313133 
L 199.399902 116.202561 
L 200.037674 115.403607 
L 200.188993 115.294451 
L 200.484521 114.863657 
L 200.645995 114.644349 
L 201.015659 114.23735 
L 201.361966 113.829353 
L 201.650385 113.237194 
L 203.383948 111.839789 
L 204.111089 111.729984 
L 204.389353 111.460114 
L 204.738706 111.443515 
L 205.253595 111.332897 
L 205.700442 111.074449 
L 206.555545 110.963761 
L 206.921147 110.514024 
L 207.626962 110.420168 
L 208.495266 110.309341 
L 208.939066 109.929805 
L 209.170614 109.821253 
L 209.377789 109.55844 
L 209.621523 109.447846 
L 210.033841 108.987662 
L 210.2857 108.691188 
L 210.403505 108.581754 
L 210.686847 108.302947 
L 210.886912 108.294195 
L 211.592727 108.183716 
L 212.416347 107.512674 
L 212.767731 107.402451 
L 212.92819 107.374663 
L 213.171925 107.264185 
L 213.792432 106.625898 
L 214.192563 106.322019 
L 214.451532 106.212469 
L 214.62113 106.101155 
L 215.628567 105.990723 
L 215.816446 105.898584 
L 215.990106 105.787711 
L 216.641081 104.777642 
L 217.099099 104.473623 
L 217.555086 104.363795 
L 217.693202 104.360963 
L 218.461982 104.250832 
L 218.612285 104.247304 
L 221.120721 104.136802 
L 221.821458 103.280321 
L 222.318067 102.906403 
L 222.547584 102.795994 
L 223.881016 102.685098 
L 224.234431 102.597231 
L 224.93009 102.48717 
L 225.086486 102.477884 
L 225.566847 102.366779 
L 226.047207 102.013545 
L 226.266568 101.903067 
L 226.651466 101.651977 
L 226.960197 101.540942 
L 227.149091 101.528893 
L 227.706634 101.418415 
L 227.928026 101.296793 
L 228.121998 101.185804 
L 228.612514 100.673063 
L 228.701884 100.562979 
L 228.878591 100.38288 
L 229.235053 100.272053 
L 229.847437 99.849593 
L 230.495364 99.740275 
L 230.833546 99.282274 
L 230.932056 99.171981 
L 231.125012 98.784947 
L 231.375856 98.316359 
L 231.588108 98.235897 
L 231.959803 98.12521 
L 232.148698 97.779985 
L 232.380246 97.390676 
L 232.79561 97.297307 
L 233.884292 97.186573 
L 234.131073 97.014367 
L 234.240753 96.903842 
L 234.769861 96.416497 
L 235.59145 95.7595 
L 236.257658 94.836184 
L 237.273219 94.727006 
L 237.490549 94.462614 
L 238.462441 94.351764 
L 238.720393 94.241611 
L 239.133726 94.132479 
L 239.350041 93.90855 
L 239.730876 93.766941 
L 239.872039 93.656161 
L 240.096478 93.597219 
L 240.209206 93.487135 
L 240.584963 92.942404 
L 240.792138 92.743431 
L 240.935332 92.63279 
L 241.235938 92.213348 
L 241.504046 92.000447 
L 241.807699 91.889806 
L 242.11846 91.782833 
L 243.716953 91.672076 
L 245.488092 90.086145 
L 246.167502 89.976038 
L 246.456937 89.655931 
L 246.626536 89.545708 
L 246.795119 89.508147 
L 247.21353 89.397854 
L 247.709124 88.595185 
L 248.13769 88.484544 
L 248.290025 88.462328 
L 249.550336 88.351548 
L 250.208419 87.754653 
L 250.420672 87.64429 
L 250.609566 87.514103 
L 250.914234 87.404182 
L 251.194529 87.138444 
L 252.014087 87.027756 
L 252.232432 86.974989 
L 252.86208 86.864627 
L 253.215495 86.629277 
L 254.219885 86.518984 
L 254.458542 86.336796 
L 254.605799 86.33466 
L 255.16131 86.224391 
L 255.535037 85.841605 
L 255.733071 85.730639 
L 255.903686 85.714528 
L 256.349517 85.603863 
L 256.542473 85.541207 
L 257.214775 85.430195 
L 257.500147 85.126988 
L 257.797707 85.016115 
L 257.982539 84.990138 
L 259.143325 84.879915 
L 259.321048 84.849736 
L 259.715086 84.739536 
L 259.933432 84.673653 
L 260.280753 84.563476 
L 260.468632 84.453044 
L 260.850483 84.342427 
L 262.006192 83.609726 
L 262.371794 83.499387 
L 263.231974 82.690613 
L 263.511253 82.385294 
L 264.177461 82.275489 
L 264.349091 82.233447 
L 265.070139 82.122504 
L 265.43371 81.579073 
L 265.671351 81.352893 
L 265.852121 81.330792 
L 266.459427 81.220314 
L 266.690975 81.196101 
L 266.833153 81.085623 
L 267.272891 80.580054 
L 267.437412 80.474567 
L 268.934349 80.365017 
L 269.13543 80.183177 
L 269.437052 80.072606 
L 270.214971 79.447737 
L 271.249828 79.338002 
L 271.470205 79.223043 
L 271.840885 79.113122 
L 272.074464 78.830391 
L 272.24914 78.71961 
L 272.802621 78.519709 
L 272.945815 78.408813 
L 273.269779 78.179591 
L 273.451564 78.069531 
L 273.815135 77.789748 
L 274.061916 77.680755 
L 274.302604 77.378524 
L 274.54837 77.21825 
L 274.678362 77.107702 
L 274.988108 76.820607 
L 275.754857 76.709711 
L 275.955938 76.664581 
L 276.565274 76.553894 
L 276.830336 76.366459 
L 277.542244 76.255632 
L 277.750434 75.992494 
L 278.056118 75.472463 
L 280.040524 75.361474 
L 280.349255 75.111244 
L 280.737199 75.000742 
L 281.040852 74.921232 
L 281.184046 74.811961 
L 281.323178 74.771962 
L 281.494808 74.662783 
L 281.686749 74.478227 
L 282.444357 73.764865 
L 282.579427 73.653852 
L 283.346175 73.262593 
L 283.845831 73.152323 
L 284.747649 72.402444 
L 284.960917 72.29243 
L 285.219885 72.168975 
L 286.195839 72.05845 
L 286.521835 71.740038 
L 286.751351 71.630442 
L 286.956495 71.43126 
L 287.12 71.420419 
L 289.366421 71.309522 
L 289.796003 70.908629 
L 290.088485 70.821783 
L 290.621654 70.711212 
L 291.056314 70.27141 
L 291.131466 70.161118 
L 291.743849 69.401628 
L 291.975397 69.290523 
L 292.344046 69.222016 
L 292.960491 69.111004 
L 294.105029 68.214919 
L 294.652416 68.104882 
L 294.805766 68.091835 
L 295.128714 67.981124 
L 295.307453 67.972697 
L 296.237707 67.862056 
L 297.259361 66.691551 
L 298.009861 66.580771 
L 298.183522 66.527169 
L 299.34837 66.416342 
L 299.830762 66.088342 
L 300.983423 65.977841 
L 301.266765 65.859493 
L 301.710565 65.748759 
L 301.909615 65.640787 
L 302.43466 65.529938 
L 303.627944 64.589002 
L 304.907551 64.478779 
L 305.237609 64.286933 
L 305.492514 64.176873 
L 305.83679 63.526677 
L 306.078493 63.209983 
L 306.250123 63.099481 
L 307.415987 61.910683 
L 307.712531 61.800019 
L 308.308665 61.429073 
L 308.670205 61.318153 
L 309.081507 60.869646 
L 309.392269 60.758564 
L 309.592334 60.714712 
L 310.221982 60.603955 
L 310.624144 60.446722 
L 310.954201 60.336337 
L 311.145127 60.130933 
L 311.655954 59.56698 
L 311.838755 59.480042 
L 312.655266 59.368936 
L 313.630205 58.341805 
L 313.993776 58.139373 
L 315.34041 58.029661 
L 315.502899 57.990057 
L 315.733432 57.880251 
L 315.969042 57.754753 
L 316.215823 57.64395 
L 316.451433 57.206772 
L 316.745946 56.758056 
L 317.309582 56.552235 
L 317.578706 56.44178 
L 317.74932 56.357488 
L 317.837674 56.247009 
L 318.307879 55.803911 
L 318.522162 55.457781 
L 318.775037 55.347187 
L 318.94362 55.295418 
L 319.099001 55.184986 
L 319.672793 54.799484 
L 320.022146 54.6894 
L 320.261818 54.597586 
L 321.304799 54.487247 
L 321.466274 54.476777 
L 321.711024 54.367088 
L 321.991319 54.144158 
L 323.546143 54.03491 
L 323.906667 53.438503 
L 324.002129 53.327955 
L 324.435774 52.985051 
L 324.746536 52.876105 
L 325.034955 52.515373 
L 325.243145 52.457499 
L 326.970614 52.347299 
L 327.183882 52.286918 
L 327.738378 52.176277 
L 328.52036 51.530933 
L 329.856839 51.42136 
L 330.089402 51.245207 
L 330.328059 51.135774 
L 330.490549 51.002893 
L 331.670631 50.892182 
L 332.563309 50.338838 
L 332.916724 50.229103 
L 333.269124 49.625708 
L 333.837838 49.300773 
L 334.298903 49.190155 
L 334.822932 48.551428 
L 334.977297 48.517 
L 335.582572 48.407265 
L 335.852711 48.11295 
L 336.409238 47.899839 
L 336.787027 47.789082 
L 337.097789 47.265732 
L 337.333399 47.048837 
L 337.798526 46.938684 
L 338.4495 46.40159 
L 339.831679 46.291088 
L 340.36688 45.868629 
L 341.536806 45.758777 
L 342.200983 44.970803 
L 342.73009 44.859999 
L 342.882424 44.810389 
L 343.070303 44.700375 
L 343.328256 44.541819 
L 344.056413 44.431527 
L 344.469746 44.203861 
L 344.939951 44.093336 
L 345.162359 44.010622 
L 345.710762 43.902024 
L 345.860049 43.821771 
L 346.021523 43.804801 
L 346.328223 43.693812 
L 346.520164 43.639536 
L 346.947715 43.529568 
L 347.124423 43.454887 
L 347.709386 43.344385 
L 347.89828 43.223948 
L 348.717838 43.113052 
L 348.92095 43.083081 
L 349.327174 42.972208 
L 349.75371 42.773004 
L 351.713743 42.661991 
L 352.037707 42.504364 
L 353.487928 42.393932 
L 353.791581 42.205011 
L 353.937821 42.094161 
L 354.104373 42.085967 
L 354.755348 41.975209 
L 355.070172 41.751792 
L 355.825749 41.640965 
L 356.219787 41.437791 
L 356.575233 41.327359 
L 356.781392 41.259479 
L 357.170352 41.148467 
L 357.43846 41.022759 
L 357.576577 40.912351 
L 357.778673 40.833583 
L 360.063686 40.723198 
L 360.377494 40.532838 
L 360.77864 40.423102 
L 361.002064 40.211478 
L 361.133071 40.101719 
L 361.272203 40.092688 
L 362.693989 39.981606 
L 362.953972 39.66598 
L 364.322948 39.555409 
L 364.594103 39.444536 
L 364.942441 39.333709 
L 365.24 39.232215 
L 365.736609 39.121643 
L 365.897068 38.99315 
L 366.389615 38.884111 
L 366.54398 38.817903 
L 368.057166 38.706821 
L 368.2095 38.663967 
L 368.532449 38.55379 
L 368.718296 38.475928 
L 369.293104 38.365055 
L 369.697297 37.858744 
L 369.942048 37.351946 
L 370.388894 36.661821 
L 371.308993 35.828903 
L 371.643112 35.094717 
L 372.210811 33.806073 
L 372.964357 33.69701 
L 373.166454 33.48 
L 373.581818 33.48 
L 373.581818 33.48 
" clip-path="url(#p0ebc439ca8)" style="fill: none; stroke: #008000; stroke-width: 1.5; stroke-linecap: square"/>
   </g>
   <g id="line2d_10">
    <path d="M 69.218182 184.679578 
L 69.471057 184.394038 
L 69.693464 184.283593 
L 69.908763 184.125032 
L 70.61864 183.505597 
L 71.900278 181.898972 
L 72.234398 181.788779 
L 72.429386 181.699789 
L 72.594922 181.50652 
L 72.977789 181.078678 
L 74.936806 179.53935 
L 75.320688 179.220228 
L 76.019394 178.647999 
L 76.198133 178.430654 
L 76.769894 177.864327 
L 76.856216 177.755296 
L 77.377199 176.885256 
L 77.613825 176.721846 
L 78.352138 176.073054 
L 78.649697 175.748138 
L 79.619558 175.049242 
L 79.978051 174.704655 
L 80.318264 174.16705 
L 80.723473 173.849628 
L 81.393743 173.222746 
L 81.649664 172.980115 
L 82.620541 172.206153 
L 84.504406 170.432599 
L 85.004062 170.32158 
L 86.52131 168.248742 
L 86.704111 168.137938 
L 87.139787 167.693957 
L 87.327666 167.599818 
L 87.700377 167.210503 
L 88.653989 165.607518 
L 89.718296 164.812437 
L 90.054447 164.373029 
L 90.821196 163.713415 
L 91.402097 163.470269 
L 91.566618 163.096278 
L 91.793088 162.856233 
L 92.220639 162.459435 
L 92.370942 162.215702 
L 92.738575 161.670543 
L 92.960983 161.507995 
L 93.40783 161.072179 
L 93.82421 160.946673 
L 94.010057 160.836025 
L 94.405111 160.313338 
L 94.823522 160.01943 
L 95.023587 159.908578 
L 97.382735 157.540611 
L 97.881376 157.086154 
L 98.102768 156.842493 
L 98.417592 156.604974 
L 98.799443 156.043533 
L 99.145749 155.932789 
L 99.503227 155.564545 
L 99.982572 154.766973 
L 100.330909 154.574985 
L 100.578706 154.293013 
L 101.280459 153.377072 
L 101.498804 153.266531 
L 102.389451 152.22858 
L 102.60475 152.104163 
L 103.006912 151.69574 
L 103.191744 151.523016 
L 104.969992 149.917541 
L 105.260442 149.806485 
L 105.536675 149.681375 
L 105.837281 149.571074 
L 107.02955 148.050614 
L 107.490614 147.74119 
L 107.790205 147.3805 
L 108.018706 147.181604 
L 108.309156 146.988503 
L 108.451335 146.982217 
L 108.840295 146.871545 
L 111.260377 143.788795 
L 111.435053 143.647629 
L 111.709255 143.536706 
L 112.161179 143.280821 
L 112.97769 142.928129 
L 113.175725 142.788137 
L 114.337527 141.74226 
L 114.518296 141.631528 
L 114.719378 141.469159 
L 115.090057 140.945718 
L 115.475971 140.591373 
L 115.639476 140.481204 
L 115.944144 139.997595 
L 116.258968 139.452543 
L 117.392334 138.436118 
L 117.650287 138.326104 
L 117.940737 138.130632 
L 118.183456 138.019865 
L 118.787715 137.715528 
L 119.073088 137.605227 
L 120.133333 136.745532 
L 120.725405 136.634716 
L 120.97828 136.538064 
L 121.279902 136.333373 
L 121.54801 136.008181 
L 121.98267 135.629617 
L 122.164455 135.519483 
L 122.447797 135.156495 
L 122.565602 134.950894 
L 122.909877 134.409291 
L 123.815758 133.506423 
L 124.098084 133.131618 
L 124.377363 132.991625 
L 124.692187 132.880977 
L 124.993808 132.626937 
L 125.465029 132.220249 
L 126.206388 131.478493 
L 126.513088 131.367474 
L 127.192498 130.815143 
L 127.909484 130.345757 
L 128.13697 130.159683 
L 128.288288 130.04937 
L 128.485307 129.826278 
L 128.773726 129.474005 
L 129.074333 129.288374 
L 129.645078 128.911007 
L 130.655561 127.522458 
L 130.886093 127.347758 
L 131.145061 127.135537 
L 131.391843 126.955976 
L 131.606126 126.803736 
L 131.865094 126.427016 
L 133.265553 125.592976 
L 133.988632 124.88218 
L 135.03466 124.291957 
L 135.227617 124.178448 
L 135.4419 124.067417 
L 136.78041 122.951729 
L 137.020082 122.686207 
L 137.383653 122.445456 
L 137.744177 122.03641 
L 138.414447 121.649273 
L 138.786143 121.256725 
L 140.344013 119.835492 
L 140.774611 119.725622 
L 140.947256 119.659188 
L 141.253956 119.548671 
L 142.014611 119.097207 
L 142.285766 118.98626 
L 143.439443 118.277619 
L 143.903554 117.72123 
L 144.142211 117.644738 
L 144.406257 117.534174 
L 144.675381 117.482155 
L 145.228862 117.372057 
L 145.616806 117.100657 
L 145.77828 116.989793 
L 146.190598 116.713664 
L 146.442457 116.603111 
L 146.844619 116.270616 
L 146.988829 116.080185 
L 147.176708 115.835279 
L 147.826667 115.009489 
L 148.548731 114.898853 
L 148.954955 114.763614 
L 149.193612 114.653397 
L 149.899427 114.162472 
L 150.151286 114.052662 
L 150.310729 113.980038 
L 151.441048 113.613015 
L 151.827977 113.342429 
L 152.107256 113.231457 
L 152.817133 112.675044 
L 152.988763 112.626221 
L 153.173595 112.515274 
L 153.620442 112.087922 
L 154.588272 111.206688 
L 154.880753 110.9679 
L 155.04629 110.822508 
L 155.30018 110.648946 
L 155.649533 110.538214 
L 155.863817 110.518974 
L 156.052711 110.408518 
L 157.033743 109.317541 
L 157.21045 109.106876 
L 157.580115 108.778583 
L 157.733464 108.667564 
L 158.002588 108.515133 
L 158.199607 108.367993 
L 158.446388 108.123099 
L 158.564193 107.9691 
L 158.777461 107.824127 
L 159.126814 107.714269 
L 159.555381 107.339571 
L 159.940278 107.228899 
L 160.825848 106.710702 
L 161.164029 106.352227 
L 161.585487 106.003054 
L 161.908436 105.822117 
L 162.212088 105.626022 
L 162.462932 105.344565 
L 162.987977 105.001235 
L 163.41959 104.890887 
L 163.823784 104.724567 
L 164.036036 104.614135 
L 164.65959 104.056201 
L 164.92059 103.946499 
L 165.263849 103.525899 
L 165.416183 103.414856 
L 165.754365 103.20382 
L 165.974742 102.987002 
L 166.285504 102.789423 
L 166.927338 102.356755 
L 167.169042 102.185455 
L 167.675807 101.810578 
L 168.26077 101.411182 
L 169.409369 100.873625 
L 169.688649 100.750921 
L 172.282391 99.747139 
L 172.466208 99.654485 
L 172.799312 99.543801 
L 173.208583 99.39823 
L 173.402555 99.220764 
L 173.718395 98.990261 
L 174.192662 98.600467 
L 174.800983 97.931729 
L 175.304701 97.774006 
L 175.579918 97.663454 
L 176.55181 96.791343 
L 176.896085 96.466929 
L 177.175364 96.375604 
L 177.373399 96.264573 
L 177.58362 96.114153 
L 177.758296 96.003612 
L 178.06398 95.865236 
L 178.255921 95.754864 
L 179.07751 95.167682 
L 179.819885 94.815205 
L 180.477969 94.401861 
L 181.359476 94.290937 
L 181.508763 94.11079 
L 181.769762 93.811889 
L 182.217625 93.701828 
L 183.203735 92.838768 
L 183.61199 92.470212 
L 183.778542 92.371884 
L 184.088288 92.204511 
L 184.693563 91.810562 
L 184.87941 91.700309 
L 185.301884 91.48258 
L 185.507027 91.372291 
L 185.805602 91.038443 
L 186.279869 90.611307 
L 186.621097 90.359649 
L 186.949124 90.232515 
L 187.490418 90.121436 
L 188.003276 89.744069 
L 188.378018 89.693965 
L 188.631908 89.583029 
L 190.351253 88.580576 
L 190.882391 88.469952 
L 191.138313 88.29591 
L 191.345487 88.184903 
L 191.611564 88.166645 
L 191.987322 88.055961 
L 193.169435 87.237151 
L 193.46801 87.126155 
L 194.073284 86.827434 
L 194.467322 86.716595 
L 195.692088 86.095938 
L 196.049566 85.985326 
L 196.72593 85.186425 
L 197.101687 84.883993 
L 197.386044 84.872452 
L 197.972023 84.762211 
L 198.721507 84.10523 
L 198.960164 83.994366 
L 199.305455 83.879145 
L 199.509582 83.768185 
L 200.011269 83.617035 
L 200.361638 83.506543 
L 200.6724 83.217543 
L 200.918165 83.107901 
L 201.244161 82.794549 
L 202.02208 82.238352 
L 203.210287 82.003934 
L 203.607371 81.893333 
L 203.871417 81.863918 
L 204.381229 81.753257 
L 205.147977 81.371508 
L 205.407961 81.260896 
L 206.703817 80.436818 
L 206.926224 80.325727 
L 207.238002 80.08986 
L 207.477674 79.864685 
L 207.763047 79.601187 
L 208.033186 79.466582 
L 208.417068 79.355575 
L 208.73697 79.180432 
L 209.020311 79.069424 
L 209.306699 78.823298 
L 209.751515 78.43907 
L 210.117117 78.027498 
L 210.747781 77.838791 
L 210.944799 77.728178 
L 211.18041 77.626833 
L 211.383522 77.516221 
L 211.681081 77.393037 
L 212.373694 77.282198 
L 216.080491 75.959209 
L 216.275479 75.848573 
L 216.610614 75.660584 
L 218.002948 75.550235 
L 218.291368 75.437995 
L 218.580803 75.326904 
L 218.853989 75.165278 
L 219.118034 75.05427 
L 219.359738 74.842396 
L 219.555741 74.671935 
L 219.744636 74.443539 
L 220.451466 73.825576 
L 220.842457 73.714736 
L 221.967699 73.129889 
L 222.489697 73.103203 
L 222.719214 72.992519 
L 223.177232 72.870042 
L 223.529631 72.758975 
L 224.023194 72.446007 
L 224.576675 72.289983 
L 224.79502 72.136211 
L 225.296708 71.667076 
L 225.796364 71.397891 
L 226.804816 70.737905 
L 227.19276 70.3943 
L 227.748272 70.283544 
L 229.281769 69.530689 
L 229.78955 69.088635 
L 230.444586 68.859641 
L 231.026503 68.658362 
L 231.57389 68.44158 
L 231.786143 68.330944 
L 231.967928 68.210334 
L 232.314234 68.099471 
L 232.611794 67.976695 
L 233.937101 67.549954 
L 234.364652 67.439186 
L 236.701458 66.298823 
L 236.981753 66.215843 
L 237.463129 66.10474 
L 238.132383 65.731827 
L 239.593776 65.315932 
L 241.130319 65.205344 
L 241.383194 65.194138 
L 242.856773 65.083191 
L 243.238624 64.960271 
L 243.885536 64.849216 
L 245.733857 64.188787 
L 246.745356 63.732403 
L 247.151581 63.621743 
L 247.687797 63.462774 
L 248.43525 63.351755 
L 249.09638 63.155481 
L 249.523931 63.04451 
L 249.866175 62.92487 
L 250.868534 62.813983 
L 251.209762 62.708614 
L 251.73887 62.598074 
L 252.116658 62.247022 
L 252.423358 62.009743 
L 253.932482 61.899095 
L 254.342768 61.802562 
L 254.672826 61.691842 
L 256.656216 60.924764 
L 257.330549 60.813912 
L 258.019099 60.499472 
L 259.057002 60.38874 
L 259.243866 60.345759 
L 259.717117 60.210029 
L 261.65887 60.099213 
L 261.97674 60.019202 
L 262.885667 59.908171 
L 263.56 59.712639 
L 264.253628 59.602039 
L 264.525799 59.570085 
L 265.222473 59.45958 
L 265.700803 59.296649 
L 266.947912 59.185702 
L 267.313514 59.081052 
L 267.929959 58.969985 
L 268.107682 58.950661 
L 268.431646 58.839834 
L 269.874758 58.430704 
L 270.270827 58.320092 
L 270.854775 58.073642 
L 271.466143 57.963101 
L 271.820573 57.726133 
L 272.494906 57.615246 
L 274.010123 57.144758 
L 274.595086 57.033727 
L 275.002326 56.99848 
L 276.046323 56.887629 
L 276.54801 56.77376 
L 276.912596 56.663028 
L 277.168518 56.655174 
L 277.450844 56.544191 
L 277.740278 56.505173 
L 279.207764 56.394585 
L 279.404783 56.387545 
L 280.116691 56.277053 
L 280.48534 56.162657 
L 281.157641 56.051662 
L 281.373956 55.963606 
L 282.370221 55.852862 
L 282.642391 55.84168 
L 283.188763 55.731139 
L 283.398984 55.653966 
L 283.62647 55.542982 
L 283.935201 55.480726 
L 284.571957 55.370114 
L 284.794365 55.350683 
L 286.175528 55.240885 
L 286.426372 55.010071 
L 286.971728 54.893137 
L 287.261163 54.78219 
L 288.704275 54.472466 
L 290.149419 54.36195 
L 290.601343 53.948582 
L 290.855233 53.820418 
L 291.800721 53.709603 
L 292.583718 53.454341 
L 292.908698 53.343621 
L 293.230631 53.236648 
L 294.209631 53.125653 
L 294.989582 52.712692 
L 295.367371 52.595795 
L 296.383948 52.485494 
L 296.684554 52.28983 
L 296.829779 52.179386 
L 297.062342 52.075945 
L 297.892056 51.965165 
L 298.591777 51.765622 
L 299.438755 51.655753 
L 299.689599 51.507871 
L 300.775233 51.254082 
L 301.168256 51.14305 
L 301.458706 51.084362 
L 302.284357 50.973283 
L 302.639803 50.88203 
L 302.858149 50.771298 
L 303.100868 50.737428 
L 303.333432 50.626673 
L 303.609664 50.479509 
L 305.23964 49.964556 
L 306.235905 49.854183 
L 306.674627 49.533816 
L 306.893989 49.423683 
L 307.152957 49.243535 
L 307.410909 49.133079 
L 307.702375 49.060096 
L 308.160393 48.949364 
L 308.78801 48.782685 
L 309.119083 48.671738 
L 309.415627 48.56807 
L 310.12855 48.457254 
L 310.356036 48.430113 
L 311.198952 48.319117 
L 311.470106 48.257891 
L 312.223653 48.146908 
L 312.494808 48.07141 
L 313.042195 47.960738 
L 313.9105 47.625442 
L 314.722948 47.514829 
L 315.210418 47.340979 
L 316.239181 47.230523 
L 316.422998 47.165453 
L 316.649468 47.055224 
L 316.855627 46.942074 
L 317.97579 46.753342 
L 318.483571 46.643018 
L 318.775037 46.51489 
L 319.180246 46.404242 
L 319.601704 46.267099 
L 319.915512 46.156152 
L 320.274005 46.091322 
L 322.500115 45.98023 
L 323.017035 45.73208 
L 323.23335 45.649591 
L 324.289533 45.538632 
L 324.771925 45.362806 
L 325.470631 45.252553 
L 325.753972 45.113148 
L 326.074889 44.911163 
L 326.32878 44.815265 
L 326.706568 44.704664 
L 326.93507 44.669167 
L 327.9486 44.558806 
L 328.230925 44.380598 
L 330.561638 43.77244 
L 330.895758 43.687928 
L 331.412678 43.577208 
L 331.945848 43.319492 
L 332.712596 43.20882 
L 332.944144 43.155567 
L 333.80534 43.044919 
L 334.41163 42.803414 
L 334.708174 42.693041 
L 335.024013 42.590462 
L 335.873022 42.479443 
L 337.895004 42.258242 
L 338.899394 42.147451 
L 339.434595 41.988985 
L 340.410549 41.878121 
L 340.857396 41.720338 
L 341.100115 41.609547 
L 341.476888 41.562064 
L 341.7257 41.451069 
L 342.05068 41.202991 
L 342.256839 41.18453 
L 343.278493 41.073534 
L 343.689795 40.997881 
L 344.580442 40.886862 
L 344.99276 40.793849 
L 345.533038 40.683045 
L 346.067224 40.536636 
L 346.400328 40.425892 
L 346.821785 40.168583 
L 347.459558 40.057767 
L 347.821097 40.005999 
L 348.33294 39.895148 
L 349.05602 39.732875 
L 349.766912 39.621975 
L 349.978149 39.579821 
L 351.188698 39.469125 
L 351.424308 39.378758 
L 352.015364 39.267966 
L 352.556658 39.152709 
L 352.917183 39.042096 
L 353.241147 39.002109 
L 354.932056 38.891904 
L 355.180868 38.690829 
L 355.934414 38.584347 
L 356.223849 38.473831 
L 356.509222 38.405217 
L 357.159181 38.257096 
L 358.076233 38.147106 
L 358.2895 38.064988 
L 359.143587 37.954196 
L 359.409664 37.941135 
L 359.778313 37.830355 
L 360.81317 37.296378 
L 361.041671 37.202802 
L 362.187224 37.091986 
L 362.650319 36.962398 
L 362.944832 36.851307 
L 363.251532 36.59225 
L 364.003047 36.311081 
L 364.301622 36.20042 
L 364.493563 36.132226 
L 365.085635 36.021901 
L 365.31312 35.933833 
L 365.669582 35.823855 
L 365.921441 35.641122 
L 366.898411 35.291985 
L 367.433612 35.181206 
L 369.606912 34.480083 
L 370.454906 34.369243 
L 370.770745 34.102105 
L 370.9962 34.003034 
L 371.793415 33.892338 
L 372.117379 33.855811 
L 373.106536 33.744911 
L 373.581818 33.48 
L 373.581818 33.48 
" clip-path="url(#p0ebc439ca8)" style="fill: none; stroke: #bfbf00; stroke-width: 1.5; stroke-linecap: square"/>
   </g>
   <g id="line2d_11">
    <path d="M 69.218182 184.68 
L 69.583784 183.408942 
L 70.288583 180.60065 
L 70.429746 180.022528 
L 70.737461 178.934589 
L 71.899263 174.39638 
L 72.001835 173.964993 
L 72.232367 172.85326 
L 73.29769 168.697786 
L 73.481507 168.101627 
L 74.331532 164.919035 
L 74.991646 162.323487 
L 75.219132 161.40232 
L 75.86706 158.926445 
L 76.750598 155.808106 
L 77.155807 154.220963 
L 77.866699 151.395467 
L 78.208943 149.906537 
L 79.14326 146.367695 
L 79.911024 143.170411 
L 81.078919 139.020565 
L 81.489206 137.551006 
L 81.84059 136.438965 
L 83.139492 132.221533 
L 83.590401 130.567305 
L 83.869681 129.838909 
L 88.640786 115.522321 
L 89.469484 113.283882 
L 89.998591 111.830488 
L 90.711515 109.78664 
L 90.910565 109.224941 
L 91.342179 107.975984 
L 91.719967 107.142813 
L 98.330254 89.440733 
L 98.764914 88.467441 
L 99.230041 87.353773 
L 99.353939 87.125888 
L 100.642686 84.045418 
L 100.977821 83.296434 
L 107.417494 70.61878 
L 107.494676 70.486031 
L 107.929337 69.854297 
L 108.182211 69.559403 
L 109.825389 66.91882 
L 109.965536 66.807813 
L 110.197084 66.577736 
L 113.279312 62.748231 
L 113.850057 62.012439 
L 114.001376 61.902714 
L 114.78742 60.966163 
L 114.921474 60.816095 
L 115.303325 60.352082 
L 115.39371 60.216962 
L 115.948206 59.525885 
L 116.114758 59.304358 
L 116.85104 58.358129 
L 118.517576 56.273142 
L 118.713579 56.129099 
L 119.213235 55.495968 
L 119.572744 55.055338 
L 119.697658 54.923743 
L 120.030762 54.548379 
L 120.226765 54.277151 
L 121.256544 53.08432 
L 121.63027 52.711802 
L 123.054087 51.346596 
L 123.338444 51.129031 
L 123.947781 50.60465 
L 125.367535 49.464995 
L 125.744308 49.302646 
L 125.945389 49.192498 
L 126.518165 48.715524 
L 126.655266 48.605159 
L 126.886814 48.482178 
L 127.922686 47.600035 
L 128.58991 46.965993 
L 128.870205 46.696355 
L 129.407437 46.225073 
L 130.161998 45.679091 
L 130.908436 45.007487 
L 131.368485 44.689569 
L 132.396233 43.833168 
L 132.677543 43.570939 
L 133.977461 42.523946 
L 134.683276 42.119443 
L 135.325111 41.522783 
L 136.459492 40.735673 
L 137.202883 40.092619 
L 137.392793 39.951743 
L 137.776675 39.600608 
L 138.002129 39.386556 
L 138.964881 38.650379 
L 139.378215 38.53959 
L 139.721474 38.374215 
L 140.050516 38.263131 
L 143.186568 36.998689 
L 143.603964 36.887734 
L 143.879181 36.837275 
L 144.505782 36.623479 
L 144.76475 36.513075 
L 145.047076 36.41426 
L 146.634398 35.679019 
L 147.80534 35.223352 
L 148.752858 34.789786 
L 149.125569 34.679126 
L 149.575463 34.5363 
L 149.803964 34.425191 
L 150.108632 34.262956 
L 150.69258 34.012419 
L 150.958657 33.901451 
L 151.683767 33.516511 
L 152.059525 33.48 
L 373.581818 33.48 
L 373.581818 33.48 
" clip-path="url(#p0ebc439ca8)" style="fill: none; stroke: #ff0000; stroke-width: 1.5; stroke-linecap: square"/>
   </g>
   <g id="patch_3">
    <path d="M 54 192.24 
L 54 25.92 
" style="fill: none; stroke: #000000; stroke-width: 2; stroke-linejoin: miter; stroke-linecap: square"/>
   </g>
   <g id="patch_4">
    <path d="M 388.8 192.24 
L 388.8 25.92 
" style="fill: none; stroke: #000000; stroke-width: 2; stroke-linejoin: miter; stroke-linecap: square"/>
   </g>
   <g id="patch_5">
    <path d="M 54 192.24 
L 388.8 192.24 
" style="fill: none; stroke: #000000; stroke-width: 2; stroke-linejoin: miter; stroke-linecap: square"/>
   </g>
   <g id="patch_6">
    <path d="M 54 25.92 
L 388.8 25.92 
" style="fill: none; stroke: #000000; stroke-width: 2; stroke-linejoin: miter; stroke-linecap: square"/>
   </g>
   <g id="text_10">
    <!-- OFF to ON rate -->
    <g transform="translate(143.055234 19.92) scale(0.21 -0.21)">
     <defs>
      <path id="DejaVuSans-4f" d="M 2522 4238 
Q 1834 4238 1429 3725 
Q 1025 3213 1025 2328 
Q 1025 1447 1429 934 
Q 1834 422 2522 422 
Q 3209 422 3611 934 
Q 4013 1447 4013 2328 
Q 4013 3213 3611 3725 
Q 3209 4238 2522 4238 
z
M 2522 4750 
Q 3503 4750 4090 4092 
Q 4678 3434 4678 2328 
Q 4678 1225 4090 567 
Q 3503 -91 2522 -91 
Q 1538 -91 948 565 
Q 359 1222 359 2328 
Q 359 3434 948 4092 
Q 1538 4750 2522 4750 
z
" transform="scale(0.015625)"/>
      <path id="DejaVuSans-46" d="M 628 4666 
L 3309 4666 
L 3309 4134 
L 1259 4134 
L 1259 2759 
L 3109 2759 
L 3109 2228 
L 1259 2228 
L 1259 0 
L 628 0 
L 628 4666 
z
" transform="scale(0.015625)"/>
      <path id="DejaVuSans-4e" d="M 628 4666 
L 1478 4666 
L 3547 763 
L 3547 4666 
L 4159 4666 
L 4159 0 
L 3309 0 
L 1241 3903 
L 1241 0 
L 628 0 
L 628 4666 
z
" transform="scale(0.015625)"/>
      <path id="DejaVuSans-72" d="M 2631 2963 
Q 2534 3019 2420 3045 
Q 2306 3072 2169 3072 
Q 1681 3072 1420 2755 
Q 1159 2438 1159 1844 
L 1159 0 
L 581 0 
L 581 3500 
L 1159 3500 
L 1159 2956 
Q 1341 3275 1631 3429 
Q 1922 3584 2338 3584 
Q 2397 3584 2469 3576 
Q 2541 3569 2628 3553 
L 2631 2963 
z
" transform="scale(0.015625)"/>
      <path id="DejaVuSans-61" d="M 2194 1759 
Q 1497 1759 1228 1600 
Q 959 1441 959 1056 
Q 959 750 1161 570 
Q 1363 391 1709 391 
Q 2188 391 2477 730 
Q 2766 1069 2766 1631 
L 2766 1759 
L 2194 1759 
z
M 3341 1997 
L 3341 0 
L 2766 0 
L 2766 531 
Q 2569 213 2275 61 
Q 1981 -91 1556 -91 
Q 1019 -91 701 211 
Q 384 513 384 1019 
Q 384 1609 779 1909 
Q 1175 2209 1959 2209 
L 2766 2209 
L 2766 2266 
Q 2766 2663 2505 2880 
Q 2244 3097 1772 3097 
Q 1472 3097 1187 3025 
Q 903 2953 641 2809 
L 641 3341 
Q 956 3463 1253 3523 
Q 1550 3584 1831 3584 
Q 2591 3584 2966 3190 
Q 3341 2797 3341 1997 
z
" transform="scale(0.015625)"/>
     </defs>
     <use xlink:href="#DejaVuSans-4f"/>
     <use xlink:href="#DejaVuSans-46" x="78.710938"/>
     <use xlink:href="#DejaVuSans-46" x="136.230469"/>
     <use xlink:href="#DejaVuSans-20" x="193.75"/>
     <use xlink:href="#DejaVuSans-74" x="225.537109"/>
     <use xlink:href="#DejaVuSans-6f" x="264.746094"/>
     <use xlink:href="#DejaVuSans-20" x="325.927734"/>
     <use xlink:href="#DejaVuSans-4f" x="357.714844"/>
     <use xlink:href="#DejaVuSans-4e" x="436.425781"/>
     <use xlink:href="#DejaVuSans-20" x="511.230469"/>
     <use xlink:href="#DejaVuSans-72" x="543.017578"/>
     <use xlink:href="#DejaVuSans-61" x="584.130859"/>
     <use xlink:href="#DejaVuSans-74" x="645.410156"/>
     <use xlink:href="#DejaVuSans-65" x="684.619141"/>
    </g>
   </g>
   <g id="legend_1">
    <g id="patch_7">
     <path d="M 327.314062 187.24 
L 381.8 187.24 
Q 383.8 187.24 383.8 185.24 
L 383.8 127.5275 
Q 383.8 125.5275 381.8 125.5275 
L 327.314062 125.5275 
Q 325.314062 125.5275 325.314062 127.5275 
L 325.314062 185.24 
Q 325.314062 187.24 327.314062 187.24 
z
" style="fill: #ffffff; opacity: 0.8; stroke: #cccccc; stroke-linejoin: miter"/>
    </g>
    <g id="line2d_12">
     <path d="M 329.314062 133.625937 
L 339.314062 133.625937 
L 349.314062 133.625937 
" style="fill: none; stroke: #0000ff; stroke-width: 1.5; stroke-linecap: square"/>
    </g>
    <g id="text_11">
     <!-- 2e-2 -->
     <g transform="translate(357.314062 137.125937) scale(0.1 -0.1)">
      <defs>
       <path id="DejaVuSans-2d" d="M 313 2009 
L 1997 2009 
L 1997 1497 
L 313 1497 
L 313 2009 
z
" transform="scale(0.015625)"/>
      </defs>
      <use xlink:href="#DejaVuSans-32"/>
      <use xlink:href="#DejaVuSans-65" x="63.623047"/>
      <use xlink:href="#DejaVuSans-2d" x="125.146484"/>
      <use xlink:href="#DejaVuSans-32" x="161.230469"/>
     </g>
    </g>
    <g id="line2d_13">
     <path d="M 329.314062 148.304062 
L 339.314062 148.304062 
L 349.314062 148.304062 
" style="fill: none; stroke: #008000; stroke-width: 1.5; stroke-linecap: square"/>
    </g>
    <g id="text_12">
     <!-- 2e-1 -->
     <g transform="translate(357.314062 151.804062) scale(0.1 -0.1)">
      <use xlink:href="#DejaVuSans-32"/>
      <use xlink:href="#DejaVuSans-65" x="63.623047"/>
      <use xlink:href="#DejaVuSans-2d" x="125.146484"/>
      <use xlink:href="#DejaVuSans-31" x="161.230469"/>
     </g>
    </g>
    <g id="line2d_14">
     <path d="M 329.314062 162.982188 
L 339.314062 162.982188 
L 349.314062 162.982188 
" style="fill: none; stroke: #bfbf00; stroke-width: 1.5; stroke-linecap: square"/>
    </g>
    <g id="text_13">
     <!-- 2e0 -->
     <g transform="translate(357.314062 166.482188) scale(0.1 -0.1)">
      <use xlink:href="#DejaVuSans-32"/>
      <use xlink:href="#DejaVuSans-65" x="63.623047"/>
      <use xlink:href="#DejaVuSans-30" x="125.146484"/>
     </g>
    </g>
    <g id="line2d_15">
     <path d="M 329.314062 177.660313 
L 339.314062 177.660313 
L 349.314062 177.660313 
" style="fill: none; stroke: #ff0000; stroke-width: 1.5; stroke-linecap: square"/>
    </g>
    <g id="text_14">
     <!-- 2e1 -->
     <g transform="translate(357.314062 181.160313) scale(0.1 -0.1)">
      <use xlink:href="#DejaVuSans-32"/>
      <use xlink:href="#DejaVuSans-65" x="63.623047"/>
      <use xlink:href="#DejaVuSans-31" x="125.146484"/>
     </g>
    </g>
   </g>
  </g>
 </g>
 <defs>
  <clipPath id="p0ebc439ca8">
   <rect x="54" y="25.92" width="334.8" height="166.32"/>
  </clipPath>
 </defs>
</svg>
