<?xml version="1.0" encoding="utf-8" standalone="no"?>
<!DOCTYPE svg PUBLIC "-//W3C//DTD SVG 1.1//EN"
  "http://www.w3.org/Graphics/SVG/1.1/DTD/svg11.dtd">
<svg xmlns:xlink="http://www.w3.org/1999/xlink" width="279pt" height="186pt" viewBox="0 0 279 186" xmlns="http://www.w3.org/2000/svg" version="1.1">
 <metadata>
  <rdf:RDF xmlns:dc="http://purl.org/dc/elements/1.1/" xmlns:cc="http://creativecommons.org/ns#" xmlns:rdf="http://www.w3.org/1999/02/22-rdf-syntax-ns#">
   <cc:Work>
    <dc:type rdf:resource="http://purl.org/dc/dcmitype/StillImage"/>
    <dc:date>2025-02-27T09:57:14.938049</dc:date>
    <dc:format>image/svg+xml</dc:format>
    <dc:creator>
     <cc:Agent>
      <dc:title>Matplotlib v3.10.0, https://matplotlib.org/</dc:title>
     </cc:Agent>
    </dc:creator>
   </cc:Work>
  </rdf:RDF>
 </metadata>
 <defs>
  <style type="text/css">*{stroke-linejoin: round; stroke-linecap: butt}</style>
 </defs>
 <g id="figure_1">
  <g id="patch_1">
   <path d="M 0 186 
L 279 186 
L 279 0 
L 0 0 
z
" style="fill: #ffffff"/>
  </g>
  <g id="axes_1">
   <g id="patch_2">
    <path d="M 46.751009 60.934589 
L 61.887645 55.425304 
L 49.548146 45.071235 
z
" clip-path="url(#p7988de20fb)" style="stroke: #000000; stroke-linejoin: miter"/>
   </g>
   <g id="patch_3">
    <path d="M 44.654293 99.603937 
C 46.393005 104.381008 48.903394 108.840779 52.085372 112.805441 
C 55.267349 116.770104 59.078059 120.186257 63.365568 122.917702 
C 67.653078 125.649147 72.35964 127.659094 77.297606 128.867406 
C 82.235572 130.075719 87.338434 130.466123 92.402742 130.023053 
C 97.46705 129.579984 102.424595 128.309408 107.077721 126.261984 
C 111.730847 124.214559 116.016882 121.417862 119.764945 117.983396 
C 123.513007 114.54893 126.672614 110.522952 129.117794 106.065978 
C 131.562974 101.609003 133.260793 96.781061 134.143561 91.77464 
C 135.026328 86.768219 135.082153 81.65075 134.30881 76.626263 
C 133.535468 71.601775 131.943374 66.737945 129.596004 62.228689 
C 127.248634 57.719434 124.177605 53.625488 120.505357 50.110076 
C 116.833109 46.594663 112.609104 43.705133 108.001749 41.556688 
C 103.394395 39.408243 98.465747 38.029822 93.41231 37.47638 
C 88.358872 36.922939 83.248708 37.201932 78.285558 38.302236 
C 73.322408 39.40254 68.573119 41.309335 64.227043 43.946598 
C 59.880968 46.583861 55.996643 49.916072 52.728933 53.810376 
" clip-path="url(#p7988de20fb)" style="fill: none; stroke: #000000; stroke-width: 2; stroke-linejoin: miter; stroke-linecap: round"/>
   </g>
   <g id="patch_4">
    <path d="M 189.483236 24.275652 
L 173.619882 21.478515 
L 179.129167 36.615152 
z
" clip-path="url(#p7988de20fb)" style="stroke: #000000; stroke-linejoin: miter"/>
   </g>
   <g id="patch_5">
    <path d="M 180.744095 27.45644 
C 166.318357 32.706979 154.021828 42.575987 145.773447 55.523352 
C 137.525065 68.470718 133.777444 83.785981 135.11542 99.079113 
C 136.453395 114.372245 142.803549 128.804068 153.174906 140.122417 
C 163.546262 151.440766 177.369715 159.024572 192.48804 161.690341 
" clip-path="url(#p7988de20fb)" style="fill: none; stroke: #000000; stroke-width: 2; stroke-linejoin: miter; stroke-linecap: round"/>
   </g>
   <g id="text_1">
    <!-- ON -->
    <g transform="translate(0 93) scale(0.3 -0.3)">
     <defs>
      <path id="DejaVuSans-4f" d="M 2522 4238 
Q 1834 4238 1429 3725 
Q 1025 3213 1025 2328 
Q 1025 1447 1429 934 
Q 1834 422 2522 422 
Q 3209 422 3611 934 
Q 4013 1447 4013 2328 
Q 4013 3213 3611 3725 
Q 3209 4238 2522 4238 
z
M 2522 4750 
Q 3503 4750 4090 4092 
Q 4678 3434 4678 2328 
Q 4678 1225 4090 567 
Q 3503 -91 2522 -91 
Q 1538 -91 948 565 
Q 359 1222 359 2328 
Q 359 3434 948 4092 
Q 1538 4750 2522 4750 
z
" transform="scale(0.015625)"/>
      <path id="DejaVuSans-4e" d="M 628 4666 
L 1478 4666 
L 3547 763 
L 3547 4666 
L 4159 4666 
L 4159 0 
L 3309 0 
L 1241 3903 
L 1241 0 
L 628 0 
L 628 4666 
z
" transform="scale(0.015625)"/>
     </defs>
     <use xlink:href="#DejaVuSans-4f"/>
     <use xlink:href="#DejaVuSans-4e" transform="translate(78.710938 0)"/>
    </g>
   </g>
   <g id="text_2">
    <!-- OFF -->
    <g transform="translate(199.95 176.7) scale(0.3 -0.3)">
     <defs>
      <path id="DejaVuSans-46" d="M 628 4666 
L 3309 4666 
L 3309 4134 
L 1259 4134 
L 1259 2759 
L 3109 2759 
L 3109 2228 
L 1259 2228 
L 1259 0 
L 628 0 
L 628 4666 
z
" transform="scale(0.015625)"/>
     </defs>
     <use xlink:href="#DejaVuSans-4f"/>
     <use xlink:href="#DejaVuSans-46" transform="translate(78.710938 0)"/>
     <use xlink:href="#DejaVuSans-46" transform="translate(136.230469 0)"/>
    </g>
   </g>
   <g id="text_3">
    <!-- ON -->
    <g transform="translate(199.95 32.55) scale(0.3 -0.3)">
     <use xlink:href="#DejaVuSans-4f"/>
     <use xlink:href="#DejaVuSans-4e" transform="translate(78.710938 0)"/>
    </g>
   </g>
  </g>
 </g>
 <defs>
  <clipPath id="p7988de20fb">
   <rect x="0" y="-0" width="279" height="186"/>
  </clipPath>
 </defs>
</svg>
