<?xml version="1.0" encoding="utf-8" standalone="no"?>
<!DOCTYPE svg PUBLIC "-//W3C//DTD SVG 1.1//EN"
  "http://www.w3.org/Graphics/SVG/1.1/DTD/svg11.dtd">
<svg xmlns:xlink="http://www.w3.org/1999/xlink" width="404.791875pt" height="236.594063pt" viewBox="0 0 404.791875 236.594063" xmlns="http://www.w3.org/2000/svg" version="1.1">
 <metadata>
  <rdf:RDF xmlns:dc="http://purl.org/dc/elements/1.1/" xmlns:cc="http://creativecommons.org/ns#" xmlns:rdf="http://www.w3.org/1999/02/22-rdf-syntax-ns#">
   <cc:Work>
    <dc:type rdf:resource="http://purl.org/dc/dcmitype/StillImage"/>
    <dc:date>2025-04-25T09:40:52.567548</dc:date>
    <dc:format>image/svg+xml</dc:format>
    <dc:creator>
     <cc:Agent>
      <dc:title>Matplotlib v3.10.0, https://matplotlib.org/</dc:title>
     </cc:Agent>
    </dc:creator>
   </cc:Work>
  </rdf:RDF>
 </metadata>
 <defs>
  <style type="text/css">*{stroke-linejoin: round; stroke-linecap: butt}</style>
 </defs>
 <g id="figure_1">
  <g id="patch_1">
   <path d="M 0 236.594063 
L 404.791875 236.594063 
L 404.791875 0 
L 0 0 
z
" style="fill: #ffffff"/>
  </g>
  <g id="axes_1">
   <g id="patch_2">
    <path d="M 56.11125 173.52 
L 390.91125 173.52 
L 390.91125 7.2 
L 56.11125 7.2 
z
" style="fill: #ffffff"/>
   </g>
   <g id="patch_3">
    <path d="M 56.111267 173.52 
L 76.743839 173.52 
L 76.743839 139.600181 
L 56.111267 139.600181 
z
" clip-path="url(#p31102dab02)" style="fill: #0000ff; opacity: 0.4"/>
   </g>
   <g id="patch_4">
    <path d="M 76.743839 173.52 
L 97.37641 173.52 
L 97.37641 148.360097 
L 76.743839 148.360097 
z
" clip-path="url(#p31102dab02)" style="fill: #0000ff; opacity: 0.4"/>
   </g>
   <g id="patch_5">
    <path d="M 97.37641 173.52 
L 118.008982 173.52 
L 118.008982 154.809079 
L 97.37641 154.809079 
z
" clip-path="url(#p31102dab02)" style="fill: #0000ff; opacity: 0.4"/>
   </g>
   <g id="patch_6">
    <path d="M 118.008982 173.52 
L 138.641554 173.52 
L 138.641554 159.565533 
L 118.008982 159.565533 
z
" clip-path="url(#p31102dab02)" style="fill: #0000ff; opacity: 0.4"/>
   </g>
   <g id="patch_7">
    <path d="M 138.641554 173.52 
L 159.274126 173.52 
L 159.274126 163.139847 
L 138.641554 163.139847 
z
" clip-path="url(#p31102dab02)" style="fill: #0000ff; opacity: 0.4"/>
   </g>
   <g id="patch_8">
    <path d="M 159.274126 173.52 
L 179.906697 173.52 
L 179.906697 165.788263 
L 159.274126 165.788263 
z
" clip-path="url(#p31102dab02)" style="fill: #0000ff; opacity: 0.4"/>
   </g>
   <g id="patch_9">
    <path d="M 179.906697 173.52 
L 200.539269 173.52 
L 200.539269 167.807287 
L 179.906697 167.807287 
z
" clip-path="url(#p31102dab02)" style="fill: #0000ff; opacity: 0.4"/>
   </g>
   <g id="patch_10">
    <path d="M 200.539269 173.52 
L 221.171841 173.52 
L 221.171841 169.239376 
L 200.539269 169.239376 
z
" clip-path="url(#p31102dab02)" style="fill: #0000ff; opacity: 0.4"/>
   </g>
   <g id="patch_11">
    <path d="M 221.171841 173.52 
L 241.804413 173.52 
L 241.804413 170.337872 
L 221.171841 170.337872 
z
" clip-path="url(#p31102dab02)" style="fill: #0000ff; opacity: 0.4"/>
   </g>
   <g id="patch_12">
    <path d="M 241.804413 173.52 
L 262.436984 173.52 
L 262.436984 171.162599 
L 241.804413 171.162599 
z
" clip-path="url(#p31102dab02)" style="fill: #0000ff; opacity: 0.4"/>
   </g>
   <g id="patch_13">
    <path d="M 262.436984 173.52 
L 283.069556 173.52 
L 283.069556 171.777242 
L 262.436984 171.777242 
z
" clip-path="url(#p31102dab02)" style="fill: #0000ff; opacity: 0.4"/>
   </g>
   <g id="patch_14">
    <path d="M 283.069556 173.52 
L 303.702128 173.52 
L 303.702128 172.20889 
L 283.069556 172.20889 
z
" clip-path="url(#p31102dab02)" style="fill: #0000ff; opacity: 0.4"/>
   </g>
   <g id="patch_15">
    <path d="M 303.702128 173.52 
L 324.3347 173.52 
L 324.3347 172.548747 
L 303.702128 172.548747 
z
" clip-path="url(#p31102dab02)" style="fill: #0000ff; opacity: 0.4"/>
   </g>
   <g id="patch_16">
    <path d="M 324.3347 173.52 
L 344.967271 173.52 
L 344.967271 172.796998 
L 324.3347 172.796998 
z
" clip-path="url(#p31102dab02)" style="fill: #0000ff; opacity: 0.4"/>
   </g>
   <g id="patch_17">
    <path d="M 344.967271 173.52 
L 365.599843 173.52 
L 365.599843 172.987306 
L 344.967271 172.987306 
z
" clip-path="url(#p31102dab02)" style="fill: #0000ff; opacity: 0.4"/>
   </g>
   <g id="patch_18">
    <path d="M 365.599843 173.52 
L 386.232415 173.52 
L 386.232415 173.114547 
L 365.599843 173.114547 
z
" clip-path="url(#p31102dab02)" style="fill: #0000ff; opacity: 0.4"/>
   </g>
   <g id="patch_19">
    <path d="M 386.232415 173.52 
L 406.864987 173.52 
L 406.864987 173.22266 
L 386.232415 173.22266 
z
" clip-path="url(#p31102dab02)" style="fill: #0000ff; opacity: 0.4"/>
   </g>
   <g id="patch_20">
    <path d="M 406.864987 173.52 
L 427.497558 173.52 
L 427.497558 173.304855 
L 406.864987 173.304855 
z
" clip-path="url(#p31102dab02)" style="fill: #0000ff; opacity: 0.4"/>
   </g>
   <g id="patch_21">
    <path d="M 427.497558 173.52 
L 448.13013 173.52 
L 448.13013 173.354993 
L 427.497558 173.354993 
z
" clip-path="url(#p31102dab02)" style="fill: #0000ff; opacity: 0.4"/>
   </g>
   <g id="patch_22">
    <path d="M 448.13013 173.52 
L 468.762702 173.52 
L 468.762702 173.398775 
L 448.13013 173.398775 
z
" clip-path="url(#p31102dab02)" style="fill: #0000ff; opacity: 0.4"/>
   </g>
   <g id="patch_23">
    <path d="M 468.762702 173.52 
L 489.395274 173.52 
L 489.395274 173.427932 
L 468.762702 173.427932 
z
" clip-path="url(#p31102dab02)" style="fill: #0000ff; opacity: 0.4"/>
   </g>
   <g id="patch_24">
    <path d="M 489.395274 173.52 
L 510.027845 173.52 
L 510.027845 173.452954 
L 489.395274 173.452954 
z
" clip-path="url(#p31102dab02)" style="fill: #0000ff; opacity: 0.4"/>
   </g>
   <g id="patch_25">
    <path d="M 510.027845 173.52 
L 530.660417 173.52 
L 530.660417 173.470695 
L 510.027845 173.470695 
z
" clip-path="url(#p31102dab02)" style="fill: #0000ff; opacity: 0.4"/>
   </g>
   <g id="patch_26">
    <path d="M 530.660417 173.52 
L 551.292989 173.52 
L 551.292989 173.483191 
L 530.660417 173.483191 
z
" clip-path="url(#p31102dab02)" style="fill: #0000ff; opacity: 0.4"/>
   </g>
   <g id="patch_27">
    <path d="M 551.292989 173.52 
L 571.925561 173.52 
L 571.925561 173.492756 
L 551.292989 173.492756 
z
" clip-path="url(#p31102dab02)" style="fill: #0000ff; opacity: 0.4"/>
   </g>
   <g id="patch_28">
    <path d="M 571.925561 173.52 
L 592.558132 173.52 
L 592.558132 173.498803 
L 571.925561 173.498803 
z
" clip-path="url(#p31102dab02)" style="fill: #0000ff; opacity: 0.4"/>
   </g>
   <g id="patch_29">
    <path d="M 592.558132 173.52 
L 613.190704 173.52 
L 613.190704 173.504419 
L 592.558132 173.504419 
z
" clip-path="url(#p31102dab02)" style="fill: #0000ff; opacity: 0.4"/>
   </g>
   <g id="patch_30">
    <path d="M 613.190704 173.52 
L 633.823276 173.52 
L 633.823276 173.508245 
L 613.190704 173.508245 
z
" clip-path="url(#p31102dab02)" style="fill: #0000ff; opacity: 0.4"/>
   </g>
   <g id="patch_31">
    <path d="M 633.823276 173.52 
L 654.455848 173.52 
L 654.455848 173.510682 
L 633.823276 173.510682 
z
" clip-path="url(#p31102dab02)" style="fill: #0000ff; opacity: 0.4"/>
   </g>
   <g id="patch_32">
    <path d="M 654.455848 173.52 
L 675.088419 173.52 
L 675.088419 173.513521 
L 654.455848 173.513521 
z
" clip-path="url(#p31102dab02)" style="fill: #0000ff; opacity: 0.4"/>
   </g>
   <g id="patch_33">
    <path d="M 675.088419 173.52 
L 695.720991 173.52 
L 695.720991 173.515125 
L 675.088419 173.515125 
z
" clip-path="url(#p31102dab02)" style="fill: #0000ff; opacity: 0.4"/>
   </g>
   <g id="patch_34">
    <path d="M 695.720991 173.52 
L 716.353563 173.52 
L 716.353563 173.516513 
L 695.720991 173.516513 
z
" clip-path="url(#p31102dab02)" style="fill: #0000ff; opacity: 0.4"/>
   </g>
   <g id="patch_35">
    <path d="M 716.353563 173.52 
L 736.986135 173.52 
L 736.986135 173.517717 
L 716.353563 173.517717 
z
" clip-path="url(#p31102dab02)" style="fill: #0000ff; opacity: 0.4"/>
   </g>
   <g id="patch_36">
    <path d="M 736.986135 173.52 
L 757.618706 173.52 
L 757.618706 173.518087 
L 736.986135 173.518087 
z
" clip-path="url(#p31102dab02)" style="fill: #0000ff; opacity: 0.4"/>
   </g>
   <g id="patch_37">
    <path d="M 757.618706 173.52 
L 778.251278 173.52 
L 778.251278 173.518673 
L 757.618706 173.518673 
z
" clip-path="url(#p31102dab02)" style="fill: #0000ff; opacity: 0.4"/>
   </g>
   <g id="patch_38">
    <path d="M 778.251278 173.52 
L 798.88385 173.52 
L 798.88385 173.518828 
L 778.251278 173.518828 
z
" clip-path="url(#p31102dab02)" style="fill: #0000ff; opacity: 0.4"/>
   </g>
   <g id="patch_39">
    <path d="M 798.88385 173.52 
L 819.516422 173.52 
L 819.516422 173.519105 
L 798.88385 173.519105 
z
" clip-path="url(#p31102dab02)" style="fill: #0000ff; opacity: 0.4"/>
   </g>
   <g id="patch_40">
    <path d="M 819.516422 173.52 
L 840.148993 173.52 
L 840.148993 173.519568 
L 819.516422 173.519568 
z
" clip-path="url(#p31102dab02)" style="fill: #0000ff; opacity: 0.4"/>
   </g>
   <g id="patch_41">
    <path d="M 840.148993 173.52 
L 860.781565 173.52 
L 860.781565 173.51963 
L 840.148993 173.51963 
z
" clip-path="url(#p31102dab02)" style="fill: #0000ff; opacity: 0.4"/>
   </g>
   <g id="patch_42">
    <path d="M 860.781565 173.52 
L 881.414137 173.52 
L 881.414137 173.519691 
L 860.781565 173.519691 
z
" clip-path="url(#p31102dab02)" style="fill: #0000ff; opacity: 0.4"/>
   </g>
   <g id="patch_43">
    <path d="M 881.414137 173.52 
L 902.046709 173.52 
L 902.046709 173.519722 
L 881.414137 173.519722 
z
" clip-path="url(#p31102dab02)" style="fill: #0000ff; opacity: 0.4"/>
   </g>
   <g id="patch_44">
    <path d="M 902.046709 173.52 
L 922.679281 173.52 
L 922.679281 173.519846 
L 902.046709 173.519846 
z
" clip-path="url(#p31102dab02)" style="fill: #0000ff; opacity: 0.4"/>
   </g>
   <g id="patch_45">
    <path d="M 922.679281 173.52 
L 943.311852 173.52 
L 943.311852 173.519907 
L 922.679281 173.519907 
z
" clip-path="url(#p31102dab02)" style="fill: #0000ff; opacity: 0.4"/>
   </g>
   <g id="patch_46">
    <path d="M 943.311852 173.52 
L 963.944424 173.52 
L 963.944424 173.519846 
L 943.311852 173.519846 
z
" clip-path="url(#p31102dab02)" style="fill: #0000ff; opacity: 0.4"/>
   </g>
   <g id="patch_47">
    <path d="M 963.944424 173.52 
L 984.576996 173.52 
L 984.576996 173.519846 
L 963.944424 173.519846 
z
" clip-path="url(#p31102dab02)" style="fill: #0000ff; opacity: 0.4"/>
   </g>
   <g id="patch_48">
    <path d="M 984.576996 173.52 
L 1005.209568 173.52 
L 1005.209568 173.519969 
L 984.576996 173.519969 
z
" clip-path="url(#p31102dab02)" style="fill: #0000ff; opacity: 0.4"/>
   </g>
   <g id="patch_49">
    <path d="M 1005.209568 173.52 
L 1025.842139 173.52 
L 1025.842139 173.52 
L 1005.209568 173.52 
z
" clip-path="url(#p31102dab02)" style="fill: #0000ff; opacity: 0.4"/>
   </g>
   <g id="patch_50">
    <path d="M 1025.842139 173.52 
L 1046.474711 173.52 
L 1046.474711 173.519938 
L 1025.842139 173.519938 
z
" clip-path="url(#p31102dab02)" style="fill: #0000ff; opacity: 0.4"/>
   </g>
   <g id="patch_51">
    <path d="M 1046.474711 173.52 
L 1067.107283 173.52 
L 1067.107283 173.519969 
L 1046.474711 173.519969 
z
" clip-path="url(#p31102dab02)" style="fill: #0000ff; opacity: 0.4"/>
   </g>
   <g id="patch_52">
    <path d="M 1067.107283 173.52 
L 1087.739855 173.52 
L 1087.739855 173.519969 
L 1067.107283 173.519969 
z
" clip-path="url(#p31102dab02)" style="fill: #0000ff; opacity: 0.4"/>
   </g>
   <g id="patch_53">
    <path d="M 56.111258 173.52 
L 65.633983 173.52 
L 65.633983 99.990498 
L 56.111258 99.990498 
z
" clip-path="url(#p31102dab02)" style="fill: #ff0000; opacity: 0.4"/>
   </g>
   <g id="patch_54">
    <path d="M 65.633983 173.52 
L 75.156707 173.52 
L 75.156707 118.940987 
L 65.633983 118.940987 
z
" clip-path="url(#p31102dab02)" style="fill: #ff0000; opacity: 0.4"/>
   </g>
   <g id="patch_55">
    <path d="M 75.156707 173.52 
L 84.679432 173.52 
L 84.679432 132.962411 
L 75.156707 132.962411 
z
" clip-path="url(#p31102dab02)" style="fill: #ff0000; opacity: 0.4"/>
   </g>
   <g id="patch_56">
    <path d="M 84.679432 173.52 
L 94.202157 173.52 
L 94.202157 143.268055 
L 84.679432 143.268055 
z
" clip-path="url(#p31102dab02)" style="fill: #ff0000; opacity: 0.4"/>
   </g>
   <g id="patch_57">
    <path d="M 94.202157 173.52 
L 103.724882 173.52 
L 103.724882 151.121732 
L 94.202157 151.121732 
z
" clip-path="url(#p31102dab02)" style="fill: #ff0000; opacity: 0.4"/>
   </g>
   <g id="patch_58">
    <path d="M 103.724882 173.52 
L 113.247607 173.52 
L 113.247607 156.759627 
L 103.724882 156.759627 
z
" clip-path="url(#p31102dab02)" style="fill: #ff0000; opacity: 0.4"/>
   </g>
   <g id="patch_59">
    <path d="M 113.247607 173.52 
L 122.770332 173.52 
L 122.770332 161.190386 
L 113.247607 161.190386 
z
" clip-path="url(#p31102dab02)" style="fill: #ff0000; opacity: 0.4"/>
   </g>
   <g id="patch_60">
    <path d="M 122.770332 173.52 
L 132.293057 173.52 
L 132.293057 164.222732 
L 122.770332 164.222732 
z
" clip-path="url(#p31102dab02)" style="fill: #ff0000; opacity: 0.4"/>
   </g>
   <g id="patch_61">
    <path d="M 132.293057 173.52 
L 141.815781 173.52 
L 141.815781 166.632862 
L 132.293057 166.632862 
z
" clip-path="url(#p31102dab02)" style="fill: #ff0000; opacity: 0.4"/>
   </g>
   <g id="patch_62">
    <path d="M 141.815781 173.52 
L 151.338506 173.52 
L 151.338506 168.397921 
L 141.815781 168.397921 
z
" clip-path="url(#p31102dab02)" style="fill: #ff0000; opacity: 0.4"/>
   </g>
   <g id="patch_63">
    <path d="M 151.338506 173.52 
L 160.861231 173.52 
L 160.861231 169.766126 
L 151.338506 169.766126 
z
" clip-path="url(#p31102dab02)" style="fill: #ff0000; opacity: 0.4"/>
   </g>
   <g id="patch_64">
    <path d="M 160.861231 173.52 
L 170.383956 173.52 
L 170.383956 170.694302 
L 160.861231 170.694302 
z
" clip-path="url(#p31102dab02)" style="fill: #ff0000; opacity: 0.4"/>
   </g>
   <g id="patch_65">
    <path d="M 170.383956 173.52 
L 179.906681 173.52 
L 179.906681 171.41436 
L 170.383956 171.41436 
z
" clip-path="url(#p31102dab02)" style="fill: #ff0000; opacity: 0.4"/>
   </g>
   <g id="patch_66">
    <path d="M 179.906681 173.52 
L 189.429406 173.52 
L 189.429406 171.95945 
L 179.906681 171.95945 
z
" clip-path="url(#p31102dab02)" style="fill: #ff0000; opacity: 0.4"/>
   </g>
   <g id="patch_67">
    <path d="M 189.429406 173.52 
L 198.952131 173.52 
L 198.952131 172.362988 
L 189.429406 172.362988 
z
" clip-path="url(#p31102dab02)" style="fill: #ff0000; opacity: 0.4"/>
   </g>
   <g id="patch_68">
    <path d="M 198.952131 173.52 
L 208.474855 173.52 
L 208.474855 172.63179 
L 198.952131 172.63179 
z
" clip-path="url(#p31102dab02)" style="fill: #ff0000; opacity: 0.4"/>
   </g>
   <g id="patch_69">
    <path d="M 208.474855 173.52 
L 217.99758 173.52 
L 217.99758 172.8772 
L 208.474855 172.8772 
z
" clip-path="url(#p31102dab02)" style="fill: #ff0000; opacity: 0.4"/>
   </g>
   <g id="patch_70">
    <path d="M 217.99758 173.52 
L 227.520305 173.52 
L 227.520305 173.044951 
L 217.99758 173.044951 
z
" clip-path="url(#p31102dab02)" style="fill: #ff0000; opacity: 0.4"/>
   </g>
   <g id="patch_71">
    <path d="M 227.520305 173.52 
L 237.04303 173.52 
L 237.04303 173.170731 
L 227.520305 173.170731 
z
" clip-path="url(#p31102dab02)" style="fill: #ff0000; opacity: 0.4"/>
   </g>
   <g id="patch_72">
    <path d="M 237.04303 173.52 
L 246.565755 173.52 
L 246.565755 173.262158 
L 237.04303 173.262158 
z
" clip-path="url(#p31102dab02)" style="fill: #ff0000; opacity: 0.4"/>
   </g>
   <g id="patch_73">
    <path d="M 246.565755 173.52 
L 256.08848 173.52 
L 256.08848 173.318699 
L 246.565755 173.318699 
z
" clip-path="url(#p31102dab02)" style="fill: #ff0000; opacity: 0.4"/>
   </g>
   <g id="patch_74">
    <path d="M 256.08848 173.52 
L 265.611205 173.52 
L 265.611205 173.377378 
L 256.08848 173.377378 
z
" clip-path="url(#p31102dab02)" style="fill: #ff0000; opacity: 0.4"/>
   </g>
   <g id="patch_75">
    <path d="M 265.611205 173.52 
L 275.133929 173.52 
L 275.133929 173.410795 
L 265.611205 173.410795 
z
" clip-path="url(#p31102dab02)" style="fill: #ff0000; opacity: 0.4"/>
   </g>
   <g id="patch_76">
    <path d="M 275.133929 173.52 
L 284.656654 173.52 
L 284.656654 173.440335 
L 275.133929 173.440335 
z
" clip-path="url(#p31102dab02)" style="fill: #ff0000; opacity: 0.4"/>
   </g>
   <g id="patch_77">
    <path d="M 284.656654 173.52 
L 294.179379 173.52 
L 294.179379 173.46493 
L 284.656654 173.46493 
z
" clip-path="url(#p31102dab02)" style="fill: #ff0000; opacity: 0.4"/>
   </g>
   <g id="patch_78">
    <path d="M 294.179379 173.52 
L 303.702104 173.52 
L 303.702104 173.473351 
L 294.179379 173.473351 
z
" clip-path="url(#p31102dab02)" style="fill: #ff0000; opacity: 0.4"/>
   </g>
   <g id="patch_79">
    <path d="M 303.702104 173.52 
L 313.224829 173.52 
L 313.224829 173.487118 
L 303.702104 173.487118 
z
" clip-path="url(#p31102dab02)" style="fill: #ff0000; opacity: 0.4"/>
   </g>
   <g id="patch_80">
    <path d="M 313.224829 173.52 
L 322.747554 173.52 
L 322.747554 173.493801 
L 313.224829 173.493801 
z
" clip-path="url(#p31102dab02)" style="fill: #ff0000; opacity: 0.4"/>
   </g>
   <g id="patch_81">
    <path d="M 322.747554 173.52 
L 332.270279 173.52 
L 332.270279 173.499415 
L 322.747554 173.499415 
z
" clip-path="url(#p31102dab02)" style="fill: #ff0000; opacity: 0.4"/>
   </g>
   <g id="patch_82">
    <path d="M 332.270279 173.52 
L 341.793003 173.52 
L 341.793003 173.506232 
L 332.270279 173.506232 
z
" clip-path="url(#p31102dab02)" style="fill: #ff0000; opacity: 0.4"/>
   </g>
   <g id="patch_83">
    <path d="M 341.793003 173.52 
L 351.315728 173.52 
L 351.315728 173.508638 
L 341.793003 173.508638 
z
" clip-path="url(#p31102dab02)" style="fill: #ff0000; opacity: 0.4"/>
   </g>
   <g id="patch_84">
    <path d="M 351.315728 173.52 
L 360.838453 173.52 
L 360.838453 173.511846 
L 351.315728 173.511846 
z
" clip-path="url(#p31102dab02)" style="fill: #ff0000; opacity: 0.4"/>
   </g>
   <g id="patch_85">
    <path d="M 360.838453 173.52 
L 370.361178 173.52 
L 370.361178 173.514386 
L 360.838453 173.514386 
z
" clip-path="url(#p31102dab02)" style="fill: #ff0000; opacity: 0.4"/>
   </g>
   <g id="patch_86">
    <path d="M 370.361178 173.52 
L 379.883903 173.52 
L 379.883903 173.516391 
L 370.361178 173.516391 
z
" clip-path="url(#p31102dab02)" style="fill: #ff0000; opacity: 0.4"/>
   </g>
   <g id="patch_87">
    <path d="M 379.883903 173.52 
L 389.406628 173.52 
L 389.406628 173.517594 
L 379.883903 173.517594 
z
" clip-path="url(#p31102dab02)" style="fill: #ff0000; opacity: 0.4"/>
   </g>
   <g id="patch_88">
    <path d="M 389.406628 173.52 
L 398.929352 173.52 
L 398.929352 173.51746 
L 389.406628 173.51746 
z
" clip-path="url(#p31102dab02)" style="fill: #ff0000; opacity: 0.4"/>
   </g>
   <g id="patch_89">
    <path d="M 398.929352 173.52 
L 408.452077 173.52 
L 408.452077 173.518396 
L 398.929352 173.518396 
z
" clip-path="url(#p31102dab02)" style="fill: #ff0000; opacity: 0.4"/>
   </g>
   <g id="patch_90">
    <path d="M 408.452077 173.52 
L 417.974802 173.52 
L 417.974802 173.518663 
L 408.452077 173.518663 
z
" clip-path="url(#p31102dab02)" style="fill: #ff0000; opacity: 0.4"/>
   </g>
   <g id="patch_91">
    <path d="M 417.974802 173.52 
L 427.497527 173.52 
L 427.497527 173.518931 
L 417.974802 173.518931 
z
" clip-path="url(#p31102dab02)" style="fill: #ff0000; opacity: 0.4"/>
   </g>
   <g id="patch_92">
    <path d="M 427.497527 173.52 
L 437.020252 173.52 
L 437.020252 173.519332 
L 427.497527 173.519332 
z
" clip-path="url(#p31102dab02)" style="fill: #ff0000; opacity: 0.4"/>
   </g>
   <g id="patch_93">
    <path d="M 437.020252 173.52 
L 446.542977 173.52 
L 446.542977 173.519332 
L 437.020252 173.519332 
z
" clip-path="url(#p31102dab02)" style="fill: #ff0000; opacity: 0.4"/>
   </g>
   <g id="patch_94">
    <path d="M 446.542977 173.52 
L 456.065702 173.52 
L 456.065702 173.519332 
L 446.542977 173.519332 
z
" clip-path="url(#p31102dab02)" style="fill: #ff0000; opacity: 0.4"/>
   </g>
   <g id="patch_95">
    <path d="M 456.065702 173.52 
L 465.588426 173.52 
L 465.588426 173.519866 
L 456.065702 173.519866 
z
" clip-path="url(#p31102dab02)" style="fill: #ff0000; opacity: 0.4"/>
   </g>
   <g id="patch_96">
    <path d="M 465.588426 173.52 
L 475.111151 173.52 
L 475.111151 173.519866 
L 465.588426 173.519866 
z
" clip-path="url(#p31102dab02)" style="fill: #ff0000; opacity: 0.4"/>
   </g>
   <g id="patch_97">
    <path d="M 475.111151 173.52 
L 484.633876 173.52 
L 484.633876 173.519465 
L 475.111151 173.519465 
z
" clip-path="url(#p31102dab02)" style="fill: #ff0000; opacity: 0.4"/>
   </g>
   <g id="patch_98">
    <path d="M 484.633876 173.52 
L 494.156601 173.52 
L 494.156601 173.519866 
L 484.633876 173.519866 
z
" clip-path="url(#p31102dab02)" style="fill: #ff0000; opacity: 0.4"/>
   </g>
   <g id="patch_99">
    <path d="M 494.156601 173.52 
L 503.679326 173.52 
L 503.679326 173.52 
L 494.156601 173.52 
z
" clip-path="url(#p31102dab02)" style="fill: #ff0000; opacity: 0.4"/>
   </g>
   <g id="patch_100">
    <path d="M 503.679326 173.52 
L 513.202051 173.52 
L 513.202051 173.519866 
L 503.679326 173.519866 
z
" clip-path="url(#p31102dab02)" style="fill: #ff0000; opacity: 0.4"/>
   </g>
   <g id="patch_101">
    <path d="M 513.202051 173.52 
L 522.724776 173.52 
L 522.724776 173.519866 
L 513.202051 173.519866 
z
" clip-path="url(#p31102dab02)" style="fill: #ff0000; opacity: 0.4"/>
   </g>
   <g id="patch_102">
    <path d="M 522.724776 173.52 
L 532.2475 173.52 
L 532.2475 173.519866 
L 522.724776 173.519866 
z
" clip-path="url(#p31102dab02)" style="fill: #ff0000; opacity: 0.4"/>
   </g>
   <g id="patch_103">
    <path d="M 56.111255 173.52 
L 62.006275 173.52 
L 62.006275 43.438248 
L 56.111255 43.438248 
z
" clip-path="url(#p31102dab02)" style="fill: #008000; opacity: 0.4"/>
   </g>
   <g id="patch_104">
    <path d="M 62.006275 173.52 
L 67.901295 173.52 
L 67.901295 81.014703 
L 62.006275 81.014703 
z
" clip-path="url(#p31102dab02)" style="fill: #008000; opacity: 0.4"/>
   </g>
   <g id="patch_105">
    <path d="M 67.901295 173.52 
L 73.796316 173.52 
L 73.796316 107.35439 
L 67.901295 107.35439 
z
" clip-path="url(#p31102dab02)" style="fill: #008000; opacity: 0.4"/>
   </g>
   <g id="patch_106">
    <path d="M 73.796316 173.52 
L 79.691336 173.52 
L 79.691336 125.913065 
L 73.796316 125.913065 
z
" clip-path="url(#p31102dab02)" style="fill: #008000; opacity: 0.4"/>
   </g>
   <g id="patch_107">
    <path d="M 79.691336 173.52 
L 85.586356 173.52 
L 85.586356 139.191267 
L 79.691336 139.191267 
z
" clip-path="url(#p31102dab02)" style="fill: #008000; opacity: 0.4"/>
   </g>
   <g id="patch_108">
    <path d="M 85.586356 173.52 
L 91.481376 173.52 
L 91.481376 148.622947 
L 85.586356 148.622947 
z
" clip-path="url(#p31102dab02)" style="fill: #008000; opacity: 0.4"/>
   </g>
   <g id="patch_109">
    <path d="M 91.481376 173.52 
L 97.376396 173.52 
L 97.376396 155.589953 
L 91.481376 155.589953 
z
" clip-path="url(#p31102dab02)" style="fill: #008000; opacity: 0.4"/>
   </g>
   <g id="patch_110">
    <path d="M 97.376396 173.52 
L 103.271417 173.52 
L 103.271417 160.347891 
L 97.376396 160.347891 
z
" clip-path="url(#p31102dab02)" style="fill: #008000; opacity: 0.4"/>
   </g>
   <g id="patch_111">
    <path d="M 103.271417 173.52 
L 109.166437 173.52 
L 109.166437 163.861787 
L 103.271417 163.861787 
z
" clip-path="url(#p31102dab02)" style="fill: #008000; opacity: 0.4"/>
   </g>
   <g id="patch_112">
    <path d="M 109.166437 173.52 
L 115.061457 173.52 
L 115.061457 166.532983 
L 109.166437 166.532983 
z
" clip-path="url(#p31102dab02)" style="fill: #008000; opacity: 0.4"/>
   </g>
   <g id="patch_113">
    <path d="M 115.061457 173.52 
L 120.956477 173.52 
L 120.956477 168.380355 
L 115.061457 168.380355 
z
" clip-path="url(#p31102dab02)" style="fill: #008000; opacity: 0.4"/>
   </g>
   <g id="patch_114">
    <path d="M 120.956477 173.52 
L 126.851498 173.52 
L 126.851498 169.737285 
L 120.956477 169.737285 
z
" clip-path="url(#p31102dab02)" style="fill: #008000; opacity: 0.4"/>
   </g>
   <g id="patch_115">
    <path d="M 126.851498 173.52 
L 132.746518 173.52 
L 132.746518 170.742712 
L 126.851498 170.742712 
z
" clip-path="url(#p31102dab02)" style="fill: #008000; opacity: 0.4"/>
   </g>
   <g id="patch_116">
    <path d="M 132.746518 173.52 
L 138.641538 173.52 
L 138.641538 171.501973 
L 132.746518 171.501973 
z
" clip-path="url(#p31102dab02)" style="fill: #008000; opacity: 0.4"/>
   </g>
   <g id="patch_117">
    <path d="M 138.641538 173.52 
L 144.536558 173.52 
L 144.536558 172.018845 
L 138.641538 172.018845 
z
" clip-path="url(#p31102dab02)" style="fill: #008000; opacity: 0.4"/>
   </g>
   <g id="patch_118">
    <path d="M 144.536558 173.52 
L 150.431579 173.52 
L 150.431579 172.365439 
L 144.536558 172.365439 
z
" clip-path="url(#p31102dab02)" style="fill: #008000; opacity: 0.4"/>
   </g>
   <g id="patch_119">
    <path d="M 150.431579 173.52 
L 156.326599 173.52 
L 156.326599 172.718075 
L 150.431579 172.718075 
z
" clip-path="url(#p31102dab02)" style="fill: #008000; opacity: 0.4"/>
   </g>
   <g id="patch_120">
    <path d="M 156.326599 173.52 
L 162.221619 173.52 
L 162.221619 172.920066 
L 156.326599 172.920066 
z
" clip-path="url(#p31102dab02)" style="fill: #008000; opacity: 0.4"/>
   </g>
   <g id="patch_121">
    <path d="M 162.221619 173.52 
L 168.116639 173.52 
L 168.116639 173.096384 
L 162.221619 173.096384 
z
" clip-path="url(#p31102dab02)" style="fill: #008000; opacity: 0.4"/>
   </g>
   <g id="patch_122">
    <path d="M 168.116639 173.52 
L 174.01166 173.52 
L 174.01166 173.194926 
L 168.116639 173.194926 
z
" clip-path="url(#p31102dab02)" style="fill: #008000; opacity: 0.4"/>
   </g>
   <g id="patch_123">
    <path d="M 174.01166 173.52 
L 179.90668 173.52 
L 179.90668 173.279498 
L 174.01166 173.279498 
z
" clip-path="url(#p31102dab02)" style="fill: #008000; opacity: 0.4"/>
   </g>
   <g id="patch_124">
    <path d="M 179.90668 173.52 
L 185.8017 173.52 
L 185.8017 173.346325 
L 179.90668 173.346325 
z
" clip-path="url(#p31102dab02)" style="fill: #008000; opacity: 0.4"/>
   </g>
   <g id="patch_125">
    <path d="M 185.8017 173.52 
L 191.69672 173.52 
L 191.69672 173.383325 
L 185.8017 173.383325 
z
" clip-path="url(#p31102dab02)" style="fill: #008000; opacity: 0.4"/>
   </g>
   <g id="patch_126">
    <path d="M 191.69672 173.52 
L 197.59174 173.52 
L 197.59174 173.417683 
L 191.69672 173.417683 
z
" clip-path="url(#p31102dab02)" style="fill: #008000; opacity: 0.4"/>
   </g>
   <g id="patch_127">
    <path d="M 197.59174 173.52 
L 203.486761 173.52 
L 203.486761 173.44751 
L 197.59174 173.44751 
z
" clip-path="url(#p31102dab02)" style="fill: #008000; opacity: 0.4"/>
   </g>
   <g id="patch_128">
    <path d="M 203.486761 173.52 
L 209.381781 173.52 
L 209.381781 173.464122 
L 203.486761 173.464122 
z
" clip-path="url(#p31102dab02)" style="fill: #008000; opacity: 0.4"/>
   </g>
   <g id="patch_129">
    <path d="M 209.381781 173.52 
L 215.276801 173.52 
L 215.276801 173.473561 
L 209.381781 173.473561 
z
" clip-path="url(#p31102dab02)" style="fill: #008000; opacity: 0.4"/>
   </g>
   <g id="patch_130">
    <path d="M 215.276801 173.52 
L 221.171821 173.52 
L 221.171821 173.489418 
L 215.276801 173.489418 
z
" clip-path="url(#p31102dab02)" style="fill: #008000; opacity: 0.4"/>
   </g>
   <g id="patch_131">
    <path d="M 221.171821 173.52 
L 227.066842 173.52 
L 227.066842 173.497724 
L 221.171821 173.497724 
z
" clip-path="url(#p31102dab02)" style="fill: #008000; opacity: 0.4"/>
   </g>
   <g id="patch_132">
    <path d="M 227.066842 173.52 
L 232.961862 173.52 
L 232.961862 173.501877 
L 227.066842 173.501877 
z
" clip-path="url(#p31102dab02)" style="fill: #008000; opacity: 0.4"/>
   </g>
   <g id="patch_133">
    <path d="M 232.961862 173.52 
L 238.856882 173.52 
L 238.856882 173.50603 
L 232.961862 173.50603 
z
" clip-path="url(#p31102dab02)" style="fill: #008000; opacity: 0.4"/>
   </g>
   <g id="patch_134">
    <path d="M 238.856882 173.52 
L 244.751902 173.52 
L 244.751902 173.512826 
L 238.856882 173.512826 
z
" clip-path="url(#p31102dab02)" style="fill: #008000; opacity: 0.4"/>
   </g>
   <g id="patch_135">
    <path d="M 244.751902 173.52 
L 250.646923 173.52 
L 250.646923 173.513959 
L 244.751902 173.513959 
z
" clip-path="url(#p31102dab02)" style="fill: #008000; opacity: 0.4"/>
   </g>
   <g id="patch_136">
    <path d="M 250.646923 173.52 
L 256.541943 173.52 
L 256.541943 173.513959 
L 250.646923 173.513959 
z
" clip-path="url(#p31102dab02)" style="fill: #008000; opacity: 0.4"/>
   </g>
   <g id="patch_137">
    <path d="M 256.541943 173.52 
L 262.436963 173.52 
L 262.436963 173.516602 
L 256.541943 173.516602 
z
" clip-path="url(#p31102dab02)" style="fill: #008000; opacity: 0.4"/>
   </g>
   <g id="patch_138">
    <path d="M 262.436963 173.52 
L 268.331983 173.52 
L 268.331983 173.517735 
L 262.436963 173.517735 
z
" clip-path="url(#p31102dab02)" style="fill: #008000; opacity: 0.4"/>
   </g>
   <g id="patch_139">
    <path d="M 268.331983 173.52 
L 274.227004 173.52 
L 274.227004 173.518867 
L 268.331983 173.518867 
z
" clip-path="url(#p31102dab02)" style="fill: #008000; opacity: 0.4"/>
   </g>
   <g id="patch_140">
    <path d="M 274.227004 173.52 
L 280.122024 173.52 
L 280.122024 173.518112 
L 274.227004 173.518112 
z
" clip-path="url(#p31102dab02)" style="fill: #008000; opacity: 0.4"/>
   </g>
   <g id="patch_141">
    <path d="M 280.122024 173.52 
L 286.017044 173.52 
L 286.017044 173.518867 
L 280.122024 173.518867 
z
" clip-path="url(#p31102dab02)" style="fill: #008000; opacity: 0.4"/>
   </g>
   <g id="patch_142">
    <path d="M 286.017044 173.52 
L 291.912064 173.52 
L 291.912064 173.51849 
L 286.017044 173.51849 
z
" clip-path="url(#p31102dab02)" style="fill: #008000; opacity: 0.4"/>
   </g>
   <g id="patch_143">
    <path d="M 291.912064 173.52 
L 297.807084 173.52 
L 297.807084 173.518867 
L 291.912064 173.518867 
z
" clip-path="url(#p31102dab02)" style="fill: #008000; opacity: 0.4"/>
   </g>
   <g id="patch_144">
    <path d="M 297.807084 173.52 
L 303.702105 173.52 
L 303.702105 173.518867 
L 297.807084 173.518867 
z
" clip-path="url(#p31102dab02)" style="fill: #008000; opacity: 0.4"/>
   </g>
   <g id="patch_145">
    <path d="M 303.702105 173.52 
L 309.597125 173.52 
L 309.597125 173.52 
L 303.702105 173.52 
z
" clip-path="url(#p31102dab02)" style="fill: #008000; opacity: 0.4"/>
   </g>
   <g id="patch_146">
    <path d="M 309.597125 173.52 
L 315.492145 173.52 
L 315.492145 173.52 
L 309.597125 173.52 
z
" clip-path="url(#p31102dab02)" style="fill: #008000; opacity: 0.4"/>
   </g>
   <g id="patch_147">
    <path d="M 315.492145 173.52 
L 321.387165 173.52 
L 321.387165 173.519245 
L 315.492145 173.519245 
z
" clip-path="url(#p31102dab02)" style="fill: #008000; opacity: 0.4"/>
   </g>
   <g id="patch_148">
    <path d="M 321.387165 173.52 
L 327.282186 173.52 
L 327.282186 173.52 
L 321.387165 173.52 
z
" clip-path="url(#p31102dab02)" style="fill: #008000; opacity: 0.4"/>
   </g>
   <g id="patch_149">
    <path d="M 327.282186 173.52 
L 333.177206 173.52 
L 333.177206 173.52 
L 327.282186 173.52 
z
" clip-path="url(#p31102dab02)" style="fill: #008000; opacity: 0.4"/>
   </g>
   <g id="patch_150">
    <path d="M 333.177206 173.52 
L 339.072226 173.52 
L 339.072226 173.519622 
L 333.177206 173.519622 
z
" clip-path="url(#p31102dab02)" style="fill: #008000; opacity: 0.4"/>
   </g>
   <g id="patch_151">
    <path d="M 339.072226 173.52 
L 344.967246 173.52 
L 344.967246 173.52 
L 339.072226 173.52 
z
" clip-path="url(#p31102dab02)" style="fill: #008000; opacity: 0.4"/>
   </g>
   <g id="patch_152">
    <path d="M 344.967246 173.52 
L 350.862267 173.52 
L 350.862267 173.519622 
L 344.967246 173.519622 
z
" clip-path="url(#p31102dab02)" style="fill: #008000; opacity: 0.4"/>
   </g>
   <g id="matplotlib.axis_1">
    <g id="xtick_1">
     <g id="line2d_1">
      <defs>
       <path id="mdf5ea70932" d="M 0 0 
L 0 6 
" style="stroke: #000000; stroke-width: 2"/>
      </defs>
      <g>
       <use xlink:href="#mdf5ea70932" x="56.11125" y="173.52" style="stroke: #000000; stroke-width: 2"/>
      </g>
     </g>
     <g id="text_1">
      <!-- 0 -->
      <g transform="translate(49.430625 198.976719) scale(0.21 -0.21)">
       <defs>
        <path id="DejaVuSans-30" d="M 2034 4250 
Q 1547 4250 1301 3770 
Q 1056 3291 1056 2328 
Q 1056 1369 1301 889 
Q 1547 409 2034 409 
Q 2525 409 2770 889 
Q 3016 1369 3016 2328 
Q 3016 3291 2770 3770 
Q 2525 4250 2034 4250 
z
M 2034 4750 
Q 2819 4750 3233 4129 
Q 3647 3509 3647 2328 
Q 3647 1150 3233 529 
Q 2819 -91 2034 -91 
Q 1250 -91 836 529 
Q 422 1150 422 2328 
Q 422 3509 836 4129 
Q 1250 4750 2034 4750 
z
" transform="scale(0.015625)"/>
       </defs>
       <use xlink:href="#DejaVuSans-30"/>
      </g>
     </g>
    </g>
    <g id="xtick_2">
     <g id="line2d_2">
      <g>
       <use xlink:href="#mdf5ea70932" x="139.81125" y="173.52" style="stroke: #000000; stroke-width: 2"/>
      </g>
     </g>
     <g id="text_2">
      <!-- 2 -->
      <g transform="translate(133.130625 198.976719) scale(0.21 -0.21)">
       <defs>
        <path id="DejaVuSans-32" d="M 1228 531 
L 3431 531 
L 3431 0 
L 469 0 
L 469 531 
Q 828 903 1448 1529 
Q 2069 2156 2228 2338 
Q 2531 2678 2651 2914 
Q 2772 3150 2772 3378 
Q 2772 3750 2511 3984 
Q 2250 4219 1831 4219 
Q 1534 4219 1204 4116 
Q 875 4013 500 3803 
L 500 4441 
Q 881 4594 1212 4672 
Q 1544 4750 1819 4750 
Q 2544 4750 2975 4387 
Q 3406 4025 3406 3419 
Q 3406 3131 3298 2873 
Q 3191 2616 2906 2266 
Q 2828 2175 2409 1742 
Q 1991 1309 1228 531 
z
" transform="scale(0.015625)"/>
       </defs>
       <use xlink:href="#DejaVuSans-32"/>
      </g>
     </g>
    </g>
    <g id="xtick_3">
     <g id="line2d_3">
      <g>
       <use xlink:href="#mdf5ea70932" x="223.51125" y="173.52" style="stroke: #000000; stroke-width: 2"/>
      </g>
     </g>
     <g id="text_3">
      <!-- 4 -->
      <g transform="translate(216.830625 198.976719) scale(0.21 -0.21)">
       <defs>
        <path id="DejaVuSans-34" d="M 2419 4116 
L 825 1625 
L 2419 1625 
L 2419 4116 
z
M 2253 4666 
L 3047 4666 
L 3047 1625 
L 3713 1625 
L 3713 1100 
L 3047 1100 
L 3047 0 
L 2419 0 
L 2419 1100 
L 313 1100 
L 313 1709 
L 2253 4666 
z
" transform="scale(0.015625)"/>
       </defs>
       <use xlink:href="#DejaVuSans-34"/>
      </g>
     </g>
    </g>
    <g id="xtick_4">
     <g id="line2d_4">
      <g>
       <use xlink:href="#mdf5ea70932" x="307.21125" y="173.52" style="stroke: #000000; stroke-width: 2"/>
      </g>
     </g>
     <g id="text_4">
      <!-- 6 -->
      <g transform="translate(300.530625 198.976719) scale(0.21 -0.21)">
       <defs>
        <path id="DejaVuSans-36" d="M 2113 2584 
Q 1688 2584 1439 2293 
Q 1191 2003 1191 1497 
Q 1191 994 1439 701 
Q 1688 409 2113 409 
Q 2538 409 2786 701 
Q 3034 994 3034 1497 
Q 3034 2003 2786 2293 
Q 2538 2584 2113 2584 
z
M 3366 4563 
L 3366 3988 
Q 3128 4100 2886 4159 
Q 2644 4219 2406 4219 
Q 1781 4219 1451 3797 
Q 1122 3375 1075 2522 
Q 1259 2794 1537 2939 
Q 1816 3084 2150 3084 
Q 2853 3084 3261 2657 
Q 3669 2231 3669 1497 
Q 3669 778 3244 343 
Q 2819 -91 2113 -91 
Q 1303 -91 875 529 
Q 447 1150 447 2328 
Q 447 3434 972 4092 
Q 1497 4750 2381 4750 
Q 2619 4750 2861 4703 
Q 3103 4656 3366 4563 
z
" transform="scale(0.015625)"/>
       </defs>
       <use xlink:href="#DejaVuSans-36"/>
      </g>
     </g>
    </g>
    <g id="xtick_5">
     <g id="line2d_5">
      <g>
       <use xlink:href="#mdf5ea70932" x="390.91125" y="173.52" style="stroke: #000000; stroke-width: 2"/>
      </g>
     </g>
     <g id="text_5">
      <!-- 8 -->
      <g transform="translate(384.230625 198.976719) scale(0.21 -0.21)">
       <defs>
        <path id="DejaVuSans-38" d="M 2034 2216 
Q 1584 2216 1326 1975 
Q 1069 1734 1069 1313 
Q 1069 891 1326 650 
Q 1584 409 2034 409 
Q 2484 409 2743 651 
Q 3003 894 3003 1313 
Q 3003 1734 2745 1975 
Q 2488 2216 2034 2216 
z
M 1403 2484 
Q 997 2584 770 2862 
Q 544 3141 544 3541 
Q 544 4100 942 4425 
Q 1341 4750 2034 4750 
Q 2731 4750 3128 4425 
Q 3525 4100 3525 3541 
Q 3525 3141 3298 2862 
Q 3072 2584 2669 2484 
Q 3125 2378 3379 2068 
Q 3634 1759 3634 1313 
Q 3634 634 3220 271 
Q 2806 -91 2034 -91 
Q 1263 -91 848 271 
Q 434 634 434 1313 
Q 434 1759 690 2068 
Q 947 2378 1403 2484 
z
M 1172 3481 
Q 1172 3119 1398 2916 
Q 1625 2713 2034 2713 
Q 2441 2713 2670 2916 
Q 2900 3119 2900 3481 
Q 2900 3844 2670 4047 
Q 2441 4250 2034 4250 
Q 1625 4250 1398 4047 
Q 1172 3844 1172 3481 
z
" transform="scale(0.015625)"/>
       </defs>
       <use xlink:href="#DejaVuSans-38"/>
      </g>
     </g>
    </g>
    <g id="text_6">
     <!-- lifetimes [$10^{−10}$ × $10^{-10}s$] -->
     <g transform="translate(87.32625 225.026719) scale(0.21 -0.21)">
      <defs>
       <path id="DejaVuSans-6c" d="M 603 4863 
L 1178 4863 
L 1178 0 
L 603 0 
L 603 4863 
z
" transform="scale(0.015625)"/>
       <path id="DejaVuSans-69" d="M 603 3500 
L 1178 3500 
L 1178 0 
L 603 0 
L 603 3500 
z
M 603 4863 
L 1178 4863 
L 1178 4134 
L 603 4134 
L 603 4863 
z
" transform="scale(0.015625)"/>
       <path id="DejaVuSans-66" d="M 2375 4863 
L 2375 4384 
L 1825 4384 
Q 1516 4384 1395 4259 
Q 1275 4134 1275 3809 
L 1275 3500 
L 2222 3500 
L 2222 3053 
L 1275 3053 
L 1275 0 
L 697 0 
L 697 3053 
L 147 3053 
L 147 3500 
L 697 3500 
L 697 3744 
Q 697 4328 969 4595 
Q 1241 4863 1831 4863 
L 2375 4863 
z
" transform="scale(0.015625)"/>
       <path id="DejaVuSans-65" d="M 3597 1894 
L 3597 1613 
L 953 1613 
Q 991 1019 1311 708 
Q 1631 397 2203 397 
Q 2534 397 2845 478 
Q 3156 559 3463 722 
L 3463 178 
Q 3153 47 2828 -22 
Q 2503 -91 2169 -91 
Q 1331 -91 842 396 
Q 353 884 353 1716 
Q 353 2575 817 3079 
Q 1281 3584 2069 3584 
Q 2775 3584 3186 3129 
Q 3597 2675 3597 1894 
z
M 3022 2063 
Q 3016 2534 2758 2815 
Q 2500 3097 2075 3097 
Q 1594 3097 1305 2825 
Q 1016 2553 972 2059 
L 3022 2063 
z
" transform="scale(0.015625)"/>
       <path id="DejaVuSans-74" d="M 1172 4494 
L 1172 3500 
L 2356 3500 
L 2356 3053 
L 1172 3053 
L 1172 1153 
Q 1172 725 1289 603 
Q 1406 481 1766 481 
L 2356 481 
L 2356 0 
L 1766 0 
Q 1100 0 847 248 
Q 594 497 594 1153 
L 594 3053 
L 172 3053 
L 172 3500 
L 594 3500 
L 594 4494 
L 1172 4494 
z
" transform="scale(0.015625)"/>
       <path id="DejaVuSans-6d" d="M 3328 2828 
Q 3544 3216 3844 3400 
Q 4144 3584 4550 3584 
Q 5097 3584 5394 3201 
Q 5691 2819 5691 2113 
L 5691 0 
L 5113 0 
L 5113 2094 
Q 5113 2597 4934 2840 
Q 4756 3084 4391 3084 
Q 3944 3084 3684 2787 
Q 3425 2491 3425 1978 
L 3425 0 
L 2847 0 
L 2847 2094 
Q 2847 2600 2669 2842 
Q 2491 3084 2119 3084 
Q 1678 3084 1418 2786 
Q 1159 2488 1159 1978 
L 1159 0 
L 581 0 
L 581 3500 
L 1159 3500 
L 1159 2956 
Q 1356 3278 1631 3431 
Q 1906 3584 2284 3584 
Q 2666 3584 2933 3390 
Q 3200 3197 3328 2828 
z
" transform="scale(0.015625)"/>
       <path id="DejaVuSans-73" d="M 2834 3397 
L 2834 2853 
Q 2591 2978 2328 3040 
Q 2066 3103 1784 3103 
Q 1356 3103 1142 2972 
Q 928 2841 928 2578 
Q 928 2378 1081 2264 
Q 1234 2150 1697 2047 
L 1894 2003 
Q 2506 1872 2764 1633 
Q 3022 1394 3022 966 
Q 3022 478 2636 193 
Q 2250 -91 1575 -91 
Q 1294 -91 989 -36 
Q 684 19 347 128 
L 347 722 
Q 666 556 975 473 
Q 1284 391 1588 391 
Q 1994 391 2212 530 
Q 2431 669 2431 922 
Q 2431 1156 2273 1281 
Q 2116 1406 1581 1522 
L 1381 1569 
Q 847 1681 609 1914 
Q 372 2147 372 2553 
Q 372 3047 722 3315 
Q 1072 3584 1716 3584 
Q 2034 3584 2315 3537 
Q 2597 3491 2834 3397 
z
" transform="scale(0.015625)"/>
       <path id="DejaVuSans-20" transform="scale(0.015625)"/>
       <path id="DejaVuSans-5b" d="M 550 4863 
L 1875 4863 
L 1875 4416 
L 1125 4416 
L 1125 -397 
L 1875 -397 
L 1875 -844 
L 550 -844 
L 550 4863 
z
" transform="scale(0.015625)"/>
       <path id="DejaVuSans-31" d="M 794 531 
L 1825 531 
L 1825 4091 
L 703 3866 
L 703 4441 
L 1819 4666 
L 2450 4666 
L 2450 531 
L 3481 531 
L 3481 0 
L 794 0 
L 794 531 
z
" transform="scale(0.015625)"/>
       <path id="DejaVuSans-2212" d="M 678 2272 
L 4684 2272 
L 4684 1741 
L 678 1741 
L 678 2272 
z
" transform="scale(0.015625)"/>
       <path id="DejaVuSans-d7" d="M 4488 3438 
L 3059 2003 
L 4488 575 
L 4116 197 
L 2681 1631 
L 1247 197 
L 878 575 
L 2303 2003 
L 878 3438 
L 1247 3816 
L 2681 2381 
L 4116 3816 
L 4488 3438 
z
" transform="scale(0.015625)"/>
       <path id="DejaVuSans-Oblique-73" d="M 3200 3397 
L 3091 2853 
Q 2863 2978 2609 3040 
Q 2356 3103 2088 3103 
Q 1634 3103 1373 2948 
Q 1113 2794 1113 2528 
Q 1113 2219 1719 2053 
Q 1766 2041 1788 2034 
L 1972 1978 
Q 2547 1819 2739 1644 
Q 2931 1469 2931 1166 
Q 2931 609 2489 259 
Q 2047 -91 1331 -91 
Q 1053 -91 747 -37 
Q 441 16 72 128 
L 184 722 
Q 500 559 806 475 
Q 1113 391 1394 391 
Q 1816 391 2080 572 
Q 2344 753 2344 1031 
Q 2344 1331 1650 1516 
L 1591 1531 
L 1394 1581 
Q 956 1697 753 1886 
Q 550 2075 550 2369 
Q 550 2928 970 3256 
Q 1391 3584 2113 3584 
Q 2397 3584 2667 3537 
Q 2938 3491 3200 3397 
z
" transform="scale(0.015625)"/>
       <path id="DejaVuSans-5d" d="M 1947 4863 
L 1947 -844 
L 622 -844 
L 622 -397 
L 1369 -397 
L 1369 4416 
L 622 4416 
L 622 4863 
L 1947 4863 
z
" transform="scale(0.015625)"/>
      </defs>
      <use xlink:href="#DejaVuSans-6c" transform="translate(0 0.765625)"/>
      <use xlink:href="#DejaVuSans-69" transform="translate(27.783203 0.765625)"/>
      <use xlink:href="#DejaVuSans-66" transform="translate(55.566406 0.765625)"/>
      <use xlink:href="#DejaVuSans-65" transform="translate(90.771484 0.765625)"/>
      <use xlink:href="#DejaVuSans-74" transform="translate(152.294922 0.765625)"/>
      <use xlink:href="#DejaVuSans-69" transform="translate(191.503906 0.765625)"/>
      <use xlink:href="#DejaVuSans-6d" transform="translate(219.287109 0.765625)"/>
      <use xlink:href="#DejaVuSans-65" transform="translate(316.699219 0.765625)"/>
      <use xlink:href="#DejaVuSans-73" transform="translate(378.222656 0.765625)"/>
      <use xlink:href="#DejaVuSans-20" transform="translate(430.322266 0.765625)"/>
      <use xlink:href="#DejaVuSans-5b" transform="translate(462.109375 0.765625)"/>
      <use xlink:href="#DejaVuSans-31" transform="translate(501.123047 0.765625)"/>
      <use xlink:href="#DejaVuSans-30" transform="translate(564.746094 0.765625)"/>
      <use xlink:href="#DejaVuSans-2212" transform="translate(629.326172 39.046875) scale(0.7)"/>
      <use xlink:href="#DejaVuSans-31" transform="translate(687.978516 39.046875) scale(0.7)"/>
      <use xlink:href="#DejaVuSans-30" transform="translate(732.514648 39.046875) scale(0.7)"/>
      <use xlink:href="#DejaVuSans-20" transform="translate(779.785156 0.765625)"/>
      <use xlink:href="#DejaVuSans-d7" transform="translate(811.572266 0.765625)"/>
      <use xlink:href="#DejaVuSans-20" transform="translate(895.361328 0.765625)"/>
      <use xlink:href="#DejaVuSans-31" transform="translate(927.148438 0.765625)"/>
      <use xlink:href="#DejaVuSans-30" transform="translate(990.771484 0.765625)"/>
      <use xlink:href="#DejaVuSans-2212" transform="translate(1055.351562 39.046875) scale(0.7)"/>
      <use xlink:href="#DejaVuSans-31" transform="translate(1114.003906 39.046875) scale(0.7)"/>
      <use xlink:href="#DejaVuSans-30" transform="translate(1158.540039 39.046875) scale(0.7)"/>
      <use xlink:href="#DejaVuSans-Oblique-73" transform="translate(1205.810547 0.765625)"/>
      <use xlink:href="#DejaVuSans-5d" transform="translate(1257.910156 0.765625)"/>
     </g>
    </g>
   </g>
   <g id="matplotlib.axis_2">
    <g id="ytick_1">
     <g id="line2d_6">
      <defs>
       <path id="m88a8ad963b" d="M 0 0 
L -6 0 
" style="stroke: #000000; stroke-width: 2"/>
      </defs>
      <g>
       <use xlink:href="#m88a8ad963b" x="56.11125" y="173.52" style="stroke: #000000; stroke-width: 2"/>
      </g>
     </g>
     <g id="text_7">
      <!-- 0 -->
      <g transform="translate(33.25 181.498359) scale(0.21 -0.21)">
       <use xlink:href="#DejaVuSans-30"/>
      </g>
     </g>
    </g>
    <g id="ytick_2">
     <g id="line2d_7">
      <g>
       <use xlink:href="#m88a8ad963b" x="56.11125" y="108.329107" style="stroke: #000000; stroke-width: 2"/>
      </g>
     </g>
     <g id="text_8">
      <!-- 1 -->
      <g transform="translate(33.25 116.307466) scale(0.21 -0.21)">
       <use xlink:href="#DejaVuSans-31"/>
      </g>
     </g>
    </g>
    <g id="ytick_3">
     <g id="line2d_8">
      <g>
       <use xlink:href="#m88a8ad963b" x="56.11125" y="43.138214" style="stroke: #000000; stroke-width: 2"/>
      </g>
     </g>
     <g id="text_9">
      <!-- 2 -->
      <g transform="translate(33.25 51.116573) scale(0.21 -0.21)">
       <use xlink:href="#DejaVuSans-32"/>
      </g>
     </g>
    </g>
    <g id="text_10">
     <!-- PD [$10^{10}$ × $10^{10}$] -->
     <g transform="translate(24.882656 178.035) rotate(-90) scale(0.21 -0.21)">
      <defs>
       <path id="DejaVuSans-50" d="M 1259 4147 
L 1259 2394 
L 2053 2394 
Q 2494 2394 2734 2622 
Q 2975 2850 2975 3272 
Q 2975 3691 2734 3919 
Q 2494 4147 2053 4147 
L 1259 4147 
z
M 628 4666 
L 2053 4666 
Q 2838 4666 3239 4311 
Q 3641 3956 3641 3272 
Q 3641 2581 3239 2228 
Q 2838 1875 2053 1875 
L 1259 1875 
L 1259 0 
L 628 0 
L 628 4666 
z
" transform="scale(0.015625)"/>
       <path id="DejaVuSans-44" d="M 1259 4147 
L 1259 519 
L 2022 519 
Q 2988 519 3436 956 
Q 3884 1394 3884 2338 
Q 3884 3275 3436 3711 
Q 2988 4147 2022 4147 
L 1259 4147 
z
M 628 4666 
L 1925 4666 
Q 3281 4666 3915 4102 
Q 4550 3538 4550 2338 
Q 4550 1131 3912 565 
Q 3275 0 1925 0 
L 628 0 
L 628 4666 
z
" transform="scale(0.015625)"/>
      </defs>
      <use xlink:href="#DejaVuSans-50" transform="translate(0 0.765625)"/>
      <use xlink:href="#DejaVuSans-44" transform="translate(60.302734 0.765625)"/>
      <use xlink:href="#DejaVuSans-20" transform="translate(137.304688 0.765625)"/>
      <use xlink:href="#DejaVuSans-5b" transform="translate(169.091797 0.765625)"/>
      <use xlink:href="#DejaVuSans-31" transform="translate(208.105469 0.765625)"/>
      <use xlink:href="#DejaVuSans-30" transform="translate(271.728516 0.765625)"/>
      <use xlink:href="#DejaVuSans-31" transform="translate(336.308594 39.046875) scale(0.7)"/>
      <use xlink:href="#DejaVuSans-30" transform="translate(380.844727 39.046875) scale(0.7)"/>
      <use xlink:href="#DejaVuSans-20" transform="translate(428.115234 0.765625)"/>
      <use xlink:href="#DejaVuSans-d7" transform="translate(459.902344 0.765625)"/>
      <use xlink:href="#DejaVuSans-20" transform="translate(543.691406 0.765625)"/>
      <use xlink:href="#DejaVuSans-31" transform="translate(575.478516 0.765625)"/>
      <use xlink:href="#DejaVuSans-30" transform="translate(639.101562 0.765625)"/>
      <use xlink:href="#DejaVuSans-31" transform="translate(703.681641 39.046875) scale(0.7)"/>
      <use xlink:href="#DejaVuSans-30" transform="translate(748.217773 39.046875) scale(0.7)"/>
      <use xlink:href="#DejaVuSans-5d" transform="translate(795.488281 0.765625)"/>
     </g>
    </g>
   </g>
   <g id="line2d_9">
    <path d="M 56.11125 134.405464 
L 59.493068 136.256686 
L 62.874886 138.020292 
L 66.256705 139.70043 
L 69.638523 141.301051 
L 73.020341 142.825916 
L 76.402159 144.278613 
L 79.783977 145.662556 
L 83.165795 146.980999 
L 86.547614 148.237043 
L 89.929432 149.433641 
L 93.31125 150.573605 
L 96.693068 151.659618 
L 100.074886 152.694231 
L 103.456705 153.679877 
L 106.838523 154.618875 
L 110.220341 155.513432 
L 113.602159 156.365651 
L 116.983977 157.177536 
L 120.365795 157.950996 
L 123.747614 158.687849 
L 127.129432 159.389828 
L 130.51125 160.058584 
L 133.893068 160.695689 
L 137.274886 161.302641 
L 140.656705 161.880867 
L 144.038523 162.431727 
L 147.420341 162.956515 
L 150.802159 163.456466 
L 154.183977 163.932755 
L 157.565795 164.386502 
L 160.947614 164.818775 
L 164.329432 165.230588 
L 167.71125 165.622911 
L 171.093068 165.996667 
L 174.474886 166.352733 
L 177.856705 166.691947 
L 181.238523 167.015106 
L 184.620341 167.322971 
L 188.002159 167.616266 
L 191.383977 167.895679 
L 194.765795 168.161868 
L 198.147614 168.415459 
L 201.529432 168.657048 
L 204.91125 168.887203 
L 208.293068 169.106465 
L 211.674886 169.31535 
L 215.056705 169.514348 
L 218.438523 169.703929 
L 221.820341 169.884537 
L 225.202159 170.056597 
L 228.583977 170.220513 
L 231.965795 170.376672 
L 235.347614 170.52544 
L 238.729432 170.667168 
L 242.11125 170.802187 
L 245.493068 170.930816 
L 248.874886 171.053358 
L 252.256705 171.1701 
L 255.638523 171.281316 
L 259.020341 171.387269 
L 262.402159 171.488208 
L 265.783977 171.584369 
L 269.165795 171.675979 
L 272.547614 171.763253 
L 275.929432 171.846397 
L 279.31125 171.925605 
L 282.693068 172.001065 
L 286.074886 172.072954 
L 289.456705 172.14144 
L 292.838523 172.206685 
L 296.220341 172.268842 
L 299.602159 172.328057 
L 302.983977 172.384469 
L 306.365795 172.438212 
L 309.747614 172.489411 
L 313.129432 172.538187 
L 316.51125 172.584654 
L 319.893068 172.628923 
L 323.274886 172.671096 
L 326.656705 172.711273 
L 330.038523 172.749548 
L 333.420341 172.786013 
L 336.802159 172.820751 
L 340.183977 172.853845 
L 343.565795 172.885373 
L 346.947614 172.915409 
L 350.329432 172.944023 
L 353.71125 172.971283 
L 357.093068 172.997253 
L 360.474886 173.021994 
L 363.856705 173.045563 
L 367.238523 173.068018 
L 370.620341 173.089409 
L 374.002159 173.109788 
L 377.383977 173.129203 
L 380.765795 173.147699 
L 384.147614 173.165319 
L 387.529432 173.182105 
L 390.91125 173.198097 
" clip-path="url(#p31102dab02)" style="fill: none; stroke: #0000ff; stroke-width: 1.5; stroke-linecap: square"/>
   </g>
   <g id="line2d_10">
    <path d="M 56.11125 88.771839 
L 59.493068 97.223006 
L 62.874886 104.831414 
L 66.256705 111.681105 
L 69.638523 117.847738 
L 73.020341 123.399429 
L 76.402159 128.3975 
L 79.783977 132.897158 
L 83.165795 136.948107 
L 86.547614 140.59509 
L 89.929432 143.878394 
L 93.31125 146.834283 
L 96.693068 149.495408 
L 100.074886 151.891163 
L 103.456705 154.048011 
L 106.838523 155.989776 
L 110.220341 157.737907 
L 113.602159 159.311712 
L 116.983977 160.728576 
L 120.365795 162.004149 
L 123.747614 163.15252 
L 127.129432 164.186375 
L 130.51125 165.117133 
L 133.893068 165.955075 
L 137.274886 166.709456 
L 140.656705 167.38861 
L 144.038523 168.000038 
L 147.420341 168.550494 
L 150.802159 169.046058 
L 154.183977 169.492204 
L 157.565795 169.893859 
L 160.947614 170.255462 
L 164.329432 170.581004 
L 167.71125 170.874084 
L 171.093068 171.137937 
L 174.474886 171.375479 
L 177.856705 171.589332 
L 181.238523 171.78186 
L 184.620341 171.955189 
L 188.002159 172.111234 
L 191.383977 172.251717 
L 194.765795 172.378192 
L 198.147614 172.492054 
L 201.529432 172.594562 
L 204.91125 172.686847 
L 208.293068 172.76993 
L 211.674886 172.844728 
L 215.056705 172.912066 
L 218.438523 172.97269 
L 221.820341 173.027268 
L 225.202159 173.076404 
L 228.583977 173.12064 
L 231.965795 173.160464 
L 235.347614 173.196318 
L 238.729432 173.228596 
L 242.11125 173.257655 
L 245.493068 173.283816 
L 248.874886 173.307369 
L 252.256705 173.328572 
L 255.638523 173.347662 
L 259.020341 173.364847 
L 262.402159 173.380319 
L 265.783977 173.394248 
L 269.165795 173.406789 
L 272.547614 173.418078 
L 275.929432 173.428242 
L 279.31125 173.437392 
L 282.693068 173.44563 
L 286.074886 173.453046 
L 289.456705 173.459723 
L 292.838523 173.465734 
L 296.220341 173.471145 
L 299.602159 173.476017 
L 302.983977 173.480403 
L 306.365795 173.484352 
L 309.747614 173.487907 
L 313.129432 173.491107 
L 316.51125 173.493988 
L 319.893068 173.496582 
L 323.274886 173.498917 
L 326.656705 173.50102 
L 330.038523 173.502912 
L 333.420341 173.504616 
L 336.802159 173.506151 
L 340.183977 173.507532 
L 343.565795 173.508775 
L 346.947614 173.509894 
L 350.329432 173.510902 
L 353.71125 173.511809 
L 357.093068 173.512626 
L 360.474886 173.513361 
L 363.856705 173.514023 
L 367.238523 173.514619 
L 370.620341 173.515156 
L 374.002159 173.515639 
L 377.383977 173.516074 
L 380.765795 173.516465 
L 384.147614 173.516818 
L 387.529432 173.517135 
L 390.91125 173.517421 
" clip-path="url(#p31102dab02)" style="fill: none; stroke: #ff0000; stroke-width: 1.5; stroke-linecap: square"/>
   </g>
   <g id="line2d_11">
    <path d="M 56.11125 15.12 
L 59.493068 44.209252 
L 62.874886 67.790738 
L 66.256705 86.938505 
L 69.638523 102.511453 
L 73.020341 115.197447 
L 76.402159 125.548201 
L 79.783977 134.006912 
L 83.165795 140.930159 
L 86.547614 146.605291 
L 89.929432 151.264239 
L 93.31125 155.094506 
L 96.693068 158.247927 
L 100.074886 160.847654 
L 103.456705 162.993738 
L 106.838523 164.767592 
L 110.220341 166.235573 
L 113.602159 167.45185 
L 116.983977 168.460713 
L 120.365795 169.298429 
L 123.747614 169.994745 
L 127.129432 170.574089 
L 130.51125 171.056555 
L 133.893068 171.458695 
L 137.274886 171.794159 
L 140.656705 172.07422 
L 144.038523 172.3082 
L 147.420341 172.503816 
L 150.802159 172.667464 
L 154.183977 172.804453 
L 157.565795 172.919191 
L 160.947614 173.015344 
L 164.329432 173.095962 
L 167.71125 173.163587 
L 171.093068 173.220337 
L 174.474886 173.267982 
L 177.856705 173.307996 
L 181.238523 173.341615 
L 184.620341 173.369869 
L 188.002159 173.393622 
L 191.383977 173.413597 
L 194.765795 173.430398 
L 198.147614 173.444534 
L 201.529432 173.456431 
L 204.91125 173.466444 
L 208.293068 173.474875 
L 211.674886 173.481973 
L 215.056705 173.487952 
L 218.438523 173.492987 
L 221.820341 173.49723 
L 225.202159 173.500804 
L 228.583977 173.503816 
L 231.965795 173.506354 
L 235.347614 173.508494 
L 238.729432 173.510297 
L 242.11125 173.511817 
L 245.493068 173.513099 
L 248.874886 173.51418 
L 252.256705 173.515091 
L 255.638523 173.515859 
L 259.020341 173.516507 
L 262.402159 173.517054 
L 265.783977 173.517515 
L 269.165795 173.517903 
L 272.547614 173.518231 
L 275.929432 173.518508 
L 279.31125 173.518741 
L 282.693068 173.518938 
L 286.074886 173.519104 
L 289.456705 173.519244 
L 292.838523 173.519362 
L 296.220341 173.519462 
L 299.602159 173.519546 
L 302.983977 173.519617 
L 306.365795 173.519677 
L 309.747614 173.519727 
L 313.129432 173.51977 
L 316.51125 173.519806 
L 319.893068 173.519836 
L 323.274886 173.519862 
L 326.656705 173.519883 
L 330.038523 173.519901 
L 333.420341 173.519917 
L 336.802159 173.51993 
L 340.183977 173.519941 
L 343.565795 173.51995 
L 346.947614 173.519958 
L 350.329432 173.519964 
L 353.71125 173.51997 
L 357.093068 173.519975 
L 360.474886 173.519979 
L 363.856705 173.519982 
L 367.238523 173.519985 
L 370.620341 173.519987 
L 374.002159 173.519989 
L 377.383977 173.519991 
L 380.765795 173.519992 
L 384.147614 173.519993 
L 387.529432 173.519995 
L 390.91125 173.519995 
" clip-path="url(#p31102dab02)" style="fill: none; stroke: #008000; stroke-width: 1.5; stroke-linecap: square"/>
   </g>
   <g id="line2d_12">
    <path d="M 56.11125 167.000911 
L 59.493068 167.053378 
L 62.874886 167.105423 
L 66.256705 167.157049 
L 69.638523 167.20826 
L 73.020341 167.259058 
L 76.402159 167.309448 
L 79.783977 167.359432 
L 83.165795 167.409013 
L 86.547614 167.458196 
L 89.929432 167.506983 
L 93.31125 167.555377 
L 96.693068 167.603382 
L 100.074886 167.651 
L 103.456705 167.698236 
L 106.838523 167.745091 
L 110.220341 167.791568 
L 113.602159 167.837672 
L 116.983977 167.883405 
L 120.365795 167.92877 
L 123.747614 167.973769 
L 127.129432 168.018407 
L 130.51125 168.062685 
L 133.893068 168.106607 
L 137.274886 168.150175 
L 140.656705 168.193393 
L 144.038523 168.236263 
L 147.420341 168.278787 
L 150.802159 168.32097 
L 154.183977 168.362813 
L 157.565795 168.404319 
L 160.947614 168.445492 
L 164.329432 168.486333 
L 167.71125 168.526845 
L 171.093068 168.567031 
L 174.474886 168.606894 
L 177.856705 168.646435 
L 181.238523 168.685659 
L 184.620341 168.724567 
L 188.002159 168.763162 
L 191.383977 168.801446 
L 194.765795 168.839422 
L 198.147614 168.877093 
L 201.529432 168.91446 
L 204.91125 168.951526 
L 208.293068 168.988295 
L 211.674886 169.024767 
L 215.056705 169.060946 
L 218.438523 169.096833 
L 221.820341 169.132432 
L 225.202159 169.167744 
L 228.583977 169.202772 
L 231.965795 169.237518 
L 235.347614 169.271985 
L 238.729432 169.306174 
L 242.11125 169.340088 
L 245.493068 169.373729 
L 248.874886 169.407099 
L 252.256705 169.440201 
L 255.638523 169.473036 
L 259.020341 169.505607 
L 262.402159 169.537916 
L 265.783977 169.569964 
L 269.165795 169.601755 
L 272.547614 169.63329 
L 275.929432 169.664571 
L 279.31125 169.695601 
L 282.693068 169.726381 
L 286.074886 169.756913 
L 289.456705 169.787199 
L 292.838523 169.817241 
L 296.220341 169.847042 
L 299.602159 169.876603 
L 302.983977 169.905926 
L 306.365795 169.935013 
L 309.747614 169.963866 
L 313.129432 169.992486 
L 316.51125 170.020877 
L 319.893068 170.049038 
L 323.274886 170.076974 
L 326.656705 170.104684 
L 330.038523 170.132171 
L 333.420341 170.159437 
L 336.802159 170.186484 
L 340.183977 170.213313 
L 343.565795 170.239926 
L 346.947614 170.266325 
L 350.329432 170.292511 
L 353.71125 170.318487 
L 357.093068 170.344253 
L 360.474886 170.369813 
L 363.856705 170.395166 
L 367.238523 170.420315 
L 370.620341 170.445262 
L 374.002159 170.470009 
L 377.383977 170.494556 
L 380.765795 170.518905 
L 384.147614 170.543059 
L 387.529432 170.567018 
L 390.91125 170.590784 
" clip-path="url(#p31102dab02)" style="fill: none; stroke: #000000; stroke-width: 1.5; stroke-linecap: square"/>
   </g>
   <g id="patch_153">
    <path d="M 56.11125 173.52 
L 56.11125 7.2 
" style="fill: none; stroke: #000000; stroke-width: 2; stroke-linejoin: miter; stroke-linecap: square"/>
   </g>
   <g id="patch_154">
    <path d="M 390.91125 173.52 
L 390.91125 7.2 
" style="fill: none; stroke: #000000; stroke-width: 2; stroke-linejoin: miter; stroke-linecap: square"/>
   </g>
   <g id="patch_155">
    <path d="M 56.11125 173.52 
L 390.91125 173.52 
" style="fill: none; stroke: #000000; stroke-width: 2; stroke-linejoin: miter; stroke-linecap: square"/>
   </g>
   <g id="patch_156">
    <path d="M 56.11125 7.2 
L 390.91125 7.2 
" style="fill: none; stroke: #000000; stroke-width: 2; stroke-linejoin: miter; stroke-linecap: square"/>
   </g>
   <g id="legend_1">
    <g id="patch_157">
     <path d="M 120.07125 97.07625 
L 382.51125 97.07625 
Q 384.91125 97.07625 384.91125 94.67625 
L 384.91125 15.6 
Q 384.91125 13.2 382.51125 13.2 
L 120.07125 13.2 
Q 117.67125 13.2 117.67125 15.6 
L 117.67125 94.67625 
Q 117.67125 97.07625 120.07125 97.07625 
z
" style="fill: #ffffff; opacity: 0.8; stroke: #cccccc; stroke-linejoin: miter"/>
    </g>
    <g id="patch_158">
     <path d="M 122.47125 29.4 
L 146.47125 29.4 
L 146.47125 21 
L 122.47125 21 
z
" style="fill: #0000ff; opacity: 0.4"/>
    </g>
    <g id="text_11">
     <!-- $T_{S_{1},e1}$ -->
     <g transform="translate(156.07125 29.4) scale(0.12 -0.12)">
      <defs>
       <path id="DejaVuSans-Oblique-54" d="M 378 4666 
L 4325 4666 
L 4225 4134 
L 2559 4134 
L 1759 0 
L 1125 0 
L 1925 4134 
L 275 4134 
L 378 4666 
z
" transform="scale(0.015625)"/>
       <path id="DejaVuSans-Oblique-53" d="M 3859 4513 
L 3738 3897 
Q 3422 4066 3111 4152 
Q 2800 4238 2509 4238 
Q 1944 4238 1609 3991 
Q 1275 3744 1275 3334 
Q 1275 3109 1398 2989 
Q 1522 2869 2034 2731 
L 2413 2638 
Q 3053 2472 3303 2217 
Q 3553 1963 3553 1503 
Q 3553 797 2998 353 
Q 2444 -91 1538 -91 
Q 1166 -91 791 -17 
Q 416 56 38 206 
L 166 856 
Q 513 641 861 531 
Q 1209 422 1556 422 
Q 2147 422 2503 684 
Q 2859 947 2859 1369 
Q 2859 1650 2717 1795 
Q 2575 1941 2106 2059 
L 1728 2156 
Q 1081 2325 845 2545 
Q 609 2766 609 3163 
Q 609 3859 1145 4304 
Q 1681 4750 2541 4750 
Q 2875 4750 3203 4690 
Q 3531 4631 3859 4513 
z
" transform="scale(0.015625)"/>
       <path id="DejaVuSans-2c" d="M 750 794 
L 1409 794 
L 1409 256 
L 897 -744 
L 494 -744 
L 750 256 
L 750 794 
z
" transform="scale(0.015625)"/>
       <path id="DejaVuSans-Oblique-65" d="M 3078 2063 
Q 3088 2113 3092 2166 
Q 3097 2219 3097 2272 
Q 3097 2653 2873 2875 
Q 2650 3097 2266 3097 
Q 1838 3097 1509 2826 
Q 1181 2556 1013 2059 
L 3078 2063 
z
M 3578 1613 
L 903 1613 
Q 884 1494 878 1425 
Q 872 1356 872 1306 
Q 872 872 1139 634 
Q 1406 397 1894 397 
Q 2269 397 2603 481 
Q 2938 566 3225 728 
L 3116 159 
Q 2806 34 2476 -28 
Q 2147 -91 1806 -91 
Q 1078 -91 686 257 
Q 294 606 294 1247 
Q 294 1794 489 2264 
Q 684 2734 1063 3103 
Q 1306 3334 1642 3459 
Q 1978 3584 2356 3584 
Q 2950 3584 3301 3228 
Q 3653 2872 3653 2272 
Q 3653 2128 3634 1964 
Q 3616 1800 3578 1613 
z
" transform="scale(0.015625)"/>
      </defs>
      <use xlink:href="#DejaVuSans-Oblique-54" transform="translate(0 0.09375)"/>
      <use xlink:href="#DejaVuSans-Oblique-53" transform="translate(61.083984 -16.3125) scale(0.7)"/>
      <use xlink:href="#DejaVuSans-31" transform="translate(105.517578 -27.796875) scale(0.49)"/>
      <use xlink:href="#DejaVuSans-2c" transform="translate(138.606934 -16.3125) scale(0.7)"/>
      <use xlink:href="#DejaVuSans-Oblique-65" transform="translate(174.495605 -16.3125) scale(0.7)"/>
      <use xlink:href="#DejaVuSans-31" transform="translate(217.562012 -16.3125) scale(0.7)"/>
     </g>
    </g>
    <g id="patch_159">
     <path d="M 122.47125 47.878125 
L 146.47125 47.878125 
L 146.47125 39.478125 
L 122.47125 39.478125 
z
" style="fill: #ff0000; opacity: 0.4"/>
    </g>
    <g id="text_12">
     <!-- $T_{S_{1},e2}$ -->
     <g transform="translate(156.07125 47.878125) scale(0.12 -0.12)">
      <use xlink:href="#DejaVuSans-Oblique-54" transform="translate(0 0.09375)"/>
      <use xlink:href="#DejaVuSans-Oblique-53" transform="translate(61.083984 -16.3125) scale(0.7)"/>
      <use xlink:href="#DejaVuSans-31" transform="translate(105.517578 -27.796875) scale(0.49)"/>
      <use xlink:href="#DejaVuSans-2c" transform="translate(138.606934 -16.3125) scale(0.7)"/>
      <use xlink:href="#DejaVuSans-Oblique-65" transform="translate(174.495605 -16.3125) scale(0.7)"/>
      <use xlink:href="#DejaVuSans-32" transform="translate(217.562012 -16.3125) scale(0.7)"/>
     </g>
    </g>
    <g id="patch_160">
     <path d="M 122.47125 66.35625 
L 146.47125 66.35625 
L 146.47125 57.95625 
L 122.47125 57.95625 
z
" style="fill: #008000; opacity: 0.4"/>
    </g>
    <g id="text_13">
     <!-- $T_{S_{1},e3}$ -->
     <g transform="translate(156.07125 66.35625) scale(0.12 -0.12)">
      <defs>
       <path id="DejaVuSans-33" d="M 2597 2516 
Q 3050 2419 3304 2112 
Q 3559 1806 3559 1356 
Q 3559 666 3084 287 
Q 2609 -91 1734 -91 
Q 1441 -91 1130 -33 
Q 819 25 488 141 
L 488 750 
Q 750 597 1062 519 
Q 1375 441 1716 441 
Q 2309 441 2620 675 
Q 2931 909 2931 1356 
Q 2931 1769 2642 2001 
Q 2353 2234 1838 2234 
L 1294 2234 
L 1294 2753 
L 1863 2753 
Q 2328 2753 2575 2939 
Q 2822 3125 2822 3475 
Q 2822 3834 2567 4026 
Q 2313 4219 1838 4219 
Q 1578 4219 1281 4162 
Q 984 4106 628 3988 
L 628 4550 
Q 988 4650 1302 4700 
Q 1616 4750 1894 4750 
Q 2613 4750 3031 4423 
Q 3450 4097 3450 3541 
Q 3450 3153 3228 2886 
Q 3006 2619 2597 2516 
z
" transform="scale(0.015625)"/>
      </defs>
      <use xlink:href="#DejaVuSans-Oblique-54" transform="translate(0 0.09375)"/>
      <use xlink:href="#DejaVuSans-Oblique-53" transform="translate(61.083984 -16.3125) scale(0.7)"/>
      <use xlink:href="#DejaVuSans-31" transform="translate(105.517578 -27.796875) scale(0.49)"/>
      <use xlink:href="#DejaVuSans-2c" transform="translate(138.606934 -16.3125) scale(0.7)"/>
      <use xlink:href="#DejaVuSans-Oblique-65" transform="translate(174.495605 -16.3125) scale(0.7)"/>
      <use xlink:href="#DejaVuSans-33" transform="translate(217.562012 -16.3125) scale(0.7)"/>
     </g>
    </g>
    <g id="line2d_13">
     <path d="M 122.47125 82.91625 
L 134.47125 82.91625 
L 146.47125 82.91625 
" style="fill: none; stroke: #0000ff; stroke-width: 1.5; stroke-linecap: square"/>
    </g>
    <g id="text_14">
     <!-- $Expon(\frac{1}{\tau_{DA,e1}})$ -->
     <g transform="translate(156.07125 87.11625) scale(0.12 -0.12)">
      <defs>
       <path id="DejaVuSans-Oblique-45" d="M 1081 4666 
L 4031 4666 
L 3928 4134 
L 1606 4134 
L 1338 2753 
L 3566 2753 
L 3463 2222 
L 1234 2222 
L 909 531 
L 3284 531 
L 3181 0 
L 172 0 
L 1081 4666 
z
" transform="scale(0.015625)"/>
       <path id="DejaVuSans-Oblique-78" d="M 3841 3500 
L 2234 1784 
L 3219 0 
L 2559 0 
L 1819 1388 
L 531 0 
L -166 0 
L 1556 1844 
L 641 3500 
L 1300 3500 
L 1972 2234 
L 3144 3500 
L 3841 3500 
z
" transform="scale(0.015625)"/>
       <path id="DejaVuSans-Oblique-70" d="M 3175 2156 
Q 3175 2616 2975 2859 
Q 2775 3103 2400 3103 
Q 2144 3103 1911 2972 
Q 1678 2841 1497 2591 
Q 1319 2344 1212 1994 
Q 1106 1644 1106 1300 
Q 1106 863 1306 627 
Q 1506 391 1875 391 
Q 2147 391 2380 519 
Q 2613 647 2778 891 
Q 2956 1147 3065 1494 
Q 3175 1841 3175 2156 
z
M 1394 2969 
Q 1625 3272 1939 3428 
Q 2253 3584 2638 3584 
Q 3175 3584 3472 3232 
Q 3769 2881 3769 2247 
Q 3769 1728 3584 1258 
Q 3400 788 3053 416 
Q 2822 169 2531 39 
Q 2241 -91 1919 -91 
Q 1547 -91 1294 64 
Q 1041 219 916 525 
L 556 -1331 
L -19 -1331 
L 922 3500 
L 1497 3500 
L 1394 2969 
z
" transform="scale(0.015625)"/>
       <path id="DejaVuSans-Oblique-6f" d="M 1625 -91 
Q 1009 -91 651 289 
Q 294 669 294 1325 
Q 294 1706 417 2101 
Q 541 2497 738 2766 
Q 1047 3184 1428 3384 
Q 1809 3584 2291 3584 
Q 2888 3584 3255 3212 
Q 3622 2841 3622 2241 
Q 3622 1825 3500 1412 
Q 3378 1000 3181 728 
Q 2875 309 2494 109 
Q 2113 -91 1625 -91 
z
M 891 1344 
Q 891 869 1089 633 
Q 1288 397 1691 397 
Q 2269 397 2648 901 
Q 3028 1406 3028 2181 
Q 3028 2634 2825 2865 
Q 2622 3097 2228 3097 
Q 1903 3097 1650 2945 
Q 1397 2794 1197 2484 
Q 1050 2253 970 1956 
Q 891 1659 891 1344 
z
" transform="scale(0.015625)"/>
       <path id="DejaVuSans-Oblique-6e" d="M 3566 2113 
L 3156 0 
L 2578 0 
L 2988 2091 
Q 3016 2238 3031 2350 
Q 3047 2463 3047 2528 
Q 3047 2791 2881 2937 
Q 2716 3084 2419 3084 
Q 1956 3084 1622 2776 
Q 1288 2469 1184 1941 
L 800 0 
L 225 0 
L 903 3500 
L 1478 3500 
L 1363 2950 
Q 1603 3253 1940 3418 
Q 2278 3584 2650 3584 
Q 3113 3584 3367 3334 
Q 3622 3084 3622 2631 
Q 3622 2519 3608 2391 
Q 3594 2263 3566 2113 
z
" transform="scale(0.015625)"/>
       <path id="DejaVuSans-28" d="M 1984 4856 
Q 1566 4138 1362 3434 
Q 1159 2731 1159 2009 
Q 1159 1288 1364 580 
Q 1569 -128 1984 -844 
L 1484 -844 
Q 1016 -109 783 600 
Q 550 1309 550 2009 
Q 550 2706 781 3412 
Q 1013 4119 1484 4856 
L 1984 4856 
z
" transform="scale(0.015625)"/>
       <path id="DejaVuSans-Oblique-3c4" d="M 2103 638 
Q 2188 488 2525 488 
L 2800 488 
L 2706 0 
L 2363 0 
Q 1800 0 1600 300 
Q 1403 606 1534 1269 
L 1856 2925 
L 541 2925 
L 653 3500 
L 3881 3500 
L 3769 2925 
L 2444 2925 
L 2113 1234 
Q 2025 781 2103 638 
z
" transform="scale(0.015625)"/>
       <path id="DejaVuSans-Oblique-44" d="M 1081 4666 
L 2438 4666 
Q 3519 4666 4070 4208 
Q 4622 3750 4622 2847 
Q 4622 2250 4412 1698 
Q 4203 1147 3834 769 
Q 3463 381 2891 190 
Q 2319 0 1538 0 
L 172 0 
L 1081 4666 
z
M 1613 4147 
L 909 519 
L 1734 519 
Q 2794 519 3375 1128 
Q 3956 1738 3956 2847 
Q 3956 3519 3581 3833 
Q 3206 4147 2406 4147 
L 1613 4147 
z
" transform="scale(0.015625)"/>
       <path id="DejaVuSans-Oblique-41" d="M 2356 4666 
L 3072 4666 
L 3938 0 
L 3278 0 
L 3084 1197 
L 984 1197 
L 325 0 
L -341 0 
L 2356 4666 
z
M 2584 4044 
L 1275 1722 
L 2988 1722 
L 2584 4044 
z
" transform="scale(0.015625)"/>
       <path id="DejaVuSans-29" d="M 513 4856 
L 1013 4856 
Q 1481 4119 1714 3412 
Q 1947 2706 1947 2009 
Q 1947 1309 1714 600 
Q 1481 -109 1013 -844 
L 513 -844 
Q 928 -128 1133 580 
Q 1338 1288 1338 2009 
Q 1338 2731 1133 3434 
Q 928 4138 513 4856 
z
" transform="scale(0.015625)"/>
      </defs>
      <use xlink:href="#DejaVuSans-Oblique-45" transform="translate(0 0.16875)"/>
      <use xlink:href="#DejaVuSans-Oblique-78" transform="translate(63.183594 0.16875)"/>
      <use xlink:href="#DejaVuSans-Oblique-70" transform="translate(122.363281 0.16875)"/>
      <use xlink:href="#DejaVuSans-Oblique-6f" transform="translate(185.839844 0.16875)"/>
      <use xlink:href="#DejaVuSans-Oblique-6e" transform="translate(247.021484 0.16875)"/>
      <use xlink:href="#DejaVuSans-28" transform="translate(310.400391 0.16875)"/>
      <use xlink:href="#DejaVuSans-31" transform="translate(428.414062 43.965625) scale(0.7)"/>
      <use xlink:href="#DejaVuSans-Oblique-3c4" transform="translate(349.414062 -25.565625) scale(0.7)"/>
      <use xlink:href="#DejaVuSans-Oblique-44" transform="translate(391.557617 -37.05) scale(0.49)"/>
      <use xlink:href="#DejaVuSans-Oblique-41" transform="translate(429.288574 -37.05) scale(0.49)"/>
      <use xlink:href="#DejaVuSans-2c" transform="translate(462.808594 -37.05) scale(0.49)"/>
      <use xlink:href="#DejaVuSans-Oblique-65" transform="translate(487.930664 -37.05) scale(0.49)"/>
      <use xlink:href="#DejaVuSans-31" transform="translate(518.077148 -37.05) scale(0.49)"/>
      <use xlink:href="#DejaVuSans-29" transform="translate(563.666504 0.16875)"/>
      <path d="M 349.414062 18.965625 
L 349.414062 25.215625 
L 551.166504 25.215625 
L 551.166504 18.965625 
L 349.414062 18.965625 
z
"/>
     </g>
    </g>
    <g id="line2d_14">
     <path d="M 252.43125 25.2 
L 264.43125 25.2 
L 276.43125 25.2 
" style="fill: none; stroke: #ff0000; stroke-width: 1.5; stroke-linecap: square"/>
    </g>
    <g id="text_15">
     <!-- $Expon(\frac{1}{\tau_{DA,e2}})$ -->
     <g transform="translate(286.03125 29.4) scale(0.12 -0.12)">
      <use xlink:href="#DejaVuSans-Oblique-45" transform="translate(0 0.16875)"/>
      <use xlink:href="#DejaVuSans-Oblique-78" transform="translate(63.183594 0.16875)"/>
      <use xlink:href="#DejaVuSans-Oblique-70" transform="translate(122.363281 0.16875)"/>
      <use xlink:href="#DejaVuSans-Oblique-6f" transform="translate(185.839844 0.16875)"/>
      <use xlink:href="#DejaVuSans-Oblique-6e" transform="translate(247.021484 0.16875)"/>
      <use xlink:href="#DejaVuSans-28" transform="translate(310.400391 0.16875)"/>
      <use xlink:href="#DejaVuSans-31" transform="translate(428.414062 43.965625) scale(0.7)"/>
      <use xlink:href="#DejaVuSans-Oblique-3c4" transform="translate(349.414062 -25.565625) scale(0.7)"/>
      <use xlink:href="#DejaVuSans-Oblique-44" transform="translate(391.557617 -37.05) scale(0.49)"/>
      <use xlink:href="#DejaVuSans-Oblique-41" transform="translate(429.288574 -37.05) scale(0.49)"/>
      <use xlink:href="#DejaVuSans-2c" transform="translate(462.808594 -37.05) scale(0.49)"/>
      <use xlink:href="#DejaVuSans-Oblique-65" transform="translate(487.930664 -37.05) scale(0.49)"/>
      <use xlink:href="#DejaVuSans-32" transform="translate(518.077148 -37.05) scale(0.49)"/>
      <use xlink:href="#DejaVuSans-29" transform="translate(563.666504 0.16875)"/>
      <path d="M 349.414062 18.965625 
L 349.414062 25.215625 
L 551.166504 25.215625 
L 551.166504 18.965625 
L 349.414062 18.965625 
z
"/>
     </g>
    </g>
    <g id="line2d_15">
     <path d="M 252.43125 45.48 
L 264.43125 45.48 
L 276.43125 45.48 
" style="fill: none; stroke: #008000; stroke-width: 1.5; stroke-linecap: square"/>
    </g>
    <g id="text_16">
     <!-- $Mix(\tau_{DA,v},\tau_{DA,c})$ -->
     <g transform="translate(286.03125 49.68) scale(0.12 -0.12)">
      <defs>
       <path id="DejaVuSans-Oblique-4d" d="M 1081 4666 
L 2028 4666 
L 2572 1522 
L 4378 4666 
L 5350 4666 
L 4441 0 
L 3828 0 
L 4622 4091 
L 2791 897 
L 2175 897 
L 1581 4103 
L 788 0 
L 172 0 
L 1081 4666 
z
" transform="scale(0.015625)"/>
       <path id="DejaVuSans-Oblique-69" d="M 1172 4863 
L 1747 4863 
L 1606 4134 
L 1031 4134 
L 1172 4863 
z
M 909 3500 
L 1484 3500 
L 800 0 
L 225 0 
L 909 3500 
z
" transform="scale(0.015625)"/>
       <path id="DejaVuSans-Oblique-76" d="M 459 3500 
L 1069 3500 
L 1581 525 
L 3256 3500 
L 3866 3500 
L 1875 0 
L 1100 0 
L 459 3500 
z
" transform="scale(0.015625)"/>
       <path id="DejaVuSans-Oblique-63" d="M 3431 3366 
L 3316 2797 
Q 3109 2947 2876 3022 
Q 2644 3097 2394 3097 
Q 2119 3097 1870 3000 
Q 1622 2903 1453 2725 
Q 1184 2453 1037 2087 
Q 891 1722 891 1331 
Q 891 859 1127 628 
Q 1363 397 1844 397 
Q 2081 397 2348 469 
Q 2616 541 2906 684 
L 2797 116 
Q 2547 13 2283 -39 
Q 2019 -91 1741 -91 
Q 1044 -91 669 257 
Q 294 606 294 1253 
Q 294 1797 489 2255 
Q 684 2713 1069 3078 
Q 1331 3328 1684 3456 
Q 2038 3584 2456 3584 
Q 2700 3584 2940 3529 
Q 3181 3475 3431 3366 
z
" transform="scale(0.015625)"/>
      </defs>
      <use xlink:href="#DejaVuSans-Oblique-4d" transform="translate(0 0.015625)"/>
      <use xlink:href="#DejaVuSans-Oblique-69" transform="translate(86.279297 0.015625)"/>
      <use xlink:href="#DejaVuSans-Oblique-78" transform="translate(114.0625 0.015625)"/>
      <use xlink:href="#DejaVuSans-28" transform="translate(173.242188 0.015625)"/>
      <use xlink:href="#DejaVuSans-Oblique-3c4" transform="translate(212.255859 0.015625)"/>
      <use xlink:href="#DejaVuSans-Oblique-44" transform="translate(272.460938 -16.390625) scale(0.7)"/>
      <use xlink:href="#DejaVuSans-Oblique-41" transform="translate(326.362305 -16.390625) scale(0.7)"/>
      <use xlink:href="#DejaVuSans-2c" transform="translate(374.248047 -16.390625) scale(0.7)"/>
      <use xlink:href="#DejaVuSans-Oblique-76" transform="translate(410.136719 -16.390625) scale(0.7)"/>
      <use xlink:href="#DejaVuSans-2c" transform="translate(454.296875 0.015625)"/>
      <use xlink:href="#DejaVuSans-Oblique-3c4" transform="translate(505.566406 0.015625)"/>
      <use xlink:href="#DejaVuSans-Oblique-44" transform="translate(565.771484 -16.390625) scale(0.7)"/>
      <use xlink:href="#DejaVuSans-Oblique-41" transform="translate(619.672852 -16.390625) scale(0.7)"/>
      <use xlink:href="#DejaVuSans-2c" transform="translate(667.558594 -16.390625) scale(0.7)"/>
      <use xlink:href="#DejaVuSans-Oblique-63" transform="translate(703.447266 -16.390625) scale(0.7)"/>
      <use xlink:href="#DejaVuSans-29" transform="translate(744.667969 0.015625)"/>
     </g>
    </g>
    <g id="line2d_16">
     <path d="M 252.43125 65.88 
L 264.43125 65.88 
L 276.43125 65.88 
" style="fill: none; stroke: #000000; stroke-width: 1.5; stroke-linecap: square"/>
    </g>
    <g id="text_17">
     <!-- $Expon(\frac{1}{\tau_{D}})$ -->
     <g transform="translate(286.03125 70.08) scale(0.12 -0.12)">
      <use xlink:href="#DejaVuSans-Oblique-45" transform="translate(0 0.16875)"/>
      <use xlink:href="#DejaVuSans-Oblique-78" transform="translate(63.183594 0.16875)"/>
      <use xlink:href="#DejaVuSans-Oblique-70" transform="translate(122.363281 0.16875)"/>
      <use xlink:href="#DejaVuSans-Oblique-6f" transform="translate(185.839844 0.16875)"/>
      <use xlink:href="#DejaVuSans-Oblique-6e" transform="translate(247.021484 0.16875)"/>
      <use xlink:href="#DejaVuSans-28" transform="translate(310.400391 0.16875)"/>
      <use xlink:href="#DejaVuSans-31" transform="translate(368.414062 43.965625) scale(0.7)"/>
      <use xlink:href="#DejaVuSans-Oblique-3c4" transform="translate(349.414062 -25.565625) scale(0.7)"/>
      <use xlink:href="#DejaVuSans-Oblique-44" transform="translate(391.557617 -37.05) scale(0.49)"/>
      <use xlink:href="#DejaVuSans-29" transform="translate(443.702637 0.16875)"/>
      <path d="M 349.414062 18.965625 
L 349.414062 25.215625 
L 431.202637 25.215625 
L 431.202637 18.965625 
L 349.414062 18.965625 
z
"/>
     </g>
    </g>
   </g>
  </g>
 </g>
 <defs>
  <clipPath id="p31102dab02">
   <rect x="56.11125" y="7.2" width="334.8" height="166.32"/>
  </clipPath>
 </defs>
</svg>
