<?xml version="1.0" encoding="utf-8" standalone="no"?>
<!DOCTYPE svg PUBLIC "-//W3C//DTD SVG 1.1//EN"
  "http://www.w3.org/Graphics/SVG/1.1/DTD/svg11.dtd">
<svg xmlns:xlink="http://www.w3.org/1999/xlink" width="432pt" height="216pt" viewBox="0 0 432 216" xmlns="http://www.w3.org/2000/svg" version="1.1">
 <metadata>
  <rdf:RDF xmlns:dc="http://purl.org/dc/elements/1.1/" xmlns:cc="http://creativecommons.org/ns#" xmlns:rdf="http://www.w3.org/1999/02/22-rdf-syntax-ns#">
   <cc:Work>
    <dc:type rdf:resource="http://purl.org/dc/dcmitype/StillImage"/>
    <dc:date>2025-04-24T15:44:50.618114</dc:date>
    <dc:format>image/svg+xml</dc:format>
    <dc:creator>
     <cc:Agent>
      <dc:title>Matplotlib v3.10.0, https://matplotlib.org/</dc:title>
     </cc:Agent>
    </dc:creator>
   </cc:Work>
  </rdf:RDF>
 </metadata>
 <defs>
  <style type="text/css">*{stroke-linejoin: round; stroke-linecap: butt}</style>
 </defs>
 <g id="figure_1">
  <g id="patch_1">
   <path d="M 0 216 
L 432 216 
L 432 0 
L 0 0 
z
" style="fill: #ffffff"/>
  </g>
  <g id="axes_1">
   <g id="patch_2">
    <path d="M 54 192.24 
L 388.8 192.24 
L 388.8 25.92 
L 54 25.92 
z
" style="fill: #ffffff"/>
   </g>
   <g id="matplotlib.axis_1">
    <g id="xtick_1">
     <g id="line2d_1">
      <defs>
       <path id="m179182cd5a" d="M 0 0 
L 0 6 
" style="stroke: #000000; stroke-width: 2"/>
      </defs>
      <g>
       <use xlink:href="#m179182cd5a" x="69.218182" y="192.24" style="stroke: #000000; stroke-width: 2"/>
      </g>
     </g>
     <g id="text_1">
      <!-- 0.0 -->
      <g transform="translate(52.519901 217.696719) scale(0.21 -0.21)">
       <defs>
        <path id="DejaVuSans-30" d="M 2034 4250 
Q 1547 4250 1301 3770 
Q 1056 3291 1056 2328 
Q 1056 1369 1301 889 
Q 1547 409 2034 409 
Q 2525 409 2770 889 
Q 3016 1369 3016 2328 
Q 3016 3291 2770 3770 
Q 2525 4250 2034 4250 
z
M 2034 4750 
Q 2819 4750 3233 4129 
Q 3647 3509 3647 2328 
Q 3647 1150 3233 529 
Q 2819 -91 2034 -91 
Q 1250 -91 836 529 
Q 422 1150 422 2328 
Q 422 3509 836 4129 
Q 1250 4750 2034 4750 
z
" transform="scale(0.015625)"/>
        <path id="DejaVuSans-2e" d="M 684 794 
L 1344 794 
L 1344 0 
L 684 0 
L 684 794 
z
" transform="scale(0.015625)"/>
       </defs>
       <use xlink:href="#DejaVuSans-30"/>
       <use xlink:href="#DejaVuSans-2e" transform="translate(63.623047 0)"/>
       <use xlink:href="#DejaVuSans-30" transform="translate(95.410156 0)"/>
      </g>
     </g>
    </g>
    <g id="xtick_2">
     <g id="line2d_2">
      <g>
       <use xlink:href="#m179182cd5a" x="145.309091" y="192.24" style="stroke: #000000; stroke-width: 2"/>
      </g>
     </g>
     <g id="text_2">
      <!-- 2.5 -->
      <g transform="translate(128.61081 217.696719) scale(0.21 -0.21)">
       <defs>
        <path id="DejaVuSans-32" d="M 1228 531 
L 3431 531 
L 3431 0 
L 469 0 
L 469 531 
Q 828 903 1448 1529 
Q 2069 2156 2228 2338 
Q 2531 2678 2651 2914 
Q 2772 3150 2772 3378 
Q 2772 3750 2511 3984 
Q 2250 4219 1831 4219 
Q 1534 4219 1204 4116 
Q 875 4013 500 3803 
L 500 4441 
Q 881 4594 1212 4672 
Q 1544 4750 1819 4750 
Q 2544 4750 2975 4387 
Q 3406 4025 3406 3419 
Q 3406 3131 3298 2873 
Q 3191 2616 2906 2266 
Q 2828 2175 2409 1742 
Q 1991 1309 1228 531 
z
" transform="scale(0.015625)"/>
        <path id="DejaVuSans-35" d="M 691 4666 
L 3169 4666 
L 3169 4134 
L 1269 4134 
L 1269 2991 
Q 1406 3038 1543 3061 
Q 1681 3084 1819 3084 
Q 2600 3084 3056 2656 
Q 3513 2228 3513 1497 
Q 3513 744 3044 326 
Q 2575 -91 1722 -91 
Q 1428 -91 1123 -41 
Q 819 9 494 109 
L 494 744 
Q 775 591 1075 516 
Q 1375 441 1709 441 
Q 2250 441 2565 725 
Q 2881 1009 2881 1497 
Q 2881 1984 2565 2268 
Q 2250 2553 1709 2553 
Q 1456 2553 1204 2497 
Q 953 2441 691 2322 
L 691 4666 
z
" transform="scale(0.015625)"/>
       </defs>
       <use xlink:href="#DejaVuSans-32"/>
       <use xlink:href="#DejaVuSans-2e" transform="translate(63.623047 0)"/>
       <use xlink:href="#DejaVuSans-35" transform="translate(95.410156 0)"/>
      </g>
     </g>
    </g>
    <g id="xtick_3">
     <g id="line2d_3">
      <g>
       <use xlink:href="#m179182cd5a" x="221.4" y="192.24" style="stroke: #000000; stroke-width: 2"/>
      </g>
     </g>
     <g id="text_3">
      <!-- 5.0 -->
      <g transform="translate(204.701719 217.696719) scale(0.21 -0.21)">
       <use xlink:href="#DejaVuSans-35"/>
       <use xlink:href="#DejaVuSans-2e" transform="translate(63.623047 0)"/>
       <use xlink:href="#DejaVuSans-30" transform="translate(95.410156 0)"/>
      </g>
     </g>
    </g>
    <g id="xtick_4">
     <g id="line2d_4">
      <g>
       <use xlink:href="#m179182cd5a" x="297.490909" y="192.24" style="stroke: #000000; stroke-width: 2"/>
      </g>
     </g>
     <g id="text_4">
      <!-- 7.5 -->
      <g transform="translate(280.792628 217.696719) scale(0.21 -0.21)">
       <defs>
        <path id="DejaVuSans-37" d="M 525 4666 
L 3525 4666 
L 3525 4397 
L 1831 0 
L 1172 0 
L 2766 4134 
L 525 4134 
L 525 4666 
z
" transform="scale(0.015625)"/>
       </defs>
       <use xlink:href="#DejaVuSans-37"/>
       <use xlink:href="#DejaVuSans-2e" transform="translate(63.623047 0)"/>
       <use xlink:href="#DejaVuSans-35" transform="translate(95.410156 0)"/>
      </g>
     </g>
    </g>
    <g id="xtick_5">
     <g id="line2d_5">
      <g>
       <use xlink:href="#m179182cd5a" x="373.581818" y="192.24" style="stroke: #000000; stroke-width: 2"/>
      </g>
     </g>
     <g id="text_5">
      <!-- 10.0 -->
      <g transform="translate(350.202912 217.696719) scale(0.21 -0.21)">
       <defs>
        <path id="DejaVuSans-31" d="M 794 531 
L 1825 531 
L 1825 4091 
L 703 3866 
L 703 4441 
L 1819 4666 
L 2450 4666 
L 2450 531 
L 3481 531 
L 3481 0 
L 794 0 
L 794 531 
z
" transform="scale(0.015625)"/>
       </defs>
       <use xlink:href="#DejaVuSans-31"/>
       <use xlink:href="#DejaVuSans-30" transform="translate(63.623047 0)"/>
       <use xlink:href="#DejaVuSans-2e" transform="translate(127.246094 0)"/>
       <use xlink:href="#DejaVuSans-30" transform="translate(159.033203 0)"/>
      </g>
     </g>
    </g>
    <g id="text_6">
     <!-- $t_{1}$ -->
     <g transform="translate(212.265 242.020781) scale(0.21 -0.21)">
      <defs>
       <path id="DejaVuSans-Oblique-74" d="M 2706 3500 
L 2619 3053 
L 1472 3053 
L 1100 1153 
Q 1081 1047 1072 975 
Q 1063 903 1063 863 
Q 1063 663 1183 572 
Q 1303 481 1569 481 
L 2150 481 
L 2053 0 
L 1503 0 
Q 991 0 739 200 
Q 488 400 488 806 
Q 488 878 497 964 
Q 506 1050 525 1153 
L 897 3053 
L 409 3053 
L 500 3500 
L 978 3500 
L 1172 4494 
L 1747 4494 
L 1556 3500 
L 2706 3500 
z
" transform="scale(0.015625)"/>
      </defs>
      <use xlink:href="#DejaVuSans-Oblique-74" transform="translate(0 0.78125)"/>
      <use xlink:href="#DejaVuSans-31" transform="translate(39.208984 -15.625) scale(0.7)"/>
     </g>
    </g>
   </g>
   <g id="matplotlib.axis_2">
    <g id="ytick_1">
     <g id="line2d_6">
      <defs>
       <path id="m6c1bed0cb1" d="M 0 0 
L -6 0 
" style="stroke: #000000; stroke-width: 2"/>
      </defs>
      <g>
       <use xlink:href="#m6c1bed0cb1" x="54" y="184.68" style="stroke: #000000; stroke-width: 2"/>
      </g>
     </g>
     <g id="text_7">
      <!-- 0.0 -->
      <g transform="translate(11.103437 192.658359) scale(0.21 -0.21)">
       <use xlink:href="#DejaVuSans-30"/>
       <use xlink:href="#DejaVuSans-2e" transform="translate(63.623047 0)"/>
       <use xlink:href="#DejaVuSans-30" transform="translate(95.410156 0)"/>
      </g>
     </g>
    </g>
    <g id="ytick_2">
     <g id="line2d_7">
      <g>
       <use xlink:href="#m6c1bed0cb1" x="54" y="109.08" style="stroke: #000000; stroke-width: 2"/>
      </g>
     </g>
     <g id="text_8">
      <!-- 0.5 -->
      <g transform="translate(11.103437 117.058359) scale(0.21 -0.21)">
       <use xlink:href="#DejaVuSans-30"/>
       <use xlink:href="#DejaVuSans-2e" transform="translate(63.623047 0)"/>
       <use xlink:href="#DejaVuSans-35" transform="translate(95.410156 0)"/>
      </g>
     </g>
    </g>
    <g id="ytick_3">
     <g id="line2d_8">
      <g>
       <use xlink:href="#m6c1bed0cb1" x="54" y="33.48" style="stroke: #000000; stroke-width: 2"/>
      </g>
     </g>
     <g id="text_9">
      <!-- 1.0 -->
      <g transform="translate(11.103437 41.458359) scale(0.21 -0.21)">
       <use xlink:href="#DejaVuSans-31"/>
       <use xlink:href="#DejaVuSans-2e" transform="translate(63.623047 0)"/>
       <use xlink:href="#DejaVuSans-30" transform="translate(95.410156 0)"/>
      </g>
     </g>
    </g>
    <g id="text_10">
     <!-- PD -->
     <g transform="translate(2.736094 123.496172) rotate(-90) scale(0.21 -0.21)">
      <defs>
       <path id="DejaVuSans-50" d="M 1259 4147 
L 1259 2394 
L 2053 2394 
Q 2494 2394 2734 2622 
Q 2975 2850 2975 3272 
Q 2975 3691 2734 3919 
Q 2494 4147 2053 4147 
L 1259 4147 
z
M 628 4666 
L 2053 4666 
Q 2838 4666 3239 4311 
Q 3641 3956 3641 3272 
Q 3641 2581 3239 2228 
Q 2838 1875 2053 1875 
L 1259 1875 
L 1259 0 
L 628 0 
L 628 4666 
z
" transform="scale(0.015625)"/>
       <path id="DejaVuSans-44" d="M 1259 4147 
L 1259 519 
L 2022 519 
Q 2988 519 3436 956 
Q 3884 1394 3884 2338 
Q 3884 3275 3436 3711 
Q 2988 4147 2022 4147 
L 1259 4147 
z
M 628 4666 
L 1925 4666 
Q 3281 4666 3915 4102 
Q 4550 3538 4550 2338 
Q 4550 1131 3912 565 
Q 3275 0 1925 0 
L 628 0 
L 628 4666 
z
" transform="scale(0.015625)"/>
      </defs>
      <use xlink:href="#DejaVuSans-50"/>
      <use xlink:href="#DejaVuSans-44" transform="translate(60.302734 0)"/>
     </g>
    </g>
   </g>
   <g id="line2d_9">
    <path d="M 69.218182 33.48 
L 72.292562 48.006706 
L 75.366942 61.137743 
L 78.441322 73.007201 
L 81.515702 83.736287 
L 84.590083 93.434565 
L 87.664463 102.201071 
L 90.738843 110.125324 
L 93.813223 117.288247 
L 96.887603 123.762983 
L 99.961983 129.615653 
L 103.036364 134.90602 
L 106.110744 139.68811 
L 109.185124 144.010755 
L 112.259504 147.918098 
L 115.333884 151.450038 
L 118.408264 154.642643 
L 121.482645 157.528515 
L 124.557025 160.137124 
L 127.631405 162.495107 
L 130.705785 164.626545 
L 133.780165 166.553203 
L 136.854545 168.294755 
L 139.928926 169.868985 
L 143.003306 171.29197 
L 146.077686 172.578239 
L 149.152066 173.740929 
L 152.226446 174.791913 
L 155.300826 175.741921 
L 158.375207 176.600657 
L 161.449587 177.376889 
L 164.523967 178.078543 
L 167.598347 178.712786 
L 170.672727 179.286092 
L 173.747107 179.804318 
L 176.821488 180.272754 
L 179.895868 180.696185 
L 182.970248 181.078935 
L 186.044628 181.424911 
L 189.119008 181.737647 
L 192.193388 182.020337 
L 195.267769 182.275867 
L 198.342149 182.506847 
L 201.416529 182.715635 
L 204.490909 182.904363 
L 207.565289 183.07496 
L 210.639669 183.229166 
L 213.71405 183.368556 
L 216.78843 183.494555 
L 219.86281 183.608448 
L 222.93719 183.711398 
L 226.01157 183.804458 
L 229.08595 183.888576 
L 232.160331 183.964613 
L 235.234711 184.033345 
L 238.309091 184.095473 
L 241.383471 184.151632 
L 244.457851 184.202395 
L 247.532231 184.248282 
L 250.606612 184.28976 
L 253.680992 184.327252 
L 256.755372 184.361143 
L 259.829752 184.391778 
L 262.904132 184.419469 
L 265.978512 184.4445 
L 269.052893 184.467126 
L 272.127273 184.487578 
L 275.201653 184.506065 
L 278.276033 184.522776 
L 281.350413 184.537881 
L 284.424793 184.551536 
L 287.499174 184.563878 
L 290.573554 184.575035 
L 293.647934 184.585119 
L 296.722314 184.594235 
L 299.796694 184.602475 
L 302.871074 184.609923 
L 305.945455 184.616656 
L 309.019835 184.622742 
L 312.094215 184.628243 
L 315.168595 184.633216 
L 318.242975 184.63771 
L 321.317355 184.641773 
L 324.391736 184.645446 
L 327.466116 184.648766 
L 330.540496 184.651767 
L 333.614876 184.654479 
L 336.689256 184.656931 
L 339.763636 184.659148 
L 342.838017 184.661151 
L 345.912397 184.662962 
L 348.986777 184.664599 
L 352.061157 184.666079 
L 355.135537 184.667416 
L 358.209917 184.668625 
L 361.284298 184.669718 
L 364.358678 184.670706 
L 367.433058 184.671599 
L 370.507438 184.672406 
L 373.581818 184.673136 
" clip-path="url(#pd11f3b96c9)" style="fill: none; stroke: #0000ff; stroke-width: 1.5; stroke-linecap: square"/>
   </g>
   <g id="line2d_10">
    <path d="M 69.218182 184.68 
L 72.292562 170.874617 
L 75.366942 159.721968 
L 78.441322 150.839758 
L 81.515702 143.894662 
L 84.590083 138.596447 
L 87.664463 134.69277 
L 90.738843 131.964573 
L 93.813223 130.222018 
L 96.887603 129.300894 
L 99.961983 129.059447 
L 103.036364 129.375578 
L 106.110744 130.144376 
L 109.185124 131.275941 
L 112.259504 132.693471 
L 115.333884 134.331572 
L 118.408264 136.134776 
L 121.482645 138.056238 
L 124.557025 140.056588 
L 127.631405 142.102933 
L 130.705785 144.16797 
L 133.780165 146.229218 
L 136.854545 148.268344 
L 139.928926 150.270572 
L 143.003306 152.224169 
L 146.077686 154.119999 
L 149.152066 155.951128 
L 152.226446 157.712489 
L 155.300826 159.400586 
L 158.375207 161.013238 
L 161.449587 162.54936 
L 164.523967 164.008772 
L 167.598347 165.392034 
L 170.672727 166.700307 
L 173.747107 167.935233 
L 176.821488 169.098828 
L 179.895868 170.193401 
L 182.970248 171.221473 
L 186.044628 172.185719 
L 189.119008 173.088913 
L 192.193388 173.933887 
L 195.267769 174.72349 
L 198.342149 175.460562 
L 201.416529 176.147909 
L 204.490909 176.788282 
L 207.565289 177.384362 
L 210.639669 177.938749 
L 213.71405 178.453953 
L 216.78843 178.932386 
L 219.86281 179.376356 
L 222.93719 179.788071 
L 226.01157 180.16963 
L 229.08595 180.523027 
L 232.160331 180.850151 
L 235.234711 181.15279 
L 238.309091 181.432627 
L 241.383471 181.691251 
L 244.457851 181.930156 
L 247.532231 182.150742 
L 250.606612 182.354325 
L 253.680992 182.542136 
L 256.755372 182.715326 
L 259.829752 182.874971 
L 262.904132 183.022075 
L 265.978512 183.157574 
L 269.052893 183.28234 
L 272.127273 183.397185 
L 275.201653 183.502864 
L 278.276033 183.600077 
L 281.350413 183.689477 
L 284.424793 183.771666 
L 287.499174 183.847206 
L 290.573554 183.916615 
L 293.647934 183.980374 
L 296.722314 184.038928 
L 299.796694 184.092689 
L 302.871074 184.142037 
L 305.945455 184.187324 
L 309.019835 184.228875 
L 312.094215 184.266989 
L 315.168595 184.301944 
L 318.242975 184.333994 
L 321.317355 184.363376 
L 324.391736 184.390306 
L 327.466116 184.414983 
L 330.540496 184.437593 
L 333.614876 184.458305 
L 336.689256 184.477274 
L 339.763636 184.494645 
L 342.838017 184.510549 
L 345.912397 184.525109 
L 348.986777 184.538434 
L 352.061157 184.550629 
L 355.135537 184.561787 
L 358.209917 184.571996 
L 361.284298 184.581334 
L 364.358678 184.589875 
L 367.433058 184.597685 
L 370.507438 184.604826 
L 373.581818 184.611355 
" clip-path="url(#pd11f3b96c9)" style="fill: none; stroke: #ff0000; stroke-width: 1.5; stroke-linecap: square"/>
   </g>
   <g id="line2d_11">
    <path d="M 69.218182 184.68 
L 72.292562 183.982758 
L 75.366942 182.158987 
L 78.441322 179.552691 
L 81.515702 176.440538 
L 84.590083 173.042739 
L 87.664463 169.532355 
L 90.738843 166.043233 
L 93.813223 162.676775 
L 96.887603 159.507679 
L 99.961983 156.588812 
L 103.036364 153.955321 
L 106.110744 151.628107 
L 109.185124 149.616729 
L 112.259504 147.921848 
L 115.333884 146.537252 
L 118.408264 145.451536 
L 121.482645 144.649497 
L 124.557025 144.113262 
L 127.631405 143.823219 
L 130.705785 143.758758 
L 133.780165 143.898868 
L 136.854545 144.222605 
L 139.928926 144.709452 
L 143.003306 145.339599 
L 146.077686 146.09414 
L 149.152066 146.955218 
L 152.226446 147.906121 
L 155.300826 148.931334 
L 158.375207 150.016561 
L 161.449587 151.148728 
L 164.523967 152.315956 
L 167.598347 153.50753 
L 170.672727 154.713846 
L 173.747107 155.92636 
L 176.821488 157.137525 
L 179.895868 158.340729 
L 182.970248 159.530227 
L 186.044628 160.701077 
L 189.119008 161.849072 
L 192.193388 162.970681 
L 195.267769 164.062984 
L 198.342149 165.123616 
L 201.416529 166.150711 
L 204.490909 167.142848 
L 207.565289 168.099004 
L 210.639669 169.018509 
L 213.71405 169.901 
L 216.78843 170.74639 
L 219.86281 171.554821 
L 222.93719 172.326644 
L 226.01157 173.06238 
L 229.08595 173.762697 
L 232.160331 174.428385 
L 235.234711 175.060335 
L 238.309091 175.65952 
L 241.383471 176.226974 
L 244.457851 176.763782 
L 247.532231 177.271063 
L 250.606612 177.749959 
L 253.680992 178.201624 
L 256.755372 178.627216 
L 259.829752 179.027888 
L 262.904132 179.404783 
L 265.978512 179.759026 
L 269.052893 180.091722 
L 272.127273 180.40395 
L 275.201653 180.696761 
L 278.276033 180.971174 
L 281.350413 181.228176 
L 284.424793 181.468718 
L 287.499174 181.693717 
L 290.573554 181.904054 
L 293.647934 182.10057 
L 296.722314 182.284075 
L 299.796694 182.455337 
L 302.871074 182.615092 
L 305.945455 182.764038 
L 309.019835 182.90284 
L 312.094215 183.032128 
L 315.168595 183.152501 
L 318.242975 183.264523 
L 321.317355 183.368729 
L 324.391736 183.465625 
L 327.466116 183.555687 
L 330.540496 183.639365 
L 333.614876 183.717082 
L 336.689256 183.789236 
L 339.763636 183.856201 
L 342.838017 183.918328 
L 345.912397 183.975948 
L 348.986777 184.02937 
L 352.061157 184.078883 
L 355.135537 184.124759 
L 358.209917 184.167253 
L 361.284298 184.206602 
L 364.358678 184.243028 
L 367.433058 184.276739 
L 370.507438 184.307928 
L 373.581818 184.336777 
" clip-path="url(#pd11f3b96c9)" style="fill: none; stroke: #008000; stroke-width: 1.5; stroke-linecap: square"/>
   </g>
   <g id="patch_3">
    <path d="M 54 192.24 
L 54 25.92 
" style="fill: none; stroke: #000000; stroke-width: 2; stroke-linejoin: miter; stroke-linecap: square"/>
   </g>
   <g id="patch_4">
    <path d="M 388.8 192.24 
L 388.8 25.92 
" style="fill: none; stroke: #000000; stroke-width: 2; stroke-linejoin: miter; stroke-linecap: square"/>
   </g>
   <g id="patch_5">
    <path d="M 54 192.24 
L 388.8 192.24 
" style="fill: none; stroke: #000000; stroke-width: 2; stroke-linejoin: miter; stroke-linecap: square"/>
   </g>
   <g id="patch_6">
    <path d="M 54 25.92 
L 388.8 25.92 
" style="fill: none; stroke: #000000; stroke-width: 2; stroke-linejoin: miter; stroke-linecap: square"/>
   </g>
   <g id="legend_1">
    <g id="patch_7">
     <path d="M 108.38 98.86 
L 379 98.86 
Q 381.8 98.86 381.8 96.06 
L 381.8 35.72 
Q 381.8 32.92 379 32.92 
L 108.38 32.92 
Q 105.58 32.92 105.58 35.72 
L 105.58 96.06 
Q 105.58 98.86 108.38 98.86 
z
" style="fill: #ffffff; opacity: 0.8; stroke: #cccccc; stroke-linejoin: miter"/>
    </g>
    <g id="line2d_12">
     <path d="M 111.18 44.26 
L 125.18 44.26 
L 139.18 44.26 
" style="fill: none; stroke: #0000ff; stroke-width: 1.5; stroke-linecap: square"/>
    </g>
    <g id="text_11">
     <!-- Scenario 1, shape=1, scale=$\tau_{DA}$ -->
     <g transform="translate(150.38 49.16) scale(0.14 -0.14)">
      <defs>
       <path id="DejaVuSans-53" d="M 3425 4513 
L 3425 3897 
Q 3066 4069 2747 4153 
Q 2428 4238 2131 4238 
Q 1616 4238 1336 4038 
Q 1056 3838 1056 3469 
Q 1056 3159 1242 3001 
Q 1428 2844 1947 2747 
L 2328 2669 
Q 3034 2534 3370 2195 
Q 3706 1856 3706 1288 
Q 3706 609 3251 259 
Q 2797 -91 1919 -91 
Q 1588 -91 1214 -16 
Q 841 59 441 206 
L 441 856 
Q 825 641 1194 531 
Q 1563 422 1919 422 
Q 2459 422 2753 634 
Q 3047 847 3047 1241 
Q 3047 1584 2836 1778 
Q 2625 1972 2144 2069 
L 1759 2144 
Q 1053 2284 737 2584 
Q 422 2884 422 3419 
Q 422 4038 858 4394 
Q 1294 4750 2059 4750 
Q 2388 4750 2728 4690 
Q 3069 4631 3425 4513 
z
" transform="scale(0.015625)"/>
       <path id="DejaVuSans-63" d="M 3122 3366 
L 3122 2828 
Q 2878 2963 2633 3030 
Q 2388 3097 2138 3097 
Q 1578 3097 1268 2742 
Q 959 2388 959 1747 
Q 959 1106 1268 751 
Q 1578 397 2138 397 
Q 2388 397 2633 464 
Q 2878 531 3122 666 
L 3122 134 
Q 2881 22 2623 -34 
Q 2366 -91 2075 -91 
Q 1284 -91 818 406 
Q 353 903 353 1747 
Q 353 2603 823 3093 
Q 1294 3584 2113 3584 
Q 2378 3584 2631 3529 
Q 2884 3475 3122 3366 
z
" transform="scale(0.015625)"/>
       <path id="DejaVuSans-65" d="M 3597 1894 
L 3597 1613 
L 953 1613 
Q 991 1019 1311 708 
Q 1631 397 2203 397 
Q 2534 397 2845 478 
Q 3156 559 3463 722 
L 3463 178 
Q 3153 47 2828 -22 
Q 2503 -91 2169 -91 
Q 1331 -91 842 396 
Q 353 884 353 1716 
Q 353 2575 817 3079 
Q 1281 3584 2069 3584 
Q 2775 3584 3186 3129 
Q 3597 2675 3597 1894 
z
M 3022 2063 
Q 3016 2534 2758 2815 
Q 2500 3097 2075 3097 
Q 1594 3097 1305 2825 
Q 1016 2553 972 2059 
L 3022 2063 
z
" transform="scale(0.015625)"/>
       <path id="DejaVuSans-6e" d="M 3513 2113 
L 3513 0 
L 2938 0 
L 2938 2094 
Q 2938 2591 2744 2837 
Q 2550 3084 2163 3084 
Q 1697 3084 1428 2787 
Q 1159 2491 1159 1978 
L 1159 0 
L 581 0 
L 581 3500 
L 1159 3500 
L 1159 2956 
Q 1366 3272 1645 3428 
Q 1925 3584 2291 3584 
Q 2894 3584 3203 3211 
Q 3513 2838 3513 2113 
z
" transform="scale(0.015625)"/>
       <path id="DejaVuSans-61" d="M 2194 1759 
Q 1497 1759 1228 1600 
Q 959 1441 959 1056 
Q 959 750 1161 570 
Q 1363 391 1709 391 
Q 2188 391 2477 730 
Q 2766 1069 2766 1631 
L 2766 1759 
L 2194 1759 
z
M 3341 1997 
L 3341 0 
L 2766 0 
L 2766 531 
Q 2569 213 2275 61 
Q 1981 -91 1556 -91 
Q 1019 -91 701 211 
Q 384 513 384 1019 
Q 384 1609 779 1909 
Q 1175 2209 1959 2209 
L 2766 2209 
L 2766 2266 
Q 2766 2663 2505 2880 
Q 2244 3097 1772 3097 
Q 1472 3097 1187 3025 
Q 903 2953 641 2809 
L 641 3341 
Q 956 3463 1253 3523 
Q 1550 3584 1831 3584 
Q 2591 3584 2966 3190 
Q 3341 2797 3341 1997 
z
" transform="scale(0.015625)"/>
       <path id="DejaVuSans-72" d="M 2631 2963 
Q 2534 3019 2420 3045 
Q 2306 3072 2169 3072 
Q 1681 3072 1420 2755 
Q 1159 2438 1159 1844 
L 1159 0 
L 581 0 
L 581 3500 
L 1159 3500 
L 1159 2956 
Q 1341 3275 1631 3429 
Q 1922 3584 2338 3584 
Q 2397 3584 2469 3576 
Q 2541 3569 2628 3553 
L 2631 2963 
z
" transform="scale(0.015625)"/>
       <path id="DejaVuSans-69" d="M 603 3500 
L 1178 3500 
L 1178 0 
L 603 0 
L 603 3500 
z
M 603 4863 
L 1178 4863 
L 1178 4134 
L 603 4134 
L 603 4863 
z
" transform="scale(0.015625)"/>
       <path id="DejaVuSans-6f" d="M 1959 3097 
Q 1497 3097 1228 2736 
Q 959 2375 959 1747 
Q 959 1119 1226 758 
Q 1494 397 1959 397 
Q 2419 397 2687 759 
Q 2956 1122 2956 1747 
Q 2956 2369 2687 2733 
Q 2419 3097 1959 3097 
z
M 1959 3584 
Q 2709 3584 3137 3096 
Q 3566 2609 3566 1747 
Q 3566 888 3137 398 
Q 2709 -91 1959 -91 
Q 1206 -91 779 398 
Q 353 888 353 1747 
Q 353 2609 779 3096 
Q 1206 3584 1959 3584 
z
" transform="scale(0.015625)"/>
       <path id="DejaVuSans-20" transform="scale(0.015625)"/>
       <path id="DejaVuSans-2c" d="M 750 794 
L 1409 794 
L 1409 256 
L 897 -744 
L 494 -744 
L 750 256 
L 750 794 
z
" transform="scale(0.015625)"/>
       <path id="DejaVuSans-73" d="M 2834 3397 
L 2834 2853 
Q 2591 2978 2328 3040 
Q 2066 3103 1784 3103 
Q 1356 3103 1142 2972 
Q 928 2841 928 2578 
Q 928 2378 1081 2264 
Q 1234 2150 1697 2047 
L 1894 2003 
Q 2506 1872 2764 1633 
Q 3022 1394 3022 966 
Q 3022 478 2636 193 
Q 2250 -91 1575 -91 
Q 1294 -91 989 -36 
Q 684 19 347 128 
L 347 722 
Q 666 556 975 473 
Q 1284 391 1588 391 
Q 1994 391 2212 530 
Q 2431 669 2431 922 
Q 2431 1156 2273 1281 
Q 2116 1406 1581 1522 
L 1381 1569 
Q 847 1681 609 1914 
Q 372 2147 372 2553 
Q 372 3047 722 3315 
Q 1072 3584 1716 3584 
Q 2034 3584 2315 3537 
Q 2597 3491 2834 3397 
z
" transform="scale(0.015625)"/>
       <path id="DejaVuSans-68" d="M 3513 2113 
L 3513 0 
L 2938 0 
L 2938 2094 
Q 2938 2591 2744 2837 
Q 2550 3084 2163 3084 
Q 1697 3084 1428 2787 
Q 1159 2491 1159 1978 
L 1159 0 
L 581 0 
L 581 4863 
L 1159 4863 
L 1159 2956 
Q 1366 3272 1645 3428 
Q 1925 3584 2291 3584 
Q 2894 3584 3203 3211 
Q 3513 2838 3513 2113 
z
" transform="scale(0.015625)"/>
       <path id="DejaVuSans-70" d="M 1159 525 
L 1159 -1331 
L 581 -1331 
L 581 3500 
L 1159 3500 
L 1159 2969 
Q 1341 3281 1617 3432 
Q 1894 3584 2278 3584 
Q 2916 3584 3314 3078 
Q 3713 2572 3713 1747 
Q 3713 922 3314 415 
Q 2916 -91 2278 -91 
Q 1894 -91 1617 61 
Q 1341 213 1159 525 
z
M 3116 1747 
Q 3116 2381 2855 2742 
Q 2594 3103 2138 3103 
Q 1681 3103 1420 2742 
Q 1159 2381 1159 1747 
Q 1159 1113 1420 752 
Q 1681 391 2138 391 
Q 2594 391 2855 752 
Q 3116 1113 3116 1747 
z
" transform="scale(0.015625)"/>
       <path id="DejaVuSans-3d" d="M 678 2906 
L 4684 2906 
L 4684 2381 
L 678 2381 
L 678 2906 
z
M 678 1631 
L 4684 1631 
L 4684 1100 
L 678 1100 
L 678 1631 
z
" transform="scale(0.015625)"/>
       <path id="DejaVuSans-6c" d="M 603 4863 
L 1178 4863 
L 1178 0 
L 603 0 
L 603 4863 
z
" transform="scale(0.015625)"/>
       <path id="DejaVuSans-Oblique-3c4" d="M 2103 638 
Q 2188 488 2525 488 
L 2800 488 
L 2706 0 
L 2363 0 
Q 1800 0 1600 300 
Q 1403 606 1534 1269 
L 1856 2925 
L 541 2925 
L 653 3500 
L 3881 3500 
L 3769 2925 
L 2444 2925 
L 2113 1234 
Q 2025 781 2103 638 
z
" transform="scale(0.015625)"/>
       <path id="DejaVuSans-Oblique-44" d="M 1081 4666 
L 2438 4666 
Q 3519 4666 4070 4208 
Q 4622 3750 4622 2847 
Q 4622 2250 4412 1698 
Q 4203 1147 3834 769 
Q 3463 381 2891 190 
Q 2319 0 1538 0 
L 172 0 
L 1081 4666 
z
M 1613 4147 
L 909 519 
L 1734 519 
Q 2794 519 3375 1128 
Q 3956 1738 3956 2847 
Q 3956 3519 3581 3833 
Q 3206 4147 2406 4147 
L 1613 4147 
z
" transform="scale(0.015625)"/>
       <path id="DejaVuSans-Oblique-41" d="M 2356 4666 
L 3072 4666 
L 3938 0 
L 3278 0 
L 3084 1197 
L 984 1197 
L 325 0 
L -341 0 
L 2356 4666 
z
M 2584 4044 
L 1275 1722 
L 2988 1722 
L 2584 4044 
z
" transform="scale(0.015625)"/>
      </defs>
      <use xlink:href="#DejaVuSans-53" transform="translate(0 0.015625)"/>
      <use xlink:href="#DejaVuSans-63" transform="translate(63.476562 0.015625)"/>
      <use xlink:href="#DejaVuSans-65" transform="translate(118.457031 0.015625)"/>
      <use xlink:href="#DejaVuSans-6e" transform="translate(179.980469 0.015625)"/>
      <use xlink:href="#DejaVuSans-61" transform="translate(243.359375 0.015625)"/>
      <use xlink:href="#DejaVuSans-72" transform="translate(304.638672 0.015625)"/>
      <use xlink:href="#DejaVuSans-69" transform="translate(345.751953 0.015625)"/>
      <use xlink:href="#DejaVuSans-6f" transform="translate(373.535156 0.015625)"/>
      <use xlink:href="#DejaVuSans-20" transform="translate(434.716797 0.015625)"/>
      <use xlink:href="#DejaVuSans-31" transform="translate(466.503906 0.015625)"/>
      <use xlink:href="#DejaVuSans-2c" transform="translate(530.126953 0.015625)"/>
      <use xlink:href="#DejaVuSans-20" transform="translate(561.914062 0.015625)"/>
      <use xlink:href="#DejaVuSans-73" transform="translate(593.701172 0.015625)"/>
      <use xlink:href="#DejaVuSans-68" transform="translate(645.800781 0.015625)"/>
      <use xlink:href="#DejaVuSans-61" transform="translate(709.179688 0.015625)"/>
      <use xlink:href="#DejaVuSans-70" transform="translate(770.458984 0.015625)"/>
      <use xlink:href="#DejaVuSans-65" transform="translate(833.935547 0.015625)"/>
      <use xlink:href="#DejaVuSans-3d" transform="translate(895.458984 0.015625)"/>
      <use xlink:href="#DejaVuSans-31" transform="translate(979.248047 0.015625)"/>
      <use xlink:href="#DejaVuSans-2c" transform="translate(1042.871094 0.015625)"/>
      <use xlink:href="#DejaVuSans-20" transform="translate(1074.658203 0.015625)"/>
      <use xlink:href="#DejaVuSans-73" transform="translate(1106.445312 0.015625)"/>
      <use xlink:href="#DejaVuSans-63" transform="translate(1158.544922 0.015625)"/>
      <use xlink:href="#DejaVuSans-61" transform="translate(1213.525391 0.015625)"/>
      <use xlink:href="#DejaVuSans-6c" transform="translate(1274.804688 0.015625)"/>
      <use xlink:href="#DejaVuSans-65" transform="translate(1302.587891 0.015625)"/>
      <use xlink:href="#DejaVuSans-3d" transform="translate(1364.111328 0.015625)"/>
      <use xlink:href="#DejaVuSans-Oblique-3c4" transform="translate(1447.900391 0.015625)"/>
      <use xlink:href="#DejaVuSans-Oblique-44" transform="translate(1508.105469 -16.390625) scale(0.7)"/>
      <use xlink:href="#DejaVuSans-Oblique-41" transform="translate(1562.006836 -16.390625) scale(0.7)"/>
     </g>
    </g>
    <g id="line2d_13">
     <path d="M 111.18 64.84 
L 125.18 64.84 
L 139.18 64.84 
" style="fill: none; stroke: #ff0000; stroke-width: 1.5; stroke-linecap: square"/>
    </g>
    <g id="text_12">
     <!-- Scenario 2, shape=2, scale=$\tau_{DA}$ -->
     <g transform="translate(150.38 69.74) scale(0.14 -0.14)">
      <use xlink:href="#DejaVuSans-53" transform="translate(0 0.015625)"/>
      <use xlink:href="#DejaVuSans-63" transform="translate(63.476562 0.015625)"/>
      <use xlink:href="#DejaVuSans-65" transform="translate(118.457031 0.015625)"/>
      <use xlink:href="#DejaVuSans-6e" transform="translate(179.980469 0.015625)"/>
      <use xlink:href="#DejaVuSans-61" transform="translate(243.359375 0.015625)"/>
      <use xlink:href="#DejaVuSans-72" transform="translate(304.638672 0.015625)"/>
      <use xlink:href="#DejaVuSans-69" transform="translate(345.751953 0.015625)"/>
      <use xlink:href="#DejaVuSans-6f" transform="translate(373.535156 0.015625)"/>
      <use xlink:href="#DejaVuSans-20" transform="translate(434.716797 0.015625)"/>
      <use xlink:href="#DejaVuSans-32" transform="translate(466.503906 0.015625)"/>
      <use xlink:href="#DejaVuSans-2c" transform="translate(530.126953 0.015625)"/>
      <use xlink:href="#DejaVuSans-20" transform="translate(561.914062 0.015625)"/>
      <use xlink:href="#DejaVuSans-73" transform="translate(593.701172 0.015625)"/>
      <use xlink:href="#DejaVuSans-68" transform="translate(645.800781 0.015625)"/>
      <use xlink:href="#DejaVuSans-61" transform="translate(709.179688 0.015625)"/>
      <use xlink:href="#DejaVuSans-70" transform="translate(770.458984 0.015625)"/>
      <use xlink:href="#DejaVuSans-65" transform="translate(833.935547 0.015625)"/>
      <use xlink:href="#DejaVuSans-3d" transform="translate(895.458984 0.015625)"/>
      <use xlink:href="#DejaVuSans-32" transform="translate(979.248047 0.015625)"/>
      <use xlink:href="#DejaVuSans-2c" transform="translate(1042.871094 0.015625)"/>
      <use xlink:href="#DejaVuSans-20" transform="translate(1074.658203 0.015625)"/>
      <use xlink:href="#DejaVuSans-73" transform="translate(1106.445312 0.015625)"/>
      <use xlink:href="#DejaVuSans-63" transform="translate(1158.544922 0.015625)"/>
      <use xlink:href="#DejaVuSans-61" transform="translate(1213.525391 0.015625)"/>
      <use xlink:href="#DejaVuSans-6c" transform="translate(1274.804688 0.015625)"/>
      <use xlink:href="#DejaVuSans-65" transform="translate(1302.587891 0.015625)"/>
      <use xlink:href="#DejaVuSans-3d" transform="translate(1364.111328 0.015625)"/>
      <use xlink:href="#DejaVuSans-Oblique-3c4" transform="translate(1447.900391 0.015625)"/>
      <use xlink:href="#DejaVuSans-Oblique-44" transform="translate(1508.105469 -16.390625) scale(0.7)"/>
      <use xlink:href="#DejaVuSans-Oblique-41" transform="translate(1562.006836 -16.390625) scale(0.7)"/>
     </g>
    </g>
    <g id="line2d_14">
     <path d="M 111.18 85.42 
L 125.18 85.42 
L 139.18 85.42 
" style="fill: none; stroke: #008000; stroke-width: 1.5; stroke-linecap: square"/>
    </g>
    <g id="text_13">
     <!-- Scenario 3, shape=3, scale=$\tau_{DA}$ -->
     <g transform="translate(150.38 90.32) scale(0.14 -0.14)">
      <defs>
       <path id="DejaVuSans-33" d="M 2597 2516 
Q 3050 2419 3304 2112 
Q 3559 1806 3559 1356 
Q 3559 666 3084 287 
Q 2609 -91 1734 -91 
Q 1441 -91 1130 -33 
Q 819 25 488 141 
L 488 750 
Q 750 597 1062 519 
Q 1375 441 1716 441 
Q 2309 441 2620 675 
Q 2931 909 2931 1356 
Q 2931 1769 2642 2001 
Q 2353 2234 1838 2234 
L 1294 2234 
L 1294 2753 
L 1863 2753 
Q 2328 2753 2575 2939 
Q 2822 3125 2822 3475 
Q 2822 3834 2567 4026 
Q 2313 4219 1838 4219 
Q 1578 4219 1281 4162 
Q 984 4106 628 3988 
L 628 4550 
Q 988 4650 1302 4700 
Q 1616 4750 1894 4750 
Q 2613 4750 3031 4423 
Q 3450 4097 3450 3541 
Q 3450 3153 3228 2886 
Q 3006 2619 2597 2516 
z
" transform="scale(0.015625)"/>
      </defs>
      <use xlink:href="#DejaVuSans-53" transform="translate(0 0.015625)"/>
      <use xlink:href="#DejaVuSans-63" transform="translate(63.476562 0.015625)"/>
      <use xlink:href="#DejaVuSans-65" transform="translate(118.457031 0.015625)"/>
      <use xlink:href="#DejaVuSans-6e" transform="translate(179.980469 0.015625)"/>
      <use xlink:href="#DejaVuSans-61" transform="translate(243.359375 0.015625)"/>
      <use xlink:href="#DejaVuSans-72" transform="translate(304.638672 0.015625)"/>
      <use xlink:href="#DejaVuSans-69" transform="translate(345.751953 0.015625)"/>
      <use xlink:href="#DejaVuSans-6f" transform="translate(373.535156 0.015625)"/>
      <use xlink:href="#DejaVuSans-20" transform="translate(434.716797 0.015625)"/>
      <use xlink:href="#DejaVuSans-33" transform="translate(466.503906 0.015625)"/>
      <use xlink:href="#DejaVuSans-2c" transform="translate(530.126953 0.015625)"/>
      <use xlink:href="#DejaVuSans-20" transform="translate(561.914062 0.015625)"/>
      <use xlink:href="#DejaVuSans-73" transform="translate(593.701172 0.015625)"/>
      <use xlink:href="#DejaVuSans-68" transform="translate(645.800781 0.015625)"/>
      <use xlink:href="#DejaVuSans-61" transform="translate(709.179688 0.015625)"/>
      <use xlink:href="#DejaVuSans-70" transform="translate(770.458984 0.015625)"/>
      <use xlink:href="#DejaVuSans-65" transform="translate(833.935547 0.015625)"/>
      <use xlink:href="#DejaVuSans-3d" transform="translate(895.458984 0.015625)"/>
      <use xlink:href="#DejaVuSans-33" transform="translate(979.248047 0.015625)"/>
      <use xlink:href="#DejaVuSans-2c" transform="translate(1042.871094 0.015625)"/>
      <use xlink:href="#DejaVuSans-20" transform="translate(1074.658203 0.015625)"/>
      <use xlink:href="#DejaVuSans-73" transform="translate(1106.445312 0.015625)"/>
      <use xlink:href="#DejaVuSans-63" transform="translate(1158.544922 0.015625)"/>
      <use xlink:href="#DejaVuSans-61" transform="translate(1213.525391 0.015625)"/>
      <use xlink:href="#DejaVuSans-6c" transform="translate(1274.804688 0.015625)"/>
      <use xlink:href="#DejaVuSans-65" transform="translate(1302.587891 0.015625)"/>
      <use xlink:href="#DejaVuSans-3d" transform="translate(1364.111328 0.015625)"/>
      <use xlink:href="#DejaVuSans-Oblique-3c4" transform="translate(1447.900391 0.015625)"/>
      <use xlink:href="#DejaVuSans-Oblique-44" transform="translate(1508.105469 -16.390625) scale(0.7)"/>
      <use xlink:href="#DejaVuSans-Oblique-41" transform="translate(1562.006836 -16.390625) scale(0.7)"/>
     </g>
    </g>
   </g>
  </g>
 </g>
 <defs>
  <clipPath id="pd11f3b96c9">
   <rect x="54" y="25.92" width="334.8" height="166.32"/>
  </clipPath>
 </defs>
</svg>
